<svg width="390" height="457" viewBox="0 0 390 457" fill="none" xmlns="http://www.w3.org/2000/svg">
<g clip-path="url(#clip0_204_162)">
<path d="M337.392 274.464C339.36 261.779 346.481 216.026 316.112 182.266C295.618 159.516 279.5 166.024 250.888 146.363C186.478 102.1 217.022 33.9741 164.383 8.20487C133.318 -7.00004 90.912 1.15176 65.8695 14.2515C5.7345 45.7062 0.96582 129.122 19.7751 183.488C42.1633 248.21 92.0836 254.71 87.7542 304.482C85.347 332.333 65.421 380.199 57.0735 400.252C50.5383 415.971 39.152 441.379 52.0943 452.159C56.2314 455.601 61.769 456.646 65.8695 456.984L351.808 451.998C356.247 451.951 363.551 451.368 366.682 447.342C377.986 432.82 313.064 401.719 308.551 353.17C305.714 322.56 330.161 320.931 337.392 274.464Z" fill="#A7B0CE"/>
</g>
<g opacity="0.79">
<path opacity="0.79" d="M8.28725 298.425V317.368H-29.4775" stroke="#DBBA95" stroke-width="4" stroke-miterlimit="10" stroke-linecap="round" stroke-linejoin="round"/>
<path opacity="0.79" d="M46.1127 317.368H8.28687V298.425" stroke="#DBBA95" stroke-width="4" stroke-miterlimit="10" stroke-linecap="round" stroke-linejoin="round"/>
<path opacity="0.79" d="M27.2304 317.368H-10.5955V336.251H27.2304V317.368Z" stroke="#DBBA95" stroke-width="4" stroke-miterlimit="10" stroke-linecap="round" stroke-linejoin="round"/>
<path opacity="0.79" d="M19.0419 355.133H8.28687V336.251H46.1127" stroke="#DBBA95" stroke-width="4" stroke-miterlimit="10" stroke-linecap="round" stroke-linejoin="round"/>
<path opacity="0.79" d="M-29.4775 336.251H8.28725V355.133H-22.3279" stroke="#DBBA95" stroke-width="4" stroke-miterlimit="10" stroke-linecap="round" stroke-linejoin="round"/>
<path opacity="0.79" d="M54.4847 336.251H27.2305V317.368H40.3076" stroke="#DBBA95" stroke-width="4" stroke-miterlimit="10" stroke-linecap="round" stroke-linejoin="round"/>
</g>
<g opacity="0.79">
<path opacity="0.79" d="M365.28 192.769V211.712H403.106" stroke="#DBBA95" stroke-width="4" stroke-miterlimit="10" stroke-linecap="round" stroke-linejoin="round"/>
<path opacity="0.79" d="M327.454 211.712H365.28V192.769" stroke="#DBBA95" stroke-width="4" stroke-miterlimit="10" stroke-linecap="round" stroke-linejoin="round"/>
<path opacity="0.79" d="M346.351 230.554L384.177 230.554L384.177 211.672L346.351 211.672L346.351 230.554Z" stroke="#DBBA95" stroke-width="4" stroke-miterlimit="10" stroke-linecap="round" stroke-linejoin="round"/>
<path opacity="0.79" d="M354.525 249.477H365.28V230.595H327.454" stroke="#DBBA95" stroke-width="4" stroke-miterlimit="10" stroke-linecap="round" stroke-linejoin="round"/>
<path opacity="0.79" d="M403.106 230.595H365.28V249.477H379.457" stroke="#DBBA95" stroke-width="4" stroke-miterlimit="10" stroke-linecap="round" stroke-linejoin="round"/>
<path opacity="0.79" d="M416 211.713H384.163V230.595H403.106" stroke="#DBBA95" stroke-width="4" stroke-miterlimit="10" stroke-linecap="round" stroke-linejoin="round"/>
<path opacity="0.79" d="M319.083 230.595H346.398V211.713H333.26" stroke="#DBBA95" stroke-width="4" stroke-miterlimit="10" stroke-linecap="round" stroke-linejoin="round"/>
</g>
<path d="M99 321H85V378H99V321Z" fill="#C3F3F7"/>
<path d="M99 321H85V339H99V321Z" fill="#93C4C6"/>
<path d="M99 321H85V378H99V321Z" stroke="#1B3242" stroke-width="4" stroke-miterlimit="10" stroke-linecap="round" stroke-linejoin="round"/>
<path d="M121.966 174H65.0945C55.2513 174 45.8942 177.991 39.2713 185.139C24.9318 200.626 16 222.19 16 246.076C16 255.487 17.3975 264.542 19.9494 273H167.051C169.603 264.542 171 255.487 171 246.076C171 222.19 162.068 200.626 147.729 185.139C141.167 177.991 131.809 174 121.966 174Z" fill="#F9263B"/>
<path d="M121.966 174H65.0945C55.2513 174 45.8942 177.991 39.2713 185.139C24.9318 200.626 16 222.19 16 246.076C16 255.487 17.3975 264.542 19.9494 273H167.051C169.603 264.542 171 255.487 171 246.076C171 222.19 162.068 200.626 147.729 185.139C141.167 177.991 131.809 174 121.966 174Z" fill="#EF3946"/>
<path opacity="0.64" d="M148.324 182.364C141.561 175.072 131.908 171 121.825 171H63.4161C53.3329 171 43.6801 175.072 36.9169 182.364C22.161 198.164 13 220.163 13 244.532C13 254.134 14.4141 263.371 17.0579 272H21.4847C19.3328 264.404 18.1031 256.321 18.1031 247.874C18.1031 225.085 26.6492 204.484 40.4214 189.717C46.7542 182.911 55.7922 179.082 65.1991 179.082H119.796C129.203 179.082 138.241 182.911 144.574 189.717C158.346 204.484 166.892 225.085 166.892 247.874C166.892 256.261 165.724 264.343 163.51 272H167.937C170.581 263.371 171.995 254.134 171.995 244.532C172.241 220.163 163.08 198.164 148.324 182.364Z" fill="#FCFCFC"/>
<path d="M121.966 174H65.0945C55.2513 174 45.8942 177.991 39.2713 185.139C24.9318 200.626 16 222.19 16 246.076C16 255.487 17.3975 264.542 19.9494 273H167.051C169.603 264.542 171 255.487 171 246.076C171 222.19 162.068 200.626 147.729 185.139C141.167 177.991 131.809 174 121.966 174Z" stroke="#1B3242" stroke-width="4" stroke-miterlimit="10" stroke-linecap="round" stroke-linejoin="round"/>
<path d="M-8 237.511L17.6261 227C17.6261 227 29.3739 233.126 41.5478 245.139C54.2696 257.692 55 267.903 55 267.903L35.6435 284L-8 237.511Z" fill="white"/>
<path d="M-8 237.511L17.6261 227C17.6261 227 29.3739 233.126 41.5478 245.139C54.2696 257.692 55 267.903 55 267.903L35.6435 284L-8 237.511Z" fill="#D12845"/>
<path opacity="0.64" d="M-2.49647 243.097L22.1522 232.586C22.1522 232.586 31.5199 237.691 42 247.662C41.2974 246.821 40.5363 245.98 39.6581 245.139C27.9485 233.126 16.6487 227 16.6487 227L-8 237.511L34.0375 284L34.2717 283.82L-2.49647 243.097Z" fill="#FCFCFC"/>
<path d="M-8 237.511L17.6261 227C17.6261 227 29.3739 233.126 41.5478 245.139C54.2696 257.692 55 267.903 55 267.903L35.6435 284L-8 237.511Z" stroke="#1B3242" stroke-width="4" stroke-miterlimit="10" stroke-linecap="round" stroke-linejoin="round"/>
<path d="M193 237.511L168.187 227C168.187 227 156.813 233.126 145.025 245.139C132.707 257.692 132 267.903 132 267.903L150.742 284L193 237.511Z" fill="#D12845"/>
<path opacity="0.64" d="M167.406 227C167.406 227 155.976 232.946 144 244.659C153.119 237.091 160.475 233.187 160.475 233.187L186.069 243.698L148.742 283.52L149.35 284L193 237.511L167.406 227Z" fill="#FCFCFC"/>
<path d="M193 237.511L168.187 227C168.187 227 156.813 233.126 145.025 245.139C132.707 257.692 132 267.903 132 267.903L150.742 284L193 237.511Z" stroke="#1B3242" stroke-width="4" stroke-miterlimit="10" stroke-linecap="round" stroke-linejoin="round"/>
<path d="M368 383H376" stroke="#1B3242" stroke-width="4" stroke-miterlimit="10" stroke-linecap="round" stroke-linejoin="round"/>
<path d="M387 383H390" stroke="#1B3242" stroke-width="4" stroke-miterlimit="10" stroke-linecap="round" stroke-linejoin="round"/>
<path d="M178 383H358" stroke="#1B3242" stroke-width="4" stroke-miterlimit="10" stroke-linecap="round" stroke-linejoin="round"/>
<path d="M-107 383H168" stroke="#1B3242" stroke-width="4" stroke-miterlimit="10" stroke-linecap="round" stroke-linejoin="round"/>
<path d="M133.328 262C121.699 264.36 107.906 265.726 93.0608 265.726C78.2157 265.726 64.4222 264.36 52.7936 262C44.2576 267.092 39 273.86 39 281.188C39 297.084 63.1851 310 92.9989 310C122.813 310 146.998 297.084 146.998 281.188C147.122 273.86 141.864 267.154 133.328 262Z" fill="#FF485E"/>
<path opacity="0.36" d="M93 289.778C69.0619 289.778 48.5876 284.094 39.7423 276C39.2474 277.435 39 278.87 39 280.363C39 295.059 63.1856 307 93 307C122.814 307 147 295.059 147 280.363C147 278.87 146.753 277.435 146.258 276C137.474 284.094 116.938 289.778 93 289.778Z" fill="#7BB448"/>
<path d="M133.328 262C121.699 264.36 107.906 265.726 93.0608 265.726C78.2157 265.726 64.4222 264.36 52.7936 262C44.2576 267.092 39 273.86 39 281.188C39 297.084 63.1851 310 92.9989 310C122.813 310 146.998 297.084 146.998 281.188C147.122 273.86 141.864 267.154 133.328 262Z" stroke="#303030" stroke-width="4" stroke-miterlimit="10" stroke-linecap="round" stroke-linejoin="round"/>
<path d="M133.328 262C121.699 264.36 107.906 265.726 93.0608 265.726C78.2157 265.726 64.4222 264.36 52.7936 262C44.2576 267.092 39 273.86 39 281.188C39 297.084 63.1851 310 92.9989 310C122.813 310 146.998 297.084 146.998 281.188C147.122 273.86 141.864 267.154 133.328 262Z" stroke="#1B3242" stroke-width="4" stroke-miterlimit="10" stroke-linecap="round" stroke-linejoin="round"/>
<path d="M92.5 297.063C55.7589 297.063 22.7407 275.01 -0.329248 239.809C-1.48885 238.016 -3.5029 237 -5.63902 237C-10.2774 237 -13.39 241.781 -11.376 245.845C11.3278 292.461 49.4116 323 92.5 323C135.588 323 173.672 292.461 196.376 245.845C198.39 241.721 195.277 237 190.639 237C188.503 237 186.489 238.076 185.329 239.809C162.32 275.01 129.241 297.063 92.5 297.063Z" fill="#EF3946"/>
<path opacity="0.64" d="M92 302C130.891 302 165.99 277.121 191 237.058C190.755 237.058 190.572 237 190.327 237C188.187 237 186.169 238.051 185.007 239.745C161.954 274.143 128.812 295.693 92 295.693C55.1884 295.693 22.1069 274.143 -1.0074 239.745C-2.16923 237.993 -4.18715 237 -6.32736 237C-6.57195 237 -6.81655 237 -7 237.058C18.071 277.121 53.1705 302 92 302Z" fill="#FCFCFC"/>
<path opacity="0.29" d="M194.956 238C194.895 238.12 194.895 238.241 194.834 238.361C172.438 285.316 134.967 316.077 92.4931 316.077C50.0187 316.077 12.5485 285.316 -9.84823 238.361C-9.90926 238.241 -9.90927 238.12 -9.97029 238C-11.8621 239.746 -12.6554 242.635 -11.3739 245.284C11.3279 292.239 49.4084 323 92.4931 323C135.578 323 173.658 292.239 196.36 245.284C197.642 242.635 196.909 239.806 194.956 238Z" fill="#7BB448"/>
<path d="M92.5 297.063C55.7589 297.063 22.7407 275.01 -0.329249 239.809C-1.48885 238.016 -3.50291 237 -5.63902 237C-10.2774 237 -13.39 241.781 -11.376 245.845C11.3278 292.461 49.4116 323 92.5 323C135.588 323 173.672 292.461 196.376 245.845C198.39 241.721 195.277 237 190.639 237C188.503 237 186.489 238.076 185.329 239.809C162.32 275.01 129.241 297.063 92.5 297.063Z" stroke="#1B3242" stroke-width="4" stroke-miterlimit="10" stroke-linecap="round" stroke-linejoin="round"/>
<path d="M130.76 383H53.18C51.44 383 50 381.415 50 379.5C50 377.585 51.44 376 53.18 376H130.82C132.56 376 134 377.585 134 379.5C133.94 381.415 132.56 383 130.76 383Z" fill="#303030"/>
<path d="M130.76 383H53.18C51.44 383 50 381.415 50 379.5C50 377.585 51.44 376 53.18 376H130.82C132.56 376 134 377.585 134 379.5C133.94 381.415 132.56 383 130.76 383Z" stroke="#1B3242" stroke-width="4" stroke-miterlimit="10" stroke-linecap="round" stroke-linejoin="round"/>
<path d="M-2 146H-92L-77.4103 68H-16.5897L-2 146Z" stroke="#1B3242" stroke-width="4" stroke-miterlimit="10" stroke-linecap="round" stroke-linejoin="round"/>
<path d="M94 47H19V124H94V47Z" fill="white"/>
<path d="M94 47H19V124H94V47Z" stroke="#1B3242" stroke-width="4" stroke-miterlimit="10" stroke-linecap="round" stroke-linejoin="round"/>
<path d="M84 112L84 59L29 59L29 112H84Z" fill="#45B543"/>
<path d="M84 112L84 59L29 59L29 112H84Z" stroke="#1B3242" stroke-width="4" stroke-miterlimit="10" stroke-linecap="round" stroke-linejoin="round"/>
<path d="M178 23H113V71H178V23Z" fill="white"/>
<path d="M178 23H113V71H178V23Z" stroke="#1B3242" stroke-width="4" stroke-miterlimit="10" stroke-linecap="round" stroke-linejoin="round"/>
<path d="M168 61V34L120 34V61L168 61Z" fill="#1AC7CE"/>
<path d="M161 92H113V155H161V92Z" fill="white"/>
<path d="M152 146V102H120V146H152Z" fill="#FFD55C"/>
<path d="M168 61V34L120 34V61L168 61Z" stroke="#1B3242" stroke-width="4" stroke-miterlimit="10" stroke-linecap="round" stroke-linejoin="round"/>
<path d="M152 146V102H120V146H152Z" stroke="#1B3242" stroke-width="4" stroke-miterlimit="10" stroke-linecap="round" stroke-linejoin="round"/>
<path d="M161 92H113V155H161V92Z" stroke="#1B3242" stroke-width="4" stroke-miterlimit="10" stroke-linecap="round" stroke-linejoin="round"/>
<path opacity="0.64" d="M91 232C94.866 232 98 228.866 98 225C98 221.134 94.866 218 91 218C87.134 218 84 221.134 84 225C84 228.866 87.134 232 91 232Z" fill="#FCFCFC"/>
<path d="M91 232C94.866 232 98 228.866 98 225C98 221.134 94.866 218 91 218C87.134 218 84 221.134 84 225C84 228.866 87.134 232 91 232Z" stroke="#1B3242" stroke-width="4" stroke-miterlimit="10" stroke-linecap="round" stroke-linejoin="round"/>
<path d="M52 414H100" stroke="#1D2F3D" stroke-width="4" stroke-miterlimit="10" stroke-linecap="round" stroke-linejoin="round"/>
<path d="M31 414H42" stroke="#1D2F3D" stroke-width="4" stroke-miterlimit="10" stroke-linecap="round" stroke-linejoin="round"/>
<path d="M268.608 367.843H250.275V382.509H268.608V367.843Z" fill="#1B3242"/>
<path d="M268.608 367.843H250.275V382.509H268.608V367.843Z" stroke="#1B3242" stroke-width="4" stroke-miterlimit="10" stroke-linecap="round" stroke-linejoin="round"/>
<path d="M337.904 367.843H319.572V382.509H337.904V367.843Z" fill="#1B3242"/>
<path d="M337.904 367.843H319.572V382.509H337.904V367.843Z" stroke="#1B3242" stroke-width="4" stroke-miterlimit="10" stroke-linecap="round" stroke-linejoin="round"/>
<path d="M353.364 368.455L353.364 50.0817L234.815 50.0817L234.815 368.455H353.364Z" fill="#E8BA8B"/>
<path opacity="0.79" d="M350.676 51.1204H236.587V54.7868H350.676V51.1204Z" fill="#995D45"/>
<path opacity="0.35" d="M353.364 360.816H234.326V368.455H353.364V360.816Z" fill="#995D45"/>
<path d="M342.365 61.0811H245.814V350.733H342.365V61.0811Z" fill="#C3F3F7"/>
<path opacity="0.31" d="M341.754 74.9525V63.5253H256.508H245.203V74.9525V167.837V179.203V264.876V276.304V353.178H256.508V276.304H341.754V264.876H256.508V179.203H341.754V167.837H256.508V74.9525H341.754Z" fill="#474747"/>
<path d="M353.364 368.455L353.364 50.0817L234.815 50.0817L234.815 368.455H353.364Z" stroke="#1B3242" stroke-width="4" stroke-miterlimit="10" stroke-linecap="round" stroke-linejoin="round"/>
<path d="M342.365 254.182H245.814V350.733H342.365V254.182Z" stroke="#303030" stroke-width="4" stroke-miterlimit="10" stroke-linecap="round" stroke-linejoin="round"/>
<path d="M342.365 157.632H245.814V254.183H342.365V157.632Z" stroke="#303030" stroke-width="4" stroke-miterlimit="10" stroke-linecap="round" stroke-linejoin="round"/>
<path d="M342.365 61.0811H245.814V157.632H342.365V61.0811Z" stroke="#303030" stroke-width="4" stroke-miterlimit="10" stroke-linecap="round" stroke-linejoin="round"/>
<path d="M342.365 61.0811H245.814V350.733H342.365V61.0811Z" stroke="#1B3242" stroke-width="4" stroke-miterlimit="10" stroke-linecap="round" stroke-linejoin="round"/>
<path d="M342.365 86.3186H325.255V154.454H342.365V86.3186Z" fill="#FF433E"/>
<path d="M342.365 86.3186H325.255V154.454H342.365V86.3186Z" stroke="#1B3242" stroke-width="4" stroke-miterlimit="10" stroke-linecap="round" stroke-linejoin="round"/>
<path d="M256.711 237.372L256.711 253.566L324.847 253.566L324.847 237.372L256.711 237.372Z" fill="#FF433E"/>
<path d="M256.711 237.372L256.711 253.566L324.847 253.566L324.847 237.372L256.711 237.372Z" stroke="#1B3242" stroke-width="4" stroke-miterlimit="10" stroke-linecap="round" stroke-linejoin="round"/>
<path d="M265.651 221.146L265.651 237.339L333.787 237.339L333.787 221.146L265.651 221.146Z" fill="#6CBC96"/>
<path d="M265.651 221.146L265.651 237.339L333.787 237.339L333.787 221.146L265.651 221.146Z" stroke="#1B3242" stroke-width="4" stroke-miterlimit="10" stroke-linecap="round" stroke-linejoin="round"/>
<path d="M257.111 207.748L257.111 221.253L325.247 221.253L325.247 207.748L257.111 207.748Z" fill="#FF433E"/>
<path d="M257.111 207.748L257.111 221.253L325.247 221.253L325.247 207.748L257.111 207.748Z" stroke="#1B3242" stroke-width="4" stroke-miterlimit="10" stroke-linecap="round" stroke-linejoin="round"/>
<path d="M325.255 103.246H342.365" stroke="#1B3242" stroke-width="4" stroke-miterlimit="10" stroke-linecap="round" stroke-linejoin="round"/>
<path d="M325.255 91.3295H310.711V154.454H325.255V91.3295Z" fill="#F4BA7A"/>
<path d="M325.255 91.3295H310.711V154.454H325.255V91.3295Z" stroke="#1B3242" stroke-width="4" stroke-miterlimit="10" stroke-linecap="round" stroke-linejoin="round"/>
<path d="M310.711 106.973H325.255" stroke="#1B3242" stroke-width="4" stroke-miterlimit="10" stroke-linecap="round" stroke-linejoin="round"/>
<path d="M325.399 281.722L310.672 277.223L290.762 342.388L305.49 346.887L325.399 281.722Z" fill="#5492A8"/>
<path d="M325.399 281.722L310.672 277.223L290.762 342.388L305.49 346.887L325.399 281.722Z" stroke="#1B3242" stroke-width="4" stroke-miterlimit="10" stroke-linecap="round" stroke-linejoin="round"/>
<path d="M305.761 293.353L320.427 297.814" stroke="#1B3242" stroke-width="4" stroke-miterlimit="10" stroke-linecap="round" stroke-linejoin="round"/>
<path d="M308.158 285.427L295.651 281.606L277.206 341.978L289.713 345.799L308.158 285.427Z" fill="#934D84"/>
<path d="M308.158 285.427L295.651 281.606L277.206 341.978L289.713 345.799L308.158 285.427Z" stroke="#1B3242" stroke-width="4" stroke-miterlimit="10" stroke-linecap="round" stroke-linejoin="round"/>
<path d="M291.095 296.53L303.561 300.38" stroke="#1B3242" stroke-width="4" stroke-miterlimit="10" stroke-linecap="round" stroke-linejoin="round"/>
<path d="M338.56 284.302L326.053 280.481L307.197 342.198L319.704 346.019L338.56 284.302Z" fill="#FF433E"/>
<path d="M338.56 284.302L326.053 280.481L307.197 342.198L319.704 346.019L338.56 284.302Z" stroke="#1B3242" stroke-width="4" stroke-miterlimit="10" stroke-linecap="round" stroke-linejoin="round"/>
<path d="M321.344 295.797L333.871 299.586" stroke="#1B3242" stroke-width="4" stroke-miterlimit="10" stroke-linecap="round" stroke-linejoin="round"/>
<path d="M309.953 102.22L298.099 95.3761L268.37 146.867L280.224 153.711L309.953 102.22Z" fill="#18C6CD"/>
<path d="M309.953 102.22L298.099 95.3761L268.37 146.867L280.224 153.711L309.953 102.22Z" stroke="#1B3242" stroke-width="4" stroke-miterlimit="10" stroke-linecap="round" stroke-linejoin="round"/>
<path d="M290.79 108.134L302.645 114.978" stroke="#1B3242" stroke-width="4" stroke-miterlimit="10" stroke-linecap="round" stroke-linejoin="round"/>
<path d="M283.64 221.245V237.378" stroke="#1B3242" stroke-width="4" stroke-miterlimit="10" stroke-linecap="round" stroke-linejoin="round"/>
<path d="M272.396 207.74V221.123" stroke="#1B3242" stroke-width="4" stroke-miterlimit="10" stroke-linecap="round" stroke-linejoin="round"/>
<path d="M274.168 237.378V253.571" stroke="#1B3242" stroke-width="4" stroke-miterlimit="10" stroke-linecap="round" stroke-linejoin="round"/>
<path d="M342.365 157.448H245.814V168.02H342.365V157.448Z" fill="#E8BA8B"/>
<path d="M342.365 157.448H245.814V166.492H342.365V157.448Z" stroke="#1B3242" stroke-width="4" stroke-miterlimit="10" stroke-linecap="round" stroke-linejoin="round"/>
<path d="M342.365 253.571H245.814V264.143H342.365V253.571Z" fill="#995D45"/>
<path d="M342.365 253.571H245.814V262.738H342.365V253.571Z" stroke="#1B3242" stroke-width="4" stroke-miterlimit="10" stroke-linecap="round" stroke-linejoin="round"/>
<path d="M342.365 258.154H245.203V350.733H342.365V258.154Z" fill="#E8BA8B"/>
<path opacity="0.35" d="M342.365 343.339H245.203V350.733H342.365V343.339Z" fill="#995D45"/>
<path opacity="0.82" d="M342.365 260.477H245.203V264.876H342.365V260.477Z" fill="#995D45"/>
<path d="M342.365 258.154H245.814V350.733H342.365V258.154Z" stroke="#1B3242" stroke-width="4" stroke-miterlimit="10" stroke-linecap="round" stroke-linejoin="round"/>
<path d="M320.61 284.248V324.64" stroke="#1B3242" stroke-width="4" stroke-miterlimit="10" stroke-linecap="round" stroke-linejoin="round"/>
<path d="M209.162 290.391C212.162 304.891 211.162 342.141 211.162 360.891" stroke="#4A4E54" stroke-width="18.5" stroke-linecap="round" stroke-linejoin="bevel"/>
<path d="M171.015 290.141C168.912 315.766 173.912 345.891 177.162 362.516" stroke="#4A4E54" stroke-width="18.5" stroke-linecap="round" stroke-linejoin="bevel"/>
<path d="M154.662 273.891H195.162L190.912 318.891L185.412 353.641H165.662L159.162 334.391L155.912 308.391L154.662 273.891Z" fill="#33353A"/>
<path d="M162.412 271.641H158.912V305.674L158.913 305.706C159.23 314.263 161.111 329.165 162.553 335.292L162.701 335.915L162.853 336.541C164.556 343.489 166.557 349.162 169.446 353.596L172.378 351.686C169.605 347.428 167.641 341.634 165.96 334.49C164.602 328.719 162.798 314.534 162.433 306.114L162.412 305.609V271.641Z" fill="#C8CFE2"/>
<path d="M193.162 276.391H232.164L229.662 310.266L225.787 335.641L220.287 353.641L201.713 355.641L196.201 324.796L193.162 276.391Z" fill="#33353A"/>
<path d="M230.408 274.007L226.916 273.775L224.791 305.65L224.788 305.701C224.468 314.339 222.233 329.126 220.708 333.124L220.585 333.436L220.505 333.644C219.155 337.158 215.967 346.914 214.719 351.699L218.105 352.583L218.225 352.133L218.349 351.675C219.727 346.669 222.67 337.716 223.84 334.723L223.912 334.541C225.583 330.361 227.852 315.558 228.262 306.407L228.285 305.857L230.408 274.007Z" fill="#C8CFE2"/>
<path d="M185.912 351.141H165.662L166.412 356.891C174.32 356.891 178.004 356.891 185.912 356.891V351.141Z" fill="#282A2F"/>
<path d="M221.162 351.141H201.412V356.891C211.238 356.891 210.836 356.891 220.662 356.891L221.162 351.141Z" fill="#282A2F"/>
<path d="M141.853 382.146C141.803 376.409 142.585 372.919 147.572 370.574C152.559 368.231 157.257 363.724 165.886 359.859C165.886 359.859 167.021 359.644 168.87 360.644C170.448 361.496 172.474 363.589 175.528 363.564C178.843 363.534 181.798 362.831 183.634 361.869C184.427 359.696 186.186 359.681 186.186 359.681C186.186 359.681 188.663 364.396 188.705 369.134C188.746 373.869 188.742 381.736 188.742 381.736L141.853 382.146Z" fill="#DCE1E6"/>
<path d="M160.574 361.827C160.052 361.597 159.497 362.076 159.648 362.626L160.398 365.343L157.395 364.375C156.958 364.234 156.511 364.56 156.511 365.019V367.808L154.262 366.589C153.811 366.345 153.263 366.671 153.263 367.184V370.569C153.263 370.943 153.566 371.246 153.939 371.246C154.313 371.246 154.616 370.943 154.616 370.569V368.32L156.865 369.539C157.316 369.783 157.864 369.457 157.864 368.944V365.948L161.176 367.015C161.688 367.181 162.179 366.71 162.036 366.191L161.332 363.642L164.629 365.098C165.076 365.295 165.579 364.968 165.579 364.479L165.578 364.222L165.576 363.948C165.565 363.154 165.524 362.616 165.408 361.984C165.313 361.463 165.173 360.985 164.979 360.549C164.827 360.207 164.428 360.054 164.086 360.205C163.758 360.351 163.603 360.727 163.726 361.059L163.743 361.099C163.89 361.429 164 361.807 164.077 362.228C164.141 362.579 164.179 362.904 164.201 363.286L164.208 363.432L160.574 361.827Z" fill="white"/>
<path d="M187.234 362.176C186.27 363.484 182.797 364.266 181.491 364.459C180.184 364.651 178.784 364.481 179.344 366.644C179.74 368.171 183.548 367.554 185.037 367.541C186.247 367.531 187.945 371.189 188.577 369.946C188.577 365.696 187.775 363.394 187.234 362.176Z" fill="#37393F"/>
<path d="M143.74 371.013C145.27 370.458 146.89 370.038 149.997 369.336L148.677 373.136L148.715 377.466L139.871 377.543C139.511 377.546 138.866 377.066 139.174 375.113C139.558 372.673 141.565 371.801 143.74 371.013Z" fill="#EAF4FB"/>
<path d="M154.534 372.247L158.653 380.1L162.489 378.088L158.369 370.235L154.534 372.247Z" fill="#37393F"/>
<path d="M160.208 369.273L165.145 378.705L168.982 376.697L164.045 367.265L160.208 369.273Z" fill="#37393F"/>
<path d="M165.759 365.975L172.585 379.27L176.438 377.292L169.612 363.997L165.759 365.975Z" fill="#37393F"/>
<path d="M188.89 380.998L188.633 376.441L148.982 377.058L139.095 376.333L138.793 379.826C138.689 381.033 139.594 382.091 140.801 382.173L149.032 382.743L187.826 382.141C188.441 382.131 188.925 381.611 188.89 380.998Z" fill="#C7CBCF"/>
<path d="M245.765 382.646C245.815 376.909 245.034 373.419 240.046 371.074C235.059 368.731 230.361 364.224 221.733 360.359C221.733 360.359 220.597 360.144 218.748 361.144C217.17 361.996 215.144 364.089 212.091 364.064C208.775 364.034 205.82 363.331 203.985 362.369C203.191 360.196 201.432 360.181 201.432 360.181C201.432 360.181 198.955 364.896 198.913 369.634C198.872 374.369 198.876 382.236 198.876 382.236L245.765 382.646Z" fill="#DCE1E6"/>
<path d="M225.583 366.691C225.439 367.21 225.93 367.681 226.443 367.515L229.754 366.448V369.444C229.754 369.957 230.302 370.283 230.753 370.039L233.002 368.82V371.069C233.002 371.443 233.305 371.746 233.679 371.746C234.053 371.746 234.356 371.443 234.356 371.069V367.684C234.356 367.171 233.807 366.845 233.357 367.089L231.107 368.308V365.519C231.107 365.06 230.66 364.734 230.223 364.875L227.221 365.843L227.97 363.126C228.122 362.576 227.566 362.097 227.044 362.327L223.41 363.932C223.43 363.485 223.469 363.123 223.541 362.728C223.619 362.307 223.729 361.929 223.876 361.599C224.028 361.257 223.874 360.857 223.532 360.705C223.191 360.554 222.791 360.707 222.639 361.049C222.445 361.485 222.306 361.963 222.21 362.484C222.07 363.248 222.039 363.873 222.039 364.979C222.039 365.468 222.542 365.795 222.99 365.598L226.286 364.142L225.583 366.691Z" fill="white"/>
<path d="M200.385 362.676C201.348 363.984 204.821 364.766 206.128 364.959C207.434 365.151 208.834 364.981 208.274 367.144C207.878 368.671 204.07 368.054 202.582 368.041C201.371 368.031 199.674 371.689 199.042 370.446C199.042 366.196 199.843 363.894 200.385 362.676Z" fill="#37393F"/>
<path d="M243.878 371.513C242.348 370.958 240.728 370.538 237.621 369.836L238.941 373.636L238.903 377.966L247.746 378.043C248.107 378.046 248.752 377.566 248.444 375.613C248.06 373.173 246.053 372.301 243.878 371.513Z" fill="#EAF4FB"/>
<path d="M229.249 370.735L225.13 378.588L228.965 380.6L233.084 372.747L229.249 370.735Z" fill="#37393F"/>
<path d="M223.573 367.765L218.636 377.197L222.473 379.205L227.41 369.773L223.573 367.765Z" fill="#37393F"/>
<path d="M218.006 364.497L211.18 377.792L215.033 379.77L221.859 366.475L218.006 364.497Z" fill="#37393F"/>
<path d="M198.728 381.498L198.985 376.941L238.636 377.558L248.523 376.833L248.825 380.326C248.929 381.533 248.024 382.591 246.817 382.673L238.587 383.243L199.792 382.641C199.177 382.631 198.693 382.111 198.728 381.498Z" fill="#C7CBCF"/>
<path d="M109.65 177.995L70.5485 193.005L49.0129 136.903L88.1142 121.893C89.517 121.355 91.0887 122.019 91.627 123.422L111.205 174.424C111.748 175.84 111.052 177.457 109.65 177.995Z" fill="#4C5B60"/>
<path opacity="0.3" d="M54.5252 134.811L49 136.932L70.5355 193.034L76.0607 190.913L54.5252 134.811Z" fill="#CCDDE5"/>
<path d="M96.8644 137.065L55.2129 153.053L61.3038 168.92L102.955 152.932L96.8644 137.065Z" fill="#FF9852"/>
<path d="M107.112 180.294L103.539 181.665C102.61 182.022 101.713 181.944 101.539 181.49L79.7644 124.765C79.5904 124.312 80.2041 123.653 81.1336 123.297L84.7061 121.925C85.6356 121.569 86.5321 121.647 86.7061 122.1L108.476 178.812C108.655 179.279 108.041 179.937 107.112 180.294Z" fill="#B7C8CE"/>
<path d="M82.2452 196.016L75.4082 195.143L74.0767 191.675L79.7437 189.5L82.2452 196.016Z" fill="#EA3939"/>
<path d="M230.257 205.345C235.181 213.729 237.134 221.076 236.219 226.089C235.848 228.12 235.014 229.729 233.622 231.098C231.902 232.79 229.236 234.224 225.465 235.252C220.004 236.742 216.784 242.376 218.273 247.838C219.763 253.299 225.398 256.519 230.859 255.03C245.04 251.162 254.11 242.239 256.386 229.77C258.315 219.203 255.127 207.21 247.933 194.963C245.066 190.081 238.785 188.449 233.904 191.315C229.023 194.182 227.39 200.464 230.257 205.345Z" fill="#EBBAAA"/>
<path d="M164.099 161.232C160.137 162.942 156.301 165.258 152.278 168.232L151.71 168.656C148.823 170.823 146.184 173.035 142.091 176.628L138.223 180.022C136.06 181.913 135.324 182.531 134.054 183.557L133.693 183.848C127.549 188.796 123.474 190.721 120.282 190.481C118.56 190.351 116.654 189.584 114.338 187.85C111.257 185.543 107.835 181.766 104.115 176.343C100.912 171.675 94.5318 170.487 89.8638 173.689C85.1958 176.892 84.0077 183.272 87.2102 187.94C97.1523 202.432 107.346 210.065 118.743 210.923C124.084 211.325 129.267 210.183 134.398 207.758C138.298 205.916 142.065 203.406 146.297 200.018L147.6 198.966C148.701 198.069 149.572 197.329 151.445 195.693L156.131 191.583L156.577 191.194C163.791 184.911 167.882 181.927 172.226 180.052C177.423 177.807 179.817 171.775 177.572 166.578C175.328 161.381 169.296 158.987 164.099 161.232Z" fill="#EBBAAA"/>
<path d="M154.046 163.219C164.615 154.563 180.329 156.817 188.04 168.094C195.61 179.167 192.29 194.33 180.785 201.226L143.662 223.476L123.163 188.511L154.046 163.219Z" fill="#2E3032"/>
<path d="M236 167.715C226.843 157.347 210.581 157.644 201.809 168.338C193.628 178.311 195.513 193.11 205.931 200.715L233.62 220.927L264.113 199.547L236 167.715Z" fill="#2E3032"/>
<path d="M154.997 188.318C155.822 173.658 167.819 162.117 182.5 161.861L202.003 161.52C217.359 161.252 230.073 173.389 230.518 188.74L231.645 227.572L232.126 276.642C232.126 276.642 206.412 278.142 191.912 278.142C177.412 278.142 152.129 276.642 152.129 276.642L152.711 228.936L154.997 188.318Z" fill="#2E3032"/>
<path d="M191.714 188.318C201.48 188.148 209.26 180.092 209.089 170.325C208.919 160.559 200.863 152.779 191.096 152.95C181.33 153.12 173.551 161.176 173.721 170.943C173.892 180.709 181.947 188.489 191.714 188.318Z" fill="#424649"/>
<path d="M91.2972 195.098C98.6464 194.969 104.5 188.908 104.372 181.559C104.243 174.209 98.1818 168.356 90.8327 168.484C83.4835 168.612 77.6299 174.674 77.7581 182.023C77.8864 189.372 83.9481 195.226 91.2972 195.098Z" fill="#EBBAAA"/>
<rect x="179.597" y="151.453" width="23.498" height="30.7078" rx="11.749" transform="rotate(-1 179.597 151.453)" fill="#EBBAAA"/>
<path d="M154.227 133.32C162.442 133.32 169.101 127.004 169.101 119.212C169.101 111.42 162.442 105.103 154.227 105.103C146.012 105.103 139.352 111.42 139.352 119.212C139.352 127.004 146.012 133.32 154.227 133.32Z" fill="#EBBAAA"/>
<path d="M230.505 134.414C238.72 134.414 245.379 128.097 245.379 120.305C245.379 112.513 238.72 106.197 230.505 106.197C222.29 106.197 215.63 112.513 215.63 120.305C215.63 128.097 222.29 134.414 230.505 134.414Z" fill="#EBBAAA"/>
<path d="M149.043 92.9356C147.76 68.3961 167.311 47.7952 191.884 47.7952C216.559 47.7952 236.148 68.5596 234.711 93.1926L232.668 128.22C231.402 149.94 213.419 166.904 191.662 166.904C169.941 166.904 152.023 149.899 150.888 128.207L149.043 92.9356Z" fill="#EED4CC"/>
<path d="M184.149 143.496C189.078 147.988 199.32 146.9 202.456 141.732C202.994 140.847 202.712 139.693 201.826 139.156C200.959 138.63 199.836 138.89 199.285 139.732L199.251 139.786C198.434 141.131 196.241 142.225 193.613 142.504C190.854 142.797 188.229 142.14 186.675 140.724C185.91 140.027 184.724 140.082 184.026 140.847C183.329 141.613 183.384 142.798 184.149 143.496Z" fill="#C99584"/>
<path d="M181.817 98.9922L165.71 95.9202C165.541 95.8882 165.368 95.9424 165.248 96.0649L161.628 99.7604C161.336 100.059 161.505 100.563 161.918 100.625L181.992 103.654C182.693 103.76 183.287 103.139 183.15 102.443L182.63 99.8007C182.55 99.3904 182.228 99.0704 181.817 98.9922Z" fill="#393939"/>
<path d="M200.008 98.9922L216.115 95.9202C216.284 95.8882 216.457 95.9424 216.577 96.0649L220.197 99.7604C220.489 100.059 220.32 100.563 219.907 100.625L199.833 103.654C199.132 103.76 198.538 103.139 198.675 102.443L199.195 99.8007C199.275 99.3904 199.597 99.0704 200.008 98.9922Z" fill="#393939"/>
<path d="M172.411 110.844V118.084C172.411 119.782 173.787 121.158 175.484 121.158C177.182 121.158 178.558 119.782 178.558 118.084V110.844C178.558 109.146 177.182 107.77 175.484 107.77C173.787 107.77 172.411 109.146 172.411 110.844Z" fill="black"/>
<path d="M204.097 110.594V117.834C204.097 119.532 205.473 120.908 207.171 120.908C208.869 120.908 210.245 119.532 210.245 117.834V110.594C210.245 108.896 208.869 107.52 207.171 107.52C205.473 107.52 204.097 108.896 204.097 110.594Z" fill="black"/>
<path d="M188.411 113.606C188.312 114.001 188.151 114.502 187.907 115.176L187.731 115.654L186.805 118.094L186.658 118.489L186.511 118.892C186.177 119.813 185.908 120.614 185.675 121.404C184.689 124.744 184.485 127.403 185.424 129.644C186.651 132.573 189.59 134.062 194.023 134.062V129.707C191.186 129.707 189.898 129.055 189.44 127.96C188.988 126.883 189.126 125.096 189.852 122.637C190.089 121.834 190.375 120.994 190.753 119.97L191.048 119.185C191.293 118.54 191.706 117.458 191.854 117.059L191.97 116.745L192.075 116.454C192.327 115.746 192.506 115.179 192.635 114.663L188.411 113.606Z" fill="#EBBAAA"/>
<path d="M223.398 75.0163C222.563 68.0088 219.429 64.505 218.872 59.8333C218.478 56.5242 218.437 55.6802 227.844 62.614C237.251 69.5478 238.661 84.7601 236.102 97.6901L233.733 112.532L230.829 111.814L230.446 92.8413C226.523 85.3913 224.233 82.0238 223.398 75.0163Z" fill="#272727"/>
<path d="M154.273 84.0162C154.661 76.9704 154.838 77.3354 155.098 72.6382C155.281 69.3112 156.427 70.0392 150.488 76.1399C147.21 79.5072 148.444 93.9742 149.142 103.435L149.823 110.068L151.148 110.141L151.894 101.382C154.236 93.8657 153.884 91.0619 154.273 84.0162Z" fill="#272727"/>
<path fill-rule="evenodd" clip-rule="evenodd" d="M192.912 43.5688L192.912 43.5686C192.892 43.5686 192.872 43.5686 192.852 43.5687C192.833 43.5686 192.813 43.5686 192.793 43.5686L192.793 43.5688C180.089 43.6127 149.671 50.6564 148.528 83.6201C151.906 79.5596 157.122 77.7886 161.756 75.1389C171.51 69.5609 178.172 69.1411 191.043 69.1411C203.913 69.1411 212.89 71.5361 220.412 75.1389C227.142 78.3614 230.481 78.8169 237.058 83.6201C235.915 50.6565 205.615 43.6127 192.912 43.5688Z" fill="#272727"/>
<path d="M190.836 71.3256C204.592 63.3551 210.549 65.9263 215.005 63.3551C211.92 61.9838 218.605 52.1853 196.622 56.9272C190.065 58.3414 188.69 66.1833 190.836 71.3256Z" fill="#272727"/>
<path d="M183.21 72.9599C192.466 67.3031 196.716 66.1436 201.173 63.5724C198.087 62.2011 190.077 58.3703 185.964 61.6613C184.203 63.958 181.063 67.8174 183.21 72.9599Z" fill="#272727"/>
<path d="M173.836 74.5756C187.592 66.6051 195.816 64.9624 200.273 62.3913C197.187 61.02 201.605 55.4354 179.621 60.1772C173.065 61.5914 171.69 69.4334 173.836 74.5756Z" fill="#272727"/>
<path d="M159.835 53.5451L157.228 62.8066L191.595 57.4843L230.871 64.6642L230.789 60.8534L227.987 59.6888L227.922 56.6947L224.39 56.7715L224.29 52.1441L219.749 52.2428L218.663 48.7262L214.626 48.8139L212.153 45.3275L208.014 46.5067L206.706 44.3565L202.417 44.4498L202.364 42L196.615 44.5759L195.048 42.159L192.579 44.6636L190.003 42.2687L185.263 44.8226L182.182 42.4387L178.956 44.9597L176.686 45.0091L174.21 47.2415L173.154 45.0859L168.966 49.8064L166.167 48.7779L162.625 54.1653L159.835 53.5451Z" fill="#272727"/>
<path d="M230.086 65.2175L226.047 64.2654L231.763 84.2823L232.898 108.006L234.441 107.714L234.625 105.98L235.837 105.75L235.441 103.663L237.314 103.307L236.805 100.624L238.124 99.7555L237.671 97.3703L238.835 95.6823L237.927 93.306L238.667 92.3935L238.187 89.859L239.178 89.671L237.536 86.4303L238.358 85.3478L237.083 84.045L237.792 82.366L236.263 79.7218L236.915 77.7445L235.556 75.9948L235.301 74.653V72.625L236.263 71.375L232.551 70.387L232.68 68.6635L230.122 66.9098L230.086 65.2175Z" fill="#272727"/>
<path d="M155.668 62.4675L159.707 61.5154L153.073 78.1413L150.313 100.913L148.439 100.557L148.949 97.8738L147.63 97.0055L148.082 94.6203L146.919 92.9323L147.826 90.556L147.086 89.6435L147.567 87.109L146.575 86.921L148.218 83.6803L147.396 82.5978L148.67 81.295L147.962 79.616L149.491 76.9718L148.839 74.9945L150.198 73.2448L150.453 71.903V69.875L149.491 68.625L153.203 67.637L153.073 65.9136L155.632 64.1597L155.668 62.4675Z" fill="#272727"/>
<defs>
<clipPath id="clip0_204_162">
<rect width="358" height="457" fill="white" transform="matrix(-1 0 0 1 368 0)"/>
</clipPath>
</defs>
</svg>
