<svg width="390" height="457" viewBox="0 0 390 457" fill="none" xmlns="http://www.w3.org/2000/svg">
<g clip-path="url(#clip0_215_169)">
<path d="M60.6077 274.464C58.6398 261.779 51.5188 216.026 81.8883 182.266C102.382 159.516 118.5 166.024 147.112 146.363C211.522 102.1 180.978 33.9741 233.617 8.20487C264.682 -7.00004 307.088 1.15176 332.13 14.2515C392.265 45.7062 397.034 129.122 378.225 183.488C355.837 248.21 305.916 254.71 310.246 304.482C312.653 332.333 332.579 380.199 340.926 400.252C347.462 415.971 358.848 441.38 345.906 452.159C341.769 455.601 336.231 456.646 332.13 456.984L46.1918 451.998C41.7526 451.951 34.4485 451.368 31.3182 447.342C20.0143 432.82 84.9363 401.719 89.4487 353.17C92.2861 322.56 67.8385 320.931 60.6077 274.464Z" fill="#CECCA7"/>
</g>
<path d="M79.7568 374.762H98.0892V389.428H79.7568V374.762Z" fill="#1B3242"/>
<path d="M79.7568 374.762H98.0892V389.428H79.7568V374.762Z" stroke="#1B3242" stroke-width="4" stroke-miterlimit="10" stroke-linecap="round" stroke-linejoin="round"/>
<path d="M10.4602 374.762H28.7927V389.428H10.4602V374.762Z" fill="#1B3242"/>
<path d="M10.4602 374.762H28.7927V389.428H10.4602V374.762Z" stroke="#1B3242" stroke-width="4" stroke-miterlimit="10" stroke-linecap="round" stroke-linejoin="round"/>
<path d="M-4.99988 375.373L-4.99988 57L113.55 57L113.55 375.373H-4.99988Z" fill="#E8BA8B"/>
<path opacity="0.79" d="M-2.31126 58.0386H111.777V61.7051H-2.31126V58.0386Z" fill="#995D45"/>
<path opacity="0.35" d="M-5.00001 367.734H114.038V375.373H-5.00001V367.734Z" fill="#995D45"/>
<path d="M5.9994 67.9993H102.55V357.652H5.9994V67.9993Z" fill="#C3F3F7"/>
<path opacity="0.31" d="M6.61058 81.8708V70.4436H91.8563H103.161V81.8708V174.755V186.121V271.795V283.222V360.096H91.8563V283.222H6.61058V271.795H91.8563V186.121H6.61058V174.755H91.8563V81.8708H6.61058Z" fill="#474747"/>
<path d="M-4.99988 375.373L-4.99988 57L113.55 57L113.55 375.373H-4.99988Z" stroke="#1B3242" stroke-width="4" stroke-miterlimit="10" stroke-linecap="round" stroke-linejoin="round"/>
<path d="M5.9994 261.101H102.55V357.652H5.9994V261.101Z" stroke="#303030" stroke-width="4" stroke-miterlimit="10" stroke-linecap="round" stroke-linejoin="round"/>
<path d="M5.9994 164.55H102.55V261.101H5.9994V164.55Z" stroke="#303030" stroke-width="4" stroke-miterlimit="10" stroke-linecap="round" stroke-linejoin="round"/>
<path d="M5.9994 67.9993H102.55V164.55H5.9994V67.9993Z" stroke="#303030" stroke-width="4" stroke-miterlimit="10" stroke-linecap="round" stroke-linejoin="round"/>
<path d="M5.9994 67.9993H102.55V357.652H5.9994V67.9993Z" stroke="#1B3242" stroke-width="4" stroke-miterlimit="10" stroke-linecap="round" stroke-linejoin="round"/>
<path d="M5.99924 93.2369H23.1095V161.372H5.99924V93.2369Z" fill="#FF433E"/>
<path d="M5.99924 93.2369H23.1095V161.372H5.99924V93.2369Z" stroke="#1B3242" stroke-width="4" stroke-miterlimit="10" stroke-linecap="round" stroke-linejoin="round"/>
<path d="M91.653 244.29L91.653 260.484L23.5175 260.484L23.5175 244.29L91.653 244.29Z" fill="#FF433E"/>
<path d="M91.653 244.29L91.653 260.484L23.5175 260.484L23.5175 244.29L91.653 244.29Z" stroke="#1B3242" stroke-width="4" stroke-miterlimit="10" stroke-linecap="round" stroke-linejoin="round"/>
<path d="M82.7129 228.064L82.7129 244.258L14.5774 244.258L14.5774 228.064L82.7129 228.064Z" fill="#6CBC96"/>
<path d="M82.7129 228.064L82.7129 244.258L14.5774 244.258L14.5774 228.064L82.7129 228.064Z" stroke="#1B3242" stroke-width="4" stroke-miterlimit="10" stroke-linecap="round" stroke-linejoin="round"/>
<path d="M91.253 214.666L91.253 228.171L23.1175 228.171L23.1175 214.666L91.253 214.666Z" fill="#FF433E"/>
<path d="M91.253 214.666L91.253 228.171L23.1175 228.171L23.1175 214.666L91.253 214.666Z" stroke="#1B3242" stroke-width="4" stroke-miterlimit="10" stroke-linecap="round" stroke-linejoin="round"/>
<path d="M23.1095 110.164H5.99924" stroke="#1B3242" stroke-width="4" stroke-miterlimit="10" stroke-linecap="round" stroke-linejoin="round"/>
<path d="M23.1097 98.2477H37.6534V161.372H23.1097V98.2477Z" fill="#F4BA7A"/>
<path d="M23.1097 98.2477H37.6534V161.372H23.1097V98.2477Z" stroke="#1B3242" stroke-width="4" stroke-miterlimit="10" stroke-linecap="round" stroke-linejoin="round"/>
<path d="M37.6534 113.891H23.1097" stroke="#1B3242" stroke-width="4" stroke-miterlimit="10" stroke-linecap="round" stroke-linejoin="round"/>
<path d="M22.965 288.641L37.6928 284.141L57.602 349.306L42.8742 353.805L22.965 288.641Z" fill="#5492A8"/>
<path d="M22.965 288.641L37.6928 284.141L57.602 349.306L42.8742 353.805L22.965 288.641Z" stroke="#1B3242" stroke-width="4" stroke-miterlimit="10" stroke-linecap="round" stroke-linejoin="round"/>
<path d="M42.6033 300.271L27.9374 304.732" stroke="#1B3242" stroke-width="4" stroke-miterlimit="10" stroke-linecap="round" stroke-linejoin="round"/>
<path d="M40.2064 292.345L52.7134 288.524L71.1584 348.896L58.6514 352.718L40.2064 292.345Z" fill="#934D84"/>
<path d="M40.2064 292.345L52.7134 288.524L71.1584 348.896L58.6514 352.718L40.2064 292.345Z" stroke="#1B3242" stroke-width="4" stroke-miterlimit="10" stroke-linecap="round" stroke-linejoin="round"/>
<path d="M57.269 303.448L44.803 307.298" stroke="#1B3242" stroke-width="4" stroke-miterlimit="10" stroke-linecap="round" stroke-linejoin="round"/>
<path d="M9.80483 291.221L22.3118 287.4L41.1675 349.116L28.6605 352.937L9.80483 291.221Z" fill="#FF433E"/>
<path d="M9.80483 291.221L22.3118 287.4L41.1675 349.116L28.6605 352.937L9.80483 291.221Z" stroke="#1B3242" stroke-width="4" stroke-miterlimit="10" stroke-linecap="round" stroke-linejoin="round"/>
<path d="M27.0208 302.715L14.4936 306.504" stroke="#1B3242" stroke-width="4" stroke-miterlimit="10" stroke-linecap="round" stroke-linejoin="round"/>
<path d="M38.4112 109.138L50.2652 102.294L79.9943 153.785L68.1403 160.629L38.4112 109.138Z" fill="#18C6CD"/>
<path d="M38.4112 109.138L50.2652 102.294L79.9943 153.785L68.1403 160.629L38.4112 109.138Z" stroke="#1B3242" stroke-width="4" stroke-miterlimit="10" stroke-linecap="round" stroke-linejoin="round"/>
<path d="M57.5748 115.052L45.7198 121.897" stroke="#1B3242" stroke-width="4" stroke-miterlimit="10" stroke-linecap="round" stroke-linejoin="round"/>
<path d="M64.7244 228.164V244.296" stroke="#1B3242" stroke-width="4" stroke-miterlimit="10" stroke-linecap="round" stroke-linejoin="round"/>
<path d="M75.968 214.659V228.041" stroke="#1B3242" stroke-width="4" stroke-miterlimit="10" stroke-linecap="round" stroke-linejoin="round"/>
<path d="M74.1959 244.296V260.49" stroke="#1B3242" stroke-width="4" stroke-miterlimit="10" stroke-linecap="round" stroke-linejoin="round"/>
<path d="M5.9994 164.367H102.55V174.938H5.9994V164.367Z" fill="#E8BA8B"/>
<path d="M5.9994 164.367H102.55V173.411H5.9994V164.367Z" stroke="#1B3242" stroke-width="4" stroke-miterlimit="10" stroke-linecap="round" stroke-linejoin="round"/>
<path d="M5.9994 260.49H102.55V271.061H5.9994V260.49Z" fill="#995D45"/>
<path d="M5.9994 260.49H102.55V269.656H5.9994V260.49Z" stroke="#1B3242" stroke-width="4" stroke-miterlimit="10" stroke-linecap="round" stroke-linejoin="round"/>
<path d="M5.9995 265.073H103.161V357.651H5.9995V265.073Z" fill="#E8BA8B"/>
<path opacity="0.35" d="M5.9995 350.257H103.161V357.651H5.9995V350.257Z" fill="#995D45"/>
<path opacity="0.82" d="M5.9995 267.395H103.161V271.795H5.9995V267.395Z" fill="#995D45"/>
<path d="M5.9994 265.073H102.55V357.651H5.9994V265.073Z" stroke="#1B3242" stroke-width="4" stroke-miterlimit="10" stroke-linecap="round" stroke-linejoin="round"/>
<path d="M27.754 291.166V331.558" stroke="#1B3242" stroke-width="4" stroke-miterlimit="10" stroke-linecap="round" stroke-linejoin="round"/>
<path d="M217 75H154V84H217V75Z" fill="#6A6A68"/>
<path fill-rule="evenodd" clip-rule="evenodd" d="M151 74.8846C151 73.2915 152.269 72 153.833 72H216.167C217.731 72 219 73.2915 219 74.8846V84.1154C219 85.7085 217.731 87 216.167 87H153.833C152.269 87 151 85.7085 151 84.1154V74.8846ZM156.667 77.7692V81.2308H213.333V77.7692H156.667Z" fill="#333333"/>
<path fill-rule="evenodd" clip-rule="evenodd" d="M157 26.8815C157 25.2901 158.277 24 159.853 24H173.147C174.723 24 176 25.2901 176 26.8815V75.1185C176 76.7099 174.723 78 173.147 78H159.853C158.277 78 157 76.7099 157 75.1185V26.8815ZM162.706 29.7631V72.2369H170.294V29.7631H162.706Z" fill="#333333"/>
<path opacity="0.38" d="M173 27H159V75H173V27Z" fill="#629EC0"/>
<path d="M186 15H173V75H186V15Z" fill="#FFC859"/>
<path fill-rule="evenodd" clip-rule="evenodd" d="M170 14.8671C170 13.2836 171.277 12 172.853 12H186.147C187.723 12 189 13.2836 189 14.8671V75.1329C189 76.7164 187.723 78 186.147 78H172.853C171.277 78 170 76.7164 170 75.1329V14.8671ZM175.706 17.7341V72.2659H183.294V17.7341H175.706Z" fill="#333333"/>
<path d="M197.822 23.4291L186.013 28.1498L203.731 72.4747L215.541 67.754L197.822 23.4291Z" fill="#FF7373"/>
<path fill-rule="evenodd" clip-rule="evenodd" d="M183.365 29.2083C182.781 27.7459 183.492 26.0865 184.954 25.502L196.764 20.7813C198.226 20.1967 199.886 20.9083 200.47 22.3707L218.189 66.6956C218.773 68.1579 218.062 69.8173 216.599 70.4019L204.79 75.1226C203.328 75.7071 201.668 74.9955 201.084 73.5332L183.365 29.2083ZM189.719 29.7392L205.321 68.7684L211.835 66.1646L196.233 27.1354L189.719 29.7392Z" fill="#333333"/>
<path d="M346 142H283V151H346V142Z" fill="#6A6A68"/>
<path fill-rule="evenodd" clip-rule="evenodd" d="M280 141.885C280 140.291 281.269 139 282.833 139H345.167C346.731 139 348 140.291 348 141.885V151.115C348 152.709 346.731 154 345.167 154H282.833C281.269 154 280 152.709 280 151.115V141.885ZM285.667 144.769V148.231H342.333V144.769H285.667Z" fill="#333333"/>
<path fill-rule="evenodd" clip-rule="evenodd" d="M286 93.8815C286 92.2901 287.277 91 288.853 91H302.147C303.723 91 305 92.2901 305 93.8815V142.118C305 143.71 303.723 145 302.147 145H288.853C287.277 145 286 143.71 286 142.118V93.8815ZM291.706 96.7631V139.237H299.294V96.7631H291.706Z" fill="#333333"/>
<path opacity="0.38" d="M302 94H288V142H302V94Z" fill="#629EC0"/>
<path d="M315 82H302V142H315V82Z" fill="#FFC859"/>
<path fill-rule="evenodd" clip-rule="evenodd" d="M299 81.8671C299 80.2836 300.277 79 301.853 79H315.147C316.723 79 318 80.2836 318 81.8671V142.133C318 143.716 316.723 145 315.147 145H301.853C300.277 145 299 143.716 299 142.133V81.8671ZM304.706 84.7341V139.266H312.294V84.7341H304.706Z" fill="#333333"/>
<path d="M326.822 90.4291L315.013 95.1498L332.731 139.475L344.541 134.754L326.822 90.4291Z" fill="#FF7373"/>
<path fill-rule="evenodd" clip-rule="evenodd" d="M312.365 96.2083C311.781 94.7459 312.492 93.0865 313.954 92.502L325.764 87.7813C327.226 87.1967 328.886 87.9083 329.47 89.3707L347.189 133.696C347.773 135.158 347.062 136.817 345.599 137.402L333.79 142.123C332.328 142.707 330.668 141.996 330.084 140.533L312.365 96.2083ZM318.719 96.7392L334.321 135.768L340.835 133.165L325.233 94.1354L318.719 96.7392Z" fill="#333333"/>
<path d="M-26 389H422.222" stroke="#313031" stroke-width="4" stroke-miterlimit="10" stroke-linecap="round" stroke-linejoin="round"/>
<path d="M151.738 422.637H206.555" stroke="#313031" stroke-width="4" stroke-miterlimit="10" stroke-linecap="round" stroke-linejoin="round"/>
<path d="M127.652 422.637H139.626" stroke="#313031" stroke-width="4" stroke-miterlimit="10" stroke-linecap="round" stroke-linejoin="round"/>
<path d="M209.678 313.258V225.024C209.678 205.693 225.372 190 244.702 190H308.217C327.548 190 343.241 205.693 343.241 225.024V313.258H209.678Z" fill="#B371D1"/>
<path opacity="0.6" d="M307.916 190.673H244.401C225.07 190.673 209.377 206.367 209.377 225.698V233.915C209.377 214.584 225.07 198.891 244.401 198.891H307.916C327.246 198.891 342.94 214.584 342.94 233.915V225.698C342.94 206.367 327.246 190.673 307.916 190.673Z" fill="#B371D1"/>
<path d="M209.377 313.258V225.024C209.377 205.693 225.07 190 244.401 190H307.916C327.246 190 342.94 205.693 342.94 225.024V313.258H209.377Z" stroke="#313031" stroke-width="4" stroke-miterlimit="10" stroke-linecap="round" stroke-linejoin="round"/>
<path d="M373.114 372.933H336.743V275.944C336.743 270.017 341.592 265.167 347.519 265.167H362.337C368.264 265.167 373.114 270.017 373.114 275.944V372.933Z" fill="#B371D1"/>
<path opacity="0.6" d="M362.337 264.763H347.519C341.592 264.763 336.743 269.612 336.743 275.54V282.275C336.743 276.348 341.592 271.498 347.519 271.498H362.337C368.264 271.498 373.114 276.348 373.114 282.275V275.54C373.114 269.612 368.332 264.763 362.337 264.763Z" fill="#B371D1"/>
<path d="M373.114 372.529H336.743V275.54C336.743 269.612 341.592 264.763 347.519 264.763H362.337C368.264 264.763 373.114 269.612 373.114 275.54V372.529Z" stroke="#313031" stroke-width="4" stroke-miterlimit="10" stroke-linecap="round" stroke-linejoin="round"/>
<path d="M358.296 372.529H336.743V386H358.296V372.529Z" fill="#313031"/>
<path d="M358.296 372.529H336.743V386H358.296V372.529Z" stroke="#313031" stroke-width="4" stroke-miterlimit="10" stroke-linecap="round" stroke-linejoin="round"/>
<path d="M215.371 372.529H193.818V386H215.371V372.529Z" fill="#313031"/>
<path d="M215.371 372.529H193.818V386H215.371V372.529Z" stroke="#313031" stroke-width="4" stroke-miterlimit="10" stroke-linecap="round" stroke-linejoin="round"/>
<path d="M215.371 372.529H179V275.54C179 269.612 183.849 264.763 189.777 264.763H204.594C210.522 264.763 215.371 269.612 215.371 275.54V372.529Z" fill="#B371D1"/>
<path opacity="0.6" d="M204.594 264.763H189.777C183.849 264.763 179 269.612 179 275.54V282.275C179 276.348 183.849 271.498 189.777 271.498H204.594C210.522 271.498 215.371 276.348 215.371 282.275V275.54C215.371 269.612 210.522 264.763 204.594 264.763Z" fill="#B371D1"/>
<path d="M215.371 372.529H179V275.54C179 269.612 183.849 264.763 189.777 264.763H204.594C210.522 264.763 215.371 269.612 215.371 275.54V372.529Z" stroke="#313031" stroke-width="4" stroke-miterlimit="10" stroke-linecap="round" stroke-linejoin="round"/>
<path d="M215.506 343.567V310.968C215.506 304.03 221.096 298.44 228.034 298.44H324.215C331.152 298.44 336.743 304.03 336.743 310.968V343.567H215.506Z" fill="#B371D1"/>
<path opacity="0.6" d="M324.215 298.44H228.034C221.096 298.44 215.506 304.03 215.506 310.968V319.05C215.506 312.113 221.096 306.522 228.034 306.522H324.215C331.152 306.522 336.743 312.113 336.743 319.05V310.968C336.743 304.03 331.152 298.44 324.215 298.44Z" fill="#B371D1"/>
<path d="M215.506 343.567V310.968C215.506 304.03 221.096 298.44 228.034 298.44H324.215C331.152 298.44 336.743 304.03 336.743 310.968V343.567H215.506Z" stroke="#313031" stroke-width="4" stroke-miterlimit="10" stroke-linecap="round" stroke-linejoin="round"/>
<path d="M336.766 369.139V343.545H215.528V369.139H336.766Z" fill="#B371D1"/>
<path d="M336.766 369.139V343.545H215.528V369.139H336.766Z" fill="#B371D1"/>
<path d="M336.766 351.627V343.545H215.528V351.627H336.766Z" fill="#AE36D8"/>
<path d="M336.766 369.139V343.545H215.528V369.139H336.766Z" stroke="#313031" stroke-width="4" stroke-miterlimit="10" stroke-linecap="round" stroke-linejoin="round"/>
<path opacity="0.69" d="M252.026 226.974C256.118 226.974 259.435 223.657 259.435 219.565C259.435 215.474 256.118 212.156 252.026 212.156C247.934 212.156 244.617 215.474 244.617 219.565C244.617 223.657 247.934 226.974 252.026 226.974Z" fill="white"/>
<path d="M252.026 226.974C256.118 226.974 259.435 223.657 259.435 219.565C259.435 215.474 256.118 212.156 252.026 212.156C247.934 212.156 244.617 215.474 244.617 219.565C244.617 223.657 247.934 226.974 252.026 226.974Z" stroke="#313031" stroke-width="4" stroke-miterlimit="10" stroke-linecap="round" stroke-linejoin="round"/>
<path opacity="0.69" d="M300.931 226.974C305.023 226.974 308.34 223.657 308.34 219.565C308.34 215.473 305.023 212.156 300.931 212.156C296.839 212.156 293.522 215.473 293.522 219.565C293.522 223.657 296.839 226.974 300.931 226.974Z" fill="white"/>
<path d="M300.931 226.974C305.023 226.974 308.34 223.657 308.34 219.565C308.34 215.473 305.023 212.156 300.931 212.156C296.839 212.156 293.522 215.473 293.522 219.565C293.522 223.657 296.839 226.974 300.931 226.974Z" stroke="#313031" stroke-width="4" stroke-miterlimit="10" stroke-linecap="round" stroke-linejoin="round"/>
<path opacity="0.69" d="M252.026 275.548C256.118 275.548 259.435 272.231 259.435 268.139C259.435 264.048 256.118 260.73 252.026 260.73C247.934 260.73 244.617 264.048 244.617 268.139C244.617 272.231 247.934 275.548 252.026 275.548Z" fill="white"/>
<path d="M252.026 275.548C256.118 275.548 259.435 272.231 259.435 268.139C259.435 264.048 256.118 260.73 252.026 260.73C247.934 260.73 244.617 264.048 244.617 268.139C244.617 272.231 247.934 275.548 252.026 275.548Z" stroke="#313031" stroke-width="4" stroke-miterlimit="10" stroke-linecap="round" stroke-linejoin="round"/>
<path opacity="0.69" d="M300.931 275.548C305.023 275.548 308.34 272.231 308.34 268.139C308.34 264.048 305.023 260.73 300.931 260.73C296.839 260.73 293.522 264.048 293.522 268.139C293.522 272.231 296.839 275.548 300.931 275.548Z" fill="white"/>
<path d="M300.931 275.548C305.023 275.548 308.34 272.231 308.34 268.139C308.34 264.048 305.023 260.73 300.931 260.73C296.839 260.73 293.522 264.048 293.522 268.139C293.522 272.231 296.839 275.548 300.931 275.548Z" stroke="#313031" stroke-width="4" stroke-miterlimit="10" stroke-linecap="round" stroke-linejoin="round"/>
<path d="M136.875 299V376.75H119.875V299H136.875Z" fill="#F6DDD6"/>
<path d="M170.125 309.5V372.5H153.125V309.5H170.125Z" fill="#F6DDD6"/>
<path d="M141.992 351.605C140.849 349.75 138.28 350.195 137.138 350.65L137.423 351.74C137.899 351.832 139.108 352.015 139.565 352.56C140.136 353.242 139.707 354.605 140.136 354.877C140.564 355.152 141.706 354.877 142.277 354.877C142.848 354.877 143.419 353.925 141.992 351.605Z" fill="black"/>
<path fill-rule="evenodd" clip-rule="evenodd" d="M139.074 350.96C139.097 350.894 139.169 350.86 139.233 350.882L139.254 350.891L139.489 351.021L139.542 350.973L139.604 350.912C139.642 350.874 139.698 350.865 139.745 350.887L139.764 350.898L141.014 351.773C141.071 351.812 141.085 351.89 141.045 351.947C141.01 351.997 140.944 352.013 140.891 351.989L140.871 351.977L140.435 351.672L140.424 351.713C140.368 351.924 140.296 352.129 140.219 352.255L140.209 352.27C140.245 352.3 140.297 352.336 140.365 352.377L140.452 352.429L140.562 352.49L140.693 352.558L140.693 352.25C140.693 352.156 140.792 352.098 140.872 352.137L140.891 352.148L141.766 352.773C141.858 352.84 141.82 352.981 141.715 352.998L141.693 353L141.207 353C141.289 353.009 141.347 353.102 141.304 353.182L141.293 353.2L141.102 353.454L141.239 353.509C141.296 353.532 141.327 353.592 141.315 353.65L141.309 353.671C141.286 353.728 141.226 353.759 141.168 353.748L141.147 353.741L140.947 353.661L140.918 353.7C140.85 353.79 140.712 353.751 140.695 353.647L140.693 353.625L140.693 353.56L140.522 353.491C140.424 353.452 140.417 353.322 140.501 353.27L140.522 353.259L140.693 353.19V352.837L140.606 352.794C140.539 352.76 140.475 352.727 140.415 352.694L140.328 352.646C140.207 352.577 140.112 352.515 140.049 352.462C139.933 352.364 139.877 352.264 139.98 352.162C140.027 352.114 140.1 351.932 140.157 351.739L140.172 351.687L139.522 351.326L139.489 351.353C139.384 351.433 139.292 351.487 139.219 351.498L139.193 351.5C139.039 351.5 139.001 351.379 139.015 351.223C139.023 351.143 139.046 351.045 139.074 350.96ZM140.943 352.956V353.09L141.147 353.009C141.153 353.006 141.16 353.004 141.167 353.003L141.184 353H141.068L141.017 352.989L140.943 352.956ZM140.943 352.68V352.493L141.303 352.75H141.095L141.032 352.722L140.943 352.68Z" fill="#EACE56" fill-opacity="0.78"/>
<path d="M91.3895 385.25C91.0854 384.5 91.1378 382.875 93.0127 382.125C94.8876 381.375 117.013 385.25 117.013 385.25C122.708 384.785 138.006 377.32 143.638 380.75C145.42 381.835 144.816 385.273 144.158 388.49C143.105 389.563 132.458 390.5 129.006 389.695C129.006 387.82 128.737 386.613 128.737 386.613C128.737 386.613 126.645 387.963 124.388 388.49C119.783 389.563 118.775 390.75 104.513 390.75C93.0736 389.678 92.2509 387.375 91.3895 385.25Z" fill="#383129"/>
<path fill-rule="evenodd" clip-rule="evenodd" d="M143.139 383.107C142.757 383.38 142.314 383.595 141.758 383.781L141.679 383.544C142.213 383.366 142.633 383.161 142.994 382.904L143.139 383.107ZM93.4229 384.858C92.9441 384.497 92.5576 384.144 92.2922 383.831L92.4831 383.669C92.7354 383.967 93.1086 384.308 93.5736 384.659L93.4229 384.858ZM96.0091 386.418C95.5418 386.189 95.0969 385.948 94.6807 385.7L94.8089 385.485C95.2192 385.73 95.6579 385.968 96.119 386.194L96.0091 386.418ZM97.3882 387.029C97.8506 387.214 98.325 387.384 98.8087 387.538L98.8845 387.3C98.4065 387.148 97.9379 386.98 97.481 386.797L97.3882 387.029ZM101.747 388.243C101.249 388.162 100.756 388.062 100.267 387.945L100.325 387.702C100.808 387.817 101.296 387.916 101.787 387.996L101.747 388.243ZM103.249 388.43C103.751 388.473 104.254 388.496 104.757 388.5L104.759 388.25C104.262 388.246 103.766 388.223 103.271 388.181L103.249 388.43ZM107.757 388.455C107.261 388.471 106.76 388.483 106.256 388.49L106.252 388.24C106.755 388.233 107.254 388.221 107.75 388.205L107.757 388.455ZM109.26 388.395C109.765 388.371 110.264 388.342 110.759 388.309L110.743 388.059C110.249 388.092 109.751 388.121 109.248 388.146L109.26 388.395ZM113.753 388.053C113.26 388.105 112.762 388.152 112.257 388.195L112.236 387.946C112.739 387.903 113.236 387.856 113.727 387.805L113.753 388.053ZM115.247 387.882C115.752 387.818 116.248 387.751 116.736 387.679L116.7 387.431C116.213 387.503 115.719 387.571 115.216 387.634L115.247 387.882ZM119.697 387.17C119.217 387.265 118.724 387.356 118.219 387.442L118.177 387.196C118.679 387.11 119.17 387.019 119.649 386.924L119.697 387.17ZM121.169 386.857C121.676 386.741 122.163 386.622 122.63 386.499L122.567 386.257C122.102 386.379 121.617 386.498 121.114 386.613L121.169 386.857ZM125.519 385.669L124.079 386.091L124.009 385.851L125.448 385.429L125.519 385.669ZM126.885 385.003L126.957 385.242L128.394 384.81L128.321 384.571L127.228 384.9L126.885 385.003ZM129.8 384.534L129.819 384.284C130.16 384.31 130.532 384.335 130.92 384.357L131.313 384.379L131.3 384.629C130.901 384.608 130.514 384.584 130.152 384.559L129.8 384.534ZM132.801 384.692C133.313 384.707 133.816 384.717 134.303 384.72L134.305 384.47C133.82 384.467 133.319 384.457 132.809 384.442L132.801 384.692ZM137.313 384.626C136.856 384.664 136.353 384.69 135.808 384.706L135.801 384.456C136.342 384.441 136.841 384.415 137.292 384.377L137.313 384.626ZM138.771 384.186L138.811 384.433L139.093 384.385C139.549 384.308 139.942 384.235 140.292 384.162L140.241 383.917L139.916 383.982C139.579 384.048 139.203 384.115 138.771 384.186Z" fill="#67513B"/>
<path d="M124.638 350.125C125.857 350.125 132.967 353.858 136.657 350.963C137.062 350.645 137.888 350.905 137.888 351.42C137.895 356.395 137.969 365.045 138.714 368.475C139.503 372.11 140.169 371.59 140.958 374.965C141.505 377.303 143.275 382.755 140.958 382.755H130.395C127.896 382.755 124.52 385.658 116.197 386.473C102.382 387.828 99.0055 385.973 96.247 385.098C89.9704 383.108 93.1557 378.553 96.247 377.098C100.776 374.965 107.266 373.365 110.567 371.598C113.138 370.223 114.021 369.795 115.34 368.348C117.516 365.963 119.428 353.415 119.723 350.138C119.744 349.91 120.064 349.793 120.259 349.913C121.546 350.705 123.43 350.125 124.638 350.125Z" fill="#2D2B30"/>
<path d="M97.0076 381.052C97.1474 380.589 97.6358 380.328 98.0984 380.467L98.4587 380.575C99.9841 381.026 101.06 381.267 102.428 381.414C104.431 381.63 106.555 381.53 108.91 381.036C109.383 380.937 109.847 381.24 109.946 381.713C110.046 382.186 109.743 382.65 109.27 382.749C106.733 383.281 104.425 383.389 102.241 383.154C100.637 382.982 99.4093 382.692 97.592 382.143C97.1295 382.003 96.8678 381.514 97.0076 381.052Z" fill="#59555F"/>
<path d="M113.888 376.25C116.335 374 125.263 368.972 124.638 350.125C125.698 350.125 128.263 351.5 132.138 351.75C136.207 351.627 136.14 351.26 137.218 350.65C137.247 350.632 137.281 350.608 137.309 350.59C138.999 349.452 138.239 367.627 139.452 370.847C140.431 373.447 142.267 377.347 142.267 382.097C141.41 383.597 132.965 382.847 130.272 382.847C129.013 376.125 119.138 381.25 117.013 380.625C115.147 380.077 113.888 379 113.888 376.25Z" fill="#1D1D20"/>
<path d="M116.888 368.15C119.688 365.95 120.763 355.25 120.888 350.125C120.388 350 120.263 349.65 119.888 349.775C119.513 349.9 119.513 351.4 119.388 352.65C119.251 354.02 118.263 358.275 117.763 361.15C117.263 364.025 116.763 365.775 114.888 368.15C113.388 370.05 107.513 372 105.638 373.625C105.846 373.582 106.388 373.3 106.888 373.4C107.513 373.525 107.388 373.65 108.138 373.65C108.888 373.65 113.388 370.9 116.888 368.15Z" fill="#1D1D20"/>
<path d="M119.67 350.927C119.775 350.613 120.105 350.437 120.421 350.52L120.46 350.532L125.71 352.282C126.279 352.472 126.276 353.267 125.727 353.462L125.684 353.476L121.954 354.542L124.924 356.069C125.441 356.335 125.343 357.093 124.793 357.231L124.752 357.24L121.512 357.842L124.868 359.169C125.4 359.379 125.388 360.127 124.87 360.331L124.828 360.345L120.458 361.74L124.281 363.561C124.834 363.824 124.715 364.633 124.129 364.739L124.087 364.746L119.384 365.31L122.638 367.75C123.107 368.102 122.875 368.841 122.303 368.874L122.263 368.875H117.302L120.698 372.177C121.14 372.606 120.76 373.339 120.167 373.243L120.129 373.236L113.72 371.834L116.27 375.386C116.642 375.903 116.094 376.57 115.523 376.327L115.488 376.311L109.113 373.186C108.803 373.034 108.675 372.66 108.827 372.35C108.972 372.053 109.322 371.923 109.624 372.046L109.663 372.064L113.804 374.094L111.755 371.24C111.429 370.785 111.818 370.171 112.358 370.257L112.396 370.264L118.256 371.546L115.327 368.698C114.934 368.316 115.189 367.657 115.723 367.626L115.763 367.625H120.388L117.388 365.375C116.948 365.045 117.119 364.357 117.647 364.261L117.688 364.254L121.795 363.762L118.494 362.189C117.996 361.952 118.031 361.242 118.53 361.045L118.573 361.03L122.779 359.687L119.033 358.206C118.463 357.981 118.528 357.165 119.106 357.02L119.148 357.011L122.726 356.345L119.977 354.931C119.486 354.679 119.543 353.968 120.049 353.788L120.091 353.774L123.399 352.829L120.065 351.718C119.751 351.613 119.575 351.283 119.658 350.967L119.67 350.927Z" fill="black"/>
<path d="M148.087 351.618C149.236 349.75 151.82 350.2 152.968 350.658L152.681 351.753C152.203 351.845 150.987 352.028 150.528 352.578C149.953 353.263 150.384 354.635 149.953 354.91C149.523 355.183 148.374 354.91 147.8 354.91C147.226 354.91 146.651 353.948 148.087 351.618Z" fill="black"/>
<path fill-rule="evenodd" clip-rule="evenodd" d="M150.84 350.898C150.909 350.86 150.995 350.894 151.02 350.968C151.049 351.055 151.072 351.153 151.079 351.232C151.094 351.389 151.056 351.51 150.901 351.51C150.825 351.51 150.719 351.451 150.6 351.359L150.57 351.335L149.916 351.699L149.917 351.704C149.972 351.9 150.045 352.093 150.097 352.162L150.11 352.176C150.213 352.279 150.157 352.379 150.04 352.478C149.976 352.531 149.882 352.593 149.76 352.663C149.676 352.711 149.579 352.763 149.478 352.814L149.392 352.856V353.212L149.565 353.282C149.662 353.321 149.669 353.451 149.586 353.503L149.565 353.514L149.392 353.582L149.392 353.648C149.392 353.76 149.258 353.812 149.182 353.739L149.167 353.723L149.138 353.683L148.936 353.764C148.879 353.786 148.815 353.764 148.784 353.714L148.774 353.694C148.751 353.637 148.773 353.573 148.824 353.542L148.844 353.531L148.982 353.476L148.79 353.22C148.727 353.137 148.788 353.029 148.876 353.02L148.387 353.02C148.273 353.02 148.222 352.883 148.298 352.808L148.314 352.793L149.194 352.163C149.271 352.108 149.376 352.155 149.39 352.244L149.392 352.265L149.392 352.577L149.46 352.542C149.491 352.526 149.522 352.509 149.551 352.493L149.636 352.446L149.723 352.394C149.777 352.361 149.822 352.331 149.856 352.305L149.88 352.285L149.87 352.27C149.793 352.144 149.721 351.94 149.664 351.726L149.652 351.682L149.213 351.99C149.163 352.025 149.096 352.018 149.054 351.976L149.039 351.959C149.004 351.909 149.011 351.842 149.053 351.8L149.07 351.785L150.327 350.905C150.377 350.87 150.445 350.876 150.487 350.92C150.517 350.95 150.549 350.98 150.581 351.01L150.603 351.03L150.84 350.898ZM149.142 352.975L149.066 353.009L149.016 353.02L148.897 353.02L148.916 353.023L148.937 353.029L149.142 353.112V352.975ZM148.777 352.77L149.142 352.508V352.7L149.063 352.737L148.989 352.77H148.777Z" fill="#EACE56" fill-opacity="0.78"/>
<path d="M198.972 385.45C199.278 384.695 199.225 383.063 197.34 382.308C195.454 381.553 173.206 385.45 173.206 385.45C167.478 384.983 152.095 377.475 146.432 380.925C144.64 382.015 145.247 385.473 145.909 388.708C146.967 389.785 157.674 390.73 161.146 389.92C161.146 388.033 161.416 386.82 161.416 386.82C161.416 386.82 163.519 388.178 165.789 388.708C170.42 389.785 171.433 390.98 185.775 390.98C197.278 389.903 198.106 387.588 198.972 385.45Z" fill="#383129"/>
<path fill-rule="evenodd" clip-rule="evenodd" d="M147.32 383.251C147.689 383.474 148.124 383.657 148.673 383.821L148.602 384.061C148.034 383.891 147.58 383.7 147.191 383.464L147.32 383.251ZM196.782 384.852C197.247 384.5 197.62 384.16 197.873 383.862L198.063 384.024C197.798 384.337 197.412 384.689 196.933 385.051L196.782 384.852ZM194.238 386.389C194.699 386.163 195.137 385.924 195.547 385.679L195.676 385.893C195.26 386.142 194.815 386.384 194.348 386.613L194.238 386.389ZM192.877 386.995C192.42 387.178 191.952 387.347 191.474 387.5L191.55 387.738C192.034 387.583 192.508 387.412 192.97 387.227L192.877 386.995ZM188.573 388.203C189.064 388.121 189.552 388.021 190.034 387.905L190.093 388.148C189.605 388.266 189.111 388.367 188.614 388.449L188.573 388.203ZM187.09 388.392C186.595 388.436 186.099 388.461 185.602 388.467L185.604 388.717C186.108 388.711 186.611 388.686 187.112 388.641L187.09 388.392ZM182.616 388.426C183.111 388.441 183.61 388.452 184.113 388.459L184.11 388.709C183.605 388.702 183.105 388.691 182.608 388.676L182.616 388.426ZM181.118 388.368C180.614 388.344 180.116 388.316 179.622 388.283L179.606 388.533C180.101 388.565 180.601 388.593 181.106 388.617L181.118 388.368ZM176.638 388.033C177.129 388.084 177.627 388.13 178.13 388.172L178.109 388.421C177.604 388.379 177.105 388.332 176.613 388.282L176.638 388.033ZM175.149 387.864C174.646 387.802 174.151 387.736 173.665 387.665L173.629 387.912C174.117 387.983 174.614 388.05 175.118 388.113L175.149 387.864ZM170.714 387.166C171.193 387.259 171.684 387.348 172.187 387.433L172.145 387.68C171.641 387.594 171.148 387.505 170.666 387.411L170.714 387.166ZM169.249 386.859C168.745 386.746 168.26 386.629 167.794 386.509L167.732 386.751C168.2 386.872 168.688 386.989 169.194 387.103L169.249 386.859ZM166.351 386.108L166.281 386.348L165.986 386.262L164.841 385.926L164.911 385.686L165.193 385.769L166.351 386.108ZM163.473 385.261L162.037 384.83L161.965 385.069L163.402 385.501L163.473 385.261ZM160.548 384.462L160.568 384.712C160.221 384.739 159.833 384.767 159.424 384.791L159.069 384.812L159.055 384.562C159.413 384.542 159.76 384.521 160.083 384.498L160.548 384.462ZM157.559 384.63C157.051 384.647 156.549 384.659 156.062 384.664L156.065 384.914C156.554 384.909 157.057 384.897 157.568 384.88L157.559 384.63ZM153.073 384.593C153.53 384.625 154.029 384.647 154.566 384.658L154.56 384.908C154.02 384.897 153.516 384.875 153.056 384.843L153.073 384.593ZM151.554 384.672L151.594 384.425L151.314 384.379C150.86 384.304 150.47 384.234 150.121 384.166L150.073 384.411L150.401 384.473C150.741 384.536 151.12 384.601 151.554 384.672Z" fill="#67513B"/>
<path d="M165.538 350.128C164.312 350.128 157.151 353.888 153.443 350.963C153.039 350.645 152.214 350.905 152.213 351.42C152.207 356.423 152.133 365.13 151.383 368.583C150.59 372.238 149.92 371.715 149.126 375.108C148.577 377.458 146.797 382.94 149.126 382.94H159.749C162.262 382.94 165.657 385.86 174.026 386.68C187.919 388.04 191.314 386.178 194.088 385.298C200.399 383.295 197.196 378.715 194.088 377.253C189.534 375.108 183.007 373.498 179.687 371.723C177.102 370.34 176.215 369.91 174.887 368.453C172.699 366.053 170.776 353.428 170.48 350.138C170.459 349.91 170.139 349.793 169.945 349.913C168.65 350.713 166.754 350.128 165.538 350.128Z" fill="#2D2B30"/>
<path d="M192.227 380.645C192.689 380.505 193.178 380.766 193.318 381.229C193.458 381.692 193.196 382.18 192.734 382.32L192.352 382.434C190.732 382.913 189.557 383.177 188.059 383.338C185.864 383.574 183.544 383.466 180.993 382.931C180.52 382.832 180.217 382.369 180.316 381.896C180.415 381.423 180.879 381.12 181.352 381.219C183.722 381.715 185.858 381.815 187.872 381.598C189.354 381.438 190.499 381.168 192.227 380.645Z" fill="#59555F"/>
<path d="M176.348 376.4C173.887 374.137 164.91 369.082 165.538 350.127C164.471 350.127 161.893 351.51 157.996 351.762C153.904 351.637 153.971 351.27 152.887 350.657C152.858 350.64 152.824 350.615 152.796 350.595C151.097 349.45 151.861 367.727 150.641 370.967C149.657 373.582 147.81 377.505 147.81 382.28C148.672 383.79 157.164 383.035 159.872 383.035C161.139 376.275 171.069 381.427 173.206 380.8C175.081 380.247 176.348 379.165 176.348 376.4Z" fill="#1D1D20"/>
<path d="M173.331 368.255C170.516 366.043 169.434 355.283 169.309 350.128C169.812 350.003 169.937 349.653 170.314 349.778C170.691 349.903 170.691 351.41 170.817 352.668C170.955 354.045 171.948 358.325 172.451 361.215C172.954 364.108 173.457 365.868 175.342 368.255C176.851 370.165 182.759 372.125 184.644 373.76C184.435 373.718 183.89 373.433 183.387 373.535C182.759 373.66 182.884 373.785 182.13 373.785C181.376 373.785 176.851 371.02 173.331 368.255Z" fill="#1D1D20"/>
<path d="M169.74 350.542C170.067 350.433 170.421 350.61 170.53 350.937C170.635 351.252 170.476 351.59 170.174 351.714L170.135 351.728L166.772 352.849L170.109 353.801C170.64 353.953 170.723 354.66 170.262 354.937L170.223 354.958L167.449 356.385L171.057 357.055C171.66 357.167 171.752 357.981 171.212 358.234L171.173 358.251L167.396 359.744L171.636 361.097C172.161 361.265 172.223 361.973 171.755 362.236L171.715 362.257L168.383 363.843L172.526 364.339C173.071 364.405 173.268 365.086 172.859 365.434L172.827 365.46L169.8 367.73H174.462C175.01 367.73 175.287 368.38 174.926 368.775L174.898 368.803L171.943 371.676L177.849 370.384C178.396 370.265 178.805 370.866 178.512 371.327L178.49 371.359L176.421 374.241L180.598 372.194C180.895 372.048 181.251 372.16 181.414 372.442L181.434 372.48C181.58 372.777 181.468 373.133 181.186 373.296L181.148 373.316L174.738 376.459C174.166 376.739 173.599 376.088 173.933 375.565L173.955 375.533L176.524 371.954L170.071 373.365C169.47 373.497 169.068 372.776 169.475 372.335L169.502 372.307L172.923 368.98H167.926C167.339 368.98 167.082 368.25 167.52 367.88L167.551 367.855L170.83 365.395L166.092 364.828C165.484 364.755 165.339 363.95 165.86 363.662L165.898 363.643L169.751 361.807L165.348 360.403C164.803 360.229 164.764 359.482 165.267 359.244L165.308 359.226L168.694 357.887L165.424 357.279C164.852 357.173 164.728 356.419 165.215 356.129L165.252 356.109L168.246 354.569L164.486 353.496C163.91 353.331 163.879 352.536 164.419 352.317L164.46 352.302L169.74 350.542Z" fill="black"/>
<path d="M106.875 344L109.875 255.125L129.331 252.481L129.5 248H138.996L138.875 245.75L163.5 251.625L163.529 253.117L170.25 255.125L186.125 344L165.334 347L165.375 349.125L148.403 347.812L148.625 350.75H125.625L125.769 346.923L106.875 344Z" fill="black"/>
<path d="M185.625 144.125C185.625 141.748 185.875 131.667 185.625 127.25L179.75 128L165.374 140.125C162.708 146.292 150.325 168.35 151.125 171.75C152.125 176 168.264 179.435 173.5 183.125C194.25 197.75 190.125 171.25 189.25 166C188.375 160.75 185.625 151.125 185.625 144.125Z" fill="#17100F"/>
<path fill-rule="evenodd" clip-rule="evenodd" d="M99.25 119.259C99.25 119.259 95.6551 159.813 92.7503 168.781C89.8455 177.75 83.1732 196.428 84.5729 207.823C85.9727 219.219 86.2506 220.373 92.7503 216.749C99.25 213.125 175.499 160.348 175.499 160.348L99.25 119.259Z" fill="#17100F"/>
<rect x="131.75" y="149.75" width="20.25" height="29" rx="10.125" fill="#EBBAAA"/>
<path d="M125.5 258.5V243.75H159.5V258.5H125.5Z" fill="#E5CECB"/>
<path d="M125.5 246.458V177.75H159.5V246.458C159.5 246.458 147.581 248.5 142.5 248.5C137.419 248.5 125.5 246.458 125.5 246.458Z" fill="#E7D6D3"/>
<path d="M141.25 173.25C133.95 173.25 129.375 169.75 128 168L124 176.375C126.625 179.208 133.75 184.875 141.25 184.875C148.75 184.875 156.042 181.125 158.75 179.25L156 168C154.125 169.75 148.55 173.25 141.25 173.25Z" fill="#E6CECB"/>
<rect x="95.3569" y="167.708" width="43.244" height="89.4248" rx="21.622" transform="rotate(8.5 95.3569 167.708)" fill="#67513B"/>
<rect x="79" y="240.624" width="26.5347" height="52.0257" rx="13.2674" transform="rotate(-45 79 240.624)" fill="#67513B"/>
<path d="M97.7207 301.786L108.458 168.432L131.625 166.75L139.75 214.125C137.603 242.471 134.656 306.296 134.656 309.732C134.656 313.168 108.458 305.365 97.7207 301.786Z" fill="#67513B"/>
<path d="M139.875 213.875L131.5 166.125C125.5 165.25 117.875 165.583 114.25 166.125L135.625 213.125L138.375 233.875L139.875 213.875Z" fill="#82684B"/>
<path d="M187.053 300.283L176.375 168.375L152 167.375L145.125 214.75C147.273 243.096 150.117 304.793 150.117 308.229C150.117 311.664 176.316 303.862 187.053 300.283Z" fill="#67513B"/>
<path d="M174.725 219.554L215.125 230.603L199.272 288.568L158.873 277.519C157.423 277.123 156.55 275.657 156.946 274.208L171.358 221.512C171.758 220.049 173.276 219.158 174.725 219.554Z" fill="#8B72AA"/>
<path opacity="0.3" d="M193.591 286.991L199.3 288.552L215.153 230.587L209.444 229.026L193.591 286.991Z" fill="#CCDDE5"/>
<path d="M178.132 219.204L181.823 220.213C182.783 220.476 183.459 221.07 183.331 221.538L167.302 280.147C167.174 280.616 166.29 280.783 165.33 280.52L161.639 279.51C160.678 279.248 160.002 278.654 160.13 278.186L176.155 219.591C176.287 219.108 177.171 218.941 178.132 219.204Z" fill="#CE8A4C"/>
<path d="M207.48 221.252L212.474 226.003L211.494 229.586L205.639 227.985L207.48 221.252Z" fill="#EA3939"/>
<path d="M145.125 215L152 167C157.875 165.75 165.458 165.75 168.375 165.75L151 217.125L147.5 255.5L145.125 215Z" fill="#82684B"/>
<rect width="22.6357" height="63.002" rx="11.3179" transform="matrix(-0.981627 0.190809 0.190809 0.981627 189.517 167)" fill="#67513B"/>
<path fill-rule="evenodd" clip-rule="evenodd" d="M175.58 255.007L180.33 219.007L198.671 221.427L193.921 257.427H193.921C193.252 262.491 188.605 266.055 183.54 265.387C178.475 264.719 174.911 260.071 175.58 255.007H175.58Z" fill="#F6DDD6"/>
<rect width="22.6357" height="44.5975" rx="11.3179" transform="matrix(-0.998135 -0.0610485 -0.0610485 0.998135 200.741 211.882)" fill="#67513B"/>
<path d="M132.187 221.688C133.551 221.688 134.656 220.582 134.656 219.219C134.656 217.855 133.551 216.749 132.187 216.749C130.823 216.749 129.717 217.855 129.717 219.219C129.717 220.582 130.823 221.688 132.187 221.688Z" fill="#C3996F"/>
<path d="M130.684 255.188C132.047 255.188 133.153 254.082 133.153 252.718C133.153 251.354 132.047 250.249 130.684 250.249C129.32 250.249 128.214 251.354 128.214 252.718C128.214 254.082 129.32 255.188 130.684 255.188Z" fill="#C3996F"/>
<path d="M131.757 238.438C133.121 238.438 134.227 237.332 134.227 235.968C134.227 234.604 133.121 233.499 131.757 233.499C130.393 233.499 129.287 234.604 129.287 235.968C129.287 237.332 130.393 238.438 131.757 238.438Z" fill="#C3996F"/>
<path d="M128.751 271.293C130.115 271.293 131.22 270.187 131.22 268.824C131.22 267.46 130.115 266.354 128.751 266.354C127.387 266.354 126.281 267.46 126.281 268.824C126.281 270.187 127.387 271.293 128.751 271.293Z" fill="#C3996F"/>
<path d="M127.248 285.251C128.612 285.251 129.717 284.146 129.717 282.782C129.717 281.418 128.612 280.312 127.248 280.312C125.884 280.312 124.778 281.418 124.778 282.782C124.778 284.146 125.884 285.251 127.248 285.251Z" fill="#C3996F"/>
<path d="M174.75 135.5C180.273 135.5 184.75 130.519 184.75 124.375C184.75 118.231 180.273 113.25 174.75 113.25C169.227 113.25 164.75 118.231 164.75 124.375C164.75 130.519 169.227 135.5 174.75 135.5Z" fill="#E4C1C1"/>
<path d="M109.25 135.5C103.727 135.5 99.25 130.519 99.25 124.375C99.25 118.231 103.727 113.25 109.25 113.25C114.773 113.25 119.25 118.231 119.25 124.375C119.25 130.519 114.773 135.5 109.25 135.5Z" fill="#E4C1C1"/>
<path d="M107.704 99.466C106.967 79.9948 122.502 63.75 141.988 63.75C161.67 63.75 177.211 80.3069 176.467 99.975C176.233 106.152 176.106 111.337 176.21 113.689C176.394 117.838 174.382 130.081 172.372 141.056C170.16 153.13 160.783 162.546 148.782 165.123C144.554 166.031 140.177 166.042 135.945 165.157C123.586 162.574 113.979 152.767 111.888 140.316C110.069 129.479 108.23 117.632 108.17 113.689C108.134 111.334 107.948 105.909 107.704 99.466Z" fill="#F6DDD6"/>
<path fill-rule="evenodd" clip-rule="evenodd" d="M128.583 134.005V138.955C128.583 146.575 134.74 152.75 142.333 152.75C149.928 152.75 156.082 146.575 156.082 138.955V134.005H128.583Z" fill="#393939"/>
<mask id="mask0_215_169" style="mask-type:alpha" maskUnits="userSpaceOnUse" x="128" y="134" width="29" height="19">
<path fill-rule="evenodd" clip-rule="evenodd" d="M128.606 134C128.591 134.255 128.583 134.513 128.583 134.77V139.592C128.583 146.86 134.74 152.75 142.333 152.75C149.928 152.75 156.082 146.86 156.082 139.592V134.77C156.082 134.513 156.075 134.255 156.06 134H128.606Z" fill="white"/>
</mask>
<g mask="url(#mask0_215_169)">
<path d="M142.333 157.173C146.912 157.173 150.625 155.146 150.625 152.645C150.625 150.144 146.912 148.117 142.333 148.117C137.753 148.117 134.041 150.144 134.041 152.645C134.041 155.146 137.753 157.173 142.333 157.173Z" fill="#FF6C6C"/>
</g>
<rect x="128.583" y="134.005" width="27.5" height="5.68665" fill="white"/>
<path d="M121.628 98.2707C125.46 97.632 129.692 97.9846 133.874 99.4605C134.655 99.7362 135.065 100.593 134.789 101.374C134.514 102.155 133.657 102.565 132.876 102.289C129.176 100.984 125.457 100.674 122.121 101.23C121.136 101.394 120.323 101.659 119.664 101.99C119.291 102.178 118.998 102.372 118.777 102.557C118.723 102.602 118.679 102.642 118.645 102.676L118.615 102.706C118.615 102.705 118.62 102.699 118.629 102.687C118.111 103.334 117.168 103.439 116.521 102.921C115.874 102.404 115.769 101.46 116.287 100.813C116.403 100.668 116.589 100.476 116.852 100.256C117.247 99.9251 117.733 99.6037 118.315 99.3107C119.245 98.8426 120.347 98.4842 121.628 98.2707Z" fill="#62360D"/>
<path d="M149.148 99.3399C152.638 97.8104 157.848 97.4243 161.566 98.0656C162.767 98.2726 163.865 98.6656 164.851 99.1908C165.381 99.4735 165.849 99.7782 166.251 100.086L166.372 100.181C166.565 100.333 166.708 100.461 166.802 100.553C167.394 101.133 167.403 102.082 166.823 102.674C166.258 103.25 165.342 103.274 164.748 102.738L164.688 102.682L164.659 102.657C164.597 102.602 164.519 102.539 164.427 102.468C164.151 102.256 163.82 102.041 163.44 101.839C162.725 101.458 161.928 101.172 161.057 101.022C157.878 100.474 153.252 100.817 150.352 102.088C149.593 102.42 148.709 102.075 148.376 101.316C148.044 100.557 148.389 99.6725 149.148 99.3399Z" fill="#62360D"/>
<path d="M140.482 116.571L144.019 118.929C142.817 120.732 141.875 123.438 141.875 125.406C141.875 127.305 142.561 128.102 144.66 128.125L144.75 128.125V132.375C140.115 132.375 137.625 129.575 137.625 125.406C137.625 122.582 138.8 119.155 140.395 116.704L140.482 116.571Z" fill="#EBBAAA"/>
<path d="M151.756 111.166C155.1 109.596 159.877 109.647 164.071 111.096C164.985 111.411 165.47 112.408 165.154 113.321C164.839 114.235 163.842 114.72 162.929 114.404C159.534 113.232 155.68 113.19 153.244 114.334C152.369 114.745 151.327 114.369 150.916 113.494C150.505 112.619 150.881 111.577 151.756 111.166Z" fill="black"/>
<path d="M118.506 111.166C121.85 109.596 126.627 109.647 130.821 111.096C131.735 111.411 132.22 112.408 131.904 113.321C131.589 114.235 130.592 114.72 129.679 114.404C126.284 113.232 122.43 113.19 119.994 114.334C119.119 114.745 118.077 114.369 117.666 113.494C117.255 112.619 117.631 111.577 118.506 111.166Z" fill="black"/>
<path d="M136.81 110.875C140.138 109.291 143.345 109.136 146.467 110.835L146.589 110.902L145.733 112.429C143.156 110.985 140.536 111.074 137.69 112.395L137.562 112.455L136.81 110.875Z" fill="black"/>
<path d="M146.628 117.191L146.209 111.804C146.209 111.804 148.822 105.932 159.322 104.693C169.823 103.454 174.466 109.911 174.466 109.911L173.629 117.688C173.099 122.611 168.877 126.301 163.928 126.168L155.844 125.95C150.983 125.82 147.006 122.039 146.628 117.191Z" fill="white" fill-opacity="0.4"/>
<path d="M158.969 103.465C162.331 103.03 165.489 103.271 168.407 104.046C170.574 104.622 172.44 105.442 173.977 106.365C174.993 106.975 175.535 108.11 175.457 109.308L175.45 109.392L175.192 112.268L173.2 112.089L173.458 109.213C173.502 108.721 173.304 108.294 172.947 108.079C171.565 107.249 169.87 106.504 167.893 105.979C165.22 105.269 162.323 105.048 159.225 105.448C153.704 106.162 149.87 107.879 147.461 109.905C147.229 110.101 147.113 110.428 147.153 110.811L147.161 110.875L147.62 113.984L145.641 114.276L145.183 111.167C145.025 110.101 145.369 109.052 146.174 108.375C148.872 106.105 153.062 104.229 158.969 103.465Z" fill="black"/>
<path d="M137.451 116.992L137.809 111.859C137.809 111.859 135.199 106.118 124.883 104.984C114.568 103.85 110.062 110.224 110.062 110.224L110.926 117.688C111.495 122.606 115.746 126.263 120.695 126.09L128.305 125.824C133.165 125.655 137.112 121.843 137.451 116.992Z" fill="white" fill-opacity="0.4"/>
<path d="M115.98 104.396C118.833 103.617 121.926 103.357 125.223 103.757C130.964 104.453 135.074 106.233 137.757 108.421C138.591 109.101 138.947 110.175 138.779 111.257L138.764 111.343L138.256 114.151L136.288 113.795L136.796 110.986C136.874 110.559 136.755 110.185 136.493 109.971C134.099 108.019 130.344 106.392 124.983 105.742C121.95 105.375 119.117 105.613 116.506 106.326C114.574 106.853 112.917 107.595 111.565 108.42C111.226 108.626 111.033 109.027 111.059 109.492L111.064 109.553L111.343 112.467L109.353 112.658L109.073 109.744C108.955 108.517 109.49 107.342 110.524 106.712C112.029 105.794 113.856 104.976 115.98 104.396Z" fill="black"/>
<path d="M157.713 76.878C145.813 70.278 140.713 69.7529 126.713 79.878C112.588 76.2531 125.213 67.0029 130.713 64.2529C136.213 61.5029 148.588 60.5029 158.963 65.7529C169.338 71.0029 172.588 85.128 157.713 76.878Z" fill="#311E1C"/>
<path d="M119.889 89.0178C126.623 81.1281 139.373 78.0031 142.623 75.7531C143.873 75.1477 143.873 65.9917 140.873 63.6281C136.748 60.3781 122.123 66.7532 115.623 72.8782C109.123 79.0032 102.678 91.75 99.7483 110.128C98.3733 118.753 97.3734 146.128 97.3734 155.878C97.3734 165.628 98.4984 178.253 97.3734 189.378C96.6058 196.969 95.4998 210.75 95.5 229.375C95.5 233.628 107.441 234.914 108.123 231.5C109.123 226.5 108.25 198.253 109.25 189.378C110.352 179.597 112.123 172.753 110.748 163.628C109.373 154.503 105.248 145.378 106.873 140.003C108.498 134.628 107.873 121.503 108.123 113.378C108.373 105.253 113.06 97.0183 119.889 89.0178Z" fill="#311E1C"/>
<path d="M110.625 193.375C109.025 185.775 105.917 151 105.375 134.75C105.625 134.833 107.9 135.4 108.5 135.5C109.1 135.6 109.583 135.542 109.75 135.5C110.458 138.625 110.769 143.287 113.125 148C115 151.75 118.375 155.458 120 157.125C121.417 162.667 124.45 175.65 125.25 183.25C126.25 192.75 125.25 222.5 123 222.5C117.777 222.5 114.101 223.25 113.125 220.125C111.25 214.125 112.625 202.875 110.625 193.375Z" fill="#311E1C"/>
<path d="M163.875 86.0001C156.488 78.9084 144.625 77.3751 143.5 75.6251C142.333 71.6251 142.103 64.903 147.25 63.1252C154.125 60.7503 172.25 70.375 178.25 86.0001C182.722 97.6472 185.75 125 185.625 127.5C185.5 130 181.25 170.25 180.625 176.5C180 182.75 180.25 187.375 180.625 200.5C181 213.625 181 224.744 178.25 225.5C173.25 226.875 157.625 224.875 155.5 224.5C153.375 224.125 154.75 215.45 154.75 210.625C154.75 204 159.25 181.625 161.625 173C163.45 166.372 172.5 145.25 173.125 143.5C173.625 142.1 174.375 137.417 174.625 135.375L174.632 135.377C174.921 135.46 175.217 135.544 177.5 134.75C180.375 133.75 183.5 130.375 184.25 127.125C185 123.875 184.375 120.625 182.625 117.625C181.225 115.225 177.25 113.667 176.125 113.375C176.125 110.625 176 107.25 175.625 105.375C174.679 100.643 170.125 92 163.875 86.0001Z" fill="#311E1C"/>
<defs>
<clipPath id="clip0_215_169">
<rect width="358" height="457" fill="white" transform="translate(30)"/>
</clipPath>
</defs>
</svg>
