<svg width="390" height="457" viewBox="0 0 390 457" fill="none" xmlns="http://www.w3.org/2000/svg">
<g clip-path="url(#clip0_214_165)">
<path d="M55.6077 274.464C53.6398 261.779 46.5188 216.026 76.8883 182.266C97.3818 159.516 113.5 166.024 142.112 146.363C206.522 102.1 175.978 33.9741 228.617 8.20487C259.682 -7.00004 302.088 1.15176 327.13 14.2515C387.265 45.7062 392.034 129.122 373.225 183.488C350.837 248.21 300.916 254.71 305.246 304.482C307.653 332.333 327.579 380.199 335.926 400.252C342.462 415.971 353.848 441.379 340.906 452.159C336.769 455.601 331.231 456.646 327.13 456.984L41.1918 451.998C36.7526 451.951 29.4485 451.368 26.3182 447.342C15.0143 432.82 79.9363 401.719 84.4487 353.17C87.2861 322.56 62.8385 320.931 55.6077 274.464Z" fill="#CEACA7"/>
</g>
<path d="M31.4919 173.17V194.557H-11.3508" stroke="#8DC6BF" stroke-width="4" stroke-miterlimit="10" stroke-linecap="round" stroke-linejoin="round"/>
<path d="M74.2654 194.557H31.4919V173.17" stroke="#8DC6BF" stroke-width="4" stroke-miterlimit="10" stroke-linecap="round" stroke-linejoin="round"/>
<path d="M52.8787 194.557H10.036V215.944H52.8787V194.557Z" stroke="#8DC6BF" stroke-width="4" stroke-miterlimit="10" stroke-linecap="round" stroke-linejoin="round"/>
<path d="M43.6041 237.33H31.4919V215.944H74.2654" stroke="#8DC6BF" stroke-width="4" stroke-miterlimit="10" stroke-linecap="round" stroke-linejoin="round"/>
<path d="M-11.3508 215.944H31.4919V237.33H-3.25287" stroke="#8DC6BF" stroke-width="4" stroke-miterlimit="10" stroke-linecap="round" stroke-linejoin="round"/>
<path d="M-25.9547 194.557H10.0359V215.944H-11.3508" stroke="#8DC6BF" stroke-width="4" stroke-miterlimit="10" stroke-linecap="round" stroke-linejoin="round"/>
<path d="M83.7475 215.944H52.8786V194.557H67.6902" stroke="#8DC6BF" stroke-width="4" stroke-miterlimit="10" stroke-linecap="round" stroke-linejoin="round"/>
<path d="M379.356 167.425V188.812H336.513" stroke="#8DC6BF" stroke-width="4" stroke-miterlimit="10" stroke-linecap="round" stroke-linejoin="round"/>
<path d="M422.129 188.812H379.355V167.425" stroke="#8DC6BF" stroke-width="4" stroke-miterlimit="10" stroke-linecap="round" stroke-linejoin="round"/>
<path d="M400.742 188.812H357.899V210.199H400.742V188.812Z" stroke="#8DC6BF" stroke-width="4" stroke-miterlimit="10" stroke-linecap="round" stroke-linejoin="round"/>
<path d="M316.856 102.435H352.916V123.821H331.46" stroke="#8DC6BF" stroke-width="4" stroke-miterlimit="10" stroke-linecap="round" stroke-linejoin="round"/>
<path d="M54.7475 265.638H17.3726V280.865H54.7475V265.638Z" fill="#6DA580"/>
<path d="M54.7475 265.638H17.3726V280.865H54.7475V265.638Z" stroke="#313031" stroke-width="4" stroke-miterlimit="10" stroke-linecap="round" stroke-linejoin="round"/>
<path d="M120.569 307.512C135.859 307.512 148.254 295.117 148.254 279.827C148.254 264.537 135.859 252.142 120.569 252.142C105.279 252.142 92.8838 264.537 92.8838 279.827C92.8838 295.117 105.279 307.512 120.569 307.512Z" fill="#0BC6D5"/>
<path opacity="0.74" d="M110.394 279.827C110.394 267.576 118.354 257.264 129.29 253.595C126.521 252.696 123.614 252.142 120.5 252.142C105.204 252.142 92.8145 264.531 92.8145 279.827C92.8145 295.123 105.204 307.512 120.5 307.512C123.545 307.512 126.521 307.028 129.29 306.059C118.354 302.39 110.394 292.078 110.394 279.827Z" fill="#0BC6D5"/>
<path d="M120.569 307.512C135.859 307.512 148.254 295.117 148.254 279.827C148.254 264.537 135.859 252.142 120.569 252.142C105.279 252.142 92.8838 264.537 92.8838 279.827C92.8838 295.117 105.279 307.512 120.569 307.512Z" stroke="#313031" stroke-width="4" stroke-miterlimit="10" stroke-linecap="round" stroke-linejoin="round"/>
<path d="M120.569 248.474V188.812" stroke="#313031" stroke-width="4" stroke-miterlimit="10" stroke-linecap="round" stroke-linejoin="round"/>
<path d="M164.588 205.285H76.6188L89.1463 142.44H151.991L164.588 205.285Z" stroke="#313031" stroke-width="4" stroke-miterlimit="10" stroke-linecap="round" stroke-linejoin="round"/>
<path d="M164.588 205.285H76.6188L89.1463 142.44H151.991L164.588 205.285Z" fill="#F0F4F7"/>
<path d="M89.1463 142.44L76.6188 205.285H108.526L115.516 142.44H89.1463Z" fill="#DBDBDB"/>
<path d="M164.588 205.285H76.6188L89.1463 142.44H151.991L164.588 205.285Z" stroke="#313031" stroke-width="4" stroke-miterlimit="10" stroke-linecap="round" stroke-linejoin="round"/>
<path d="M141.471 205.285V222.519" stroke="#313031" stroke-width="4" stroke-miterlimit="10" stroke-linecap="round" stroke-linejoin="round"/>
<path d="M141.471 233.385C144.491 233.385 146.939 230.937 146.939 227.918C146.939 224.898 144.491 222.45 141.471 222.45C138.451 222.45 136.003 224.898 136.003 227.918C136.003 230.937 138.451 233.385 141.471 233.385Z" stroke="#313031" stroke-width="4" stroke-miterlimit="10" stroke-linecap="round" stroke-linejoin="round"/>
<path d="M141.471 233.385C144.491 233.385 146.939 230.937 146.939 227.918C146.939 224.898 144.491 222.45 141.471 222.45C138.451 222.45 136.003 224.898 136.003 227.918C136.003 230.937 138.451 233.385 141.471 233.385Z" fill="#313031"/>
<path d="M28.9312 391.606H6.78314V405.448H28.9312V391.606Z" stroke="#313031" stroke-width="4" stroke-miterlimit="10" stroke-linecap="round" stroke-linejoin="round"/>
<path d="M28.9312 391.606H6.78314V405.448H28.9312V391.606Z" fill="#313031"/>
<path d="M141.748 391.606H119.6V405.448H141.748V391.606Z" stroke="#313031" stroke-width="4" stroke-miterlimit="10" stroke-linecap="round" stroke-linejoin="round"/>
<path d="M141.748 391.606H119.6V405.448H141.748V391.606Z" fill="#313031"/>
<path d="M234.493 330.698V240.03C234.493 220.166 250.62 204.039 270.484 204.039H335.751C355.616 204.039 371.742 220.166 371.742 240.03V330.698H234.493Z" fill="#FFC857"/>
<path opacity="0.6" d="M335.751 204.731H270.484C250.62 204.731 234.493 220.858 234.493 240.722V249.166C234.493 229.302 250.62 213.175 270.484 213.175H335.751C355.616 213.175 371.742 229.302 371.742 249.166V240.722C371.742 220.858 355.616 204.731 335.751 204.731Z" fill="#FFC857"/>
<path d="M234.493 330.698V240.03C234.493 220.166 250.62 204.039 270.484 204.039H335.751C355.616 204.039 371.742 220.166 371.742 240.03V330.698H234.493Z" stroke="#313031" stroke-width="4" stroke-miterlimit="10" stroke-linecap="round" stroke-linejoin="round"/>
<path d="M159.051 336.235H-9.82788V391.606H159.051V336.235Z" fill="#7C4F49"/>
<path opacity="0.24" d="M92.8839 363.921H51.7715V370.288H92.8839V363.921Z" stroke="#7C4F49" stroke-width="4" stroke-miterlimit="10" stroke-linecap="round" stroke-linejoin="round"/>
<path opacity="0.54" d="M159.051 336.651H-9.82788V343.364H159.051V336.651Z" fill="#7C4F49"/>
<path opacity="0.24" d="M159.051 384.823H-9.82788V391.536H159.051V384.823Z" fill="#7C4F49"/>
<path d="M159.051 336.235H-9.82788V391.606H159.051V336.235Z" stroke="#313031" stroke-width="4" stroke-miterlimit="10" stroke-linecap="round" stroke-linejoin="round"/>
<path d="M159.051 280.865H-9.82788V336.235H159.051V280.865Z" fill="#7C4F49"/>
<path opacity="0.24" d="M92.8839 308.55H51.7715V314.918H92.8839V308.55Z" stroke="#7C4F49" stroke-width="4" stroke-miterlimit="10" stroke-linecap="round" stroke-linejoin="round"/>
<path opacity="0.24" d="M159.051 329.314H-9.82788V336.028H159.051V329.314Z" fill="#7C4F49"/>
<path opacity="0.54" d="M159.051 280.865H-9.82788V287.579H159.051V280.865Z" fill="#7C4F49"/>
<path d="M159.051 280.865H-9.82788V336.235H159.051V280.865Z" stroke="#313031" stroke-width="4" stroke-miterlimit="10" stroke-linecap="round" stroke-linejoin="round"/>
<path d="M402.749 392.021H365.374V292.355C365.374 286.264 370.358 281.281 376.448 281.281H391.675C397.766 281.281 402.749 286.264 402.749 292.355V392.021Z" fill="#FFC857"/>
<path opacity="0.6" d="M391.675 280.865H376.448C370.358 280.865 365.374 285.849 365.374 291.939V298.861C365.374 292.77 370.358 287.787 376.448 287.787H391.675C397.766 287.787 402.749 292.77 402.749 298.861V291.939C402.749 285.849 397.835 280.865 391.675 280.865Z" fill="#FFC857"/>
<path d="M402.749 391.606H365.374V291.939C365.374 285.849 370.358 280.865 376.448 280.865H391.675C397.766 280.865 402.749 285.849 402.749 291.939V391.606Z" stroke="#313031" stroke-width="4" stroke-miterlimit="10" stroke-linecap="round" stroke-linejoin="round"/>
<path d="M356.604 165.672V82.6167L243.095 82.6167V165.672H356.604Z" fill="white"/>
<path d="M356.604 165.672V82.6167L243.095 82.6167V165.672H356.604Z" stroke="#313031" stroke-width="4" stroke-miterlimit="10" stroke-linecap="round" stroke-linejoin="round"/>
<path d="M345.51 93.7137H254.15V154.621H345.51V93.7137Z" fill="#C6C6C6"/>
<path d="M345.51 93.7137H254.15V154.621H345.51V93.7137Z" stroke="#313031" stroke-width="4" stroke-miterlimit="10" stroke-linecap="round" stroke-linejoin="round"/>
<path d="M270.622 142.44L285.088 117.315L299.622 142.44H270.622Z" fill="#313031"/>
<path d="M270.622 142.44L285.088 117.315L299.622 142.44H270.622Z" stroke="#313031" stroke-width="4" stroke-miterlimit="10" stroke-linecap="round" stroke-linejoin="round"/>
<path d="M285.088 142.44L301.975 113.163L318.863 142.44H285.088Z" fill="#0BC6D5"/>
<path d="M285.088 142.44L301.975 113.163L318.863 142.44H285.088Z" stroke="#313031" stroke-width="4" stroke-miterlimit="10" stroke-linecap="round" stroke-linejoin="round"/>
<path d="M325.37 117.246C328.925 117.246 331.806 114.364 331.806 110.809C331.806 107.254 328.925 104.373 325.37 104.373C321.815 104.373 318.933 107.254 318.933 110.809C318.933 114.364 321.815 117.246 325.37 117.246Z" fill="#FFC857"/>
<path d="M325.37 117.246C328.925 117.246 331.806 114.364 331.806 110.809C331.806 107.254 328.925 104.373 325.37 104.373C321.815 104.373 318.933 107.254 318.933 110.809C318.933 114.364 321.815 117.246 325.37 117.246Z" stroke="#313031" stroke-width="4" stroke-miterlimit="10" stroke-linecap="round" stroke-linejoin="round"/>
<path d="M263.078 82.6398L299.069 58L335.059 82.6398" stroke="#313031" stroke-width="4" stroke-miterlimit="10" stroke-linecap="round" stroke-linejoin="round"/>
<path d="M92.8839 308.55H51.7715" stroke="#313031" stroke-width="4" stroke-miterlimit="10" stroke-linecap="round" stroke-linejoin="round"/>
<path d="M51.7715 363.921H92.8839" stroke="#313031" stroke-width="4" stroke-miterlimit="10" stroke-linecap="round" stroke-linejoin="round"/>
<path d="M387.522 391.606H365.374V405.448H387.522V391.606Z" fill="#313031"/>
<path d="M387.522 391.606H365.374V405.448H387.522V391.606Z" stroke="#313031" stroke-width="4" stroke-miterlimit="10" stroke-linecap="round" stroke-linejoin="round"/>
<path d="M240.653 391.606H218.505V405.448H240.653V391.606Z" fill="#313031"/>
<path d="M240.653 391.606H218.505V405.448H240.653V391.606Z" stroke="#313031" stroke-width="4" stroke-miterlimit="10" stroke-linecap="round" stroke-linejoin="round"/>
<path d="M240.653 391.606H203.278V291.939C203.278 285.849 208.261 280.865 214.352 280.865H229.579C235.67 280.865 240.653 285.849 240.653 291.939V391.606Z" fill="#FFC857"/>
<path opacity="0.6" d="M229.579 280.865H214.352C208.261 280.865 203.278 285.849 203.278 291.939V298.861C203.278 292.77 208.261 287.787 214.352 287.787H229.579C235.67 287.787 240.653 292.77 240.653 298.861V291.939C240.653 285.849 235.67 280.865 229.579 280.865Z" fill="#FFC857"/>
<path d="M240.653 391.606H203.278V291.939C203.278 285.849 208.261 280.865 214.352 280.865H229.579C235.67 280.865 240.653 285.849 240.653 291.939V391.606Z" stroke="#313031" stroke-width="4" stroke-miterlimit="10" stroke-linecap="round" stroke-linejoin="round"/>
<path d="M240.791 361.844V328.345C240.791 321.216 246.536 315.472 253.665 315.472H352.501C359.63 315.472 365.374 321.216 365.374 328.345V361.844H240.791Z" fill="#FFC857"/>
<path opacity="0.6" d="M352.501 315.472H253.665C246.536 315.472 240.791 321.216 240.791 328.345V336.651C240.791 329.522 246.536 323.777 253.665 323.777H352.501C359.63 323.777 365.374 329.522 365.374 336.651V328.345C365.374 321.216 359.63 315.472 352.501 315.472Z" fill="#FFC857"/>
<path d="M240.791 361.844V328.345C240.791 321.216 246.536 315.472 253.665 315.472H352.501C359.63 315.472 365.374 321.216 365.374 328.345V361.844H240.791Z" stroke="#313031" stroke-width="4" stroke-miterlimit="10" stroke-linecap="round" stroke-linejoin="round"/>
<path d="M365.398 388.122V361.821H240.815V388.122H365.398Z" fill="#FFC857"/>
<path d="M365.398 388.122V361.821H240.815V388.122H365.398Z" fill="#FFC857"/>
<path d="M365.398 370.127V361.821H240.815V370.127H365.398Z" fill="#D89E36"/>
<path d="M365.398 388.122V361.821H240.815V388.122H365.398Z" stroke="#313031" stroke-width="4" stroke-miterlimit="10" stroke-linecap="round" stroke-linejoin="round"/>
<path opacity="0.69" d="M303.36 267.369C307.565 267.369 310.973 263.96 310.973 259.755C310.973 255.551 307.565 252.142 303.36 252.142C299.155 252.142 295.747 255.551 295.747 259.755C295.747 263.96 299.155 267.369 303.36 267.369Z" fill="white"/>
<path d="M303.36 267.369C307.565 267.369 310.973 263.96 310.973 259.755C310.973 255.551 307.565 252.142 303.36 252.142C299.155 252.142 295.747 255.551 295.747 259.755C295.747 263.96 299.155 267.369 303.36 267.369Z" stroke="#313031" stroke-width="4" stroke-miterlimit="10" stroke-linecap="round" stroke-linejoin="round"/>
<path d="M-29 405.448H419.222" stroke="#313031" stroke-width="4" stroke-miterlimit="10" stroke-linecap="round" stroke-linejoin="round"/>
<path d="M148.738 439.086H203.555" stroke="#313031" stroke-width="4" stroke-miterlimit="10" stroke-linecap="round" stroke-linejoin="round"/>
<path d="M124.652 439.086H136.626" stroke="#313031" stroke-width="4" stroke-miterlimit="10" stroke-linecap="round" stroke-linejoin="round"/>
<path d="M142.925 226.326C143.689 226.326 144.309 225.768 144.309 225.08C144.309 224.392 143.689 223.834 142.925 223.834C142.16 223.834 141.54 224.392 141.54 225.08C141.54 225.768 142.16 226.326 142.925 226.326Z" fill="#DBDBDB"/>
<path d="M291.98 375.973L276.739 376.508L278.843 390.275L294.208 389.735L291.98 375.973Z" fill="black"/>
<path d="M315.563 376.062L330.619 376.598L328.54 390.365L313.361 389.825L315.563 376.062Z" fill="black"/>
<path d="M263.004 288.25H296.254L280 336.5L294 377.75H272.169L262.084 357.625L252 337.5L251.5 336V334.5L252 333L263.004 288.25Z" fill="#2E2622"/>
<path d="M300.527 322.768C316.208 322.768 328.921 316.746 328.921 309.318C328.921 301.889 316.208 295.868 300.527 295.868C284.845 295.868 272.132 301.889 272.132 309.318C272.132 316.746 284.845 322.768 300.527 322.768Z" fill="#2E2622"/>
<path d="M302.754 288.25H336.254V380.5H311.988L302.754 288.25Z" fill="#2E2622"/>
<path d="M265.5 369.5L294.5 368L296.256 380.95H271.705L265.5 369.5Z" fill="#49403C"/>
<path d="M309.92 367.5H337.247V380.95H309.92V367.5Z" fill="#49403C"/>
<path d="M253.129 401.75C252.682 400.745 253.004 398.5 253.254 398.125C253.504 397.75 283.88 395.375 283.88 395.375C288.922 395 298.314 395.038 299.005 397.75C300.755 404.625 296.004 404.625 292.004 404.625C286.504 404.625 285.851 403.168 282.255 403.625C280.38 403.863 277.63 405.125 265.005 405.125C254.879 405.125 254.129 404 253.129 401.75Z" fill="#C6CFDB"/>
<path d="M284.754 385.875C289.854 385.775 291.546 382.5 291.754 380.875H294.379C294.629 381.25 295.441 382.125 296.004 384.75C296.754 388.25 298.004 388.875 298.754 392.125C299.273 394.375 299.379 397.75 298.129 399.625C296.188 402.537 293.754 402.25 289.629 402.25C287.254 402.25 283.254 401.625 279.629 402.625C274.568 404.02 260.629 404.75 257.129 403.625C251.164 401.707 253.004 396.125 255.504 394C259.891 390.27 268.365 390.527 270.504 387.625C272.254 385.25 273.25 379.517 274.504 378.125C276.754 375.625 278.282 377.827 277.879 380.25C277.379 383.25 278.379 386 284.754 385.875Z" fill="#D9E0E9"/>
<mask id="mask0_214_165" style="mask-type:alpha" maskUnits="userSpaceOnUse" x="253" y="377" width="47" height="28">
<path fill-rule="evenodd" clip-rule="evenodd" d="M284.754 385.875C289.854 385.775 291.546 382.5 291.754 380.875H294.379C294.629 381.25 295.441 382.125 296.004 384.75C296.754 388.25 298.004 388.875 298.754 392.125C299.273 394.375 299.379 397.75 298.129 399.625C296.188 402.537 293.754 402.25 289.629 402.25C287.254 402.25 283.254 401.625 279.629 402.625C274.568 404.02 260.629 404.75 257.129 403.625C251.164 401.707 253.004 396.125 255.504 394C259.891 390.27 268.365 390.527 270.504 387.625C272.254 385.25 273.25 379.517 274.504 378.125C276.754 375.625 278.282 377.827 277.879 380.25C277.379 383.25 278.379 386 284.754 385.875Z" fill="white"/>
</mask>
<g mask="url(#mask0_214_165)">
<path d="M276.379 380.75C276.679 378.95 277.254 377.833 277.504 377.5L277.004 376.25H274.129C272.795 377.418 270.554 380.275 272.254 382.375C274.379 385 276.004 383 276.379 380.75Z" fill="#FFC9C6"/>
</g>
<mask id="mask1_214_165" style="mask-type:alpha" maskUnits="userSpaceOnUse" x="253" y="377" width="47" height="28">
<path fill-rule="evenodd" clip-rule="evenodd" d="M284.754 385.875C289.854 385.775 291.546 382.5 291.754 380.875H294.379C294.629 381.25 295.441 382.125 296.004 384.75C296.754 388.25 298.004 388.875 298.754 392.125C299.273 394.375 299.379 397.75 298.129 399.625C296.188 402.537 293.754 402.25 289.629 402.25C287.254 402.25 283.254 401.625 279.629 402.625C274.568 404.02 260.629 404.75 257.129 403.625C251.164 401.707 253.004 396.125 255.504 394C259.891 390.27 268.365 390.527 270.504 387.625C272.254 385.25 273.25 379.517 274.504 378.125C276.754 375.625 278.282 377.827 277.879 380.25C277.379 383.25 278.379 386 284.754 385.875Z" fill="white"/>
</mask>
<g mask="url(#mask1_214_165)">
<path d="M258.629 397.875C256.329 397.875 255.754 396.458 255.754 395.75C255.587 397.958 255.629 402.7 257.129 404C259.004 405.625 273.004 404.75 274.879 404C276.754 403.25 274.629 399.5 273.004 400.5C271.379 401.5 266.254 401 264.254 399.5C262.254 398 261.504 397.875 258.629 397.875Z" fill="#253A54"/>
<path d="M256.129 395C256.029 393.5 255.421 393.208 255.129 393.25L251.004 393.5L251.504 401L256.754 404C257.754 403.958 259.754 403.5 259.754 402C259.754 400.125 257.879 400.125 256.754 399C255.629 397.875 256.254 396.875 256.129 395Z" fill="#463131"/>
<path d="M288.504 395.625L285.379 402.375H282.754L285.004 397.5L280.504 396.625L281.504 394.25L288.504 395.625Z" fill="#253A54"/>
<path d="M282.379 399L281.004 402.375L278.129 403.25L280.004 398.375L282.379 399Z" fill="#253A54"/>
<path d="M292.754 395.75C294.687 395.75 296.254 394.183 296.254 392.25C296.254 390.317 294.687 388.75 292.754 388.75C290.821 388.75 289.254 390.317 289.254 392.25C289.254 394.183 290.821 395.75 292.754 395.75Z" fill="#FFC9C6"/>
</g>
<path d="M265.139 388.922C264.713 388.764 264.245 389.019 264.147 389.462L263.372 392.951L259.637 390.73C259.281 390.519 258.821 390.636 258.609 390.992C258.398 391.348 258.515 391.808 258.871 392.02L263.496 394.77C263.935 395.031 264.5 394.786 264.611 394.288L265.425 390.626L270.369 392.453C270.881 392.643 271.418 392.239 271.377 391.694L271.062 387.5H275.504C275.918 387.5 276.254 387.164 276.254 386.75C276.254 386.336 275.918 386 275.504 386H270.254C269.818 386 269.473 386.371 269.506 386.806L269.794 390.642L265.139 388.922Z" fill="#C6CFDB"/>
<path d="M354.033 401.848C354.475 400.835 354.157 398.573 353.91 398.193C353.662 397.815 323.595 395.42 323.595 395.42C318.604 395.043 309.307 395.08 308.623 397.815C306.891 404.748 311.594 404.748 315.554 404.748C320.998 404.748 321.644 403.278 325.203 403.738C327.059 403.978 329.781 405.25 342.278 405.25C352.301 405.25 353.043 404.118 354.033 401.848Z" fill="#C6CFDB"/>
<path d="M322.72 385.885C317.673 385.783 315.999 382.498 315.793 380.868H313.195C312.948 381.243 312.144 382.12 311.587 384.755C310.845 388.268 309.608 388.895 308.866 392.155C308.352 394.415 308.247 397.8 309.484 399.683C311.405 402.605 313.814 402.318 317.896 402.318C320.246 402.318 324.204 401.69 327.792 402.693C332.8 404.095 346.594 404.825 350.058 403.698C355.961 401.773 354.14 396.17 351.666 394.038C347.325 390.295 338.939 390.553 336.822 387.64C335.09 385.258 334.105 379.505 332.864 378.108C330.637 375.598 329.125 377.808 329.524 380.24C330.018 383.25 329.029 386.01 322.72 385.885Z" fill="#D9E0E9"/>
<mask id="mask2_214_165" style="mask-type:alpha" maskUnits="userSpaceOnUse" x="308" y="377" width="46" height="28">
<path fill-rule="evenodd" clip-rule="evenodd" d="M322.701 385.965C317.663 385.865 315.992 382.59 315.786 380.965H313.193C312.946 381.34 312.144 382.215 311.588 384.84C310.847 388.34 309.612 388.965 308.871 392.215C308.358 394.465 308.254 397.84 309.489 399.715C311.406 402.628 313.81 402.34 317.885 402.34C320.232 402.34 324.183 401.715 327.764 402.715C332.764 404.113 346.533 404.84 349.991 403.715C355.883 401.798 354.066 396.215 351.596 394.09C347.262 390.36 338.891 390.618 336.778 387.715C335.05 385.34 334.066 379.61 332.827 378.215C330.604 375.715 329.094 377.918 329.493 380.34C329.986 383.34 328.999 386.09 322.701 385.965Z" fill="white"/>
</mask>
<g mask="url(#mask2_214_165)">
<path d="M330.975 380.84C330.679 379.04 330.111 377.922 329.864 377.59L330.357 376.34H333.198C334.515 377.507 336.729 380.365 335.05 382.465C332.951 385.09 331.345 383.09 330.975 380.84Z" fill="#FFC9C6"/>
</g>
<mask id="mask3_214_165" style="mask-type:alpha" maskUnits="userSpaceOnUse" x="308" y="377" width="46" height="28">
<path fill-rule="evenodd" clip-rule="evenodd" d="M322.701 385.965C317.663 385.865 315.992 382.59 315.786 380.965H313.193C312.946 381.34 312.144 382.215 311.588 384.84C310.847 388.34 309.612 388.965 308.871 392.215C308.358 394.465 308.254 397.84 309.489 399.715C311.406 402.628 313.81 402.34 317.885 402.34C320.232 402.34 324.183 401.715 327.764 402.715C332.764 404.113 346.533 404.84 349.991 403.715C355.883 401.798 354.066 396.215 351.596 394.09C347.262 390.36 338.891 390.618 336.778 387.715C335.05 385.34 334.066 379.61 332.827 378.215C330.604 375.715 329.094 377.918 329.493 380.34C329.986 383.34 328.999 386.09 322.701 385.965Z" fill="white"/>
</mask>
<g mask="url(#mask3_214_165)">
<path d="M348.509 397.965C350.781 397.965 351.349 396.547 351.349 395.84C351.514 398.047 351.472 402.79 349.991 404.09C348.138 405.715 334.308 404.84 332.456 404.09C330.604 403.34 332.703 399.59 334.308 400.59C335.914 401.59 340.977 401.09 342.952 399.59C344.928 398.09 345.669 397.965 348.509 397.965Z" fill="#253A54"/>
<path d="M350.979 395.09C351.078 393.59 351.678 393.297 351.967 393.34L356.041 393.59L355.548 401.09L350.361 404.09C349.373 404.047 347.398 403.59 347.398 402.09C347.398 400.215 349.25 400.215 350.361 399.09C351.473 397.965 350.855 396.965 350.979 395.09Z" fill="#463131"/>
<path d="M318.997 395.715L322.084 402.465H324.677L322.454 397.59L326.9 396.715L325.912 394.34L318.997 395.715Z" fill="#253A54"/>
<path d="M325.047 399.09L326.406 402.465L329.246 403.34L327.393 398.465L325.047 399.09Z" fill="#253A54"/>
</g>
<path d="M314.754 395.75C312.821 395.75 311.254 394.183 311.254 392.25C311.254 390.317 312.821 388.75 314.754 388.75C316.687 388.75 318.254 390.317 318.254 392.25C318.254 394.183 316.687 395.75 314.754 395.75Z" fill="#FFC9C6"/>
<path d="M335.881 391.78C335.841 392.326 336.38 392.73 336.893 392.537L341.831 390.68L342.646 394.41C342.756 394.912 343.327 395.158 343.767 394.892L348.392 392.094C348.746 391.88 348.86 391.419 348.646 391.064C348.431 390.71 347.97 390.596 347.616 390.811L343.888 393.066L343.112 389.512C343.014 389.066 342.543 388.81 342.115 388.971L337.463 390.72L337.752 386.805C337.784 386.37 337.44 386 337.004 386H331.754C331.34 386 331.004 386.336 331.004 386.75C331.004 387.164 331.34 387.5 331.754 387.5H336.197L335.881 391.78Z" fill="#C6CFDB"/>
<path d="M260.291 205.63C258.122 208.341 256.139 210.971 254.231 213.664C252.722 215.792 251.252 217.968 249.734 220.315L249.261 221.05L248.87 221.661C247.563 223.711 246.191 225.927 244.565 228.605L238.152 239.266C233.88 246.364 236.172 255.581 243.27 259.852C250.297 264.081 259.401 261.878 263.727 254.946L269.921 244.648L270.465 243.753C272.196 240.907 273.59 238.671 274.922 236.611C276.218 234.608 277.451 232.782 278.705 231.013C280.277 228.796 281.91 226.629 283.717 224.37C288.892 217.902 287.843 208.462 281.374 203.287C274.905 198.112 265.466 199.161 260.291 205.63Z" fill="#FFB2B2"/>
<rect x="276.004" y="171.25" width="78" height="36" rx="18" fill="#FFB2B2"/>
<path d="M258.674 221.243C260.007 208.085 271.179 198.25 284.404 198.25H313.132C326.236 198.25 337.347 207.912 338.792 220.936C340.155 233.215 341.504 247.786 341.504 257.369C341.504 267.988 339.848 281.203 338.352 290.977C337.122 299.008 330.136 304.75 322.012 304.75H275.63C267.334 304.75 260.252 298.77 259.143 290.549C257.807 280.65 256.322 267.462 256.254 257.369C256.192 248.213 257.419 233.632 258.674 221.243Z" fill="#FF9494"/>
<path d="M299.032 219.438C308.701 219.438 316.538 211.505 316.538 201.718C316.538 191.932 308.701 183.999 299.032 183.999C289.364 183.999 281.526 191.932 281.526 201.718C281.526 211.505 289.364 219.438 299.032 219.438Z" fill="#FFB3B3"/>
<rect x="289.754" y="214" width="5.33728" height="44.833" rx="2.66863" fill="#FFB2B2"/>
<rect x="304.583" y="213.887" width="5.33728" height="34.1585" rx="2.66863" fill="#FFB2B2"/>
<path d="M358.725 253.554L399.125 264.603L383.272 322.568L342.873 311.519C341.423 311.123 340.55 309.657 340.946 308.208L355.358 255.512C355.758 254.049 357.276 253.158 358.725 253.554Z" fill="#72AA88"/>
<path opacity="0.3" d="M377.591 320.991L383.3 322.552L399.153 264.587L393.444 263.026L377.591 320.991Z" fill="#CCDDE5"/>
<path d="M362.132 253.204L365.823 254.214C366.783 254.476 367.459 255.07 367.331 255.538L351.302 314.147C351.174 314.616 350.29 314.783 349.33 314.52L345.639 313.511C344.678 313.248 344.002 312.654 344.13 312.186L360.155 253.591C360.287 253.108 361.171 252.941 362.132 253.204Z" fill="#CE8A4C"/>
<path d="M391.48 255.252L396.474 260.003L395.494 263.587L389.639 261.985L391.48 255.252Z" fill="#EA3939"/>
<path d="M330.785 226.139L330.967 226.87L331.116 227.482C331.745 230.103 332.338 232.965 333.122 237.048L334.222 242.844C335.157 247.739 335.748 250.587 336.499 253.685C337.631 258.35 338.852 262.217 340.347 265.581L340.956 266.941L341.224 267.556C341.37 267.896 341.531 268.275 341.732 268.751L343.352 272.62L343.549 273.086C347.832 283.219 352.122 290.399 361.393 301.541C364.661 305.468 370.493 306.003 374.42 302.735C378.347 299.468 378.882 293.635 375.614 289.708L375.2 289.209C370.955 284.071 367.878 279.782 365.541 275.871L365.301 275.467L365.056 275.048C363.481 272.335 362.279 269.848 360.807 266.397L360.498 265.668L358.621 261.19L358.316 260.472C358.014 259.769 357.778 259.235 357.461 258.531L357.31 258.195C355.495 254.172 354.275 249.244 352.22 238.462L351.425 234.265L351.038 232.255C350.181 227.847 349.514 224.744 348.723 221.611C347.472 216.658 342.443 213.656 337.49 214.906C332.537 216.156 329.535 221.185 330.785 226.139Z" fill="#F6DDD6"/>
<rect width="28.402" height="97.1655" rx="14.201" transform="matrix(-0.945519 0.325568 0.325568 0.945519 344.608 196.5)" fill="#FFB2B2"/>
<path d="M277.238 224.945L277.136 225.04L277.085 225.082L276.981 225.164L276.867 225.251L276.739 225.346C276.627 225.428 276.5 225.517 276.361 225.614L276.276 225.672C275.693 226.071 274.951 226.541 274.067 227.072L273.767 227.251L273.436 227.447C271.697 228.47 269.553 229.653 267.042 230.979L266.31 231.365L265.289 231.899C265.173 231.959 265.057 232.019 264.941 232.08L263.873 232.632C261.81 233.694 259.66 234.779 257.138 236.037L250.682 239.245L249.331 239.924L248.734 240.229C247.68 240.774 247.203 241.061 246.625 241.481L246.575 241.517C246.3 241.718 246.029 241.936 245.731 242.21C244.992 242.892 244.358 243.63 243.754 244.806L243.562 245.207L243.507 245.328C243.355 245.664 243.284 245.889 243.042 246.655L242.927 247.174L242.891 247.347C242.753 248.025 242.753 248.316 242.75 249.644L242.821 250.183L242.868 250.519C243.024 251.582 243.149 251.867 243.822 253.401L244.163 253.935L244.379 254.267C244.961 255.149 245.173 255.341 246.193 256.259L246.667 256.594C247.462 257.151 247.594 257.21 248.497 257.614L249.008 257.798L249.216 257.87C249.527 257.974 249.694 258.011 250.164 258.117L250.852 258.218L251.041 258.243C251.444 258.296 251.609 258.297 252.096 258.299C253.066 258.289 253.692 258.174 254.418 257.987C254.679 257.919 254.915 257.848 255.159 257.769L255.373 257.697L255.533 257.641C255.996 257.479 256.557 257.264 257.289 256.973C258.357 256.55 259.303 255.949 260.105 255.219L264.815 252.881C267.552 251.518 269.869 250.351 272.095 249.206L273.094 248.691L273.831 248.309C274.074 248.182 274.315 248.057 274.553 247.932L275.589 247.387L276.656 246.822C283.287 243.291 287.51 240.714 289.891 238.441C293.586 234.914 293.722 229.059 290.195 225.363C286.706 221.708 280.939 221.535 277.238 224.945Z" fill="#F6DDD6"/>
<path fill-rule="evenodd" clip-rule="evenodd" d="M288.882 215.159C290.174 215.644 290.829 217.085 290.345 218.377L285.663 216.622C286.148 215.329 287.589 214.674 288.882 215.159ZM298.069 219.405C299.018 220.408 298.976 221.99 297.973 222.94L294.535 219.31C295.537 218.36 297.119 218.403 298.069 219.405ZM287.522 225.877C288.418 223.508 289.634 220.272 290.345 218.378L285.663 216.622C284.53 219.644 282.194 225.854 281.808 226.821L286.45 228.678C286.451 228.677 286.451 228.675 286.452 228.673L288.179 231.51C290.649 230.006 292.446 228.268 295.269 225.536C296.074 224.757 296.962 223.898 297.973 222.94L294.535 219.31C293.348 220.434 292.364 221.385 291.517 222.203C289.796 223.865 288.644 224.978 287.522 225.877ZM287.522 225.877C287.011 227.225 286.604 228.293 286.452 228.673L285.579 227.239C286.28 226.813 286.896 226.378 287.522 225.877Z" fill="#F6DDD6"/>
<path d="M266.282 226.537L265.822 226.845L265.175 227.273C258.308 231.808 254.71 233.535 250.201 234.909L249.616 235.084L249.086 235.239L246.713 235.917C245.964 236.132 245.331 236.317 244.694 236.508C236.759 238.888 232.256 247.25 234.637 255.185C237.017 263.12 245.379 267.623 253.314 265.242L253.959 265.051L257.366 264.074L257.948 263.904C258.135 263.849 258.317 263.796 258.498 263.741L258.969 263.599L259.427 263.458C266.888 261.136 273.212 258.003 282.976 251.463C289.859 246.853 291.702 237.536 287.092 230.653C282.482 223.77 273.165 221.927 266.282 226.537Z" fill="#FFB2B2"/>
<rect x="290.706" y="182.504" width="19.2142" height="28.8213" rx="9.60707" fill="#EED1C9"/>
<path d="M262.356 158.506C270.421 158.506 276.958 152.267 276.958 144.571C276.958 136.875 270.421 130.637 262.356 130.637C254.291 130.637 247.754 136.875 247.754 144.571C247.754 152.267 254.291 158.506 262.356 158.506Z" fill="#EFC8BD"/>
<path d="M335.297 158.651C343.362 158.651 349.9 152.412 349.9 144.716C349.9 137.02 343.362 130.782 335.297 130.782C327.233 130.782 320.695 137.02 320.695 144.716C320.695 152.412 327.233 158.651 335.297 158.651Z" fill="#EFC8BD"/>
<path d="M261.393 118.119C261.393 97.8949 278.63 81.5 299.893 81.5C321.156 81.5 338.393 97.8949 338.393 118.119V154.541C335.288 178.166 316.659 191.16 299.893 191.16C283.127 191.16 263.67 175.41 261.393 154.541V118.119Z" fill="#F6DDD6"/>
<path d="M275.656 129.856L289.815 129.234C290.643 129.198 291.284 128.498 291.248 127.67C291.211 126.842 290.511 126.201 289.683 126.237L275.524 126.859C274.696 126.896 274.055 127.596 274.091 128.424C274.128 129.251 274.828 129.893 275.656 129.856Z" fill="#62360D"/>
<path d="M275.893 168.25C281.002 168.25 285.143 164.109 285.143 159C285.143 153.891 281.002 149.75 275.893 149.75C270.784 149.75 266.643 153.891 266.643 159C266.643 164.109 270.784 168.25 275.893 168.25Z" fill="#F2CACA"/>
<path d="M308.837 128.771L322.984 129.641C323.81 129.692 324.522 129.063 324.573 128.236C324.624 127.409 323.995 126.698 323.168 126.647L309.021 125.776C308.195 125.725 307.483 126.354 307.432 127.181C307.381 128.008 308.01 128.72 308.837 128.771Z" fill="#62360D"/>
<path d="M300.802 146.369L296.591 145.795L296.56 146.005L296.538 146.145C296.484 146.46 296.408 146.808 296.256 147.436L295.807 149.271L295.726 149.616L295.655 149.926L295.586 150.242C295.165 152.215 295.059 153.634 295.375 154.959C295.922 157.252 297.738 158.577 300.414 158.577V154.327C300.139 154.327 299.924 154.301 299.766 154.259C299.673 154.233 299.621 154.209 299.594 154.189L299.583 154.179L299.571 154.162C299.554 154.133 299.534 154.079 299.509 153.973C299.365 153.367 299.469 152.318 299.837 150.7L299.935 150.282L300.421 148.297L300.535 147.812C300.674 147.203 300.736 146.853 300.802 146.369Z" fill="#EBBAAA"/>
<path d="M341.893 150.455C343.136 150.455 344.143 151.462 344.143 152.705C344.143 153.947 343.136 154.955 341.893 154.955C340.65 154.955 339.643 153.947 339.643 152.705C339.643 151.462 340.65 150.455 341.893 150.455Z" fill="#FD9292"/>
<path d="M257.893 150.455C259.136 150.455 260.143 151.462 260.143 152.705C260.143 153.947 259.136 154.955 257.893 154.955C256.65 154.955 255.643 153.947 255.643 152.705C255.643 151.462 256.65 150.455 257.893 150.455Z" fill="#FD9292"/>
<path d="M326.768 167.75C331.808 167.75 335.893 163.609 335.893 158.5C335.893 153.391 331.808 149.25 326.768 149.25C321.728 149.25 317.643 153.391 317.643 158.5C317.643 163.609 321.728 167.75 326.768 167.75Z" fill="#F2CACA"/>
<path d="M299.255 73C267.255 73 253.254 98.875 253.129 113.125C253.082 118.401 253.717 125.875 255.129 132.5C258.879 131 259.627 133.866 261.754 135.5C264.128 133.5 265.504 124.125 272.754 120.125C279.497 116.404 288.129 110.625 290.13 107.75C292.13 110.625 296.379 112.125 306.255 115.5C319.64 120.074 330.755 119.125 334.88 124.5C338.18 128.8 337.129 133.5 338.129 134.375C339.129 135.25 338.379 130.25 343.129 132.875C344.729 124.49 346.257 102.173 339.129 92.5C328.211 77.6821 317.65 73 299.255 73Z" fill="#231202"/>
<path d="M261.254 212.875C254.003 207.75 255.837 176.167 257.754 157.75C257.754 157.75 259.504 158.25 260.504 158.375C261.504 158.5 262.129 158.5 262.129 158.5C262.504 160.125 263.879 165 268.504 172.25C272.367 178.306 279.129 184.625 283.504 186.5C283.254 189.042 283.294 193.875 283.879 201.375C284.629 211 281.754 216.75 276.629 217C272.529 217.2 269.003 212.125 268.504 211C267.878 212.5 266.456 216.552 261.254 212.875Z" fill="#231202"/>
<path d="M344.942 192C343.976 183.382 341.129 170 340.504 157.75C340.504 157.75 339.629 158 339.067 158.25C338.505 158.5 337.629 158.875 337.629 158.875C336.254 162.75 336.192 166.875 330.192 175.375C326.429 180.706 320.567 184.625 317.442 186.375C316.692 195.292 318.199 209.379 321.692 211.125C323.692 212.125 324.192 210.875 327.067 209.75C329.941 208.625 332.404 214.5 335.692 214.5C342.067 214.5 346.567 206.5 344.942 192Z" fill="#231202"/>
<path d="M286.982 168.864C288.136 172.19 294.327 175.125 300.373 175.125C306.077 175.125 310.991 172.55 313.086 169.256C313.642 168.383 313.384 167.224 312.51 166.668C311.654 166.124 310.526 166.36 309.957 167.19L309.922 167.244C309.364 168.121 308.23 169.115 306.765 169.883C304.952 170.833 302.785 171.375 300.373 171.375C297.913 171.375 295.457 170.805 293.44 169.849C292.562 169.433 291.816 168.964 291.271 168.498C290.855 168.143 290.607 167.833 290.535 167.66L290.525 167.636C290.186 166.657 289.118 166.139 288.139 166.479C287.161 166.818 286.643 167.886 286.982 168.864Z" fill="#EBBAAA"/>
<rect x="303.504" y="130.75" width="27.25" height="19.75" rx="7" fill="white" fill-opacity="0.2" stroke="#F1CA64" stroke-width="2.5" stroke-linejoin="round"/>
<rect x="267.754" y="131" width="27.25" height="19.75" rx="7" fill="white" fill-opacity="0.2" stroke="#F1CA64" stroke-width="2.5" stroke-linejoin="round"/>
<path d="M312.696 138.037C312.842 138.076 313.08 138.127 313.397 138.176C314.623 138.365 315.997 138.365 317.414 138.05C318.097 137.898 318.737 137.706 319.332 137.482C319.885 137.274 320.373 137.049 320.792 136.821L320.918 136.751L321.043 136.679C321.18 136.598 321.286 136.53 321.36 136.479C321.925 136.083 322.063 135.303 321.667 134.738C321.282 134.188 320.536 134.043 319.975 134.398L319.878 134.462L319.799 134.511C319.756 134.536 319.705 134.565 319.644 134.599L319.597 134.625C319.277 134.799 318.894 134.976 318.451 135.142C317.965 135.325 317.438 135.484 316.872 135.609C315.789 135.85 314.718 135.85 313.778 135.705L313.623 135.68L313.523 135.662C313.463 135.65 313.414 135.64 313.379 135.631L313.34 135.622C312.673 135.444 311.988 135.841 311.81 136.508C311.632 137.175 312.029 137.86 312.696 138.037Z" fill="black"/>
<path d="M310.881 138.209V143.223C310.881 144.88 312.224 146.223 313.881 146.223C315.538 146.223 316.881 144.88 316.881 143.223V138.209C316.881 136.553 315.538 135.209 313.881 135.209C312.224 135.209 310.881 136.553 310.881 138.209Z" fill="black"/>
<path d="M285.751 136.464L285.686 136.478C285.601 136.495 285.486 136.516 285.344 136.538C284.329 136.694 283.174 136.694 282.005 136.434C281.396 136.299 280.829 136.129 280.306 135.932C279.876 135.77 279.499 135.599 279.176 135.43L279.071 135.374L278.971 135.318C278.848 135.249 278.765 135.198 278.723 135.17L278.711 135.161C278.145 134.765 277.366 134.903 276.97 135.468C276.574 136.034 276.711 136.813 277.277 137.209L277.343 137.254C277.465 137.335 277.643 137.443 277.876 137.569C278.32 137.811 278.837 138.05 279.425 138.271C280.057 138.509 280.737 138.714 281.463 138.875C282.908 139.196 284.312 139.209 285.574 139.031L285.724 139.009C286.06 138.957 286.312 138.903 286.465 138.862C287.132 138.685 287.529 138 287.351 137.333C287.182 136.702 286.56 136.313 285.929 136.423L285.875 136.434L285.751 136.464Z" fill="black"/>
<path d="M282.22 139.129V144.487C282.22 146.144 283.563 147.487 285.22 147.487C286.877 147.487 288.22 146.144 288.22 144.487V139.129C288.22 137.473 286.877 136.129 285.22 136.129C283.563 136.129 282.22 137.473 282.22 139.129Z" fill="black"/>
<path d="M295.004 140.25C295.587 139.833 297.454 139 299.254 139C301.054 139 302.587 139.833 303.254 140.25" stroke="#F1CA64" stroke-width="2.5"/>
<defs>
<clipPath id="clip0_214_165">
<rect width="358" height="457" fill="white" transform="translate(25)"/>
</clipPath>
</defs>
</svg>
