<svg width="390" height="565" viewBox="0 0 390 565" fill="none" xmlns="http://www.w3.org/2000/svg">
<path d="M62.0353 302.059C60.0399 289.624 52.8194 244.772 83.6131 211.677C104.393 189.376 120.736 195.755 149.748 176.481C215.057 133.09 184.087 66.3059 237.461 41.0441C268.96 26.1387 311.958 34.1299 337.35 46.9717C398.325 77.8069 403.16 159.58 384.088 212.875C361.387 276.323 310.77 282.695 315.16 331.486C317.601 358.789 337.805 405.712 346.269 425.37C352.896 440.78 364.441 465.688 351.318 476.255C347.123 479.629 341.508 480.654 337.35 480.985L47.418 476.097C42.9168 476.052 35.5107 475.479 32.3367 471.533C20.8749 457.298 86.7036 426.809 91.2791 379.215C94.1561 349.208 69.3671 347.612 62.0353 302.059Z" fill="#A7CEB8"/>
<path d="M396.577 179.497H329.631V147.111" stroke="#78C199" stroke-width="4" stroke-miterlimit="10" stroke-linecap="round" stroke-linejoin="round"/>
<path d="M363.104 179.497H297.238V210.839H363.104V179.497Z" stroke="#78C199" stroke-width="4" stroke-miterlimit="10" stroke-linecap="round" stroke-linejoin="round"/>
<path d="M348.588 243.225H329.631V210.839H396.577" stroke="#78C199" stroke-width="4" stroke-miterlimit="10" stroke-linecap="round" stroke-linejoin="round"/>
<path d="M263.765 210.839H329.631V243.225H276.215" stroke="#78C199" stroke-width="4" stroke-miterlimit="10" stroke-linecap="round" stroke-linejoin="round"/>
<path d="M241.09 179.497H297.238V210.839H263.873" stroke="#8DC6BF" stroke-width="4" stroke-miterlimit="10" stroke-linecap="round" stroke-linejoin="round"/>
<path d="M410.614 210.839H363.104V179.497H385.9" stroke="#78C199" stroke-width="4" stroke-miterlimit="10" stroke-linecap="round" stroke-linejoin="round"/>
<path d="M173.065 141.887H106.119V109.501" stroke="#78C199" stroke-width="4" stroke-miterlimit="10" stroke-linecap="round" stroke-linejoin="round"/>
<path d="M139.592 141.887H73.726V173.229H139.592V141.887Z" stroke="#78C199" stroke-width="4" stroke-miterlimit="10" stroke-linecap="round" stroke-linejoin="round"/>
<path d="M125.076 205.615H106.119V173.229H173.065" stroke="#78C199" stroke-width="4" stroke-miterlimit="10" stroke-linecap="round" stroke-linejoin="round"/>
<path d="M40.2532 173.229H106.119V205.615H52.7027" stroke="#78C199" stroke-width="4" stroke-miterlimit="10" stroke-linecap="round" stroke-linejoin="round"/>
<path d="M17.578 141.887H73.726V173.229H40.3612" stroke="#8DC6BF" stroke-width="4" stroke-miterlimit="10" stroke-linecap="round" stroke-linejoin="round"/>
<path d="M187.102 173.229H139.592V141.887H162.388" stroke="#78C199" stroke-width="4" stroke-miterlimit="10" stroke-linecap="round" stroke-linejoin="round"/>
<path d="M165.547 410.423H389.681" stroke="#1D2F3D" stroke-width="4" stroke-miterlimit="10" stroke-linecap="round" stroke-linejoin="round"/>
<path d="M145.431 410.423H156.568" stroke="#1D2F3D" stroke-width="4" stroke-miterlimit="10" stroke-linecap="round" stroke-linejoin="round"/>
<path d="M-21.0951 410.423H135.402" stroke="#1D2F3D" stroke-width="4" stroke-miterlimit="10" stroke-linecap="round" stroke-linejoin="round"/>
<path d="M365.134 396.883H344.143V410.423H365.134V396.883Z" stroke="#1D2F3D" stroke-width="4" stroke-miterlimit="10" stroke-linecap="round" stroke-linejoin="round"/>
<path d="M365.134 396.883H344.143V410.423H365.134V396.883Z" fill="#1D2F3D"/>
<path d="M68.9319 396.883H47.9412V410.423H68.9319V396.883Z" stroke="#1D2F3D" stroke-width="4" stroke-miterlimit="10" stroke-linecap="round" stroke-linejoin="round"/>
<path d="M68.9319 396.883H47.9412V410.423H68.9319V396.883Z" fill="#1D2F3D"/>
<path d="M389.681 381.087H23.3937V396.883H389.681V381.087Z" fill="#E7E0D0"/>
<path d="M389.681 381.087H23.3937V396.883H389.681V381.087Z" stroke="#1D2F3D" stroke-width="4" stroke-miterlimit="10" stroke-linecap="round" stroke-linejoin="round"/>
<path d="M389.681 298.721H23.3937V308.876H389.681V298.721Z" fill="#E7E0D0"/>
<path d="M389.681 298.721H23.3937V308.876H389.681V298.721Z" stroke="#1D2F3D" stroke-width="4" stroke-miterlimit="10" stroke-linecap="round" stroke-linejoin="round"/>
<path d="M381.46 308.876H206.538V381.087H381.46V308.876Z" fill="#E7E0D0"/>
<path d="M381.46 308.876H206.538V381.087H381.46V308.876Z" stroke="#1D2F3D" stroke-width="4" stroke-miterlimit="10" stroke-linecap="round" stroke-linejoin="round"/>
<path opacity="0.23" d="M381.46 308.876H223.33H206.538V323.487V381.087H223.33V323.487H381.46V308.876Z" fill="#1D2F3D"/>
<path d="M206.538 308.876H31.6151V344.981H206.538V308.876Z" fill="#FE615A"/>
<path d="M206.538 308.876H31.6151V344.981H206.538V308.876Z" fill="#EF4D4D"/>
<path opacity="0.23" d="M206.538 339.509H31.6151V344.925H206.538V339.509Z" fill="#1D2F3D"/>
<path opacity="0.23" d="M206.538 308.876H31.6151V321.118H206.538V308.876Z" fill="#1D2F3D"/>
<path d="M206.538 308.876H31.6151V344.981H206.538V308.876Z" stroke="#1D2F3D" stroke-width="4" stroke-miterlimit="10" stroke-linecap="round" stroke-linejoin="round"/>
<path d="M206.538 344.981H31.6151V381.087H206.538V344.981Z" fill="#EF4D4D"/>
<path opacity="0.23" d="M206.538 375.953H31.6151V381.369H206.538V375.953Z" fill="#1D2F3D"/>
<path d="M206.538 345.038H31.6151V350.454H206.538V345.038Z" fill="#1D2F3D"/>
<path d="M206.538 344.981H31.6151V381.087H206.538V344.981Z" stroke="#1D2F3D" stroke-width="4" stroke-miterlimit="10" stroke-linecap="round" stroke-linejoin="round"/>
<path d="M39.7782 308.876H31.6151V381.087H39.7782V308.876Z" fill="#E7E0D0"/>
<path d="M39.7782 308.876H31.6151V381.087H39.7782V308.876Z" stroke="#1D2F3D" stroke-width="4" stroke-miterlimit="10" stroke-linecap="round" stroke-linejoin="round"/>
<path d="M210.619 308.876H202.456V381.087H210.619V308.876Z" fill="#E7E0D0"/>
<path d="M210.619 308.876H202.456V381.087H210.619V308.876Z" stroke="#1D2F3D" stroke-width="4" stroke-miterlimit="10" stroke-linecap="round" stroke-linejoin="round"/>
<path d="M382.976 308.876H374.813V381.087H382.976V308.876Z" stroke="#1D2F3D" stroke-width="4" stroke-miterlimit="10" stroke-linecap="round" stroke-linejoin="round"/>
<path d="M246.945 345.038C251.195 345.038 254.641 341.704 254.641 337.591C254.641 333.478 251.195 330.144 246.945 330.144C242.694 330.144 239.248 333.478 239.248 337.591C239.248 341.704 242.694 345.038 246.945 345.038Z" fill="#61BA4F"/>
<path d="M246.945 345.038C251.195 345.038 254.641 341.704 254.641 337.591C254.641 333.478 251.195 330.144 246.945 330.144C242.694 330.144 239.248 333.478 239.248 337.591C239.248 341.704 242.694 345.038 246.945 345.038Z" stroke="#1D2F3D" stroke-width="4" stroke-miterlimit="10" stroke-linecap="round" stroke-linejoin="round"/>
<path d="M240.414 325.857C238.432 322.697 234.642 322.697 232.659 325.857C230.094 330.031 228.461 335.899 228.461 342.443C228.461 351.808 231.785 359.875 236.508 363.373C241.23 359.875 244.554 351.808 244.554 342.443C244.612 335.899 242.98 329.975 240.414 325.857Z" fill="#61BA4F"/>
<path d="M240.414 325.857C238.432 322.697 234.642 322.697 232.659 325.857C230.094 330.031 228.461 335.899 228.461 342.443C228.461 351.808 231.785 359.875 236.508 363.373C241.23 359.875 244.554 351.808 244.554 342.443C244.612 335.899 242.98 329.975 240.414 325.857Z" stroke="#1D2F3D" stroke-width="4" stroke-miterlimit="10" stroke-linecap="round" stroke-linejoin="round"/>
<path d="M246.653 381.087H226.42L223.33 356.659H249.743L246.653 381.087Z" fill="#FFEA87"/>
<path opacity="0.26" d="M223.33 356.659L226.42 381.087H236.799L235.691 356.659H223.33Z" fill="#3D3D3D"/>
<path d="M246.653 381.087H226.42L223.33 356.659H249.743L246.653 381.087Z" stroke="#1D2F3D" stroke-width="4" stroke-miterlimit="10" stroke-linecap="round" stroke-linejoin="round"/>
<path d="M374.813 322.98H363.151V381.087H374.813V322.98Z" fill="#FF6259"/>
<path d="M374.813 322.98H363.151V381.087H374.813V322.98Z" stroke="#1D2F3D" stroke-width="4" stroke-miterlimit="10" stroke-linecap="round" stroke-linejoin="round"/>
<path d="M363.151 326.929H349.741V381.087H363.151V326.929Z" fill="#F7B363"/>
<path d="M363.151 326.929H349.741V381.087H363.151V326.929Z" stroke="#1D2F3D" stroke-width="4" stroke-miterlimit="10" stroke-linecap="round" stroke-linejoin="round"/>
<path d="M349.368 332.92L340.262 328.721L317.431 375.063L326.536 379.263L349.368 332.92Z" fill="#0AC4DD"/>
<path d="M349.368 332.92L340.262 328.721L317.431 375.063L326.536 379.263L349.368 332.92Z" stroke="#1D2F3D" stroke-width="4" stroke-miterlimit="10" stroke-linecap="round" stroke-linejoin="round"/>
<path d="M309.625 370.819H257.323V381.087H309.625V370.819Z" fill="#F7B363"/>
<path d="M309.625 370.819H257.323V381.087H309.625V370.819Z" stroke="#1D2F3D" stroke-width="4" stroke-miterlimit="10" stroke-linecap="round" stroke-linejoin="round"/>
<path d="M313.299 360.778H263.621V371.045H313.299V360.778Z" fill="#8BB572"/>
<path d="M313.299 360.214H263.621V370.481H313.299V360.214Z" stroke="#1D2F3D" stroke-width="4" stroke-miterlimit="10" stroke-linecap="round" stroke-linejoin="round"/>
<path d="M111.613 216.299H64.3839V297.818H111.613V216.299Z" fill="#976B50"/>
<path d="M111.613 216.299H64.3839V297.818H111.613V216.299Z" fill="#976B50"/>
<path opacity="0.72" d="M111.613 216.299H64.3839V221.827H111.613V216.299Z" fill="#976B50"/>
<path opacity="0.41" d="M111.613 291.274H64.3839V297.762H111.613V291.274Z" fill="#976B50"/>
<path d="M111.613 216.299H64.3839V297.818H111.613V216.299Z" stroke="#1D2F3D" stroke-width="10" stroke-miterlimit="10" stroke-linecap="round" stroke-linejoin="round"/>
<path d="M87.4152 256.579C95.1116 256.579 101.351 250.542 101.351 243.096C101.351 235.649 95.1116 229.613 87.4152 229.613C79.7189 229.613 73.4797 235.649 73.4797 243.096C73.4797 250.542 79.7189 256.579 87.4152 256.579Z" fill="#E7E0D0"/>
<path d="M73.4797 243.096C73.4797 235.649 79.7187 229.613 87.4152 229.613C95.1118 229.613 101.351 235.649 101.351 243.096H73.4797Z" fill="#E7E0D0"/>
<path d="M87.4152 256.579C95.1116 256.579 101.351 250.542 101.351 243.096C101.351 235.649 95.1116 229.613 87.4152 229.613C79.7189 229.613 73.4797 235.649 73.4797 243.096C73.4797 250.542 79.7189 256.579 87.4152 256.579Z" stroke="#1D2F3D" stroke-width="8" stroke-miterlimit="10" stroke-linecap="round" stroke-linejoin="round"/>
<path d="M87.4154 248.173C90.3136 248.173 92.6631 245.9 92.6631 243.096C92.6631 240.292 90.3136 238.018 87.4154 238.018C84.5172 238.018 82.1677 240.292 82.1677 243.096C82.1677 245.9 84.5172 248.173 87.4154 248.173Z" fill="#1D2F3D"/>
<path d="M87.4154 284.448C92.1813 284.448 96.0449 280.71 96.0449 276.099C96.0449 271.487 92.1813 267.749 87.4154 267.749C82.6495 267.749 78.7859 271.487 78.7859 276.099C78.7859 280.71 82.6495 284.448 87.4154 284.448Z" fill="#E7E0D0"/>
<path d="M78.7859 276.099C78.7859 271.473 82.6342 267.749 87.4154 267.749C92.1966 267.749 96.0449 271.473 96.0449 276.099H78.7859Z" fill="#E7E0D0"/>
<path d="M87.4153 278.863C88.9932 278.863 90.2724 277.625 90.2724 276.099C90.2724 274.572 88.9932 273.334 87.4153 273.334C85.8374 273.334 84.5582 274.572 84.5582 276.099C84.5582 277.625 85.8374 278.863 87.4153 278.863Z" fill="#1D2F3D"/>
<path d="M87.4154 284.448C92.1813 284.448 96.0449 280.71 96.0449 276.099C96.0449 271.487 92.1813 267.749 87.4154 267.749C82.6495 267.749 78.7859 271.487 78.7859 276.099C78.7859 280.71 82.6495 284.448 87.4154 284.448Z" stroke="#1D2F3D" stroke-width="8" stroke-miterlimit="10" stroke-linecap="round" stroke-linejoin="round"/>
<path d="M112.488 157.289H63.5676C58.145 157.289 53.7136 153.001 53.7136 147.754V100.422C53.7136 95.1757 58.145 90.8881 63.5676 90.8881H112.488C117.91 90.8881 122.342 95.1757 122.342 100.422V147.754C122.342 153.057 117.91 157.289 112.488 157.289Z" fill="#E7E0D0"/>
<path opacity="0.82" d="M112.488 90.8881H63.5676C58.145 90.8881 53.7136 95.1757 53.7136 100.422V108.885C53.7136 103.638 58.145 99.3504 63.5676 99.3504H112.488C117.91 99.3504 122.342 103.638 122.342 108.885V100.422C122.342 95.1757 117.91 90.8881 112.488 90.8881Z" fill="#E7E0D0"/>
<path d="M112.488 157.289H63.5676C58.145 157.289 53.7136 153.001 53.7136 147.754V100.422C53.7136 95.1757 58.145 90.8881 63.5676 90.8881H112.488C117.91 90.8881 122.342 95.1757 122.342 100.422V147.754C122.342 153.057 117.91 157.289 112.488 157.289Z" stroke="#1D2F3D" stroke-width="4" stroke-miterlimit="10" stroke-linecap="round" stroke-linejoin="round"/>
<path d="M88.4648 124.117H73.3632" stroke="#1D2F3D" stroke-width="6" stroke-miterlimit="10" stroke-linecap="round" stroke-linejoin="round"/>
<path d="M101.234 104.823L88.4648 124.117" stroke="#1D2F3D" stroke-width="4" stroke-miterlimit="10" stroke-linecap="round" stroke-linejoin="round"/>
<path d="M382.976 308.876H374.813V381.087H382.976V308.876Z" fill="#E7E0D0"/>
<path d="M382.976 308.876H374.813V381.087H382.976V308.876Z" stroke="#1D2F3D" stroke-width="4" stroke-miterlimit="10" stroke-linecap="round" stroke-linejoin="round"/>
<path d="M119.076 334.827C123.649 334.827 127.356 331.24 127.356 326.816C127.356 322.391 123.649 318.805 119.076 318.805C114.503 318.805 110.797 322.391 110.797 326.816C110.797 331.24 114.503 334.827 119.076 334.827Z" fill="#E7E0D0"/>
<path d="M119.076 334.827C123.649 334.827 127.356 331.24 127.356 326.816C127.356 322.391 123.649 318.805 119.076 318.805C114.503 318.805 110.797 322.391 110.797 326.816C110.797 331.24 114.503 334.827 119.076 334.827Z" stroke="#1D2F3D" stroke-width="4" stroke-miterlimit="10" stroke-linecap="round" stroke-linejoin="round"/>
<path d="M119.076 371.045C123.649 371.045 127.356 367.458 127.356 363.034C127.356 358.61 123.649 355.023 119.076 355.023C114.503 355.023 110.797 358.61 110.797 363.034C110.797 367.458 114.503 371.045 119.076 371.045Z" fill="#E7E0D0"/>
<path d="M119.076 371.045C123.649 371.045 127.356 367.458 127.356 363.034C127.356 358.61 123.649 355.023 119.076 355.023C114.503 355.023 110.797 358.61 110.797 363.034C110.797 367.458 114.503 371.045 119.076 371.045Z" stroke="#1D2F3D" stroke-width="4" stroke-miterlimit="10" stroke-linecap="round" stroke-linejoin="round"/>
<path d="M363.151 338.945H374.813" stroke="#1D2F3D" stroke-width="4" stroke-miterlimit="10" stroke-linecap="round" stroke-linejoin="round"/>
<path d="M349.741 344.981H363.151" stroke="#1D2F3D" stroke-width="4" stroke-miterlimit="10" stroke-linecap="round" stroke-linejoin="round"/>
<path d="M334.173 341.032L343.327 345.263" stroke="#1D2F3D" stroke-width="4" stroke-miterlimit="10" stroke-linecap="round" stroke-linejoin="round"/>
<path opacity="0.07" d="M296.739 156.047H263.096L174.293 241.968C174.643 244.675 177.034 246.819 179.949 246.819H202.922L296.739 156.047Z" fill="#D1E3ED"/>
<path opacity="0.07" d="M213.476 246.819H230.327L324.144 156.047H307.293L213.476 246.819Z" fill="#D1E3ED"/>
<path opacity="0.07" d="M295.398 246.819L355.455 188.712V176.47L282.745 246.819H295.398Z" fill="#D1E3ED"/>
<path d="M274.233 360.214V370.481" stroke="#1D2F3D" stroke-width="4" stroke-miterlimit="10" stroke-linecap="round" stroke-linejoin="round"/>
<path d="M87.9983 94.6679V97.9964" stroke="#1D2F3D" stroke-width="4" stroke-miterlimit="10" stroke-linecap="round" stroke-linejoin="round"/>
<path d="M87.9983 150.18V153.509" stroke="#1D2F3D" stroke-width="4" stroke-miterlimit="10" stroke-linecap="round" stroke-linejoin="round"/>
<path d="M118.435 124.117H114.995" stroke="#1D2F3D" stroke-width="4" stroke-miterlimit="10" stroke-linecap="round" stroke-linejoin="round"/>
<path d="M61.0604 124.117H57.6202" stroke="#1D2F3D" stroke-width="4" stroke-miterlimit="10" stroke-linecap="round" stroke-linejoin="round"/>
<path d="M88.4648 128.235C90.8156 128.235 92.7212 126.391 92.7212 124.117C92.7212 121.842 90.8156 119.998 88.4648 119.998C86.114 119.998 84.2084 121.842 84.2084 124.117C84.2084 126.391 86.114 128.235 88.4648 128.235Z" fill="#1D2F3D"/>
<path d="M293.999 371.045V381.087" stroke="#1D2F3D" stroke-width="4" stroke-miterlimit="10" stroke-linecap="round" stroke-linejoin="round"/>
<path d="M244.379 437.841H290.559" stroke="#1D2F3D" stroke-width="4" stroke-miterlimit="10" stroke-linecap="round" stroke-linejoin="round"/>
<path d="M224.088 437.841H234.234" stroke="#1D2F3D" stroke-width="4" stroke-miterlimit="10" stroke-linecap="round" stroke-linejoin="round"/>
<path d="M174.818 292.29H127.356V296.464H174.818V292.29Z" stroke="#1D2F3D" stroke-width="4" stroke-miterlimit="10" stroke-linecap="round" stroke-linejoin="round"/>
<path d="M276.722 107.411H208.697V116.814H276.722V107.411Z" fill="#6A6A68"/>
<path fill-rule="evenodd" clip-rule="evenodd" d="M205.458 107.291C205.458 105.627 206.827 104.277 208.517 104.277H275.823C277.512 104.277 278.882 105.627 278.882 107.291V116.934C278.882 118.599 277.512 119.948 275.823 119.948H208.517C206.827 119.948 205.458 118.599 205.458 116.934V107.291ZM211.576 110.305V113.921H272.763V110.305H211.576Z" fill="#333333"/>
<path fill-rule="evenodd" clip-rule="evenodd" d="M211.936 57.141C211.936 55.4784 213.316 54.1306 215.017 54.1306H229.372C231.073 54.1306 232.452 55.4784 232.452 57.141V107.535C232.452 109.198 231.073 110.546 229.372 110.546H215.017C213.316 110.546 211.936 109.198 211.936 107.535V57.141ZM218.097 60.1514V104.525H226.291V60.1514H218.097Z" fill="#333333"/>
<path opacity="0.38" d="M229.213 57.2648H214.096V107.411H229.213V57.2648Z" fill="#629EC0"/>
<path d="M243.25 44.7281H229.213V107.411H243.25V44.7281Z" fill="#FFC859"/>
<path fill-rule="evenodd" clip-rule="evenodd" d="M225.973 44.5892C225.973 42.935 227.353 41.5939 229.054 41.5939H243.409C245.11 41.5939 246.489 42.935 246.489 44.5892V107.55C246.489 109.205 245.11 110.546 243.409 110.546H229.054C227.353 110.546 225.973 109.205 225.973 107.55V44.5892ZM232.134 47.5845V104.555H240.328V47.5845H232.134Z" fill="#333333"/>
<path d="M256.015 53.5341L243.264 58.4659L262.396 104.773L275.147 99.8413L256.015 53.5341Z" fill="#FF7373"/>
<path fill-rule="evenodd" clip-rule="evenodd" d="M240.405 59.5718C239.773 58.044 240.542 56.3105 242.121 55.6998L254.872 50.7679C256.451 50.1572 258.243 50.9006 258.874 52.4284L278.006 98.7356C278.637 100.263 277.869 101.997 276.29 102.608L263.538 107.539C261.959 108.15 260.168 107.407 259.536 105.879L240.405 59.5718ZM247.266 60.1265L264.112 100.901L271.145 98.1809L254.299 57.4062L247.266 60.1265Z" fill="#333333"/>
<path d="M295.078 130.395H232.452V190.989H295.078V130.395Z" fill="#F9F9F9"/>
<path fill-rule="evenodd" clip-rule="evenodd" d="M229.213 130.257C229.213 128.602 230.593 127.261 232.295 127.261H295.236C296.938 127.261 298.318 128.602 298.318 130.257V191.128C298.318 192.782 296.938 194.123 295.236 194.123H232.295C230.593 194.123 229.213 192.782 229.213 191.128V130.257ZM235.377 133.252V188.132H292.153V133.252H235.377Z" fill="#333333"/>
<path d="M288.6 184.721V136.664H238.931V184.721H288.6Z" fill="#B7F2A7"/>
<path d="M354.466 86.517H306.956V147.111H354.466V86.517Z" fill="#F9F9F9"/>
<path fill-rule="evenodd" clip-rule="evenodd" d="M303.717 86.3784C303.717 84.724 305.104 83.3828 306.816 83.3828H354.606C356.318 83.3828 357.705 84.724 357.705 86.3784V147.249C357.705 148.904 356.318 150.245 354.606 150.245H306.816C305.104 150.245 303.717 148.904 303.717 147.249V86.3784ZM309.915 89.3741V144.254H351.507V89.3741H309.915Z" fill="#333333"/>
<path d="M347.987 140.843V92.7853H313.435V140.843H347.987Z" fill="#9FD3ED"/>
<path d="M371.742 160.692H306.956V207.705H371.742V160.692Z" fill="#F9F9F9"/>
<path fill-rule="evenodd" clip-rule="evenodd" d="M303.717 160.562C303.717 158.903 305.103 157.558 306.813 157.558H371.886C373.595 157.558 374.982 158.903 374.982 160.562V207.836C374.982 209.494 373.595 210.839 371.886 210.839H306.813C305.103 210.839 303.717 209.494 303.717 207.836V160.562ZM309.908 163.565V204.832H368.79V163.565H309.908Z" fill="#333333"/>
<path d="M365.264 201.436V166.961H313.435V201.436H365.264Z" fill="#F97D7D"/>
<path fill-rule="evenodd" clip-rule="evenodd" d="M262.324 145.375C262.807 145.845 262.806 146.606 262.321 147.074L245.361 163.476C244.877 163.945 244.093 163.943 243.611 163.473C243.128 163.003 243.129 162.242 243.614 161.774L260.574 145.372C261.058 144.903 261.842 144.905 262.324 145.375Z" fill="#333333"/>
<path fill-rule="evenodd" clip-rule="evenodd" d="M276.372 145.366C276.841 145.823 276.839 146.563 276.368 147.019L261.5 161.396C261.029 161.852 260.266 161.85 259.797 161.393C259.328 160.936 259.329 160.195 259.801 159.74L274.669 145.362C275.14 144.907 275.902 144.908 276.372 145.366Z" fill="#333333"/>
<path fill-rule="evenodd" clip-rule="evenodd" d="M255.848 165.218C256.327 165.681 256.327 166.432 255.848 166.895L249.66 172.882C249.182 173.345 248.406 173.345 247.928 172.882C247.449 172.419 247.449 171.668 247.928 171.205L254.115 165.218C254.594 164.755 255.37 164.755 255.848 165.218Z" fill="#333333"/>
<path fill-rule="evenodd" clip-rule="evenodd" d="M333.59 102.542C334.072 103.013 334.07 103.774 333.586 104.242L322.022 115.42C321.538 115.888 320.755 115.886 320.273 115.415C319.791 114.944 319.794 114.183 320.278 113.715L331.841 102.538C332.326 102.07 333.109 102.072 333.59 102.542Z" fill="#333333"/>
<path fill-rule="evenodd" clip-rule="evenodd" d="M334.657 116.112C335.156 116.568 335.154 117.306 334.653 117.76L319.936 131.101C319.435 131.555 318.625 131.553 318.127 131.097C317.628 130.641 317.63 129.903 318.13 129.449L332.847 116.109C333.348 115.655 334.158 115.656 334.657 116.112Z" fill="#333333"/>
<path fill-rule="evenodd" clip-rule="evenodd" d="M350.873 172.539C351.343 173.013 351.345 173.783 350.875 174.259L330.606 194.811C330.137 195.286 329.375 195.287 328.905 194.813C328.435 194.339 328.433 193.569 328.902 193.093L349.172 172.542C349.641 172.066 350.402 172.065 350.873 172.539Z" fill="#333333"/>
<path fill-rule="evenodd" clip-rule="evenodd" d="M336.827 174.624C337.31 175.092 337.31 175.85 336.827 176.317L327.424 185.415C326.941 185.883 326.158 185.883 325.674 185.415C325.191 184.948 325.191 184.19 325.674 183.722L335.077 174.624C335.561 174.157 336.344 174.157 336.827 174.624Z" fill="#333333"/>
<path fill-rule="evenodd" clip-rule="evenodd" d="M263.528 64.1955C264.173 65.6165 263.458 67.2549 261.932 67.8551L249.576 72.7149C248.05 73.315 246.291 72.6495 245.646 71.2285C245.002 69.8075 245.716 68.1691 247.242 67.569L259.599 62.7092C261.124 62.109 262.884 62.7745 263.528 64.1955Z" fill="#333333"/>
<path fill-rule="evenodd" clip-rule="evenodd" d="M225.973 60.3989C225.973 58.668 227.348 57.2648 229.045 57.2648H243.418C245.114 57.2648 246.489 58.668 246.489 60.3989C246.489 62.1299 245.114 63.5331 243.418 63.5331H229.045C227.348 63.5331 225.973 62.1299 225.973 60.3989Z" fill="#333333"/>
<path fill-rule="evenodd" clip-rule="evenodd" d="M211.936 68.7567C211.936 67.0258 213.316 65.6226 215.017 65.6226H229.372C231.073 65.6226 232.452 67.0258 232.452 68.7567C232.452 70.4877 231.073 71.8909 229.372 71.8909H215.017C213.316 71.8909 211.936 70.4877 211.936 68.7567Z" fill="#333333"/>
<path d="M173.658 343.075C157.245 340.777 127.948 342.117 115.35 343.075L99.4238 318.002L107.252 269.161L174.738 281.437C181.576 301.46 190.07 345.374 173.658 343.075Z" fill="#3A4136"/>
<path d="M154.038 287.098C155.365 293.306 156.337 310.321 156.897 334.291C157.299 351.521 157.461 370.598 157.461 388.064C157.461 392.391 161.087 395.899 165.56 395.899C170.032 395.899 173.658 392.391 173.658 388.064C173.658 370.49 173.495 351.305 173.089 333.937C172.502 308.787 171.512 291.475 169.899 283.925C168.993 279.687 164.708 276.962 160.329 277.838C155.949 278.715 153.132 282.86 154.038 287.098Z" fill="#F6DDD6"/>
<path d="M122.267 279.85C120.503 288.103 118.924 307.93 118.293 329.075C117.587 352.744 118.157 373.653 120.185 385.907C120.892 390.18 125.045 393.089 129.461 392.405C133.878 391.721 136.885 387.702 136.178 383.429C134.353 372.402 133.804 352.278 134.483 329.528C135.088 309.259 136.612 290.115 138.128 283.023C139.034 278.785 136.217 274.64 131.837 273.763C127.457 272.887 123.173 275.612 122.267 279.85Z" fill="#F6DDD6"/>
<path d="M142.075 295.082C160.561 295.082 175.547 287.13 175.547 277.322C175.547 267.513 160.561 259.561 142.075 259.561C123.588 259.561 108.602 267.513 108.602 277.322C108.602 287.13 123.588 295.082 142.075 295.082Z" fill="#2A2A2A"/>
<path d="M106.172 268.225L140.725 270.728L136.676 381.991C136.676 381.991 132.222 383.689 127.498 383.819C122.774 383.95 118.86 381.991 118.86 381.991L106.172 268.225Z" fill="#2B2B2B"/>
<path d="M118.86 382.252L118.455 378.204C124.178 380.607 133.167 379.204 136.811 378.204V382.252C135.236 382.775 130.926 383.819 127.363 383.819C123.8 383.819 120.209 382.775 118.86 382.252Z" fill="#3F3F40"/>
<path d="M139.547 292.889C157.183 292.889 171.48 285.765 171.48 276.977C171.48 268.189 157.183 261.064 139.547 261.064C121.911 261.064 107.614 268.189 107.614 276.977C107.614 285.765 121.911 292.889 139.547 292.889Z" fill="#2B2B2B"/>
<path d="M146.74 271.408H180.729L173.928 382.775C173.928 382.775 170.689 384.342 165.56 384.342C160.431 384.342 157.192 382.775 157.192 382.775L146.74 271.408Z" fill="#2B2B2B"/>
<path d="M157.327 382.905L156.922 378.857C162.644 381.26 170.554 379.857 174.198 378.857V382.905C172.623 383.428 169.393 384.472 165.83 384.472C162.266 384.472 158.676 383.428 157.327 382.905Z" fill="#3F3F40"/>
<path d="M114.651 192.545C114.651 210.257 100.344 233.568 93.595 259.407" stroke="#F6DDD6" stroke-width="18.5" stroke-linecap="round" stroke-linejoin="bevel"/>
<rect x="105.472" y="165.905" width="72.8844" height="67.3846" rx="28" fill="#E1E8EE"/>
<path d="M183.056 170.786C188.239 173.502 192.554 185.322 190.394 190.546L104.123 181.585C97.1942 174.707 112.159 164.181 135.356 158.462C142.783 156.631 158.561 160.629 168.799 162.599C172.641 163.339 176.577 167.391 183.056 170.786Z" fill="#414A3B"/>
<path d="M100.074 232.212L76.7485 213.268L104.933 177.364L113.841 172.663L127.608 168.484L124.099 203.743L100.074 232.212Z" fill="#A97219"/>
<path d="M176.198 226.466L207.511 211.84L179.977 176.319L162.701 168.484L153.253 171.554L162.701 205.865L176.198 226.466Z" fill="#A97219"/>
<path d="M108.508 205.533L113.814 187.792L122.709 169.79L136.023 172.398L160.875 169.79C177.389 194.053 173.945 202.141 179.905 226.405C185.865 250.668 180.435 270.626 179.905 272.452C179.375 274.279 176.462 273.626 176.462 273.626L160.875 264.496C160.875 264.496 152.754 266.192 140.701 265.8C128.648 265.409 121.364 263.322 121.364 263.322C121.364 263.322 112.092 267.495 108.508 271.539C104.923 275.583 104.145 270.757 104.145 270.757C101.837 261.412 101.348 252.522 101.901 243.102C102.702 229.453 105.692 216.338 108.508 205.533Z" fill="#B97D1B"/>
<path d="M145.314 197.598C158.284 197.598 168.799 189.763 168.799 180.098C168.799 170.434 158.284 162.599 145.314 162.599C132.344 162.599 121.829 170.434 121.829 180.098C121.829 189.763 132.344 197.598 145.314 197.598Z" fill="#A66C0F"/>
<path d="M168.529 219.014C170.34 212.328 174.738 190.023 179.327 175.136C179.327 175.136 188.235 179.315 192.014 183.755C195.793 188.195 207.401 209.415 207.401 209.415C204.006 216.205 203.141 216.579 196.083 230.831C187.028 249.114 196.083 300.764 196.083 339.941C196.083 339.941 187.695 343.075 179.327 345.687C170.959 348.299 160.431 345.687 160.431 345.687V269.486C162.321 245.916 166.718 225.701 168.529 219.014Z" fill="#4F5D46"/>
<path d="M202.542 279.869C197.323 276.909 190.718 272.347 189.855 271.512L185.805 297.63L193.904 313.562C194.174 309.383 196.333 298.361 199.572 293.973C202.812 289.585 202.542 284.571 202.542 279.869Z" fill="#4F5D46"/>
<path d="M212.665 232.073C212.665 232.073 210.91 214.83 209.02 211.046C207.131 207.261 204.701 204.911 204.701 204.911L200.382 200.471L191.744 233.902V263.676L188.775 279.347L202.812 283.654L210.91 273.079L214.419 255.969L210.91 248.658L213.609 240.82L211.315 233.902L212.665 232.073Z" fill="#424B3C"/>
<path d="M202.812 230.767L191.474 235.732H202.812V230.767Z" fill="#393F35"/>
<path d="M200.411 239.579L191.525 237.297L199.388 244.444L200.411 239.579Z" fill="#393F35"/>
<path d="M188.504 272.945L204.84 278.745L202.83 284.49L186.446 278.97L188.504 272.945Z" fill="#5D6856"/>
<path d="M200.112 408.156C200.594 407.106 200.247 404.761 199.977 404.369C199.707 403.977 166.908 401.496 166.908 401.496C161.464 401.104 151.322 401.141 150.576 403.977C148.686 411.16 153.817 411.16 158.136 411.16C164.075 411.16 164.779 409.637 168.662 410.115C170.687 410.363 173.656 411.682 187.288 411.682C198.222 411.682 199.032 410.507 200.112 408.156Z" fill="#C9D1DC"/>
<path d="M166.234 390.456C160.727 390.351 158.9 386.93 158.675 385.232H155.841C155.571 385.624 154.694 386.538 154.087 389.281C153.277 392.937 151.927 393.59 151.117 396.985C150.557 399.336 150.442 402.862 151.792 404.821C153.888 407.864 156.516 407.563 160.97 407.563C163.535 407.563 167.854 406.91 171.768 407.955C177.233 409.415 192.283 410.175 196.063 409C202.503 406.997 200.517 401.164 197.817 398.944C193.081 395.047 183.93 395.317 181.621 392.284C179.731 389.803 178.656 383.817 177.302 382.359C174.872 379.748 173.222 382.049 173.657 384.579C174.197 387.714 173.117 390.587 166.234 390.456Z" fill="#3B434E"/>
<mask id="mask0_204_163" style="mask-type:alpha" maskUnits="userSpaceOnUse" x="150" y="381" width="51" height="29">
<path d="M166.234 390.456C160.727 390.351 158.9 386.93 158.675 385.232H155.841C155.571 385.624 154.694 386.538 154.087 389.281C153.277 392.937 151.927 393.59 151.117 396.985C150.557 399.336 150.442 402.862 151.792 404.821C153.888 407.864 156.516 407.563 160.97 407.563C163.535 407.563 167.854 406.91 171.768 407.955C177.233 409.415 192.283 410.175 196.063 409C202.503 406.997 200.517 401.164 197.817 398.944C193.081 395.047 183.93 395.317 181.621 392.284C179.731 389.803 178.656 383.817 177.302 382.359C174.872 379.748 173.222 382.049 173.657 384.579C174.197 387.714 173.117 390.587 166.234 390.456Z" fill="white"/>
</mask>
<g mask="url(#mask0_204_163)">
<path d="M188.745 399.229C186.909 398.811 178.442 394.528 174.438 392.438C167.554 394.397 162.425 401.318 158.511 408.24C158.646 409.807 174.205 411.337 175.922 409.285C178.217 406.542 182.401 400.927 188.745 399.229Z" fill="#32373F"/>
<path d="M194.955 403.037C197.064 403.037 197.592 401.543 197.592 400.796C197.744 403.123 197.706 408.122 196.33 409.491C194.611 411.204 180.485 410.282 178.765 409.491C177.045 408.699 183.809 403.191 185.3 404.244C186.79 405.299 187.961 406.33 189.796 404.748C191.63 403.168 192.318 403.037 194.955 403.037Z" fill="#32373F"/>
<path d="M196.168 402.233C196.276 400.666 198.553 399.712 198.868 399.754L203.322 400.015L202.782 407.851L197.113 410.985C196.033 410.943 189.15 409.807 193.469 409.807C195.493 409.807 195.898 409.026 197.113 407.851C198.328 406.675 196.033 404.191 196.168 402.233Z" fill="#C8D1DC"/>
<path d="M175.277 385.102C174.953 383.221 174.333 382.054 174.063 381.706L174.602 380.401H177.707C179.147 381.62 181.567 384.606 179.731 386.799C177.437 389.542 175.682 387.452 175.277 385.102Z" fill="#C8D1DC"/>
</g>
<path d="M179.164 396.559C179.12 397.128 179.699 397.55 180.252 397.352L185.591 395.443L186.47 399.268C186.589 399.789 187.2 400.044 187.674 399.772L192.668 396.899C193.052 396.678 193.179 396.197 192.95 395.825C192.722 395.453 192.225 395.331 191.84 395.552L187.808 397.872L186.971 394.227C186.864 393.764 186.36 393.498 185.9 393.662L180.873 395.459L181.184 391.452C181.219 390.998 180.848 390.61 180.377 390.61H174.708C174.261 390.61 173.898 390.961 173.898 391.394C173.898 391.826 174.261 392.177 174.708 392.177H179.504L179.164 396.559Z" fill="#272F39"/>
<path d="M93.7561 408.156C93.2737 407.106 93.6209 404.761 93.8911 404.369C94.161 403.977 126.96 401.496 126.96 401.496C132.404 401.104 142.546 401.141 143.292 403.977C145.181 411.16 140.051 411.16 135.732 411.16C129.793 411.16 129.088 409.637 125.205 410.115C123.181 410.363 120.211 411.682 106.579 411.682C95.646 411.682 94.8359 410.507 93.7561 408.156Z" fill="#C9D1DC"/>
<path d="M127.634 390.456C133.141 390.351 134.967 386.93 135.192 385.232H138.026C138.296 385.624 139.174 386.538 139.781 389.281C140.591 392.937 141.94 393.59 142.75 396.985C143.311 399.336 143.425 402.862 142.075 404.821C139.979 407.864 137.351 407.563 132.897 407.563C130.333 407.563 126.014 406.91 122.1 407.955C116.635 409.415 101.584 410.175 97.8047 409C91.3644 406.997 93.3509 401.164 96.0501 398.944C100.787 395.047 109.938 395.317 112.247 392.284C114.136 389.803 115.212 383.817 116.566 382.359C118.995 379.748 120.646 382.049 120.21 384.579C119.671 387.714 120.75 390.587 127.634 390.456Z" fill="#3B434E"/>
<mask id="mask1_204_163" style="mask-type:alpha" maskUnits="userSpaceOnUse" x="93" y="381" width="51" height="29">
<path d="M127.634 390.456C133.141 390.351 134.967 386.93 135.192 385.232H138.026C138.296 385.624 139.174 386.538 139.781 389.281C140.591 392.937 141.94 393.59 142.75 396.985C143.311 399.336 143.425 402.862 142.075 404.821C139.979 407.864 137.351 407.563 132.897 407.563C130.333 407.563 126.014 406.91 122.1 407.955C116.635 409.415 101.584 410.175 97.8047 409C91.3644 406.997 93.3509 401.164 96.0501 398.944C100.787 395.047 109.938 395.317 112.247 392.284C114.136 389.803 115.212 383.817 116.566 382.359C118.995 379.748 120.646 382.049 120.21 384.579C119.671 387.714 120.75 390.587 127.634 390.456Z" fill="white"/>
</mask>
<g mask="url(#mask1_204_163)">
<path d="M105.123 399.229C106.958 398.811 115.426 394.528 119.43 392.438C126.313 394.397 131.442 401.318 135.356 408.24C135.221 409.807 119.662 411.337 117.945 409.285C115.651 406.542 111.466 400.927 105.123 399.229Z" fill="#32373F"/>
<path d="M98.9128 403.037C96.8035 403.037 96.276 401.543 96.276 400.796C96.1233 403.123 96.1613 408.122 97.5372 409.491C99.2567 411.204 113.383 410.282 115.103 409.491C116.822 408.699 110.058 403.191 108.568 404.244C107.078 405.299 105.906 406.331 104.072 404.748C102.237 403.168 101.55 403.037 98.9128 403.037Z" fill="#32373F"/>
<path d="M97.6994 402.233C97.5914 400.666 95.315 399.712 95 399.754L90.5459 400.015L91.0858 407.851L96.7546 410.985C97.8344 410.943 104.718 409.807 100.399 409.807C98.3742 409.807 97.9693 409.026 96.7546 407.851C95.5398 406.675 97.8344 404.191 97.6994 402.233Z" fill="#C8D1DC"/>
<path d="M118.59 385.102C118.914 383.221 119.535 382.054 119.805 381.706L119.265 380.401H116.161C114.721 381.62 112.301 384.606 114.136 386.799C116.431 389.542 118.185 387.452 118.59 385.102Z" fill="#C8D1DC"/>
</g>
<path d="M114.703 396.559C114.748 397.128 114.168 397.55 113.615 397.352L108.277 395.443L107.398 399.268C107.278 399.789 106.668 400.044 106.194 399.772L101.2 396.899C100.815 396.678 100.689 396.197 100.917 395.825C101.146 395.453 101.643 395.331 102.027 395.552L106.06 397.872L106.897 394.227C107.003 393.764 107.508 393.498 107.968 393.662L112.994 395.459L112.683 391.452C112.648 390.998 113.02 390.61 113.491 390.61H119.16C119.607 390.61 119.97 390.961 119.97 391.394C119.97 391.826 119.607 392.177 119.16 392.177H114.364L114.703 396.559Z" fill="#272F39"/>
<path d="M121.723 294.829C119.765 276.655 120.787 213.531 125.085 187.085L132.966 187.393C133.951 223.271 132.297 279.628 131.811 295.223C129.504 298.327 122.89 297.003 121.723 294.829Z" fill="#D8DEE4"/>
<path d="M158.477 288.256C155.306 270.324 153.106 207.588 156.544 181.081L170.226 176.757C173.242 212.324 174.996 266.197 176.124 287.347C173.69 290.562 159.909 290.348 158.477 288.256Z" fill="#D8DEE4"/>
<path d="M130.66 297.963C127.131 279.855 125.808 216.653 130.66 190.023H141.686C144.627 225.885 147.339 282.34 147.339 297.963C144.251 301.159 132.386 300.094 130.66 297.963Z" fill="#EAF0F5"/>
<path d="M137.351 177.617C147.795 179.213 163.4 173.177 168.799 165.864C170.959 167.17 173.253 172.785 173.253 177.617C173.253 182.449 158.946 195.769 139.647 192.896C133.511 191.983 130.961 188.717 130.602 184.93C130.243 181.143 129.657 176.442 137.351 177.617Z" fill="#D8DEE4"/>
<path d="M148.252 178.417C137.723 179.351 124.089 171.175 121.944 168.114C119.618 169.116 119.178 172.142 118.096 179.591C116.744 188.902 137.02 195.653 151.021 195.014C173.523 193.985 173.816 180.706 172.338 176.812C170.859 172.919 164.684 176.958 148.252 178.417Z" fill="#EAF0F5"/>
<path d="M122.099 214.313C116.933 185.326 114.115 179.769 110.926 173.967C110.696 173.549 110.137 173.422 109.739 173.698L100.503 180.098L87.0062 196.617C90.2455 203.407 97.8039 202.363 97.8039 218.034C97.8039 225.885 88.7159 323.312 91.5952 337.068C91.5952 337.068 96.1843 342.608 107.522 344.12C118.859 345.632 127.767 345.426 127.767 345.426L125.338 254.535C122.099 234.685 123.309 221.105 122.099 214.313Z" fill="#4F5E46"/>
<path d="M174.359 265.027L132.138 280.708L108.885 222.097L151.105 206.416C152.62 205.854 154.317 206.548 154.898 208.013L176.037 261.296C176.625 262.776 175.873 264.465 174.359 265.027Z" fill="#87402A"/>
<path opacity="0.3" d="M114.838 219.912L108.872 222.128L132.125 280.739L138.091 278.523L114.838 219.912Z" fill="#CCDDE5"/>
<path d="M160.554 222.267L115.58 238.97L122.157 255.547L167.131 238.843L160.554 222.267Z" fill="#67513B"/>
<path d="M171.619 267.429L167.762 268.862C166.758 269.235 165.79 269.153 165.602 268.679L142.09 209.417C141.902 208.943 142.565 208.256 143.569 207.883L147.426 206.45C148.43 206.078 149.398 206.159 149.586 206.633L173.092 265.881C173.286 266.369 172.623 267.057 171.619 267.429Z" fill="#B7C8CE"/>
<path d="M144.769 283.855L137.387 282.942L135.949 279.319L142.068 277.046L144.769 283.855Z" fill="#EA3939"/>
<path d="M88.9904 251.636C86.5902 256.778 88.9531 262.83 94.2679 265.152C97.7778 266.685 101.119 266.664 104.75 265.809C105.731 265.578 106.668 265.303 107.883 264.911C108.102 264.84 109.93 264.238 110.455 264.072C113.207 263.199 115.16 262.808 117.272 262.789C120.014 262.765 122.951 263.416 126.4 265.034C131.648 267.495 137.964 265.375 140.508 260.298C143.052 255.221 139.614 250.025 136.933 246.857C135.539 245.211 132.017 242.702 126.106 242.782C125.964 242.784 116.725 243.303 116.584 243.304C111.945 243.345 108.515 243.185 103.879 244.655C103.214 244.865 101.308 245.493 101.197 245.529C100.893 245.627 100.637 245.708 100.421 245.773C95.7866 244.991 91.016 247.296 88.9904 251.636Z" fill="#EBBAAA"/>
<path d="M72.1694 222.648C76.0984 211.623 84.5769 196.292 97.3406 185.583L98.6903 227.111C100.982 228.695 99.9671 235.668 105.075 236.428C111.459 237.378 115.88 238.804 121.282 244.031C115.88 244.981 115.388 255.911 118.335 265.414C118.335 268.028 114.652 270.404 110.968 270.404L89.1132 273.968L72.1694 255.911C70.5323 249.416 68.2404 233.672 72.1694 222.648Z" fill="#424B3C"/>
<path d="M85.1168 229.2L97.3949 231.101L85.1168 234.19V229.2Z" fill="#393F35"/>
<path d="M89.7057 238.441L98.546 231.551L94.3714 241.055L89.7057 238.441Z" fill="#393F35"/>
<path d="M127.409 242.782H120.288C114.64 242.782 112.921 249.672 112.921 252.998C112.921 261.076 113.248 261.472 114.64 265.828C118.242 265.907 122.007 266.303 124.462 264.403C122.743 252.285 124.708 246.821 127.409 242.782Z" fill="#515E4A"/>
<rect width="93.3998" height="38.1476" rx="18.2572" transform="matrix(0.999965 -0.00836754 0.00893831 0.99996 98.4453 124.075)" fill="#2D2622"/>
<path d="M105.743 144.441C114.451 144.441 121.51 137.924 121.51 129.884C121.51 121.844 114.451 115.326 105.743 115.326C97.0349 115.326 89.9757 121.844 89.9757 129.884C89.9757 137.924 97.0349 144.441 105.743 144.441Z" fill="#EFC8BD"/>
<path d="M182.883 144.593C191.591 144.593 198.65 138.075 198.65 130.035C198.65 121.995 191.591 115.477 182.883 115.477C174.175 115.477 167.116 121.995 167.116 130.035C167.116 138.075 174.175 144.593 182.883 144.593Z" fill="#EFC8BD"/>
<path d="M102.53 101.455C102.53 80.1987 121.357 62.9668 144.582 62.9668C167.807 62.9668 186.634 80.1987 186.634 101.455L183.935 139.737C180.544 164.568 162.895 178.225 144.582 178.225C126.269 178.225 107.716 161.671 105.229 139.737L102.53 101.455Z" fill="#F6DDD6"/>
<path d="M121.289 152.936C126.805 152.936 131.277 148.609 131.277 143.272C131.277 137.935 126.805 133.608 121.289 133.608C115.773 133.608 111.301 137.935 111.301 143.272C111.301 148.609 115.773 152.936 121.289 152.936Z" fill="#F2CACA" fill-opacity="0.36"/>
<path d="M169.744 152.413C175.185 152.413 179.597 148.087 179.597 142.75C179.597 137.412 175.185 133.086 169.744 133.086C164.302 133.086 159.891 137.412 159.891 142.75C159.891 148.087 164.302 152.413 169.744 152.413Z" fill="#F2CACA" fill-opacity="0.36"/>
<path d="M150.888 151.372C150.901 151.351 150.902 151.35 150.889 151.367C150.846 151.421 150.787 151.49 150.711 151.569C150.468 151.821 150.149 152.084 149.746 152.337C148.513 153.111 146.846 153.589 144.639 153.589C142.432 153.589 140.765 153.111 139.532 152.337C139.129 152.084 138.81 151.821 138.567 151.569C138.491 151.49 138.432 151.421 138.389 151.367C138.376 151.349 138.377 151.351 138.393 151.375C137.8 150.458 136.551 150.179 135.603 150.752C134.655 151.326 134.366 152.534 134.959 153.451C135.088 153.652 135.3 153.922 135.603 154.237C136.066 154.719 136.639 155.191 137.329 155.624C139.217 156.809 141.65 157.506 144.639 157.506C147.629 157.506 150.061 156.809 151.95 155.624C152.639 155.191 153.212 154.719 153.675 154.237C153.978 153.922 154.19 153.652 154.319 153.451C154.912 152.534 154.624 151.326 153.675 150.752C152.728 150.179 151.479 150.457 150.887 151.374L150.888 151.372Z" fill="#EC908B"/>
<path d="M123.271 115.819C123.327 115.796 123.457 115.748 123.653 115.682C123.992 115.567 124.377 115.451 124.8 115.343C126.003 115.035 127.247 114.851 128.452 114.851C129.651 114.851 130.855 115.034 131.994 115.339C132.393 115.445 132.754 115.559 133.067 115.672C133.246 115.736 133.364 115.782 133.411 115.803C134.228 116.156 135.186 115.802 135.551 115.012C135.916 114.222 135.55 113.295 134.733 112.942C134.623 112.894 134.441 112.822 134.193 112.733C133.796 112.59 133.349 112.449 132.858 112.318C131.455 111.943 129.969 111.717 128.452 111.717C126.94 111.717 125.426 111.941 123.972 112.313C123.464 112.443 122.999 112.583 122.584 112.723C122.327 112.81 122.138 112.88 122.025 112.926C121.199 113.259 120.809 114.176 121.153 114.975C121.497 115.774 122.445 116.152 123.271 115.819Z" fill="#513F32"/>
<path d="M155.124 115.819C155.18 115.796 155.311 115.748 155.506 115.682C155.845 115.567 156.23 115.451 156.653 115.343C157.856 115.035 159.101 114.851 160.305 114.851C161.504 114.851 162.708 115.034 163.848 115.339C164.246 115.445 164.607 115.559 164.92 115.672C165.1 115.736 165.217 115.782 165.264 115.803C166.081 116.156 167.039 115.802 167.404 115.012C167.769 114.222 167.403 113.295 166.586 112.942C166.476 112.894 166.294 112.822 166.047 112.733C165.649 112.59 165.202 112.449 164.711 112.318C163.308 111.943 161.822 111.717 160.305 111.717C158.793 111.717 157.279 111.941 155.825 112.313C155.318 112.443 154.852 112.583 154.437 112.723C154.18 112.81 153.991 112.88 153.878 112.926C153.053 113.259 152.662 114.176 153.006 114.975C153.35 115.774 154.298 116.152 155.124 115.819Z" fill="#513F32"/>
<path d="M123.026 125.643L130.297 124.531C131.033 124.418 131.536 123.749 131.42 123.037C131.303 122.325 130.612 121.838 129.876 121.951L122.604 123.063C121.868 123.176 121.366 123.845 121.482 124.557C121.598 125.269 122.29 125.756 123.026 125.643Z" fill="black"/>
<path d="M157.553 123.849L164.824 124.962C165.561 125.074 166.252 124.588 166.368 123.876C166.485 123.163 165.982 122.495 165.246 122.382L157.975 121.27C157.239 121.157 156.547 121.643 156.431 122.356C156.315 123.068 156.817 123.737 157.553 123.849Z" fill="black"/>
<path d="M125.47 123.241L125.47 130.757C125.47 132.488 126.92 133.891 128.709 133.891C130.498 133.891 131.949 132.488 131.949 130.757L131.949 123.241C131.949 121.51 130.499 120.107 128.71 120.107C126.921 120.106 125.47 121.51 125.47 123.241Z" fill="black"/>
<path d="M156.197 122.559V130.076C156.197 131.807 157.647 133.21 159.436 133.21C161.225 133.21 162.675 131.807 162.675 130.076V122.559C162.675 120.828 161.225 119.425 159.436 119.425C157.647 119.425 156.197 120.828 156.197 122.559Z" fill="black"/>
<path d="M141.542 132.895C141.453 133.525 141.352 133.949 140.874 135.807C140.758 136.257 140.676 136.584 140.597 136.911C140.014 139.335 139.834 140.991 140.214 142.526C140.81 144.93 142.783 146.316 145.691 146.316V141.876C145.388 141.876 145.149 141.848 144.974 141.803C144.868 141.775 144.807 141.748 144.775 141.725C144.767 141.72 144.765 141.717 144.756 141.703C144.73 141.663 144.702 141.594 144.676 141.49C144.515 140.837 144.639 139.694 145.066 137.918C145.139 137.617 145.216 137.31 145.327 136.88C145.858 134.817 145.966 134.359 146.088 133.498L141.542 132.895Z" fill="#EBBAAA"/>
<path d="M105.632 126.034C107.522 116.109 112.378 82.4169 132.083 82.4169C135.514 82.4169 142.206 69.7496 132.083 67.2684C109.948 67.2684 100.234 77.1932 100.234 98.0877C100.234 114.803 103.743 135.959 105.632 126.034Z" fill="#2D2622"/>
<path d="M183.336 124.467C181.446 114.542 176.591 80.8498 156.885 80.8498C153.454 80.8498 140.32 68.1825 150.443 65.7013C172.578 65.7013 183.336 73.0144 188.735 96.5206C192.482 112.838 185.225 134.392 183.336 124.467Z" fill="#2D2622"/>
<path d="M107.93 100.098C107.172 94.0932 108.722 84.5063 114.644 79.5439C117.476 88.7081 113.066 96.4469 114.644 100.934C118.88 112.988 108.858 117.125 108.061 122.658C106.566 117.824 106.737 115.105 108.722 109.828C111.374 102.778 108.856 107.446 107.93 100.098Z" fill="#2D2622"/>
<path d="M127.388 84.309C121.771 86.802 120.279 77.5532 120.099 73.658C122.529 57.4075 161.94 57.4076 169.769 70.2054C169.769 77.1818 175.37 88.9213 165.989 84.309C149.523 76.2124 134.409 81.1929 127.388 84.309Z" fill="#2D2622"/>
<path d="M108.11 95.5422C106.751 87.0273 109.715 80.1311 112.357 77.2484C112.357 77.2484 115.569 73.6007 121.324 73.6007C127.08 73.6007 130.897 74.8563 130.897 74.8563C130.52 78.4042 120.851 86.8564 127.08 99.8284C132.883 111.915 111.885 127.695 104.713 130.799C105.845 128.804 114.339 118.089 114.339 110.177C114.339 104.19 109.809 106.186 108.11 95.5422Z" fill="#60432F"/>
<path d="M179.217 95.5399C180.52 87.5694 177.057 82.2197 170.578 78.302C164.1 74.3843 154.517 76.7349 154.517 76.7349C154.879 80.056 165.107 85.6226 167.069 98.9352C168.378 107.815 171.762 111.08 180.566 126.229C180.566 122.05 180.566 118.263 182.321 113.561C184.288 108.29 177.588 105.503 179.217 95.5399Z" fill="#60432F"/>
<path d="M129.488 75.4622C125.228 81.0559 125.376 91.9921 130.173 98.7435C130.511 99.219 131.183 99.3394 131.675 99.0125C132.166 98.6857 132.291 98.0352 131.953 97.5598C127.663 91.5226 127.528 81.5579 131.227 76.7016C131.58 76.2371 131.478 75.5831 130.998 75.2408C130.518 74.8986 129.842 74.9977 129.488 75.4622Z" fill="#47372B"/>
<path d="M153.414 78.4774C156.233 79.6565 158.646 82.7557 160.407 87.1059C161.874 90.7329 162.75 94.9891 162.75 97.8905C162.75 98.4675 163.234 98.9352 163.83 98.9352C164.426 98.9352 164.91 98.4675 164.91 97.8905C164.91 94.7211 163.981 90.2077 162.418 86.3442C160.468 81.5252 157.726 78.0046 154.27 76.5595C153.723 76.3305 153.087 76.5743 152.851 77.1039C152.614 77.6336 152.866 78.2485 153.414 78.4774Z" fill="#47372B"/>
</svg>
