<svg width="535" height="457" viewBox="0 0 535 457" fill="none" xmlns="http://www.w3.org/2000/svg">
<g clip-path="url(#clip0_214_164)">
<path d="M459.392 274.464C461.36 261.779 468.481 216.026 438.112 182.266C417.618 159.516 401.5 166.024 372.888 146.363C308.478 102.1 339.022 33.974 286.383 8.20481C255.318 -7.0001 212.912 1.1517 187.87 14.2514C127.735 45.7061 122.966 129.122 141.775 183.488C164.163 248.21 214.084 254.71 209.754 304.482C207.347 332.333 187.421 380.199 179.074 400.252C172.538 415.971 161.152 441.379 174.094 452.159C178.231 455.601 183.769 456.646 187.87 456.984L473.808 451.997C478.247 451.951 485.551 451.367 488.682 447.342C499.986 432.82 435.064 401.719 430.551 353.169C427.714 322.56 452.161 320.931 459.392 274.464Z" fill="#C6A7CE"/>
</g>
<g opacity="0.79">
<path opacity="0.79" d="M383.713 296.425V315.368H421.478" stroke="#DBBA95" stroke-width="4" stroke-miterlimit="10" stroke-linecap="round" stroke-linejoin="round"/>
<path opacity="0.79" d="M345.887 315.368H383.713V296.425" stroke="#DBBA95" stroke-width="4" stroke-miterlimit="10" stroke-linecap="round" stroke-linejoin="round"/>
<path opacity="0.79" d="M364.769 315.368H402.595V334.251H364.769V315.368Z" stroke="#DBBA95" stroke-width="4" stroke-miterlimit="10" stroke-linecap="round" stroke-linejoin="round"/>
<path opacity="0.79" d="M372.958 353.133H383.713V334.251H345.887" stroke="#DBBA95" stroke-width="4" stroke-miterlimit="10" stroke-linecap="round" stroke-linejoin="round"/>
<path opacity="0.79" d="M421.478 334.251H383.713V353.133H414.328" stroke="#DBBA95" stroke-width="4" stroke-miterlimit="10" stroke-linecap="round" stroke-linejoin="round"/>
<path opacity="0.79" d="M434.371 315.368H402.595V334.251H421.478" stroke="#DBBA95" stroke-width="4" stroke-miterlimit="10" stroke-linecap="round" stroke-linejoin="round"/>
<path opacity="0.79" d="M337.515 334.251H364.769V315.368H351.692" stroke="#DBBA95" stroke-width="4" stroke-miterlimit="10" stroke-linecap="round" stroke-linejoin="round"/>
</g>
<g opacity="0.79">
<path opacity="0.79" d="M150.046 191.687V210.631H112.22" stroke="#DBBA95" stroke-width="4" stroke-miterlimit="10" stroke-linecap="round" stroke-linejoin="round"/>
<path opacity="0.79" d="M187.871 210.631H150.046V191.687" stroke="#DBBA95" stroke-width="4" stroke-miterlimit="10" stroke-linecap="round" stroke-linejoin="round"/>
<path opacity="0.79" d="M168.975 229.473L131.149 229.473L131.149 210.59L168.975 210.59L168.975 229.473Z" stroke="#DBBA95" stroke-width="4" stroke-miterlimit="10" stroke-linecap="round" stroke-linejoin="round"/>
<path opacity="0.79" d="M160.801 248.396H150.046V229.513H187.871" stroke="#DBBA95" stroke-width="4" stroke-miterlimit="10" stroke-linecap="round" stroke-linejoin="round"/>
<path opacity="0.79" d="M112.22 229.513H150.046V248.396H135.869" stroke="#DBBA95" stroke-width="4" stroke-miterlimit="10" stroke-linecap="round" stroke-linejoin="round"/>
<path opacity="0.79" d="M99.3259 210.631H131.163V229.513H112.22" stroke="#DBBA95" stroke-width="4" stroke-miterlimit="10" stroke-linecap="round" stroke-linejoin="round"/>
<path opacity="0.79" d="M196.243 229.513H168.928V210.631H182.066" stroke="#DBBA95" stroke-width="4" stroke-miterlimit="10" stroke-linecap="round" stroke-linejoin="round"/>
</g>
<g opacity="0.79">
<path opacity="0.79" d="M482.28 197.491V178.547H520.106" stroke="#DBBA95" stroke-width="4" stroke-miterlimit="10" stroke-linecap="round" stroke-linejoin="round"/>
<path opacity="0.79" d="M444.515 178.547H482.28V197.491" stroke="#DBBA95" stroke-width="4" stroke-miterlimit="10" stroke-linecap="round" stroke-linejoin="round"/>
<path opacity="0.79" d="M463.398 159.665H501.224V178.547H463.398V159.665Z" stroke="#DBBA95" stroke-width="4" stroke-miterlimit="10" stroke-linecap="round" stroke-linejoin="round"/>
<path opacity="0.79" d="M471.586 140.782H482.28V159.665H444.515" stroke="#DBBA95" stroke-width="4" stroke-miterlimit="10" stroke-linecap="round" stroke-linejoin="round"/>
<path opacity="0.79" d="M520.106 159.665H482.28V140.782H512.956" stroke="#DBBA95" stroke-width="4" stroke-miterlimit="10" stroke-linecap="round" stroke-linejoin="round"/>
<path opacity="0.79" d="M533 178.547H501.224V159.665H520.106" stroke="#DBBA95" stroke-width="4" stroke-miterlimit="10" stroke-linecap="round" stroke-linejoin="round"/>
<path opacity="0.79" d="M436.144 159.665H463.398V178.547H450.321" stroke="#DBBA95" stroke-width="4" stroke-miterlimit="10" stroke-linecap="round" stroke-linejoin="round"/>
</g>
<path d="M438 372V144" stroke="#1B3242" stroke-width="4" stroke-miterlimit="10" stroke-linecap="round" stroke-linejoin="round"/>
<path d="M24 381H16" stroke="#1B3242" stroke-width="4" stroke-miterlimit="10" stroke-linecap="round" stroke-linejoin="round"/>
<path d="M5 381H2" stroke="#1B3242" stroke-width="4" stroke-miterlimit="10" stroke-linecap="round" stroke-linejoin="round"/>
<path d="M214 381H34" stroke="#1B3242" stroke-width="4" stroke-miterlimit="10" stroke-linecap="round" stroke-linejoin="round"/>
<path d="M499 381H224" stroke="#1B3242" stroke-width="4" stroke-miterlimit="10" stroke-linecap="round" stroke-linejoin="round"/>
<path d="M394 144H484L469.41 66H408.59L394 144Z" fill="#82E086"/>
<path opacity="0.37" d="M409.144 66H416L404.595 144H394L409.144 66Z" fill="#82E086"/>
<path opacity="0.83" d="M469.167 66L484 144H455.982L450 66H469.167Z" fill="#CCCCCC"/>
<path d="M394 144H484L469.41 66H408.59L394 144Z" stroke="#1B3242" stroke-width="4" stroke-miterlimit="10" stroke-linecap="round" stroke-linejoin="round"/>
<path d="M407 381H470C470 372.692 463.04 366 454.4 366H422.6C413.96 366 407 372.692 407 381Z" fill="#1AC7CE"/>
<path d="M440 366H454.795C463.216 366 470 372.692 470 381H455.205C455.205 372.692 448.421 366 440 366Z" fill="#31AFAF"/>
<path d="M407 381H470C470 372.692 463.04 366 454.4 366H422.6C413.96 366 407 372.692 407 381Z" stroke="#303030" stroke-width="4" stroke-miterlimit="10" stroke-linecap="round" stroke-linejoin="round"/>
<path d="M407 381H470C470 372.692 463.04 366 454.4 366H422.6C413.96 366 407 372.692 407 381Z" stroke="#303030" stroke-width="4" stroke-miterlimit="10" stroke-linecap="round" stroke-linejoin="round"/>
<path d="M407 381H470C470 372.692 463.04 366 454.4 366H422.6C413.96 366 407 372.692 407 381Z" stroke="#1B3242" stroke-width="4" stroke-miterlimit="10" stroke-linecap="round" stroke-linejoin="round"/>
<path d="M414 144V197" stroke="#1B3242" stroke-width="4" stroke-miterlimit="10" stroke-linecap="round" stroke-linejoin="round"/>
<path d="M412.394 216H415.606C417.485 216 419 214.39 419 212.393V200.607C419 198.61 417.485 197 415.606 197H412.394C410.515 197 409 198.61 409 200.607V212.393C409 214.39 410.515 216 412.394 216Z" fill="#1B3242"/>
<path d="M66 9H131V57H66V9Z" fill="white"/>
<path d="M66 9H131V57H66V9Z" stroke="#1B3242" stroke-width="4" stroke-miterlimit="10" stroke-linecap="round" stroke-linejoin="round"/>
<path d="M76 47V20L124 20V47L76 47Z" fill="#1AC7CE"/>
<path d="M83 78H131V141H83V78Z" fill="white"/>
<path d="M92 132L92 88H124V132H92Z" fill="#FFD55C"/>
<path d="M76 47V20L124 20V47L76 47Z" stroke="#1B3242" stroke-width="4" stroke-miterlimit="10" stroke-linecap="round" stroke-linejoin="round"/>
<path d="M92 132L92 88H124V132H92Z" stroke="#1B3242" stroke-width="4" stroke-miterlimit="10" stroke-linecap="round" stroke-linejoin="round"/>
<path d="M83 78H131V141H83V78Z" stroke="#1B3242" stroke-width="4" stroke-miterlimit="10" stroke-linecap="round" stroke-linejoin="round"/>
<path d="M340 412H292" stroke="#1D2F3D" stroke-width="4" stroke-miterlimit="10" stroke-linecap="round" stroke-linejoin="round"/>
<path d="M361 412H350" stroke="#1D2F3D" stroke-width="4" stroke-miterlimit="10" stroke-linecap="round" stroke-linejoin="round"/>
<path d="M412 203C412.533 203 413 202.823 413 202.62V201.38C413 201.177 412.533 201 412 201C411.467 201 411 201.177 411 201.38V202.62C411 202.823 411.467 203 412 203Z" fill="#F7F7F7"/>
<path d="M246.718 366.762H265.051V381.428H246.718V366.762Z" fill="#1B3242"/>
<path d="M246.718 366.762H265.051V381.428H246.718V366.762Z" stroke="#1B3242" stroke-width="4" stroke-miterlimit="10" stroke-linecap="round" stroke-linejoin="round"/>
<path d="M177.422 366.762H195.754V381.428H177.422V366.762Z" fill="#1B3242"/>
<path d="M177.422 366.762H195.754V381.428H177.422V366.762Z" stroke="#1B3242" stroke-width="4" stroke-miterlimit="10" stroke-linecap="round" stroke-linejoin="round"/>
<path d="M161.962 367.373L161.962 49L280.511 49L280.511 367.373H161.962Z" fill="#E8C38B"/>
<path opacity="0.79" d="M164.65 50.0387H278.739V53.7052H164.65V50.0387Z" fill="#995D45"/>
<path opacity="0.35" d="M161.962 359.734H281V367.373H161.962V359.734Z" fill="#995D45"/>
<path d="M172.961 59.9994H269.512V349.652H172.961V59.9994Z" fill="#C3F3F7"/>
<path opacity="0.31" d="M173.572 73.8708V62.4436H258.818H270.123V73.8708V166.755V178.121V263.795V275.222V352.096H258.818V275.222H173.572V263.795H258.818V178.121H173.572V166.755H258.818V73.8708H173.572Z" fill="#474747"/>
<path d="M161.962 367.373L161.962 49L280.511 49L280.511 367.373H161.962Z" stroke="#1B3242" stroke-width="4" stroke-miterlimit="10" stroke-linecap="round" stroke-linejoin="round"/>
<path d="M172.961 253.101H269.512V349.652H172.961V253.101Z" stroke="#303030" stroke-width="4" stroke-miterlimit="10" stroke-linecap="round" stroke-linejoin="round"/>
<path d="M172.961 156.55H269.512V253.101H172.961V156.55Z" stroke="#303030" stroke-width="4" stroke-miterlimit="10" stroke-linecap="round" stroke-linejoin="round"/>
<path d="M172.961 59.9994H269.512V156.55H172.961V59.9994Z" stroke="#303030" stroke-width="4" stroke-miterlimit="10" stroke-linecap="round" stroke-linejoin="round"/>
<path d="M172.961 59.9994H269.512V349.652H172.961V59.9994Z" stroke="#1B3242" stroke-width="4" stroke-miterlimit="10" stroke-linecap="round" stroke-linejoin="round"/>
<path d="M172.961 85.2368H190.071V153.372H172.961V85.2368Z" fill="#653EFF"/>
<path d="M172.961 85.2368H190.071V153.372H172.961V85.2368Z" stroke="#1B3242" stroke-width="4" stroke-miterlimit="10" stroke-linecap="round" stroke-linejoin="round"/>
<path d="M258.614 236.29L258.614 252.484L190.479 252.484L190.479 236.29L258.614 236.29Z" fill="#653EFF"/>
<path d="M258.614 236.29L258.614 252.484L190.479 252.484L190.479 236.29L258.614 236.29Z" stroke="#1B3242" stroke-width="4" stroke-miterlimit="10" stroke-linecap="round" stroke-linejoin="round"/>
<path d="M249.674 220.064L249.674 236.258L181.539 236.258L181.539 220.064L249.674 220.064Z" fill="#6CBC96"/>
<path d="M249.674 220.064L249.674 236.258L181.539 236.258L181.539 220.064L249.674 220.064Z" stroke="#1B3242" stroke-width="4" stroke-miterlimit="10" stroke-linecap="round" stroke-linejoin="round"/>
<path d="M258.214 206.666L258.214 220.171L190.079 220.171L190.079 206.666L258.214 206.666Z" fill="#653EFF"/>
<path d="M258.214 206.666L258.214 220.171L190.079 220.171L190.079 206.666L258.214 206.666Z" stroke="#1B3242" stroke-width="4" stroke-miterlimit="10" stroke-linecap="round" stroke-linejoin="round"/>
<path d="M190.071 102.164H172.961" stroke="#1B3242" stroke-width="4" stroke-miterlimit="10" stroke-linecap="round" stroke-linejoin="round"/>
<path d="M190.071 90.2478H204.615V153.372H190.071V90.2478Z" fill="#F4BA7A"/>
<path d="M190.071 90.2478H204.615V153.372H190.071V90.2478Z" stroke="#1B3242" stroke-width="4" stroke-miterlimit="10" stroke-linecap="round" stroke-linejoin="round"/>
<path d="M204.615 105.891H190.071" stroke="#1B3242" stroke-width="4" stroke-miterlimit="10" stroke-linecap="round" stroke-linejoin="round"/>
<path d="M189.926 280.641L204.654 276.141L224.563 341.306L209.836 345.805L189.926 280.641Z" fill="#5492A8"/>
<path d="M189.926 280.641L204.654 276.141L224.563 341.306L209.836 345.805L189.926 280.641Z" stroke="#1B3242" stroke-width="4" stroke-miterlimit="10" stroke-linecap="round" stroke-linejoin="round"/>
<path d="M209.565 292.271L194.899 296.732" stroke="#1B3242" stroke-width="4" stroke-miterlimit="10" stroke-linecap="round" stroke-linejoin="round"/>
<path d="M207.168 284.345L219.675 280.524L238.12 340.896L225.613 344.718L207.168 284.345Z" fill="#934D84"/>
<path d="M207.168 284.345L219.675 280.524L238.12 340.896L225.613 344.718L207.168 284.345Z" stroke="#1B3242" stroke-width="4" stroke-miterlimit="10" stroke-linecap="round" stroke-linejoin="round"/>
<path d="M224.231 295.448L211.765 299.298" stroke="#1B3242" stroke-width="4" stroke-miterlimit="10" stroke-linecap="round" stroke-linejoin="round"/>
<path d="M176.766 283.221L189.273 279.4L208.129 341.116L195.622 344.937L176.766 283.221Z" fill="#FF433E"/>
<path d="M176.766 283.221L189.273 279.4L208.129 341.116L195.622 344.937L176.766 283.221Z" stroke="#1B3242" stroke-width="4" stroke-miterlimit="10" stroke-linecap="round" stroke-linejoin="round"/>
<path d="M193.982 294.715L181.455 298.504" stroke="#1B3242" stroke-width="4" stroke-miterlimit="10" stroke-linecap="round" stroke-linejoin="round"/>
<path d="M205.373 101.139L217.227 94.2944L246.956 145.785L235.102 152.629L205.373 101.139Z" fill="#18C6CD"/>
<path d="M205.373 101.139L217.227 94.2944L246.956 145.785L235.102 152.629L205.373 101.139Z" stroke="#1B3242" stroke-width="4" stroke-miterlimit="10" stroke-linecap="round" stroke-linejoin="round"/>
<path d="M224.536 107.052L212.681 113.897" stroke="#1B3242" stroke-width="4" stroke-miterlimit="10" stroke-linecap="round" stroke-linejoin="round"/>
<path d="M231.686 220.164V236.296" stroke="#1B3242" stroke-width="4" stroke-miterlimit="10" stroke-linecap="round" stroke-linejoin="round"/>
<path d="M242.93 206.659V220.041" stroke="#1B3242" stroke-width="4" stroke-miterlimit="10" stroke-linecap="round" stroke-linejoin="round"/>
<path d="M241.157 236.296V252.49" stroke="#1B3242" stroke-width="4" stroke-miterlimit="10" stroke-linecap="round" stroke-linejoin="round"/>
<path d="M172.961 156.367H269.512V166.938H172.961V156.367Z" fill="#E8BA8B"/>
<path d="M172.961 156.367H269.512V165.411H172.961V156.367Z" stroke="#1B3242" stroke-width="4" stroke-miterlimit="10" stroke-linecap="round" stroke-linejoin="round"/>
<path d="M172.961 252.49H269.512V263.061H172.961V252.49Z" fill="#995D45"/>
<path d="M172.961 252.49H269.512V261.656H172.961V252.49Z" stroke="#1B3242" stroke-width="4" stroke-miterlimit="10" stroke-linecap="round" stroke-linejoin="round"/>
<path d="M172.961 257.073H270.123V349.651H172.961V257.073Z" fill="#E8DF8B"/>
<path opacity="0.35" d="M172.961 342.257H270.123V349.651H172.961V342.257Z" fill="#995D45"/>
<path opacity="0.82" d="M172.961 259.395H270.123V263.795H172.961V259.395Z" fill="#995D45"/>
<path d="M172.961 257.073H269.512V349.651H172.961V257.073Z" stroke="#1B3242" stroke-width="4" stroke-miterlimit="10" stroke-linecap="round" stroke-linejoin="round"/>
<path d="M194.715 283.166V323.558" stroke="#1B3242" stroke-width="4" stroke-miterlimit="10" stroke-linecap="round" stroke-linejoin="round"/>
<path d="M280.296 273.63L310.581 276.196V361.148H288.644L280.296 273.63Z" fill="#404B62"/>
<path d="M314.945 294.95C331.044 294.95 344.095 288.768 344.095 281.142C344.095 273.516 331.044 267.334 314.945 267.334C298.846 267.334 285.795 273.516 285.795 281.142C285.795 288.768 298.846 294.95 314.945 294.95Z" fill="#404B62"/>
<path d="M317.254 276.196H348.309V361.148H325.814L317.254 276.196Z" fill="#404B62"/>
<path d="M285.663 343.182H310.559V363.457H288.192L285.663 343.182Z" fill="#8C8379"/>
<path d="M349.592 341.9L323.157 340.873L324.44 361.148H348.86L349.592 341.9Z" fill="#8C8379"/>
<path d="M267.845 376.845C267.845 366.478 276.25 358.073 286.618 358.073H310.733C310.893 358.073 311.022 358.2 311.022 358.36V375.67C311.022 377.088 309.873 378.235 308.455 378.235H269.236C268.468 378.235 267.845 377.613 267.845 376.845Z" fill="#CEB56F"/>
<mask id="mask0_214_164" style="mask-type:alpha" maskUnits="userSpaceOnUse" x="267" y="358" width="45" height="21">
<path d="M267.845 376.845C267.845 366.478 276.25 358.073 286.618 358.073H310.733C310.893 358.073 311.022 358.2 311.022 358.36V375.67C311.022 377.088 309.873 378.235 308.455 378.235H269.236C268.468 378.235 267.845 377.613 267.845 376.845Z" fill="white"/>
</mask>
<g mask="url(#mask0_214_164)">
<path d="M272.853 365.513C269.615 363.683 270.885 367.308 267.976 368.848L261.817 380.655H310.838C312.035 378.943 315.951 372.895 312.506 371.673C304.55 368.848 295.438 374.368 290.819 374.11C286.199 373.853 272.974 375.778 273.751 371.673C274.649 366.923 275.804 367.18 272.853 365.513Z" fill="#B69F62"/>
<path d="M307.435 374.664C311.707 372.672 314.216 369.012 313.039 366.488C311.863 363.965 307.446 363.534 303.174 365.526C298.902 367.518 296.392 371.179 297.569 373.702C298.746 376.226 303.163 376.656 307.435 374.664Z" fill="#B69F62"/>
<path d="M281.661 358.354C280.984 358.162 280.425 358.904 280.797 359.502L282.631 362.452L276.814 360.546C276.11 360.315 275.518 361.114 275.944 361.72L279.281 366.468C279.525 366.816 280.006 366.899 280.353 366.655C280.701 366.41 280.785 365.93 280.541 365.582L278.537 362.731L284.163 364.574C284.846 364.798 285.436 364.047 285.056 363.436L283.155 360.378L288.94 362.018C289.432 362.158 289.92 361.788 289.92 361.277C289.92 360.072 289.166 359.129 287.787 358.095C287.517 357.892 286.662 357.293 286.533 357.197C286.192 356.941 285.71 357.01 285.455 357.35C285.199 357.691 285.268 358.173 285.608 358.428C285.765 358.546 286.62 359.144 286.863 359.327C287.217 359.592 287.509 359.841 287.738 360.077L281.661 358.354Z" fill="#EED99F"/>
<path fill-rule="evenodd" clip-rule="evenodd" d="M288.133 355.666C288.126 355.298 288.124 355.098 288.124 354.86C288.124 352.579 286.632 350.883 284.659 350.883C283.697 350.883 282.915 351.284 282.374 352.023C281.856 352.728 281.579 353.72 281.579 354.86C281.579 355.913 282.205 356.86 283.273 357.571C284.22 358.201 285.435 358.58 286.456 358.58C286.944 358.58 287.303 358.492 287.559 358.314C287.793 358.149 287.945 357.908 288.034 357.57C288.111 357.275 288.141 356.917 288.142 356.397C288.143 356.209 288.141 356.053 288.134 355.681L288.133 355.666ZM286.594 355.714C286.601 356.07 286.603 356.219 286.602 356.392C286.601 356.681 286.59 356.891 286.57 357.037C286.536 357.039 286.498 357.04 286.455 357.04C285.744 357.04 284.824 356.753 284.126 356.289C283.452 355.84 283.119 355.336 283.119 354.86C283.119 354.028 283.307 353.354 283.616 352.933C283.869 352.588 284.191 352.422 284.659 352.422C285.734 352.422 286.584 353.389 286.584 354.86C286.584 355.111 286.586 355.317 286.594 355.699L286.594 355.714Z" fill="#EED99F"/>
<path fill-rule="evenodd" clip-rule="evenodd" d="M287.629 358.198C287.646 358.245 287.65 358.258 287.682 358.311L287.697 358.344L287.712 358.368L287.727 358.389L287.727 358.389L287.751 358.422L287.755 358.426C287.878 358.586 288.072 358.728 288.37 358.861C289.062 359.168 289.999 359.282 290.83 359.148C291.771 358.99 292.476 358.545 292.789 357.844C293.13 357.076 293.238 356.327 293.097 355.698C292.95 355.042 292.538 354.535 291.887 354.245C290.549 353.65 289.029 354.334 288.347 355.864C288.279 356.018 288.244 356.093 288.099 356.404L288.092 356.419L287.982 356.656C287.939 356.749 287.906 356.82 287.876 356.89C287.723 357.237 287.636 357.487 287.6 357.707C287.58 357.832 287.577 357.942 287.592 358.044L287.599 358.089L287.599 358.089C287.602 358.104 287.603 358.11 287.609 358.129C287.614 358.153 287.618 358.17 287.628 358.193L287.629 358.198ZM287.755 358.426L287.83 358.508L288.039 358.649L288.357 357.948L287.727 358.389L287.727 358.389C287.736 358.401 287.745 358.414 287.755 358.426ZM291.594 356.036C291.553 355.851 291.464 355.742 291.26 355.651C290.738 355.419 290.105 355.704 289.754 356.491C289.68 356.656 289.643 356.736 289.498 357.046L289.493 357.058L289.38 357.302C289.34 357.387 289.311 357.451 289.285 357.511L289.267 357.551C289.659 357.662 290.151 357.697 290.58 357.628C291.051 357.549 291.306 357.388 291.382 357.218C291.597 356.735 291.657 356.316 291.594 356.036Z" fill="#EED99F"/>
</g>
<path d="M366.847 376.845C366.847 366.478 358.442 358.073 348.074 358.073H323.959C323.799 358.073 323.67 358.2 323.67 358.36V375.67C323.67 377.088 324.819 378.235 326.237 378.235H365.457C366.225 378.235 366.847 377.613 366.847 376.845Z" fill="#CEB56F"/>
<mask id="mask1_214_164" style="mask-type:alpha" maskUnits="userSpaceOnUse" x="323" y="358" width="44" height="21">
<path d="M366.847 376.845C366.847 366.478 358.442 358.073 348.074 358.073H323.959C323.799 358.073 323.67 358.2 323.67 358.36V375.67C323.67 377.088 324.819 378.235 326.237 378.235H365.457C366.225 378.235 366.847 377.613 366.847 376.845Z" fill="white"/>
</mask>
<g mask="url(#mask1_214_164)">
<path d="M361.84 365.513C365.077 363.683 363.807 367.308 366.716 368.848L372.876 380.655H323.855C322.657 378.943 318.741 372.895 322.187 371.673C330.143 368.848 339.254 374.368 343.874 374.11C348.494 373.853 361.718 375.778 360.941 371.673C360.043 366.923 358.888 367.18 361.84 365.513Z" fill="#B69F62"/>
<path d="M327.258 374.664C322.986 372.672 320.476 369.012 321.653 366.488C322.83 363.965 327.247 363.534 331.519 365.526C335.791 367.518 338.3 371.179 337.123 373.702C335.947 376.226 331.53 376.656 327.258 374.664Z" fill="#B69F62"/>
<path d="M349.636 363.436C349.257 364.047 349.847 364.798 350.53 364.574L356.156 362.731L354.152 365.582C353.907 365.93 353.991 366.41 354.339 366.655C354.687 366.899 355.167 366.816 355.412 366.468L358.748 361.72C359.174 361.114 358.582 360.315 357.878 360.546L352.061 362.452L353.896 359.502C354.267 358.904 353.709 358.162 353.032 358.354L346.954 360.077C347.183 359.841 347.475 359.592 347.829 359.327C348.072 359.144 348.928 358.545 349.084 358.428C349.424 358.173 349.493 357.691 349.238 357.351C348.983 357.01 348.5 356.941 348.16 357.197C348.031 357.293 347.175 357.892 346.905 358.095C345.526 359.129 344.772 360.072 344.772 361.277C344.772 361.788 345.26 362.158 345.752 362.018L351.537 360.378L349.636 363.436Z" fill="#EED99F"/>
<path fill-rule="evenodd" clip-rule="evenodd" d="M346.56 355.604C346.566 355.275 346.569 355.08 346.569 354.86C346.569 352.579 348.06 350.883 350.034 350.883C350.995 350.883 351.778 351.284 352.318 352.022C352.836 352.728 353.113 353.72 353.113 354.86C353.113 355.913 352.488 356.86 351.42 357.571C350.473 358.201 349.257 358.58 348.237 358.58C347.748 358.58 347.388 358.492 347.135 358.314C346.9 358.15 346.747 357.909 346.658 357.569C346.582 357.274 346.552 356.916 346.55 356.397C346.55 356.209 346.552 356.053 346.559 355.695L346.559 355.671L346.56 355.604ZM348.098 355.709C348.092 356.07 348.09 356.22 348.09 356.393C348.091 356.681 348.102 356.89 348.122 357.037C348.156 357.039 348.194 357.04 348.237 357.04C348.949 357.04 349.869 356.753 350.566 356.289C351.24 355.84 351.573 355.336 351.573 354.86C351.573 354.028 351.385 353.354 351.075 352.932C350.824 352.588 350.501 352.422 350.033 352.422C348.958 352.422 348.109 353.389 348.109 354.86C348.109 355.092 348.106 355.295 348.1 355.632L348.099 355.685L348.098 355.709Z" fill="#EED99F"/>
<path fill-rule="evenodd" clip-rule="evenodd" d="M346.975 358.374L346.993 358.347C347.042 358.253 347.05 358.237 347.061 358.204C347.081 358.167 347.085 358.144 347.089 358.108C347.09 358.102 347.091 358.096 347.093 358.089L347.093 358.089L347.098 358.059C347.116 357.951 347.113 357.835 347.093 357.708C347.057 357.487 346.969 357.236 346.816 356.889C346.786 356.82 346.753 356.748 346.71 356.655L346.598 356.414L346.593 356.403C346.464 356.127 346.414 356.02 346.345 355.864C345.663 354.334 344.143 353.65 342.806 354.244C342.154 354.535 341.743 355.041 341.595 355.699C341.454 356.328 341.562 357.076 341.902 357.842C342.216 358.545 342.921 358.99 343.859 359.147C344.693 359.282 345.631 359.168 346.322 358.861C346.647 358.716 346.854 358.556 346.975 358.374ZM343.098 356.036C343.14 355.851 343.228 355.742 343.433 355.651C343.954 355.419 344.587 355.704 344.938 356.491C345.012 356.657 345.064 356.77 345.196 357.05L345.2 357.059L345.313 357.302C345.352 357.387 345.381 357.451 345.407 357.51L345.425 357.551C345.034 357.662 344.541 357.697 344.108 357.627C343.642 357.549 343.386 357.388 343.309 357.216C343.095 356.735 343.035 356.316 343.098 356.036Z" fill="#EED99F"/>
</g>
<path d="M342.663 127.08L357.035 124C364.222 146.073 360.115 181.491 357.035 193.297L323.67 176.871V149.152L342.663 127.08Z" fill="#1F1F20"/>
<rect x="268.646" y="163.435" width="47.0373" height="87.231" rx="23.5186" transform="rotate(12 268.646 163.435)" fill="#36383A"/>
<path d="M278.632 191.875C279.774 177.888 291.458 167.118 305.492 167.118H326.435C340.385 167.118 352.029 177.764 353.276 191.658L356.006 222.074C356.179 223.994 356.157 225.927 355.943 227.843L351.074 271.32H280.653L276.2 227.584C276.022 225.839 276.004 224.082 276.147 222.334L278.632 191.875Z" fill="#7E8083"/>
<rect x="303.113" y="150.949" width="22.5856" height="29.5152" rx="11.2928" fill="#EBBAAA"/>
<rect width="38.319" height="94.1835" rx="19.1595" transform="matrix(-0.945519 0.325568 0.325568 0.945519 354.512 153.259)" fill="#36383A"/>
<path d="M304.934 195.863C304.934 188.061 305.704 175.331 301.085 164.038H284.915C282.007 168.487 275.984 183.749 275.162 209.209C274.341 234.669 272.425 263.962 271.569 275.426C275.162 276.581 296.336 280.431 308.143 276.324C308.143 259.898 306.988 250.274 306.731 226.148C306.558 209.852 304.934 203.665 304.934 195.863Z" fill="#36383A"/>
<rect x="247" y="244.447" width="31.3577" height="53.0998" rx="15.6789" transform="rotate(-67 247 244.447)" fill="#424648"/>
<path d="M289.792 179.181C296.465 174.304 294.925 156.98 299.288 156.98C313.019 169.043 310.902 189.703 306.218 218.962C299.031 183.287 294.989 186.624 289.792 179.181Z" fill="#5A5E65"/>
<path d="M325.18 194.708C325.18 186.906 325.723 168.658 330.343 157.365H341.464C346.055 157.365 350.127 159.838 351.051 164.335C352.914 173.405 354.353 189.485 354.952 208.054C355.773 233.514 357.206 265.887 358.062 277.351C351.389 278.378 333.136 281.457 321.33 277.351C321.33 260.925 323.126 249.119 323.383 224.993C323.556 208.697 325.18 202.511 325.18 194.708Z" fill="#36383A"/>
<rect x="342.161" y="268.371" width="31.0023" height="53.0998" rx="15.5011" transform="rotate(-124 342.161 268.371)" fill="#424648"/>
<path d="M340.322 178.026C333.649 173.149 335.189 155.825 330.826 155.825C317.095 167.888 319.212 188.549 323.896 217.807C331.083 182.132 335.125 185.469 340.322 178.026Z" fill="#5A5E65"/>
<path d="M332.012 269.005L290.903 260.984L302.411 202.003L343.519 210.023C344.993 210.311 345.973 211.708 345.685 213.183L335.224 266.802C334.934 268.291 333.486 269.292 332.012 269.005Z" fill="#4C5C60"/>
<path opacity="0.3" d="M308.193 203.154L302.384 202.021L290.877 261.002L296.685 262.136L308.193 203.154Z" fill="#CCDDE5"/>
<path d="M328.64 269.607L324.884 268.874C323.907 268.683 323.189 268.142 323.282 267.665L334.917 208.028C335.01 207.552 335.88 207.319 336.857 207.51L340.613 208.243C341.59 208.433 342.308 208.975 342.215 209.452L330.583 269.074C330.487 269.565 329.618 269.798 328.64 269.607Z" fill="#B7C8CE"/>
<path d="M299.221 269.742L293.888 265.375L294.6 261.729L300.557 262.891L299.221 269.742Z" fill="#EA3939"/>
<path d="M303.751 248.98C303.961 255 299.06 257.875 292.898 258.09C286.735 258.306 280.62 255.816 280.409 249.795C280.199 243.774 283.111 231.724 289.273 231.509C295.435 231.294 303.54 242.959 303.751 248.98Z" fill="#EBBAAA"/>
<path d="M323 241C325 237.5 328.5 231.5 331.5 229.5C334.5 227.5 337.485 228.84 338.684 228.843C342.164 228.851 344.867 231.314 347.539 235.131C351.132 240.264 349.207 250.787 341.764 255.407C334.321 260.027 324.013 259.253 319.918 255.903C318.507 254.748 317.5 254.5 319 250C320 247 320.847 244.768 323 241Z" fill="#EBBAAA"/>
<path d="M285.16 127.08L270.787 124C267.092 144.532 267.708 172.251 270.787 184.057L304.153 176.871L285.16 127.08Z" fill="#1F1F20"/>
<path d="M292.104 116.314C292.104 124.122 289.007 131.95 280.776 131.95C272.545 131.95 262.297 124.122 262.297 116.314C262.297 108.507 268.969 102.178 277.201 102.178C285.432 102.178 292.104 108.507 292.104 116.314Z" fill="#EBBAAA"/>
<path d="M334.227 116.064C334.227 123.872 337.324 131.7 345.555 131.7C353.786 131.7 364.034 123.872 364.034 116.064C364.034 108.257 357.361 101.928 349.13 101.928C340.899 101.928 334.227 108.257 334.227 116.064Z" fill="#EBBAAA"/>
<path d="M277.527 91.6775C276.657 70.8111 293.339 53.4202 314.223 53.4202C335.644 53.4202 352.519 71.6757 350.838 93.0302L347.606 134.103C346.264 151.147 332.041 164.295 314.944 164.295C295.723 164.295 279.921 149.137 279.121 129.933L277.527 91.6775Z" fill="#EED4CC"/>
<path d="M303.874 159.755C302.368 158.902 305.309 154.948 306.435 153.246C307.168 152.833 310.167 154.553 314.834 154.848C320.668 155.217 320.968 152.004 322.642 154.212C324.315 156.42 327.848 158.983 323.469 160.268C316.622 162.278 305.922 160.916 303.874 159.755Z" fill="#CAC4C1"/>
<path d="M305.954 139.107C309.177 140.53 310.636 141.015 312.314 141.1C313.449 141.157 314.527 141.007 316.191 140.613C316.543 140.53 320.254 139.583 321.8 139.22C322.835 138.977 323.477 137.941 323.234 136.906C322.991 135.871 321.955 135.229 320.92 135.472C319.327 135.846 315.612 136.794 315.304 136.867C313.964 137.184 313.203 137.29 312.507 137.255C311.452 137.202 310.31 136.821 307.508 135.585C306.535 135.156 305.399 135.597 304.97 136.569C304.541 137.542 304.981 138.678 305.954 139.107Z" fill="#C99584"/>
<path d="M301.912 130.974C301.08 131.806 300.214 132.994 299.698 133.877L301.471 134.912C301.905 134.169 302.672 133.118 303.364 132.426L301.912 130.974Z" fill="#CAC3C1"/>
<path d="M306.051 133.114C306.371 132.593 306.673 132.183 306.944 131.913L305.492 130.46C305.088 130.865 304.699 131.393 304.302 132.039C303.962 132.591 303.214 133.986 303.278 133.877L305.051 134.912C305.079 134.856 305.763 133.582 306.051 133.114Z" fill="#CAC3C1"/>
<path d="M325.584 133.877C325.648 133.987 324.899 132.591 324.56 132.039C324.162 131.393 323.774 130.865 323.37 130.461L321.918 131.912C322.188 132.183 322.49 132.593 322.811 133.114C323.098 133.582 323.783 134.855 323.811 134.912L325.584 133.877Z" fill="#CAC3C1"/>
<path d="M318.838 132.426C319.203 132.791 319.505 133.168 319.777 133.577C319.883 133.736 319.981 133.896 320.088 134.079C320.14 134.168 320.311 134.467 320.345 134.527L322.119 133.492C322.091 133.445 321.921 133.146 321.862 133.045C321.736 132.829 321.617 132.637 321.487 132.441C321.144 131.923 320.757 131.441 320.29 130.974L318.838 132.426Z" fill="#CAC3C1"/>
<path d="M293.687 99.4231L303.023 100.193C304.436 100.31 305.675 99.2589 305.792 97.8462C305.908 96.4336 304.858 95.1939 303.445 95.0774L294.109 94.3074C292.697 94.1909 291.457 95.2416 291.34 96.6543C291.224 98.067 292.275 99.3066 293.687 99.4231Z" fill="#787574"/>
<path d="M333.066 94.4937L323.73 95.2634C322.317 95.3799 321.266 96.6195 321.383 98.0322C321.499 99.4449 322.739 100.496 324.152 100.379L333.487 99.6094C334.9 99.4929 335.951 98.2533 335.834 96.8406C335.718 95.428 334.478 94.3772 333.066 94.4937Z" fill="#787574"/>
<path d="M296.022 113.081L300.557 113.49C302.251 113.643 303.748 112.393 303.901 110.699C304.053 109.005 302.804 107.508 301.11 107.355L296.575 106.947C294.881 106.794 293.384 108.043 293.232 109.737C293.079 111.432 294.328 112.929 296.022 113.081Z" fill="black"/>
<path d="M331.073 106.829L326.531 107.248C324.837 107.405 323.591 108.905 323.747 110.599C323.904 112.292 325.404 113.539 327.097 113.382L331.64 112.962C333.334 112.806 334.58 111.306 334.424 109.612C334.267 107.918 332.767 106.672 331.073 106.829Z" fill="black"/>
<rect x="272.41" y="99.088" width="5.91768" height="27.6157" rx="2.95884" transform="rotate(-4 272.41 99.088)" fill="#1F1F20"/>
<rect x="348.488" y="94.4847" width="5.91768" height="31.9993" rx="2.95884" transform="rotate(4 348.488 94.4847)" fill="#1F1F20"/>
<path d="M311.553 122.774C311.487 121.672 311.789 119.984 312.431 117.691C312.593 117.111 312.774 116.5 312.997 115.775C312.995 115.78 313.765 113.31 313.952 112.677C314.289 111.536 314.492 110.723 314.585 110.045L310.262 109.452C310.207 109.852 310.047 110.497 309.768 111.44C309.591 112.037 308.833 114.471 308.826 114.494C308.593 115.251 308.402 115.895 308.229 116.515C307.464 119.246 307.095 121.314 307.197 123.033C307.362 125.804 308.925 127.722 311.736 127.722H315.458V123.358H311.736C311.697 123.358 311.666 123.357 311.64 123.356C311.608 123.254 311.57 123.062 311.553 122.774Z" fill="#EBBAAA"/>
<path d="M313.917 60.8632C296.26 60.4526 278.756 84.2188 278.756 100.131C275.847 112.964 273.896 101.019 268.25 105.125C266.197 98.9653 265.923 74.7226 293.898 52.6503C305.034 43.8648 314.474 45.9306 315.842 48.1549C318.293 52.137 319.349 51.6237 313.917 60.8632Z" fill="#1F1F20"/>
<path d="M316.809 60.8631C334.467 60.4525 348.438 83.962 348.438 99.8745C351.346 112.707 355.125 102.625 361.375 107.75C361.375 101.077 366.788 75.0193 337.786 52.1369C326.651 43.3514 316.766 45.9305 315.398 48.1548C312.947 52.1369 311.378 51.6236 316.809 60.8631Z" fill="#1F1F20"/>
<path d="M271.919 169.428C274.383 162.036 272.945 146.158 271.919 139.143C279.447 149.238 292.759 170.557 285.778 175.074C278.797 179.591 280.132 195.093 281.672 202.28C279.961 201.766 275.615 198.994 271.919 192.013C267.299 183.287 268.839 178.667 271.919 169.428Z" fill="#1F1F20"/>
<path d="M296.722 159.418C288.765 155.825 285.942 153.515 281.579 147.099C280.724 151.034 281.066 163.628 283.119 170.198C285.172 176.768 285.686 190.73 295.438 190.73C295.438 190.73 294.155 180.207 296.722 175.074C299.288 169.941 302.099 161.847 296.722 159.418Z" fill="#1F1F20"/>
<path d="M279.938 174.526C281.727 169.147 280.684 157.593 279.938 152.489C285.404 159.834 298.71 173.841 293.642 177.128C288.574 180.414 285.901 193.201 287.019 198.43C285.776 198.056 282.621 196.04 279.938 190.96C276.585 184.61 277.703 181.249 279.938 174.526Z" fill="#1F1F20"/>
<defs>
<clipPath id="clip0_214_164">
<rect width="358" height="457" fill="white" transform="matrix(-1 0 0 1 490 0)"/>
</clipPath>
</defs>
</svg>
