<svg width="571" height="168" viewBox="0 0 571 168" fill="none" xmlns="http://www.w3.org/2000/svg">
<rect width="571" height="168" rx="16" fill="white"/>
<path d="M0 98H571V142.4C571 151.361 571 155.841 569.256 159.264C567.722 162.274 565.274 164.722 562.264 166.256C558.841 168 554.361 168 545.4 168H25.6C16.6392 168 12.1587 168 8.73615 166.256C5.72556 164.722 3.27787 162.274 1.7439 159.264C0 155.841 0 151.361 0 142.4V98Z" fill="#FCEAE8"/>
<path d="M97.4626 33.536L93.8866 45H92.4946L89.5906 36.256C89.5639 36.1707 89.5372 36.08 89.5106 35.984C89.4892 35.888 89.4652 35.7867 89.4386 35.68C89.4119 35.7867 89.3852 35.888 89.3586 35.984C89.3319 36.08 89.3052 36.1707 89.2786 36.256L86.3586 45H84.9666L81.3906 33.536H82.6786C82.8172 33.536 82.9319 33.5707 83.0226 33.64C83.1186 33.7093 83.1799 33.7973 83.2066 33.904L85.5746 41.872C85.6119 42.016 85.6466 42.1707 85.6786 42.336C85.7159 42.5013 85.7506 42.6773 85.7826 42.864C85.8199 42.6773 85.8572 42.5013 85.8946 42.336C85.9372 42.1653 85.9826 42.0107 86.0306 41.872L88.7266 33.904C88.7586 33.8133 88.8199 33.7307 88.9106 33.656C89.0066 33.576 89.1212 33.536 89.2546 33.536H89.7026C89.8412 33.536 89.9532 33.5707 90.0386 33.64C90.1239 33.7093 90.1879 33.7973 90.2306 33.904L92.9186 41.872C92.9666 42.0107 93.0092 42.16 93.0466 42.32C93.0892 42.48 93.1292 42.648 93.1666 42.824C93.1932 42.648 93.2226 42.48 93.2546 42.32C93.2866 42.16 93.3212 42.0107 93.3586 41.872L95.7346 33.904C95.7612 33.808 95.8199 33.7227 95.9106 33.648C96.0066 33.5733 96.1212 33.536 96.2546 33.536H97.4626ZM99.4976 38.52C99.7536 37.9653 100.068 37.5333 100.442 37.224C100.815 36.9093 101.271 36.752 101.81 36.752C101.98 36.752 102.143 36.7707 102.298 36.808C102.458 36.8453 102.599 36.904 102.722 36.984L102.618 38.048C102.586 38.1813 102.506 38.248 102.378 38.248C102.303 38.248 102.194 38.232 102.05 38.2C101.906 38.168 101.743 38.152 101.562 38.152C101.306 38.152 101.076 38.1893 100.874 38.264C100.676 38.3387 100.498 38.4507 100.338 38.6C100.183 38.744 100.042 38.9253 99.9136 39.144C99.7909 39.3573 99.6789 39.6027 99.5776 39.88V45H98.1456V36.896H98.9616C99.1162 36.896 99.2229 36.9253 99.2816 36.984C99.3402 37.0427 99.3802 37.144 99.4016 37.288L99.4976 38.52ZM105.478 36.896V45H104.054V36.896H105.478ZM105.782 34.352C105.782 34.4907 105.752 34.6213 105.694 34.744C105.64 34.8613 105.566 34.968 105.47 35.064C105.379 35.1547 105.27 35.2267 105.142 35.28C105.019 35.3333 104.888 35.36 104.75 35.36C104.611 35.36 104.48 35.3333 104.358 35.28C104.24 35.2267 104.136 35.1547 104.046 35.064C103.955 34.968 103.883 34.8613 103.83 34.744C103.776 34.6213 103.75 34.4907 103.75 34.352C103.75 34.2133 103.776 34.0827 103.83 33.96C103.883 33.832 103.955 33.7227 104.046 33.632C104.136 33.536 104.24 33.4613 104.358 33.408C104.48 33.3547 104.611 33.328 104.75 33.328C104.888 33.328 105.019 33.3547 105.142 33.408C105.27 33.4613 105.379 33.536 105.47 33.632C105.566 33.7227 105.64 33.832 105.694 33.96C105.752 34.0827 105.782 34.2133 105.782 34.352ZM110.305 45.128C109.665 45.128 109.172 44.9493 108.825 44.592C108.484 44.2347 108.313 43.72 108.313 43.048V38.088H107.337C107.252 38.088 107.18 38.064 107.121 38.016C107.063 37.9627 107.033 37.8827 107.033 37.776V37.208L108.361 37.04L108.689 34.536C108.705 34.456 108.74 34.392 108.793 34.344C108.852 34.2907 108.927 34.264 109.017 34.264H109.737V37.056H112.081V38.088H109.737V42.952C109.737 43.2933 109.82 43.5467 109.985 43.712C110.151 43.8773 110.364 43.96 110.625 43.96C110.775 43.96 110.903 43.9413 111.009 43.904C111.121 43.8613 111.217 43.816 111.297 43.768C111.377 43.72 111.444 43.6773 111.497 43.64C111.556 43.5973 111.607 43.576 111.649 43.576C111.724 43.576 111.791 43.6213 111.849 43.712L112.265 44.392C112.02 44.6213 111.724 44.8027 111.377 44.936C111.031 45.064 110.673 45.128 110.305 45.128ZM118.929 40.064C118.929 39.7333 118.881 39.432 118.785 39.16C118.694 38.8827 118.558 38.6453 118.377 38.448C118.201 38.2453 117.985 38.0907 117.729 37.984C117.473 37.872 117.182 37.816 116.857 37.816C116.174 37.816 115.633 38.016 115.233 38.416C114.838 38.8107 114.593 39.36 114.497 40.064H118.929ZM120.081 43.864C119.905 44.0773 119.694 44.264 119.449 44.424C119.204 44.5787 118.94 44.7067 118.657 44.808C118.38 44.9093 118.092 44.984 117.793 45.032C117.494 45.0853 117.198 45.112 116.905 45.112C116.345 45.112 115.828 45.0187 115.353 44.832C114.884 44.64 114.476 44.3627 114.129 44C113.788 43.632 113.521 43.1787 113.329 42.64C113.137 42.1013 113.041 41.4827 113.041 40.784C113.041 40.2187 113.126 39.6907 113.297 39.2C113.473 38.7093 113.724 38.2853 114.049 37.928C114.374 37.5653 114.772 37.2827 115.241 37.08C115.71 36.872 116.238 36.768 116.825 36.768C117.31 36.768 117.758 36.8507 118.169 37.016C118.585 37.176 118.942 37.4107 119.241 37.72C119.545 38.024 119.782 38.4027 119.953 38.856C120.124 39.304 120.209 39.816 120.209 40.392C120.209 40.616 120.185 40.7653 120.137 40.84C120.089 40.9147 119.998 40.952 119.865 40.952H114.449C114.465 41.464 114.534 41.9093 114.657 42.288C114.785 42.6667 114.961 42.984 115.185 43.24C115.409 43.4907 115.676 43.68 115.985 43.808C116.294 43.9307 116.641 43.992 117.025 43.992C117.382 43.992 117.689 43.952 117.945 43.872C118.206 43.7867 118.43 43.696 118.617 43.6C118.804 43.504 118.958 43.416 119.081 43.336C119.209 43.2507 119.318 43.208 119.409 43.208C119.526 43.208 119.617 43.2533 119.681 43.344L120.081 43.864ZM130.772 38.232C130.708 38.3493 130.609 38.408 130.476 38.408C130.396 38.408 130.305 38.3787 130.204 38.32C130.102 38.2613 129.977 38.1973 129.828 38.128C129.684 38.0533 129.51 37.9867 129.308 37.928C129.105 37.864 128.865 37.832 128.588 37.832C128.348 37.832 128.132 37.864 127.94 37.928C127.748 37.9867 127.582 38.0693 127.444 38.176C127.31 38.2827 127.206 38.408 127.132 38.552C127.062 38.6907 127.028 38.8427 127.028 39.008C127.028 39.216 127.086 39.3893 127.204 39.528C127.326 39.6667 127.486 39.7867 127.684 39.888C127.881 39.9893 128.105 40.08 128.356 40.16C128.606 40.2347 128.862 40.3173 129.124 40.408C129.39 40.4933 129.649 40.5893 129.9 40.696C130.15 40.8027 130.374 40.936 130.572 41.096C130.769 41.256 130.926 41.4533 131.044 41.688C131.166 41.9173 131.228 42.1947 131.228 42.52C131.228 42.8933 131.161 43.24 131.028 43.56C130.894 43.8747 130.697 44.1493 130.436 44.384C130.174 44.6133 129.854 44.7947 129.476 44.928C129.097 45.0613 128.66 45.128 128.164 45.128C127.598 45.128 127.086 45.0373 126.628 44.856C126.169 44.6693 125.78 44.432 125.46 44.144L125.796 43.6C125.838 43.5307 125.889 43.4773 125.948 43.44C126.006 43.4027 126.081 43.384 126.172 43.384C126.268 43.384 126.369 43.4213 126.476 43.496C126.582 43.5707 126.71 43.6533 126.86 43.744C127.014 43.8347 127.201 43.9173 127.42 43.992C127.638 44.0667 127.91 44.104 128.236 44.104C128.513 44.104 128.756 44.0693 128.964 44C129.172 43.9253 129.345 43.8267 129.484 43.704C129.622 43.5813 129.724 43.44 129.788 43.28C129.857 43.12 129.892 42.9493 129.892 42.768C129.892 42.544 129.83 42.36 129.708 42.216C129.59 42.0667 129.433 41.9413 129.236 41.84C129.038 41.7333 128.812 41.6427 128.556 41.568C128.305 41.488 128.046 41.4053 127.78 41.32C127.518 41.2347 127.26 41.1387 127.004 41.032C126.753 40.92 126.529 40.7813 126.332 40.616C126.134 40.4507 125.974 40.248 125.852 40.008C125.734 39.7627 125.676 39.4667 125.676 39.12C125.676 38.8107 125.74 38.5147 125.868 38.232C125.996 37.944 126.182 37.6933 126.428 37.48C126.673 37.2613 126.974 37.088 127.332 36.96C127.689 36.832 128.097 36.768 128.556 36.768C129.089 36.768 129.566 36.8533 129.988 37.024C130.414 37.1893 130.782 37.4187 131.092 37.712L130.772 38.232ZM136.39 36.768C136.982 36.768 137.515 36.8667 137.99 37.064C138.464 37.2613 138.87 37.5413 139.206 37.904C139.542 38.2667 139.798 38.7067 139.974 39.224C140.155 39.736 140.246 40.3093 140.246 40.944C140.246 41.584 140.155 42.16 139.974 42.672C139.798 43.184 139.542 43.6213 139.206 43.984C138.87 44.3467 138.464 44.6267 137.99 44.824C137.515 45.016 136.982 45.112 136.39 45.112C135.792 45.112 135.254 45.016 134.774 44.824C134.299 44.6267 133.894 44.3467 133.558 43.984C133.222 43.6213 132.963 43.184 132.782 42.672C132.606 42.16 132.518 41.584 132.518 40.944C132.518 40.3093 132.606 39.736 132.782 39.224C132.963 38.7067 133.222 38.2667 133.558 37.904C133.894 37.5413 134.299 37.2613 134.774 37.064C135.254 36.8667 135.792 36.768 136.39 36.768ZM136.39 44C137.19 44 137.787 43.7333 138.182 43.2C138.576 42.6613 138.774 41.912 138.774 40.952C138.774 39.9867 138.576 39.2347 138.182 38.696C137.787 38.1573 137.19 37.888 136.39 37.888C135.984 37.888 135.63 37.9573 135.326 38.096C135.027 38.2347 134.776 38.4347 134.574 38.696C134.376 38.9573 134.227 39.28 134.126 39.664C134.03 40.0427 133.982 40.472 133.982 40.952C133.982 41.912 134.179 42.6613 134.574 43.2C134.974 43.7333 135.579 44 136.39 44ZM142.052 45V36.896H142.908C143.11 36.896 143.236 36.9947 143.284 37.192L143.388 38.024C143.686 37.656 144.022 37.3547 144.396 37.12C144.769 36.8853 145.201 36.768 145.692 36.768C146.236 36.768 146.676 36.92 147.012 37.224C147.353 37.528 147.598 37.9387 147.748 38.456C147.865 38.1627 148.014 37.9093 148.196 37.696C148.382 37.4827 148.59 37.3067 148.82 37.168C149.049 37.0293 149.292 36.928 149.548 36.864C149.809 36.8 150.073 36.768 150.34 36.768C150.766 36.768 151.145 36.8373 151.476 36.976C151.812 37.1093 152.094 37.3067 152.324 37.568C152.558 37.8293 152.737 38.152 152.86 38.536C152.982 38.9147 153.044 39.3493 153.044 39.84V45H151.612V39.84C151.612 39.2053 151.473 38.7253 151.196 38.4C150.918 38.0693 150.518 37.904 149.996 37.904C149.761 37.904 149.537 37.9467 149.324 38.032C149.116 38.112 148.932 38.232 148.772 38.392C148.612 38.552 148.484 38.7547 148.388 39C148.297 39.24 148.252 39.52 148.252 39.84V45H146.82V39.84C146.82 39.1893 146.689 38.704 146.428 38.384C146.166 38.064 145.785 37.904 145.284 37.904C144.932 37.904 144.606 38 144.308 38.192C144.009 38.3787 143.734 38.6347 143.484 38.96V45H142.052ZM160.632 40.064C160.632 39.7333 160.584 39.432 160.488 39.16C160.397 38.8827 160.261 38.6453 160.08 38.448C159.904 38.2453 159.688 38.0907 159.432 37.984C159.176 37.872 158.885 37.816 158.56 37.816C157.877 37.816 157.336 38.016 156.936 38.416C156.541 38.8107 156.296 39.36 156.2 40.064H160.632ZM161.784 43.864C161.608 44.0773 161.397 44.264 161.152 44.424C160.907 44.5787 160.643 44.7067 160.36 44.808C160.083 44.9093 159.795 44.984 159.496 45.032C159.197 45.0853 158.901 45.112 158.608 45.112C158.048 45.112 157.531 45.0187 157.056 44.832C156.587 44.64 156.179 44.3627 155.832 44C155.491 43.632 155.224 43.1787 155.032 42.64C154.84 42.1013 154.744 41.4827 154.744 40.784C154.744 40.2187 154.829 39.6907 155 39.2C155.176 38.7093 155.427 38.2853 155.752 37.928C156.077 37.5653 156.475 37.2827 156.944 37.08C157.413 36.872 157.941 36.768 158.528 36.768C159.013 36.768 159.461 36.8507 159.872 37.016C160.288 37.176 160.645 37.4107 160.944 37.72C161.248 38.024 161.485 38.4027 161.656 38.856C161.827 39.304 161.912 39.816 161.912 40.392C161.912 40.616 161.888 40.7653 161.84 40.84C161.792 40.9147 161.701 40.952 161.568 40.952H156.152C156.168 41.464 156.237 41.9093 156.36 42.288C156.488 42.6667 156.664 42.984 156.888 43.24C157.112 43.4907 157.379 43.68 157.688 43.808C157.997 43.9307 158.344 43.992 158.728 43.992C159.085 43.992 159.392 43.952 159.648 43.872C159.909 43.7867 160.133 43.696 160.32 43.6C160.507 43.504 160.661 43.416 160.784 43.336C160.912 43.2507 161.021 43.208 161.112 43.208C161.229 43.208 161.32 43.2533 161.384 43.344L161.784 43.864ZM166.087 45.128C165.447 45.128 164.953 44.9493 164.607 44.592C164.265 44.2347 164.095 43.72 164.095 43.048V38.088H163.119C163.033 38.088 162.961 38.064 162.903 38.016C162.844 37.9627 162.815 37.8827 162.815 37.776V37.208L164.143 37.04L164.471 34.536C164.487 34.456 164.521 34.392 164.575 34.344C164.633 34.2907 164.708 34.264 164.799 34.264H165.519V37.056H167.863V38.088H165.519V42.952C165.519 43.2933 165.601 43.5467 165.767 43.712C165.932 43.8773 166.145 43.96 166.407 43.96C166.556 43.96 166.684 43.9413 166.791 43.904C166.903 43.8613 166.999 43.816 167.079 43.768C167.159 43.72 167.225 43.6773 167.279 43.64C167.337 43.5973 167.388 43.576 167.431 43.576C167.505 43.576 167.572 43.6213 167.631 43.712L168.047 44.392C167.801 44.6213 167.505 44.8027 167.159 44.936C166.812 45.064 166.455 45.128 166.087 45.128ZM170.765 37.976C171.112 37.608 171.496 37.3147 171.917 37.096C172.338 36.8773 172.824 36.768 173.373 36.768C173.816 36.768 174.205 36.8427 174.541 36.992C174.882 37.136 175.165 37.344 175.389 37.616C175.618 37.8827 175.792 38.2053 175.909 38.584C176.026 38.9627 176.085 39.3813 176.085 39.84V45H174.653V39.84C174.653 39.2267 174.512 38.752 174.229 38.416C173.952 38.0747 173.528 37.904 172.957 37.904C172.536 37.904 172.141 38.0053 171.773 38.208C171.41 38.4107 171.074 38.6853 170.765 39.032V45H169.333V33.216H170.765V37.976ZM179.759 36.896V45H178.335V36.896H179.759ZM180.063 34.352C180.063 34.4907 180.034 34.6213 179.975 34.744C179.922 34.8613 179.847 34.968 179.751 35.064C179.66 35.1547 179.551 35.2267 179.423 35.28C179.3 35.3333 179.17 35.36 179.031 35.36C178.892 35.36 178.762 35.3333 178.639 35.28C178.522 35.2267 178.418 35.1547 178.327 35.064C178.236 34.968 178.164 34.8613 178.111 34.744C178.058 34.6213 178.031 34.4907 178.031 34.352C178.031 34.2133 178.058 34.0827 178.111 33.96C178.164 33.832 178.236 33.7227 178.327 33.632C178.418 33.536 178.522 33.4613 178.639 33.408C178.762 33.3547 178.892 33.328 179.031 33.328C179.17 33.328 179.3 33.3547 179.423 33.408C179.551 33.4613 179.66 33.536 179.751 33.632C179.847 33.7227 179.922 33.832 179.975 33.96C180.034 34.0827 180.063 34.2133 180.063 34.352ZM183.443 38.072C183.619 37.8747 183.805 37.696 184.003 37.536C184.2 37.376 184.408 37.24 184.627 37.128C184.851 37.0107 185.085 36.9227 185.331 36.864C185.581 36.8 185.851 36.768 186.139 36.768C186.581 36.768 186.971 36.8427 187.307 36.992C187.648 37.136 187.931 37.344 188.155 37.616C188.384 37.8827 188.557 38.2053 188.675 38.584C188.792 38.9627 188.851 39.3813 188.851 39.84V45H187.419V39.84C187.419 39.2267 187.277 38.752 186.995 38.416C186.717 38.0747 186.293 37.904 185.723 37.904C185.301 37.904 184.907 38.0053 184.539 38.208C184.176 38.4107 183.84 38.6853 183.531 39.032V45H182.099V36.896H182.955C183.157 36.896 183.283 36.9947 183.331 37.192L183.443 38.072ZM193.845 41.04C194.133 41.04 194.386 41 194.605 40.92C194.823 40.84 195.007 40.728 195.157 40.584C195.306 40.44 195.418 40.2693 195.493 40.072C195.567 39.8693 195.605 39.648 195.605 39.408C195.605 38.912 195.453 38.5173 195.149 38.224C194.85 37.9307 194.415 37.784 193.845 37.784C193.269 37.784 192.829 37.9307 192.525 38.224C192.226 38.5173 192.077 38.912 192.077 39.408C192.077 39.648 192.114 39.8693 192.189 40.072C192.269 40.2693 192.383 40.44 192.533 40.584C192.682 40.728 192.866 40.84 193.085 40.92C193.303 41 193.557 41.04 193.845 41.04ZM196.413 45.44C196.413 45.2427 196.357 45.0827 196.245 44.96C196.133 44.8373 195.981 44.7413 195.789 44.672C195.602 44.6027 195.383 44.5547 195.133 44.528C194.882 44.496 194.615 44.472 194.333 44.456C194.055 44.44 193.773 44.424 193.485 44.408C193.197 44.392 192.919 44.3653 192.653 44.328C192.354 44.4667 192.109 44.6427 191.917 44.856C191.73 45.064 191.637 45.3093 191.637 45.592C191.637 45.7733 191.682 45.9413 191.773 46.096C191.869 46.256 192.013 46.392 192.205 46.504C192.397 46.6213 192.637 46.712 192.925 46.776C193.218 46.8453 193.562 46.88 193.957 46.88C194.341 46.88 194.685 46.8453 194.989 46.776C195.293 46.7067 195.549 46.608 195.757 46.48C195.97 46.352 196.133 46.2 196.245 46.024C196.357 45.848 196.413 45.6533 196.413 45.44ZM197.861 37.216V37.744C197.861 37.92 197.749 38.032 197.525 38.08L196.605 38.2C196.786 38.552 196.877 38.9413 196.877 39.368C196.877 39.7627 196.799 40.1227 196.645 40.448C196.495 40.768 196.287 41.0427 196.021 41.272C195.754 41.5013 195.434 41.6773 195.061 41.8C194.687 41.9227 194.282 41.984 193.845 41.984C193.466 41.984 193.109 41.9387 192.773 41.848C192.602 41.9547 192.471 42.0693 192.381 42.192C192.29 42.3093 192.245 42.4293 192.245 42.552C192.245 42.744 192.322 42.8907 192.477 42.992C192.637 43.088 192.845 43.1573 193.101 43.2C193.357 43.2427 193.647 43.2693 193.973 43.28C194.303 43.2907 194.639 43.3093 194.981 43.336C195.327 43.3573 195.663 43.3973 195.989 43.456C196.319 43.5147 196.613 43.6107 196.869 43.744C197.125 43.8773 197.33 44.0613 197.485 44.296C197.645 44.5307 197.725 44.8347 197.725 45.208C197.725 45.5547 197.637 45.8907 197.461 46.216C197.29 46.5413 197.042 46.8293 196.717 47.08C196.391 47.336 195.991 47.5387 195.517 47.688C195.047 47.8427 194.517 47.92 193.925 47.92C193.333 47.92 192.815 47.8613 192.373 47.744C191.93 47.6267 191.562 47.4693 191.269 47.272C190.975 47.0747 190.754 46.8453 190.605 46.584C190.461 46.328 190.389 46.0587 190.389 45.776C190.389 45.376 190.514 45.0373 190.765 44.76C191.015 44.4827 191.359 44.2613 191.797 44.096C191.557 43.9893 191.365 43.848 191.221 43.672C191.082 43.4907 191.013 43.248 191.013 42.944C191.013 42.8267 191.034 42.7067 191.077 42.584C191.119 42.456 191.183 42.3307 191.269 42.208C191.359 42.08 191.469 41.96 191.597 41.848C191.725 41.736 191.874 41.6373 192.045 41.552C191.645 41.328 191.333 41.032 191.109 40.664C190.885 40.2907 190.773 39.8587 190.773 39.368C190.773 38.9733 190.847 38.616 190.997 38.296C191.151 37.9707 191.365 37.696 191.637 37.472C191.909 37.2427 192.231 37.0667 192.605 36.944C192.983 36.8213 193.397 36.76 193.845 36.76C194.197 36.76 194.525 36.8 194.829 36.88C195.133 36.9547 195.41 37.0667 195.661 37.216H197.861ZM203.187 44.12C203.187 43.9813 203.211 43.8507 203.259 43.728C203.312 43.6053 203.381 43.4987 203.467 43.408C203.557 43.3173 203.664 43.2453 203.787 43.192C203.909 43.1387 204.04 43.112 204.179 43.112C204.317 43.112 204.448 43.1387 204.571 43.192C204.693 43.2453 204.8 43.3173 204.891 43.408C204.981 43.4987 205.053 43.6053 205.107 43.728C205.16 43.8507 205.187 43.9813 205.187 44.12C205.187 44.264 205.16 44.3973 205.107 44.52C205.053 44.6373 204.981 44.7413 204.891 44.832C204.8 44.9227 204.693 44.992 204.571 45.04C204.448 45.0933 204.317 45.12 204.179 45.12C204.04 45.12 203.909 45.0933 203.787 45.04C203.664 44.992 203.557 44.9227 203.467 44.832C203.381 44.7413 203.312 44.6373 203.259 44.52C203.211 44.3973 203.187 44.264 203.187 44.12ZM206.968 44.12C206.968 43.9813 206.992 43.8507 207.04 43.728C207.093 43.6053 207.163 43.4987 207.248 43.408C207.339 43.3173 207.445 43.2453 207.568 43.192C207.691 43.1387 207.821 43.112 207.96 43.112C208.099 43.112 208.229 43.1387 208.352 43.192C208.475 43.2453 208.581 43.3173 208.672 43.408C208.763 43.4987 208.835 43.6053 208.888 43.728C208.941 43.8507 208.968 43.9813 208.968 44.12C208.968 44.264 208.941 44.3973 208.888 44.52C208.835 44.6373 208.763 44.7413 208.672 44.832C208.581 44.9227 208.475 44.992 208.352 45.04C208.229 45.0933 208.099 45.12 207.96 45.12C207.821 45.12 207.691 45.0933 207.568 45.04C207.445 44.992 207.339 44.9227 207.248 44.832C207.163 44.7413 207.093 44.6373 207.04 44.52C206.992 44.3973 206.968 44.264 206.968 44.12ZM210.749 44.12C210.749 43.9813 210.773 43.8507 210.821 43.728C210.875 43.6053 210.944 43.4987 211.029 43.408C211.12 43.3173 211.227 43.2453 211.349 43.192C211.472 43.1387 211.603 43.112 211.741 43.112C211.88 43.112 212.011 43.1387 212.133 43.192C212.256 43.2453 212.363 43.3173 212.453 43.408C212.544 43.4987 212.616 43.6053 212.669 43.728C212.723 43.8507 212.749 43.9813 212.749 44.12C212.749 44.264 212.723 44.3973 212.669 44.52C212.616 44.6373 212.544 44.7413 212.453 44.832C212.363 44.9227 212.256 44.992 212.133 45.04C212.011 45.0933 211.88 45.12 211.741 45.12C211.603 45.12 211.472 45.0933 211.349 45.04C211.227 44.992 211.12 44.9227 211.029 44.832C210.944 44.7413 210.875 44.6373 210.821 44.52C210.773 44.3973 210.749 44.264 210.749 44.12Z" fill="#313131"/>
<g clip-path="url(#clip0_495_2668)">
<g filter="url(#filter0_di_495_2668)">
<rect x="229.011" y="20" width="2" height="22" transform="rotate(25.3723 229.011 20)" fill="#4F4A49"/>
<path d="M219.517 42.5934L219.651 39.8035L221.482 40.6085L219.517 42.5934Z" fill="#4F4A49"/>
</g>
<path d="M219.362 43.7575C220.15 43.7575 220.662 43.3654 221.414 43.1807C221.933 43.0533 222.406 42.9256 222.917 42.7713C223.609 42.562 225.224 41.7838 225.224 43.0458C225.224 43.5071 225.319 44.5771 225.829 44.7205C226.316 44.8575 226.786 44.9456 227.29 44.9299C227.675 44.9178 228.059 44.8161 228.439 44.7577C228.571 44.7373 228.581 44.5729 228.695 44.5112C229.283 44.1915 230.124 43.4482 230.816 43.4226C230.92 43.4187 231.387 43.3668 231.416 43.4691C231.506 43.7832 231.517 44.0619 231.932 44.0878C233.026 44.1562 233.876 43.5729 234.612 42.8364C234.926 42.5227 235.464 42.2252 235.859 42.0176C236.007 41.9398 236.239 42.0027 236.403 41.9478C236.652 41.8648 236.854 41.7162 237.115 41.6641" stroke="#17494D" stroke-width="0.5" stroke-linecap="round" stroke-linejoin="round"/>
</g>
<path d="M39.9857 122C43.0999 122 45.1753 124.429 45.1753 127.914V136.085C45.1753 139.57 43.0997 142 39.9857 142H32.0545C28.9419 142 26.874 139.572 26.874 136.085V127.914C26.874 124.431 28.9479 122 32.0545 122H39.9857ZM39.9857 123.504H32.0545C29.7296 123.504 28.2494 125.239 28.2494 127.914V136.085C28.2494 138.765 29.7242 140.496 32.0545 140.496H39.9857C42.3184 140.496 43.8 138.762 43.8 136.085V127.914C43.8 125.237 42.3186 123.504 39.9857 123.504ZM40.6374 132.184L40.7566 132.309L42.6601 134.456C42.9244 134.754 42.9176 135.23 42.6449 135.519C42.397 135.782 42.0146 135.8 41.7486 135.577L41.6725 135.503L39.7691 133.355C39.4375 132.981 38.8984 132.978 38.5619 133.327L38.488 133.414L36.4446 136.131C35.7218 137.094 34.4213 137.197 33.5798 136.39L33.468 136.275L32.6525 135.365C32.4383 135.122 32.0967 135.099 31.8588 135.295L31.7837 135.368L30.3817 136.985C30.1204 137.287 29.6852 137.3 29.4096 137.014C29.159 136.754 29.1266 136.337 29.3191 136.037L29.3836 135.951L30.7852 134.334C31.5231 133.482 32.7382 133.437 33.5243 134.197L33.6388 134.317L34.4502 135.222C34.6874 135.487 35.0676 135.493 35.3127 135.255L35.3819 135.177L37.4255 132.459C38.2375 131.378 39.6995 131.269 40.6374 132.184ZM32.8884 126.641C34.1558 126.641 35.1843 127.766 35.1843 129.152C35.1843 130.537 34.1558 131.662 32.8884 131.662C31.6211 131.662 30.5934 130.537 30.5934 129.152C30.5934 127.766 31.6211 126.641 32.8884 126.641ZM32.8884 128.145C32.3809 128.145 31.9688 128.596 31.9688 129.152C31.9688 129.707 32.3809 130.158 32.8884 130.158C33.3962 130.158 33.809 129.707 33.809 129.152C33.809 128.596 33.3962 128.145 32.8884 128.145Z" fill="#313131"/>
<path d="M58.2298 133.48C58.6725 133.48 59.0618 133.421 59.3978 133.304C59.7392 133.187 60.0245 133.024 60.2538 132.816C60.4885 132.603 60.6645 132.349 60.7818 132.056C60.8992 131.763 60.9578 131.44 60.9578 131.088C60.9578 130.357 60.7312 129.787 60.2778 129.376C59.8298 128.965 59.1472 128.76 58.2298 128.76H56.3898V133.48H58.2298ZM58.2298 127.536C58.9552 127.536 59.5845 127.621 60.1178 127.792C60.6565 127.957 61.1018 128.195 61.4538 128.504C61.8058 128.813 62.0672 129.187 62.2378 129.624C62.4138 130.061 62.5018 130.549 62.5018 131.088C62.5018 131.621 62.4085 132.109 62.2218 132.552C62.0352 132.995 61.7605 133.376 61.3978 133.696C61.0405 134.016 60.5952 134.267 60.0618 134.448C59.5338 134.624 58.9232 134.712 58.2298 134.712H56.3898V139H54.8458V127.536H58.2298ZM65.5043 131.976C65.851 131.608 66.235 131.315 66.6563 131.096C67.0777 130.877 67.563 130.768 68.1123 130.768C68.555 130.768 68.9443 130.843 69.2803 130.992C69.6217 131.136 69.9043 131.344 70.1283 131.616C70.3577 131.883 70.531 132.205 70.6483 132.584C70.7657 132.963 70.8243 133.381 70.8243 133.84V139H69.3923V133.84C69.3923 133.227 69.251 132.752 68.9683 132.416C68.691 132.075 68.267 131.904 67.6963 131.904C67.275 131.904 66.8803 132.005 66.5123 132.208C66.1497 132.411 65.8137 132.685 65.5043 133.032V139H64.0723V127.216H65.5043V131.976ZM76.4102 130.768C77.0022 130.768 77.5355 130.867 78.0102 131.064C78.4849 131.261 78.8902 131.541 79.2262 131.904C79.5622 132.267 79.8182 132.707 79.9942 133.224C80.1755 133.736 80.2662 134.309 80.2662 134.944C80.2662 135.584 80.1755 136.16 79.9942 136.672C79.8182 137.184 79.5622 137.621 79.2262 137.984C78.8902 138.347 78.4849 138.627 78.0102 138.824C77.5355 139.016 77.0022 139.112 76.4102 139.112C75.8129 139.112 75.2742 139.016 74.7942 138.824C74.3195 138.627 73.9142 138.347 73.5782 137.984C73.2422 137.621 72.9835 137.184 72.8022 136.672C72.6262 136.16 72.5382 135.584 72.5382 134.944C72.5382 134.309 72.6262 133.736 72.8022 133.224C72.9835 132.707 73.2422 132.267 73.5782 131.904C73.9142 131.541 74.3195 131.261 74.7942 131.064C75.2742 130.867 75.8129 130.768 76.4102 130.768ZM76.4102 138C77.2102 138 77.8075 137.733 78.2022 137.2C78.5969 136.661 78.7942 135.912 78.7942 134.952C78.7942 133.987 78.5969 133.235 78.2022 132.696C77.8075 132.157 77.2102 131.888 76.4102 131.888C76.0049 131.888 75.6502 131.957 75.3462 132.096C75.0475 132.235 74.7969 132.435 74.5942 132.696C74.3969 132.957 74.2475 133.28 74.1462 133.664C74.0502 134.043 74.0022 134.472 74.0022 134.952C74.0022 135.912 74.1995 136.661 74.5942 137.2C74.9942 137.733 75.5995 138 76.4102 138ZM84.4197 139.128C83.7797 139.128 83.2864 138.949 82.9397 138.592C82.5984 138.235 82.4277 137.72 82.4277 137.048V132.088H81.4517C81.3664 132.088 81.2944 132.064 81.2357 132.016C81.177 131.963 81.1477 131.883 81.1477 131.776V131.208L82.4757 131.04L82.8037 128.536C82.8197 128.456 82.8544 128.392 82.9077 128.344C82.9664 128.291 83.041 128.264 83.1317 128.264H83.8517V131.056H86.1957V132.088H83.8517V136.952C83.8517 137.293 83.9344 137.547 84.0997 137.712C84.265 137.877 84.4784 137.96 84.7397 137.96C84.889 137.96 85.017 137.941 85.1237 137.904C85.2357 137.861 85.3317 137.816 85.4117 137.768C85.4917 137.72 85.5584 137.677 85.6117 137.64C85.6704 137.597 85.721 137.576 85.7637 137.576C85.8384 137.576 85.905 137.621 85.9637 137.712L86.3797 138.392C86.1344 138.621 85.8384 138.803 85.4917 138.936C85.145 139.064 84.7877 139.128 84.4197 139.128ZM91.0352 130.768C91.6272 130.768 92.1605 130.867 92.6352 131.064C93.1099 131.261 93.5152 131.541 93.8512 131.904C94.1872 132.267 94.4432 132.707 94.6192 133.224C94.8005 133.736 94.8912 134.309 94.8912 134.944C94.8912 135.584 94.8005 136.16 94.6192 136.672C94.4432 137.184 94.1872 137.621 93.8512 137.984C93.5152 138.347 93.1099 138.627 92.6352 138.824C92.1605 139.016 91.6272 139.112 91.0352 139.112C90.4379 139.112 89.8992 139.016 89.4192 138.824C88.9445 138.627 88.5392 138.347 88.2032 137.984C87.8672 137.621 87.6085 137.184 87.4272 136.672C87.2512 136.16 87.1632 135.584 87.1632 134.944C87.1632 134.309 87.2512 133.736 87.4272 133.224C87.6085 132.707 87.8672 132.267 88.2032 131.904C88.5392 131.541 88.9445 131.261 89.4192 131.064C89.8992 130.867 90.4379 130.768 91.0352 130.768ZM91.0352 138C91.8352 138 92.4325 137.733 92.8272 137.2C93.2219 136.661 93.4192 135.912 93.4192 134.952C93.4192 133.987 93.2219 133.235 92.8272 132.696C92.4325 132.157 91.8352 131.888 91.0352 131.888C90.6299 131.888 90.2752 131.957 89.9712 132.096C89.6725 132.235 89.4219 132.435 89.2192 132.696C89.0219 132.957 88.8725 133.28 88.7712 133.664C88.6752 134.043 88.6272 134.472 88.6272 134.952C88.6272 135.912 88.8245 136.661 89.2192 137.2C89.6192 137.733 90.2245 138 91.0352 138Z" fill="#313131"/>
<path d="M152.752 124.5C154.969 124.5 156.512 126.034 156.676 128.284L159.098 127.202C160.146 126.734 161.29 127.529 161.373 128.735L161.378 128.876V135.515C161.378 136.752 160.273 137.609 159.219 137.237L159.098 137.189L156.676 136.106C156.511 138.355 154.965 139.891 152.752 139.891H147.016C144.668 139.891 143.077 138.172 143.077 135.703V128.688C143.077 126.219 144.668 124.5 147.016 124.5H152.752ZM152.752 126H147.016C145.423 126 144.45 127.051 144.45 128.688V135.703C144.45 137.339 145.423 138.391 147.016 138.391H152.752C154.341 138.391 155.318 137.337 155.318 135.703L155.318 135.017C155.318 135.007 155.317 134.996 155.318 134.985L155.318 128.688C155.318 127.052 154.344 126 152.752 126ZM159.679 128.571L159.617 128.591L156.691 129.897V134.493L159.617 135.8C159.782 135.874 159.961 135.764 159.998 135.585L160.006 135.515V128.876C160.006 128.681 159.845 128.542 159.679 128.571Z" fill="#313131"/>
<path d="M180.783 127.536L176.111 139H174.719L170.047 127.536H171.287C171.426 127.536 171.538 127.571 171.623 127.64C171.708 127.709 171.772 127.797 171.815 127.904L175.047 135.992C175.116 136.173 175.183 136.371 175.247 136.584C175.316 136.797 175.378 137.021 175.431 137.256C175.484 137.021 175.54 136.797 175.599 136.584C175.658 136.371 175.722 136.173 175.791 135.992L179.015 127.904C179.047 127.813 179.108 127.731 179.199 127.656C179.295 127.576 179.41 127.536 179.543 127.536H180.783ZM183.459 130.896V139H182.035V130.896H183.459ZM183.763 128.352C183.763 128.491 183.734 128.621 183.675 128.744C183.622 128.861 183.547 128.968 183.451 129.064C183.36 129.155 183.251 129.227 183.123 129.28C183 129.333 182.87 129.36 182.731 129.36C182.592 129.36 182.462 129.333 182.339 129.28C182.222 129.227 182.118 129.155 182.027 129.064C181.936 128.968 181.864 128.861 181.811 128.744C181.758 128.621 181.731 128.491 181.731 128.352C181.731 128.213 181.758 128.083 181.811 127.96C181.864 127.832 181.936 127.723 182.027 127.632C182.118 127.536 182.222 127.461 182.339 127.408C182.462 127.355 182.592 127.328 182.731 127.328C182.87 127.328 183 127.355 183.123 127.408C183.251 127.461 183.36 127.536 183.451 127.632C183.547 127.723 183.622 127.832 183.675 127.96C183.734 128.083 183.763 128.213 183.763 128.352ZM191.079 132.824C190.812 132.467 190.524 132.219 190.215 132.08C189.906 131.936 189.559 131.864 189.175 131.864C188.423 131.864 187.844 132.133 187.439 132.672C187.034 133.211 186.831 133.979 186.831 134.976C186.831 135.504 186.876 135.957 186.967 136.336C187.058 136.709 187.191 137.019 187.367 137.264C187.543 137.504 187.759 137.68 188.015 137.792C188.271 137.904 188.562 137.96 188.887 137.96C189.356 137.96 189.764 137.853 190.111 137.64C190.463 137.427 190.786 137.125 191.079 136.736V132.824ZM192.503 127.216V139H191.655C191.452 139 191.324 138.901 191.271 138.704L191.143 137.72C190.796 138.136 190.402 138.472 189.959 138.728C189.516 138.984 189.004 139.112 188.423 139.112C187.959 139.112 187.538 139.024 187.159 138.848C186.78 138.667 186.458 138.403 186.191 138.056C185.924 137.709 185.719 137.277 185.575 136.76C185.431 136.243 185.359 135.648 185.359 134.976C185.359 134.379 185.439 133.824 185.599 133.312C185.759 132.795 185.988 132.347 186.287 131.968C186.586 131.589 186.951 131.293 187.383 131.08C187.82 130.861 188.311 130.752 188.855 130.752C189.351 130.752 189.775 130.837 190.127 131.008C190.484 131.173 190.802 131.405 191.079 131.704V127.216H192.503ZM200.176 134.064C200.176 133.733 200.128 133.432 200.032 133.16C199.941 132.883 199.805 132.645 199.624 132.448C199.448 132.245 199.232 132.091 198.976 131.984C198.72 131.872 198.429 131.816 198.104 131.816C197.421 131.816 196.88 132.016 196.48 132.416C196.085 132.811 195.84 133.36 195.744 134.064H200.176ZM201.328 137.864C201.152 138.077 200.941 138.264 200.696 138.424C200.451 138.579 200.187 138.707 199.904 138.808C199.627 138.909 199.339 138.984 199.04 139.032C198.741 139.085 198.445 139.112 198.152 139.112C197.592 139.112 197.075 139.019 196.6 138.832C196.131 138.64 195.723 138.363 195.376 138C195.035 137.632 194.768 137.179 194.576 136.64C194.384 136.101 194.288 135.483 194.288 134.784C194.288 134.219 194.373 133.691 194.544 133.2C194.72 132.709 194.971 132.285 195.296 131.928C195.621 131.565 196.019 131.283 196.488 131.08C196.957 130.872 197.485 130.768 198.072 130.768C198.557 130.768 199.005 130.851 199.416 131.016C199.832 131.176 200.189 131.411 200.488 131.72C200.792 132.024 201.029 132.403 201.2 132.856C201.371 133.304 201.456 133.816 201.456 134.392C201.456 134.616 201.432 134.765 201.384 134.84C201.336 134.915 201.245 134.952 201.112 134.952H195.696C195.712 135.464 195.781 135.909 195.904 136.288C196.032 136.667 196.208 136.984 196.432 137.24C196.656 137.491 196.923 137.68 197.232 137.808C197.541 137.931 197.888 137.992 198.272 137.992C198.629 137.992 198.936 137.952 199.192 137.872C199.453 137.787 199.677 137.696 199.864 137.6C200.051 137.504 200.205 137.416 200.328 137.336C200.456 137.251 200.565 137.208 200.656 137.208C200.773 137.208 200.864 137.253 200.928 137.344L201.328 137.864ZM206.621 130.768C207.213 130.768 207.746 130.867 208.221 131.064C208.696 131.261 209.101 131.541 209.437 131.904C209.773 132.267 210.029 132.707 210.205 133.224C210.386 133.736 210.477 134.309 210.477 134.944C210.477 135.584 210.386 136.16 210.205 136.672C210.029 137.184 209.773 137.621 209.437 137.984C209.101 138.347 208.696 138.627 208.221 138.824C207.746 139.016 207.213 139.112 206.621 139.112C206.024 139.112 205.485 139.016 205.005 138.824C204.53 138.627 204.125 138.347 203.789 137.984C203.453 137.621 203.194 137.184 203.013 136.672C202.837 136.16 202.749 135.584 202.749 134.944C202.749 134.309 202.837 133.736 203.013 133.224C203.194 132.707 203.453 132.267 203.789 131.904C204.125 131.541 204.53 131.261 205.005 131.064C205.485 130.867 206.024 130.768 206.621 130.768ZM206.621 138C207.421 138 208.018 137.733 208.413 137.2C208.808 136.661 209.005 135.912 209.005 134.952C209.005 133.987 208.808 133.235 208.413 132.696C208.018 132.157 207.421 131.888 206.621 131.888C206.216 131.888 205.861 131.957 205.557 132.096C205.258 132.235 205.008 132.435 204.805 132.696C204.608 132.957 204.458 133.28 204.357 133.664C204.261 134.043 204.213 134.472 204.213 134.952C204.213 135.912 204.41 136.661 204.805 137.2C205.205 137.733 205.81 138 206.621 138Z" fill="#313131"/>
<path d="M269.844 122C270.164 122 270.429 122.262 270.471 122.603L270.477 122.698L270.477 123.486C273.079 123.681 274.672 125.519 274.664 128.486V136.974C274.664 140.119 272.875 142 270 142H262.856C259.984 142 258.192 140.087 258.192 136.904V128.486C258.192 125.52 259.791 123.682 262.387 123.486L262.387 122.698C262.387 122.312 262.67 122 263.02 122C263.341 122 263.606 122.262 263.648 122.603L263.654 122.698L263.653 123.469H269.21L269.21 122.698C269.21 122.312 269.494 122 269.844 122ZM273.396 130.283H259.459L259.459 136.904C259.459 139.229 260.598 140.52 262.648 140.601L262.856 140.605H270C272.188 140.605 273.396 139.334 273.396 136.974L273.396 130.283ZM270.188 136.136C270.538 136.136 270.821 136.448 270.821 136.834C270.821 137.187 270.583 137.479 270.274 137.525L270.188 137.531C269.83 137.531 269.547 137.219 269.547 136.834C269.547 136.48 269.785 136.189 270.094 136.142L270.188 136.136ZM266.44 136.136C266.79 136.136 267.073 136.448 267.073 136.834C267.073 137.187 266.835 137.479 266.526 137.525L266.44 137.531C266.082 137.531 265.798 137.219 265.798 136.834C265.798 136.48 266.037 136.189 266.346 136.142L266.44 136.136ZM262.684 136.136C263.034 136.136 263.317 136.448 263.317 136.834C263.317 137.187 263.079 137.479 262.77 137.525L262.676 137.531C262.326 137.531 262.042 137.219 262.042 136.834C262.042 136.48 262.281 136.189 262.59 136.142L262.684 136.136ZM270.188 132.521C270.538 132.521 270.821 132.833 270.821 133.218C270.821 133.572 270.583 133.863 270.274 133.91L270.188 133.916C269.83 133.916 269.547 133.604 269.547 133.218C269.547 132.865 269.785 132.573 270.094 132.527L270.188 132.521ZM266.44 132.521C266.79 132.521 267.073 132.833 267.073 133.218C267.073 133.572 266.835 133.863 266.526 133.91L266.44 133.916C266.082 133.916 265.798 133.604 265.798 133.218C265.798 132.865 266.037 132.573 266.346 132.527L266.44 132.521ZM262.684 132.521C263.034 132.521 263.317 132.833 263.317 133.218C263.317 133.572 263.079 133.863 262.77 133.91L262.676 133.916C262.326 133.916 262.042 133.604 262.042 133.218C262.042 132.865 262.281 132.573 262.59 132.527L262.684 132.521ZM269.21 124.864H263.653L263.654 125.759C263.654 126.144 263.37 126.457 263.02 126.457C262.699 126.457 262.434 126.194 262.392 125.854L262.387 125.759L262.386 124.885C260.497 125.058 259.459 126.307 259.459 128.486L259.459 128.887H273.396L273.396 128.484C273.403 126.303 272.37 125.057 270.477 124.885L270.477 125.759C270.477 126.144 270.193 126.457 269.844 126.457C269.523 126.457 269.258 126.194 269.216 125.854L269.21 125.759L269.21 124.864Z" fill="#313131"/>
<path d="M291.974 137.736L291.966 139H284.902V127.536H291.966V128.8H286.454V132.608H290.918V133.824H286.454V137.736H291.974ZM300.37 130.896L297.066 139H295.786L292.482 130.896H293.642C293.759 130.896 293.855 130.925 293.93 130.984C294.005 131.043 294.055 131.112 294.082 131.192L296.138 136.408C296.202 136.605 296.258 136.797 296.306 136.984C296.354 137.171 296.399 137.357 296.442 137.544C296.485 137.357 296.53 137.171 296.578 136.984C296.626 136.797 296.685 136.605 296.754 136.408L298.834 131.192C298.866 131.107 298.919 131.037 298.994 130.984C299.069 130.925 299.157 130.896 299.258 130.896H300.37ZM306.881 134.064C306.881 133.733 306.833 133.432 306.737 133.16C306.646 132.883 306.51 132.645 306.329 132.448C306.153 132.245 305.937 132.091 305.681 131.984C305.425 131.872 305.134 131.816 304.809 131.816C304.126 131.816 303.585 132.016 303.185 132.416C302.79 132.811 302.545 133.36 302.449 134.064H306.881ZM308.033 137.864C307.857 138.077 307.646 138.264 307.401 138.424C307.156 138.579 306.892 138.707 306.609 138.808C306.332 138.909 306.044 138.984 305.745 139.032C305.446 139.085 305.15 139.112 304.857 139.112C304.297 139.112 303.78 139.019 303.305 138.832C302.836 138.64 302.428 138.363 302.081 138C301.74 137.632 301.473 137.179 301.281 136.64C301.089 136.101 300.993 135.483 300.993 134.784C300.993 134.219 301.078 133.691 301.249 133.2C301.425 132.709 301.676 132.285 302.001 131.928C302.326 131.565 302.724 131.283 303.193 131.08C303.662 130.872 304.19 130.768 304.777 130.768C305.262 130.768 305.71 130.851 306.121 131.016C306.537 131.176 306.894 131.411 307.193 131.72C307.497 132.024 307.734 132.403 307.905 132.856C308.076 133.304 308.161 133.816 308.161 134.392C308.161 134.616 308.137 134.765 308.089 134.84C308.041 134.915 307.95 134.952 307.817 134.952H302.401C302.417 135.464 302.486 135.909 302.609 136.288C302.737 136.667 302.913 136.984 303.137 137.24C303.361 137.491 303.628 137.68 303.937 137.808C304.246 137.931 304.593 137.992 304.977 137.992C305.334 137.992 305.641 137.952 305.897 137.872C306.158 137.787 306.382 137.696 306.569 137.6C306.756 137.504 306.91 137.416 307.033 137.336C307.161 137.251 307.27 137.208 307.361 137.208C307.478 137.208 307.569 137.253 307.633 137.344L308.033 137.864ZM311.254 132.072C311.43 131.875 311.617 131.696 311.814 131.536C312.012 131.376 312.22 131.24 312.438 131.128C312.662 131.011 312.897 130.923 313.142 130.864C313.393 130.8 313.662 130.768 313.95 130.768C314.393 130.768 314.782 130.843 315.118 130.992C315.46 131.136 315.742 131.344 315.966 131.616C316.196 131.883 316.369 132.205 316.486 132.584C316.604 132.963 316.662 133.381 316.662 133.84V139H315.23V133.84C315.23 133.227 315.089 132.752 314.806 132.416C314.529 132.075 314.105 131.904 313.534 131.904C313.113 131.904 312.718 132.005 312.35 132.208C311.988 132.411 311.652 132.685 311.342 133.032V139H309.91V130.896H310.766C310.969 130.896 311.094 130.995 311.142 131.192L311.254 132.072ZM321.211 139.128C320.571 139.128 320.077 138.949 319.731 138.592C319.389 138.235 319.219 137.72 319.219 137.048V132.088H318.243C318.157 132.088 318.085 132.064 318.027 132.016C317.968 131.963 317.939 131.883 317.939 131.776V131.208L319.267 131.04L319.595 128.536C319.611 128.456 319.645 128.392 319.699 128.344C319.757 128.291 319.832 128.264 319.923 128.264H320.643V131.056H322.987V132.088H320.643V136.952C320.643 137.293 320.725 137.547 320.891 137.712C321.056 137.877 321.269 137.96 321.531 137.96C321.68 137.96 321.808 137.941 321.915 137.904C322.027 137.861 322.123 137.816 322.203 137.768C322.283 137.72 322.349 137.677 322.403 137.64C322.461 137.597 322.512 137.576 322.555 137.576C322.629 137.576 322.696 137.621 322.755 137.712L323.171 138.392C322.925 138.621 322.629 138.803 322.283 138.936C321.936 139.064 321.579 139.128 321.211 139.128Z" fill="#313131"/>
<path d="M380.156 122C383.081 122 384.829 123.92 384.857 127.132V136.791C384.857 140.048 383.104 142 380.156 142H373.087C372.71 142 372.353 141.968 372.016 141.905L371.816 141.864C369.647 141.371 368.386 139.555 368.386 136.791V127.209C368.386 126.875 368.404 126.555 368.441 126.249C368.76 123.564 370.448 122 373.087 122H380.156ZM380.148 123.457H373.087C370.84 123.457 369.701 124.72 369.701 127.209V136.791C369.701 139.28 370.84 140.543 373.087 140.543H380.148C382.394 140.543 383.526 139.28 383.526 136.791V127.209C383.526 124.72 382.394 123.457 380.148 123.457ZM379.909 135.51C380.27 135.51 380.562 135.834 380.562 136.234C380.562 136.634 380.27 136.958 379.909 136.958H373.311C372.95 136.958 372.657 136.634 372.657 136.234C372.657 135.834 372.95 135.51 373.311 135.51H379.909ZM379.909 131.271C380.161 131.241 380.407 131.373 380.541 131.61C380.676 131.849 380.676 132.151 380.541 132.39C380.407 132.627 380.161 132.759 379.909 132.729H373.311C372.976 132.687 372.722 132.374 372.722 132C372.722 131.626 372.976 131.312 373.311 131.271H379.909ZM375.829 127.042C376.164 127.083 376.417 127.397 376.417 127.771C376.417 128.144 376.164 128.458 375.829 128.499H373.319C372.983 128.458 372.73 128.144 372.73 127.771C372.73 127.397 372.983 127.083 373.319 127.042H375.829Z" fill="#313131"/>
<path d="M401.338 134.744L399.538 130.08C399.485 129.941 399.429 129.781 399.37 129.6C399.311 129.413 399.255 129.216 399.202 129.008C399.09 129.44 398.975 129.8 398.858 130.088L397.058 134.744H401.338ZM404.57 139H403.37C403.231 139 403.119 138.965 403.034 138.896C402.949 138.827 402.885 138.739 402.842 138.632L401.77 135.864H396.626L395.554 138.632C395.522 138.728 395.461 138.813 395.37 138.888C395.279 138.963 395.167 139 395.034 139H393.834L398.418 127.536H399.986L404.57 139ZM407.063 132.52C407.319 131.965 407.634 131.533 408.007 131.224C408.38 130.909 408.836 130.752 409.375 130.752C409.546 130.752 409.708 130.771 409.863 130.808C410.023 130.845 410.164 130.904 410.287 130.984L410.183 132.048C410.151 132.181 410.071 132.248 409.943 132.248C409.868 132.248 409.759 132.232 409.615 132.2C409.471 132.168 409.308 132.152 409.127 132.152C408.871 132.152 408.642 132.189 408.439 132.264C408.242 132.339 408.063 132.451 407.903 132.6C407.748 132.744 407.607 132.925 407.479 133.144C407.356 133.357 407.244 133.603 407.143 133.88V139H405.711V130.896H406.527C406.682 130.896 406.788 130.925 406.847 130.984C406.906 131.043 406.946 131.144 406.967 131.288L407.063 132.52ZM419.059 139H417.635V132.088H413.459V136.952C413.459 137.293 413.542 137.547 413.707 137.712C413.872 137.877 414.086 137.96 414.347 137.96C414.496 137.96 414.624 137.941 414.731 137.904C414.843 137.861 414.939 137.816 415.019 137.768C415.099 137.72 415.166 137.677 415.219 137.64C415.278 137.597 415.328 137.576 415.371 137.576C415.446 137.576 415.512 137.621 415.571 137.712L415.987 138.392C415.742 138.621 415.446 138.803 415.099 138.936C414.752 139.064 414.395 139.128 414.027 139.128C413.387 139.128 412.894 138.949 412.547 138.592C412.206 138.235 412.035 137.72 412.035 137.048V132.088H411.059C410.974 132.088 410.902 132.064 410.843 132.016C410.784 131.963 410.755 131.883 410.755 131.776V131.208L412.083 131.032L412.411 128.536C412.427 128.456 412.462 128.392 412.515 128.344C412.574 128.291 412.648 128.264 412.739 128.264H413.459V131.056H419.059V139ZM419.411 128.296C419.411 128.435 419.382 128.565 419.323 128.688C419.27 128.805 419.195 128.909 419.099 129C419.008 129.091 418.902 129.163 418.779 129.216C418.656 129.269 418.526 129.296 418.387 129.296C418.248 129.296 418.118 129.269 417.995 129.216C417.878 129.163 417.774 129.091 417.683 129C417.592 128.909 417.52 128.805 417.467 128.688C417.414 128.565 417.387 128.435 417.387 128.296C417.387 128.157 417.414 128.027 417.467 127.904C417.52 127.776 417.592 127.667 417.683 127.576C417.774 127.48 417.878 127.405 417.995 127.352C418.118 127.299 418.248 127.272 418.387 127.272C418.526 127.272 418.656 127.299 418.779 127.352C418.902 127.405 419.008 127.48 419.099 127.576C419.195 127.667 419.27 127.776 419.323 127.904C419.382 128.027 419.411 128.157 419.411 128.296ZM427.039 132.336C426.996 132.395 426.953 132.44 426.911 132.472C426.868 132.504 426.809 132.52 426.735 132.52C426.655 132.52 426.567 132.488 426.471 132.424C426.375 132.355 426.255 132.28 426.111 132.2C425.972 132.12 425.799 132.048 425.591 131.984C425.388 131.915 425.137 131.88 424.839 131.88C424.439 131.88 424.087 131.952 423.783 132.096C423.479 132.235 423.223 132.437 423.015 132.704C422.812 132.971 422.657 133.293 422.551 133.672C422.449 134.051 422.399 134.475 422.399 134.944C422.399 135.435 422.455 135.872 422.567 136.256C422.679 136.635 422.836 136.955 423.039 137.216C423.247 137.472 423.495 137.669 423.783 137.808C424.076 137.941 424.404 138.008 424.767 138.008C425.113 138.008 425.399 137.968 425.623 137.888C425.847 137.803 426.031 137.709 426.175 137.608C426.324 137.507 426.447 137.416 426.543 137.336C426.644 137.251 426.743 137.208 426.839 137.208C426.956 137.208 427.047 137.253 427.111 137.344L427.511 137.864C427.335 138.083 427.135 138.269 426.911 138.424C426.687 138.579 426.444 138.709 426.183 138.816C425.927 138.917 425.657 138.992 425.375 139.04C425.092 139.088 424.804 139.112 424.511 139.112C424.004 139.112 423.532 139.019 423.095 138.832C422.663 138.645 422.287 138.376 421.967 138.024C421.647 137.667 421.396 137.229 421.215 136.712C421.033 136.195 420.943 135.605 420.943 134.944C420.943 134.341 421.025 133.784 421.191 133.272C421.361 132.76 421.607 132.32 421.927 131.952C422.252 131.579 422.649 131.288 423.119 131.08C423.593 130.872 424.137 130.768 424.751 130.768C425.321 130.768 425.823 130.861 426.255 131.048C426.692 131.229 427.079 131.488 427.415 131.824L427.039 132.336ZM430.511 127.216V139H429.087V127.216H430.511ZM438.244 134.064C438.244 133.733 438.196 133.432 438.1 133.16C438.01 132.883 437.874 132.645 437.692 132.448C437.516 132.245 437.3 132.091 437.044 131.984C436.788 131.872 436.498 131.816 436.172 131.816C435.49 131.816 434.948 132.016 434.548 132.416C434.154 132.811 433.908 133.36 433.812 134.064H438.244ZM439.396 137.864C439.22 138.077 439.01 138.264 438.764 138.424C438.519 138.579 438.255 138.707 437.972 138.808C437.695 138.909 437.407 138.984 437.108 139.032C436.81 139.085 436.514 139.112 436.22 139.112C435.66 139.112 435.143 139.019 434.668 138.832C434.199 138.64 433.791 138.363 433.444 138C433.103 137.632 432.836 137.179 432.644 136.64C432.452 136.101 432.356 135.483 432.356 134.784C432.356 134.219 432.442 133.691 432.612 133.2C432.788 132.709 433.039 132.285 433.364 131.928C433.69 131.565 434.087 131.283 434.556 131.08C435.026 130.872 435.554 130.768 436.14 130.768C436.626 130.768 437.074 130.851 437.484 131.016C437.9 131.176 438.258 131.411 438.556 131.72C438.86 132.024 439.098 132.403 439.268 132.856C439.439 133.304 439.524 133.816 439.524 134.392C439.524 134.616 439.5 134.765 439.452 134.84C439.404 134.915 439.314 134.952 439.18 134.952H433.764C433.78 135.464 433.85 135.909 433.972 136.288C434.1 136.667 434.276 136.984 434.5 137.24C434.724 137.491 434.991 137.68 435.3 137.808C435.61 137.931 435.956 137.992 436.34 137.992C436.698 137.992 437.004 137.952 437.26 137.872C437.522 137.787 437.746 137.696 437.932 137.6C438.119 137.504 438.274 137.416 438.396 137.336C438.524 137.251 438.634 137.208 438.724 137.208C438.842 137.208 438.932 137.253 438.996 137.344L439.396 137.864Z" fill="#313131"/>
<path fill-rule="evenodd" clip-rule="evenodd" d="M526.728 135.818L530.391 141.751C530.551 142.011 530.802 142.008 530.903 141.994C531.004 141.98 531.248 141.918 531.336 141.623L535.917 126.178C535.997 125.905 535.85 125.719 535.783 125.653C535.719 125.587 535.536 125.446 535.271 125.521L519.787 130.047C519.494 130.133 519.43 130.379 519.416 130.48C519.402 130.583 519.398 130.838 519.657 131.001L525.669 134.754L530.98 129.396C531.272 129.102 531.747 129.099 532.043 129.39C532.338 129.681 532.34 130.157 532.049 130.451L526.728 135.818ZM530.825 143.5C530.128 143.5 529.488 143.146 529.112 142.538L525.228 136.247L518.861 132.272C518.175 131.843 517.816 131.079 517.927 130.276C518.037 129.473 518.589 128.835 519.365 128.608L534.848 124.082C535.56 123.874 536.323 124.071 536.848 124.593C537.373 125.12 537.569 125.89 537.356 126.604L532.775 142.048C532.546 142.825 531.905 143.374 531.102 143.481C531.008 143.493 530.917 143.5 530.825 143.5Z" fill="#FDB491"/>
<path fill-rule="evenodd" clip-rule="evenodd" d="M526.728 135.818L530.391 141.751C530.551 142.011 530.802 142.008 530.903 141.994C531.004 141.98 531.248 141.918 531.336 141.623L535.917 126.178C535.997 125.905 535.85 125.719 535.783 125.653C535.719 125.587 535.536 125.446 535.271 125.521L519.787 130.047C519.494 130.133 519.43 130.379 519.416 130.48C519.402 130.583 519.398 130.838 519.657 131.001L525.669 134.754L530.98 129.396C531.272 129.102 531.747 129.099 532.043 129.39C532.338 129.681 532.34 130.157 532.049 130.451L526.728 135.818ZM530.825 143.5C530.128 143.5 529.488 143.146 529.112 142.538L525.228 136.247L518.861 132.272C518.175 131.843 517.816 131.079 517.927 130.276C518.037 129.473 518.589 128.835 519.365 128.608L534.848 124.082C535.56 123.874 536.323 124.071 536.848 124.593C537.373 125.12 537.569 125.89 537.356 126.604L532.775 142.048C532.546 142.825 531.905 143.374 531.102 143.481C531.008 143.493 530.917 143.5 530.825 143.5Z" fill="url(#paint0_linear_495_2668)"/>
<defs>
<filter id="filter0_di_495_2668" x="217.517" y="16" width="19.3008" height="30.5934" filterUnits="userSpaceOnUse" color-interpolation-filters="sRGB">
<feFlood flood-opacity="0" result="BackgroundImageFix"/>
<feColorMatrix in="SourceAlpha" type="matrix" values="0 0 0 0 0 0 0 0 0 0 0 0 0 0 0 0 0 0 127 0" result="hardAlpha"/>
<feOffset dx="2"/>
<feGaussianBlur stdDeviation="2"/>
<feColorMatrix type="matrix" values="0 0 0 0 0.768627 0 0 0 0 0.768627 0 0 0 0 0.768627 0 0 0 1 0"/>
<feBlend mode="normal" in2="BackgroundImageFix" result="effect1_dropShadow_495_2668"/>
<feBlend mode="normal" in="SourceGraphic" in2="effect1_dropShadow_495_2668" result="shape"/>
<feColorMatrix in="SourceAlpha" type="matrix" values="0 0 0 0 0 0 0 0 0 0 0 0 0 0 0 0 0 0 127 0" result="hardAlpha"/>
<feOffset dx="4" dy="4"/>
<feGaussianBlur stdDeviation="17"/>
<feComposite in2="hardAlpha" operator="arithmetic" k2="-1" k3="1"/>
<feColorMatrix type="matrix" values="0 0 0 0 0.0901961 0 0 0 0 0.286275 0 0 0 0 0.301961 0 0 0 0.15 0"/>
<feBlend mode="normal" in2="shape" result="effect2_innerShadow_495_2668"/>
</filter>
<linearGradient id="paint0_linear_495_2668" x1="527.674" y1="124" x2="527.674" y2="143.5" gradientUnits="userSpaceOnUse">
<stop stop-color="#FE8B84"/>
<stop offset="1" stop-color="#FE8B84" stop-opacity="0"/>
</linearGradient>
<clipPath id="clip0_495_2668">
<rect width="22.0386" height="32" fill="white" transform="translate(218.383 20)"/>
</clipPath>
</defs>
</svg>
