<svg width="278" height="188" viewBox="0 0 278 188" fill="none" xmlns="http://www.w3.org/2000/svg">
<rect width="278" height="188" rx="18" fill="#FCFDFD"/>
<rect x="28.7588" y="53.917" width="61.3517" height="22.7019" rx="4" fill="#FDB491"/>
<rect x="28.7588" y="53.917" width="61.3517" height="22.7019" rx="4" fill="url(#paint0_linear_108_498)"/>
<path d="M44.6427 65.6031H43.1607L42.7707 67.5591H44.2527L44.6427 65.6031ZM46.9107 64.8171L46.8327 65.2671C46.8127 65.3831 46.7647 65.4691 46.6887 65.5251C46.6167 65.5771 46.5047 65.6031 46.3527 65.6031H45.5247L45.1347 67.5591H46.2087C46.3247 67.5591 46.4067 67.5931 46.4547 67.6611C46.5067 67.7251 46.5207 67.8391 46.4967 68.0031L46.4427 68.3451H45.0207L44.5167 70.8831H44.0307C43.9787 70.8831 43.9307 70.8711 43.8867 70.8471C43.8427 70.8231 43.8047 70.7911 43.7727 70.7511C43.7447 70.7111 43.7247 70.6631 43.7127 70.6071C43.7007 70.5511 43.7007 70.4891 43.7127 70.4211L44.1387 68.3451H42.6567L42.2307 70.4751C42.2067 70.6231 42.1487 70.7291 42.0567 70.7931C41.9647 70.8531 41.8607 70.8831 41.7447 70.8831H41.2647L41.7747 68.3451H40.8987C40.7867 68.3451 40.7047 68.3131 40.6527 68.2491C40.6047 68.1811 40.5927 68.0651 40.6167 67.9011L40.6647 67.5591H41.8887L42.2787 65.6031H40.8867L40.9647 65.1591C40.9847 65.0431 41.0307 64.9571 41.1027 64.9011C41.1787 64.8451 41.2927 64.8171 41.4447 64.8171H42.3927L42.8247 62.6691C42.8487 62.5491 42.9027 62.4551 42.9867 62.3871C43.0747 62.3191 43.1787 62.2851 43.2987 62.2851H43.7787L43.2747 64.8171H44.7567L45.2607 62.2851H45.7347C45.8507 62.2851 45.9407 62.3231 46.0047 62.3991C46.0727 62.4751 46.0967 62.5711 46.0767 62.6871L45.6387 64.8171H46.9107ZM56.4516 64.8051L54.4836 70.8831H53.6376C53.5336 70.8831 53.4616 70.8151 53.4216 70.6791L52.0776 66.5571C52.0456 66.4651 52.0196 66.3731 51.9996 66.2811C51.9796 66.1851 51.9596 66.0911 51.9396 65.9991C51.9196 66.0911 51.8996 66.1851 51.8796 66.2811C51.8596 66.3731 51.8336 66.4671 51.8016 66.5631L50.4336 70.6791C50.3976 70.8151 50.3176 70.8831 50.1936 70.8831H49.3896L47.4216 64.8051H48.2616C48.3456 64.8051 48.4156 64.8271 48.4716 64.8711C48.5316 64.9151 48.5716 64.9671 48.5916 65.0271L49.7556 68.9391C49.8236 69.2271 49.8776 69.4991 49.9176 69.7551C49.9536 69.6231 49.9896 69.4891 50.0256 69.3531C50.0656 69.2171 50.1076 69.0791 50.1516 68.9391L51.4356 65.0031C51.4556 64.9431 51.4896 64.8931 51.5376 64.8531C51.5896 64.8131 51.6516 64.7931 51.7236 64.7931H52.1916C52.2716 64.7931 52.3376 64.8131 52.3896 64.8531C52.4416 64.8931 52.4776 64.9431 52.4976 65.0031L53.7516 68.9391C53.7956 69.0791 53.8356 69.2171 53.8716 69.3531C53.9076 69.4891 53.9416 69.6231 53.9736 69.7551C53.9936 69.6231 54.0176 69.4911 54.0456 69.3591C54.0776 69.2231 54.1116 69.0831 54.1476 68.9391L55.3356 65.0271C55.3556 64.9631 55.3936 64.9111 55.4496 64.8711C55.5056 64.8271 55.5716 64.8051 55.6476 64.8051H56.4516ZM59.9715 64.7091C60.4155 64.7091 60.8155 64.7831 61.1715 64.9311C61.5275 65.0791 61.8315 65.2891 62.0835 65.5611C62.3355 65.8331 62.5275 66.1631 62.6595 66.5511C62.7955 66.9351 62.8635 67.3651 62.8635 67.8411C62.8635 68.3211 62.7955 68.7531 62.6595 69.1371C62.5275 69.5211 62.3355 69.8491 62.0835 70.1211C61.8315 70.3931 61.5275 70.6031 61.1715 70.7511C60.8155 70.8951 60.4155 70.9671 59.9715 70.9671C59.5235 70.9671 59.1195 70.8951 58.7595 70.7511C58.4035 70.6031 58.0995 70.3931 57.8475 70.1211C57.5955 69.8491 57.4015 69.5211 57.2655 69.1371C57.1335 68.7531 57.0675 68.3211 57.0675 67.8411C57.0675 67.3651 57.1335 66.9351 57.2655 66.5511C57.4015 66.1631 57.5955 65.8331 57.8475 65.5611C58.0995 65.2891 58.4035 65.0791 58.7595 64.9311C59.1195 64.7831 59.5235 64.7091 59.9715 64.7091ZM59.9715 70.1331C60.5715 70.1331 61.0195 69.9331 61.3155 69.5331C61.6115 69.1291 61.7595 68.5671 61.7595 67.8471C61.7595 67.1231 61.6115 66.5591 61.3155 66.1551C61.0195 65.7511 60.5715 65.5491 59.9715 65.5491C59.6675 65.5491 59.4015 65.6011 59.1735 65.7051C58.9495 65.8091 58.7615 65.9591 58.6095 66.1551C58.4615 66.3511 58.3495 66.5931 58.2735 66.8811C58.2015 67.1651 58.1655 67.4871 58.1655 67.8471C58.1655 68.5671 58.3135 69.1291 58.6095 69.5331C58.9095 69.9331 59.3635 70.1331 59.9715 70.1331ZM65.2321 66.0231C65.4241 65.6071 65.6601 65.2831 65.9401 65.0511C66.2201 64.8151 66.5621 64.6971 66.9661 64.6971C67.0941 64.6971 67.2161 64.7111 67.3321 64.7391C67.4521 64.7671 67.5581 64.8111 67.6501 64.8711L67.5721 65.6691C67.5481 65.7691 67.4881 65.8191 67.3921 65.8191C67.3361 65.8191 67.2541 65.8071 67.1461 65.7831C67.0381 65.7591 66.9161 65.7471 66.7801 65.7471C66.5881 65.7471 66.4161 65.7751 66.2641 65.8311C66.1161 65.8871 65.9821 65.9711 65.8621 66.0831C65.7461 66.1911 65.6401 66.3271 65.5441 66.4911C65.4521 66.6511 65.3681 66.8351 65.2921 67.0431V70.8831H64.2181V64.8051H64.8301C64.9461 64.8051 65.0261 64.8271 65.0701 64.8711C65.1141 64.9151 65.1441 64.9911 65.1601 65.0991L65.2321 66.0231ZM69.6632 62.0451V67.2471H69.9392C70.0192 67.2471 70.0852 67.2371 70.1372 67.2171C70.1932 67.1931 70.2512 67.1471 70.3112 67.0791L72.2312 65.0211C72.2872 64.9531 72.3452 64.9011 72.4052 64.8651C72.4692 64.8251 72.5532 64.8051 72.6572 64.8051H73.6232L71.3852 67.1871C71.2772 67.3231 71.1612 67.4291 71.0372 67.5051C71.1092 67.5531 71.1732 67.6091 71.2292 67.6731C71.2892 67.7331 71.3452 67.8031 71.3972 67.8831L73.7732 70.8831H72.8192C72.7272 70.8831 72.6472 70.8691 72.5792 70.8411C72.5152 70.8091 72.4592 70.7531 72.4112 70.6731L70.4132 68.1831C70.3532 68.0991 70.2932 68.0451 70.2332 68.0211C70.1772 67.9931 70.0892 67.9791 69.9692 67.9791H69.6632V70.8831H68.5892V62.0451H69.6632Z" fill="white"/>
<rect x="28.7588" y="83.7132" width="105.448" height="22.7019" rx="4" fill="#FDB491"/>
<rect x="28.7588" y="83.7132" width="105.448" height="22.7019" rx="4" fill="url(#paint1_linear_108_498)"/>
<path d="M44.6427 94.3992H43.1607L42.7707 96.3552H44.2527L44.6427 94.3992ZM46.9107 93.6132L46.8327 94.0632C46.8127 94.1792 46.7647 94.2652 46.6887 94.3212C46.6167 94.3732 46.5047 94.3992 46.3527 94.3992H45.5247L45.1347 96.3552H46.2087C46.3247 96.3552 46.4067 96.3892 46.4547 96.4572C46.5067 96.5212 46.5207 96.6352 46.4967 96.7992L46.4427 97.1412H45.0207L44.5167 99.6792H44.0307C43.9787 99.6792 43.9307 99.6672 43.8867 99.6432C43.8427 99.6192 43.8047 99.5872 43.7727 99.5472C43.7447 99.5072 43.7247 99.4592 43.7127 99.4032C43.7007 99.3472 43.7007 99.2852 43.7127 99.2172L44.1387 97.1412H42.6567L42.2307 99.2712C42.2067 99.4192 42.1487 99.5252 42.0567 99.5892C41.9647 99.6492 41.8607 99.6792 41.7447 99.6792H41.2647L41.7747 97.1412H40.8987C40.7867 97.1412 40.7047 97.1092 40.6527 97.0452C40.6047 96.9772 40.5927 96.8612 40.6167 96.6972L40.6647 96.3552H41.8887L42.2787 94.3992H40.8867L40.9647 93.9552C40.9847 93.8392 41.0307 93.7532 41.1027 93.6972C41.1787 93.6412 41.2927 93.6132 41.4447 93.6132H42.3927L42.8247 91.4652C42.8487 91.3452 42.9027 91.2512 42.9867 91.1832C43.0747 91.1152 43.1787 91.0812 43.2987 91.0812H43.7787L43.2747 93.6132H44.7567L45.2607 91.0812H45.7347C45.8507 91.0812 45.9407 91.1192 46.0047 91.1952C46.0727 91.2712 46.0967 91.3672 46.0767 91.4832L45.6387 93.6132H46.9107ZM53.0676 93.6012V99.6792H52.4316C52.2796 99.6792 52.1836 99.6052 52.1436 99.4572L52.0596 98.8032C51.7956 99.0952 51.4996 99.3312 51.1716 99.5112C50.8436 99.6872 50.4676 99.7752 50.0436 99.7752C49.7116 99.7752 49.4176 99.7212 49.1616 99.6132C48.9096 99.5012 48.6976 99.3452 48.5256 99.1452C48.3536 98.9452 48.2236 98.7032 48.1356 98.4192C48.0516 98.1352 48.0096 97.8212 48.0096 97.4772V93.6012H49.0776V97.4772C49.0776 97.9372 49.1816 98.2932 49.3896 98.5452C49.6016 98.7972 49.9236 98.9232 50.3556 98.9232C50.6716 98.9232 50.9656 98.8492 51.2376 98.7012C51.5136 98.5492 51.7676 98.3412 51.9996 98.0772V93.6012H53.0676ZM58.301 94.6032C58.253 94.6912 58.179 94.7352 58.079 94.7352C58.019 94.7352 57.951 94.7132 57.875 94.6692C57.799 94.6252 57.705 94.5772 57.593 94.5252C57.485 94.4692 57.355 94.4192 57.203 94.3752C57.051 94.3272 56.871 94.3032 56.663 94.3032C56.483 94.3032 56.321 94.3272 56.177 94.3752C56.033 94.4192 55.909 94.4812 55.805 94.5612C55.705 94.6412 55.627 94.7352 55.571 94.8432C55.519 94.9472 55.493 95.0612 55.493 95.1852C55.493 95.3412 55.537 95.4712 55.625 95.5752C55.717 95.6792 55.837 95.7692 55.985 95.8452C56.133 95.9212 56.301 95.9892 56.489 96.0492C56.677 96.1052 56.869 96.1672 57.065 96.2352C57.265 96.2992 57.459 96.3712 57.647 96.4512C57.835 96.5312 58.003 96.6312 58.151 96.7512C58.299 96.8712 58.417 97.0192 58.505 97.1952C58.597 97.3672 58.643 97.5752 58.643 97.8192C58.643 98.0992 58.593 98.3592 58.493 98.5992C58.393 98.8352 58.245 99.0412 58.049 99.2172C57.853 99.3892 57.613 99.5252 57.329 99.6252C57.045 99.7252 56.717 99.7752 56.345 99.7752C55.921 99.7752 55.537 99.7072 55.193 99.5712C54.849 99.4312 54.557 99.2532 54.317 99.0372L54.569 98.6292C54.601 98.5772 54.639 98.5372 54.683 98.5092C54.727 98.4812 54.783 98.4672 54.851 98.4672C54.923 98.4672 54.999 98.4952 55.079 98.5512C55.159 98.6072 55.255 98.6692 55.367 98.7372C55.483 98.8052 55.623 98.8672 55.787 98.9232C55.951 98.9792 56.155 99.0072 56.399 99.0072C56.607 99.0072 56.789 98.9812 56.945 98.9292C57.101 98.8732 57.231 98.7992 57.335 98.7072C57.439 98.6152 57.515 98.5092 57.563 98.3892C57.615 98.2692 57.641 98.1412 57.641 98.0052C57.641 97.8372 57.595 97.6992 57.503 97.5912C57.415 97.4792 57.297 97.3852 57.149 97.3092C57.001 97.2292 56.831 97.1612 56.639 97.1052C56.451 97.0452 56.257 96.9832 56.057 96.9192C55.861 96.8552 55.667 96.7832 55.475 96.7032C55.287 96.6192 55.119 96.5152 54.971 96.3912C54.823 96.2672 54.703 96.1152 54.611 95.9352C54.523 95.7512 54.479 95.5292 54.479 95.2692C54.479 95.0372 54.527 94.8152 54.623 94.6032C54.719 94.3872 54.859 94.1992 55.043 94.0392C55.227 93.8752 55.453 93.7452 55.721 93.6492C55.989 93.5532 56.295 93.5052 56.639 93.5052C57.039 93.5052 57.397 93.5692 57.713 93.6972C58.033 93.8212 58.309 93.9932 58.541 94.2132L58.301 94.6032ZM64.0204 95.9772C64.0204 95.7292 63.9844 95.5032 63.9124 95.2992C63.8444 95.0912 63.7424 94.9132 63.6064 94.7652C63.4744 94.6132 63.3124 94.4972 63.1204 94.4172C62.9284 94.3332 62.7104 94.2912 62.4664 94.2912C61.9544 94.2912 61.5484 94.4412 61.2484 94.7412C60.9524 95.0372 60.7684 95.4492 60.6964 95.9772H64.0204ZM64.8844 98.8272C64.7524 98.9872 64.5944 99.1272 64.4104 99.2472C64.2264 99.3632 64.0284 99.4592 63.8164 99.5352C63.6084 99.6112 63.3924 99.6672 63.1684 99.7032C62.9444 99.7432 62.7224 99.7632 62.5024 99.7632C62.0824 99.7632 61.6944 99.6932 61.3384 99.5532C60.9864 99.4092 60.6804 99.2012 60.4204 98.9292C60.1644 98.6532 59.9644 98.3132 59.8204 97.9092C59.6764 97.5052 59.6044 97.0412 59.6044 96.5172C59.6044 96.0932 59.6684 95.6972 59.7964 95.3292C59.9284 94.9612 60.1164 94.6432 60.3604 94.3752C60.6044 94.1032 60.9024 93.8912 61.2544 93.7392C61.6064 93.5832 62.0024 93.5052 62.4424 93.5052C62.8064 93.5052 63.1424 93.5672 63.4504 93.6912C63.7624 93.8112 64.0304 93.9872 64.2544 94.2192C64.4824 94.4472 64.6604 94.7312 64.7884 95.0712C64.9164 95.4072 64.9804 95.7912 64.9804 96.2232C64.9804 96.3912 64.9624 96.5032 64.9264 96.5592C64.8904 96.6152 64.8224 96.6432 64.7224 96.6432H60.6604C60.6724 97.0272 60.7244 97.3612 60.8164 97.6452C60.9124 97.9292 61.0444 98.1672 61.2124 98.3592C61.3804 98.5472 61.5804 98.6892 61.8124 98.7852C62.0444 98.8772 62.3044 98.9232 62.5924 98.9232C62.8604 98.9232 63.0904 98.8932 63.2824 98.8332C63.4784 98.7692 63.6464 98.7012 63.7864 98.6292C63.9264 98.5572 64.0424 98.4912 64.1344 98.4312C64.2304 98.3672 64.3124 98.3352 64.3804 98.3352C64.4684 98.3352 64.5364 98.3692 64.5844 98.4372L64.8844 98.8272ZM67.3063 94.8192C67.4983 94.4032 67.7343 94.0792 68.0143 93.8472C68.2943 93.6112 68.6363 93.4932 69.0403 93.4932C69.1683 93.4932 69.2903 93.5072 69.4063 93.5352C69.5263 93.5632 69.6323 93.6072 69.7243 93.6672L69.6463 94.4652C69.6223 94.5652 69.5623 94.6152 69.4663 94.6152C69.4103 94.6152 69.3283 94.6032 69.2203 94.5792C69.1123 94.5552 68.9903 94.5432 68.8543 94.5432C68.6623 94.5432 68.4903 94.5712 68.3383 94.6272C68.1903 94.6832 68.0563 94.7672 67.9363 94.8792C67.8203 94.9872 67.7143 95.1232 67.6183 95.2872C67.5263 95.4472 67.4423 95.6312 67.3663 95.8392V99.6792H66.2923V93.6012H66.9043C67.0203 93.6012 67.1003 93.6232 67.1443 93.6672C67.1883 93.7112 67.2183 93.7872 67.2343 93.8952L67.3063 94.8192ZM71.7914 93.6012V99.6792H70.7234V93.6012H71.7914ZM72.0194 91.6932C72.0194 91.7972 71.9974 91.8952 71.9534 91.9872C71.9134 92.0752 71.8574 92.1552 71.7854 92.2272C71.7174 92.2952 71.6354 92.3492 71.5394 92.3892C71.4474 92.4292 71.3494 92.4492 71.2454 92.4492C71.1414 92.4492 71.0434 92.4292 70.9514 92.3892C70.8634 92.3492 70.7854 92.2952 70.7174 92.2272C70.6494 92.1552 70.5954 92.0752 70.5554 91.9872C70.5154 91.8952 70.4954 91.7972 70.4954 91.6932C70.4954 91.5892 70.5154 91.4912 70.5554 91.3992C70.5954 91.3032 70.6494 91.2212 70.7174 91.1532C70.7854 91.0812 70.8634 91.0252 70.9514 90.9852C71.0434 90.9452 71.1414 90.9252 71.2454 90.9252C71.3494 90.9252 71.4474 90.9452 71.5394 90.9852C71.6354 91.0252 71.7174 91.0812 71.7854 91.1532C71.8574 91.2212 71.9134 91.3032 71.9534 91.3992C71.9974 91.4912 72.0194 91.5892 72.0194 91.6932ZM74.5542 94.4832C74.6862 94.3352 74.8262 94.2012 74.9742 94.0812C75.1222 93.9612 75.2782 93.8592 75.4422 93.7752C75.6102 93.6872 75.7862 93.6212 75.9702 93.5772C76.1582 93.5292 76.3602 93.5052 76.5762 93.5052C76.9082 93.5052 77.2002 93.5612 77.4522 93.6732C77.7082 93.7812 77.9202 93.9372 78.0882 94.1412C78.2602 94.3412 78.3902 94.5832 78.4782 94.8672C78.5662 95.1512 78.6102 95.4652 78.6102 95.8092V99.6792H77.5362V95.8092C77.5362 95.3492 77.4302 94.9932 77.2182 94.7412C77.0102 94.4852 76.6922 94.3572 76.2642 94.3572C75.9482 94.3572 75.6522 94.4332 75.3762 94.5852C75.1042 94.7372 74.8522 94.9432 74.6202 95.2032V99.6792H73.5462V93.6012H74.1882C74.3402 93.6012 74.4342 93.6752 74.4702 93.8232L74.5542 94.4832ZM82.0216 99.7752C81.5416 99.7752 81.1716 99.6412 80.9116 99.3732C80.6556 99.1052 80.5276 98.7192 80.5276 98.2152V94.4952H79.7956C79.7316 94.4952 79.6776 94.4772 79.6336 94.4412C79.5896 94.4012 79.5676 94.3412 79.5676 94.2612V93.8352L80.5636 93.7092L80.8096 91.8312C80.8216 91.7712 80.8476 91.7232 80.8876 91.6872C80.9316 91.6472 80.9876 91.6272 81.0556 91.6272H81.5956V93.7212H83.3536V94.4952H81.5956V98.1432C81.5956 98.3992 81.6576 98.5892 81.7816 98.7132C81.9056 98.8372 82.0656 98.8992 82.2616 98.8992C82.3736 98.8992 82.4696 98.8852 82.5496 98.8572C82.6336 98.8252 82.7056 98.7912 82.7656 98.7552C82.8256 98.7192 82.8756 98.6872 82.9156 98.6592C82.9596 98.6272 82.9976 98.6112 83.0296 98.6112C83.0856 98.6112 83.1356 98.6452 83.1796 98.7132L83.4916 99.2232C83.3076 99.3952 83.0856 99.5312 82.8256 99.6312C82.5656 99.7272 82.2976 99.7752 82.0216 99.7752ZM88.4892 95.9772C88.4892 95.7292 88.4532 95.5032 88.3812 95.2992C88.3132 95.0912 88.2112 94.9132 88.0752 94.7652C87.9432 94.6132 87.7812 94.4972 87.5892 94.4172C87.3972 94.3332 87.1792 94.2912 86.9352 94.2912C86.4232 94.2912 86.0172 94.4412 85.7172 94.7412C85.4212 95.0372 85.2372 95.4492 85.1652 95.9772H88.4892ZM89.3532 98.8272C89.2212 98.9872 89.0632 99.1272 88.8792 99.2472C88.6952 99.3632 88.4972 99.4592 88.2852 99.5352C88.0772 99.6112 87.8612 99.6672 87.6372 99.7032C87.4132 99.7432 87.1912 99.7632 86.9712 99.7632C86.5512 99.7632 86.1632 99.6932 85.8072 99.5532C85.4552 99.4092 85.1492 99.2012 84.8892 98.9292C84.6332 98.6532 84.4332 98.3132 84.2892 97.9092C84.1452 97.5052 84.0732 97.0412 84.0732 96.5172C84.0732 96.0932 84.1372 95.6972 84.2652 95.3292C84.3972 94.9612 84.5852 94.6432 84.8292 94.3752C85.0732 94.1032 85.3712 93.8912 85.7232 93.7392C86.0752 93.5832 86.4712 93.5052 86.9112 93.5052C87.2752 93.5052 87.6112 93.5672 87.9192 93.6912C88.2312 93.8112 88.4992 93.9872 88.7232 94.2192C88.9512 94.4472 89.1292 94.7312 89.2572 95.0712C89.3852 95.4072 89.4492 95.7912 89.4492 96.2232C89.4492 96.3912 89.4312 96.5032 89.3952 96.5592C89.3592 96.6152 89.2912 96.6432 89.1912 96.6432H85.1292C85.1412 97.0272 85.1932 97.3612 85.2852 97.6452C85.3812 97.9292 85.5132 98.1672 85.6812 98.3592C85.8492 98.5472 86.0492 98.6892 86.2812 98.7852C86.5132 98.8772 86.7732 98.9232 87.0612 98.9232C87.3292 98.9232 87.5592 98.8932 87.7512 98.8332C87.9472 98.7692 88.1152 98.7012 88.2552 98.6292C88.3952 98.5572 88.5112 98.4912 88.6032 98.4312C88.6992 98.3672 88.7812 98.3352 88.8492 98.3352C88.9372 98.3352 89.0052 98.3692 89.0532 98.4372L89.3532 98.8272ZM91.775 94.8192C91.967 94.4032 92.203 94.0792 92.483 93.8472C92.763 93.6112 93.105 93.4932 93.509 93.4932C93.637 93.4932 93.759 93.5072 93.875 93.5352C93.995 93.5632 94.101 93.6072 94.193 93.6672L94.115 94.4652C94.091 94.5652 94.031 94.6152 93.935 94.6152C93.879 94.6152 93.797 94.6032 93.689 94.5792C93.581 94.5552 93.459 94.5432 93.323 94.5432C93.131 94.5432 92.959 94.5712 92.807 94.6272C92.659 94.6832 92.525 94.7672 92.405 94.8792C92.289 94.9872 92.183 95.1232 92.087 95.2872C91.995 95.4472 91.911 95.6312 91.835 95.8392V99.6792H90.761V93.6012H91.373C91.489 93.6012 91.569 93.6232 91.613 93.6672C91.657 93.7112 91.687 93.7872 91.703 93.8952L91.775 94.8192ZM95.5281 99.6792V94.5132L94.8561 94.4352C94.7721 94.4152 94.7021 94.3852 94.6461 94.3452C94.5941 94.3012 94.5681 94.2392 94.5681 94.1592V93.7212H95.5281V93.1332C95.5281 92.7852 95.5761 92.4772 95.6721 92.2092C95.7721 91.9372 95.9121 91.7092 96.0921 91.5252C96.2761 91.3372 96.4961 91.1952 96.7521 91.0992C97.0081 91.0032 97.2961 90.9552 97.6161 90.9552C97.8881 90.9552 98.1381 90.9952 98.3661 91.0752L98.3421 91.6092C98.3341 91.7052 98.2801 91.7572 98.1801 91.7652C98.0841 91.7732 97.9541 91.7772 97.7901 91.7772C97.6061 91.7772 97.4381 91.8012 97.2861 91.8492C97.1381 91.8972 97.0101 91.9752 96.9021 92.0832C96.7941 92.1912 96.7101 92.3332 96.6501 92.5092C96.5941 92.6852 96.5661 92.9032 96.5661 93.1632V93.7212H98.3181V94.4952H96.6021V99.6792H95.5281ZM102.598 96.9432C102.106 96.9592 101.686 96.9992 101.338 97.0632C100.994 97.1232 100.712 97.2032 100.492 97.3032C100.276 97.4032 100.118 97.5212 100.018 97.6572C99.922 97.7932 99.874 97.9452 99.874 98.1132C99.874 98.2732 99.9 98.4112 99.952 98.5272C100.004 98.6432 100.074 98.7392 100.162 98.8152C100.254 98.8872 100.36 98.9412 100.48 98.9772C100.604 99.0092 100.736 99.0252 100.876 99.0252C101.064 99.0252 101.236 99.0072 101.392 98.9712C101.548 98.9312 101.694 98.8752 101.83 98.8032C101.97 98.7312 102.102 98.6452 102.226 98.5452C102.354 98.4452 102.478 98.3312 102.598 98.2032V96.9432ZM99.148 94.4592C99.484 94.1352 99.846 93.8932 100.234 93.7332C100.622 93.5732 101.052 93.4932 101.524 93.4932C101.864 93.4932 102.166 93.5492 102.43 93.6612C102.694 93.7732 102.916 93.9292 103.096 94.1292C103.276 94.3292 103.412 94.5712 103.504 94.8552C103.596 95.1392 103.642 95.4512 103.642 95.7912V99.6792H103.168C103.064 99.6792 102.984 99.6632 102.928 99.6312C102.872 99.5952 102.828 99.5272 102.796 99.4272L102.676 98.8512C102.516 98.9992 102.36 99.1312 102.208 99.2472C102.056 99.3592 101.896 99.4552 101.728 99.5352C101.56 99.6112 101.38 99.6692 101.188 99.7092C101 99.7532 100.79 99.7752 100.558 99.7752C100.322 99.7752 100.1 99.7432 99.892 99.6792C99.684 99.6112 99.502 99.5112 99.346 99.3792C99.194 99.2472 99.072 99.0812 98.98 98.8812C98.892 98.6772 98.848 98.4372 98.848 98.1612C98.848 97.9212 98.914 97.6912 99.046 97.4712C99.178 97.2472 99.392 97.0492 99.688 96.8772C99.984 96.7052 100.37 96.5652 100.846 96.4572C101.322 96.3452 101.906 96.2812 102.598 96.2652V95.7912C102.598 95.3192 102.496 94.9632 102.292 94.7232C102.088 94.4792 101.79 94.3572 101.398 94.3572C101.134 94.3572 100.912 94.3912 100.732 94.4592C100.556 94.5232 100.402 94.5972 100.27 94.6812C100.142 94.7612 100.03 94.8352 99.934 94.9032C99.842 94.9672 99.75 94.9992 99.658 94.9992C99.586 94.9992 99.524 94.9812 99.472 94.9452C99.42 94.9052 99.376 94.8572 99.34 94.8012L99.148 94.4592ZM109.499 94.6812C109.467 94.7252 109.435 94.7592 109.403 94.7832C109.371 94.8072 109.327 94.8192 109.271 94.8192C109.211 94.8192 109.145 94.7952 109.073 94.7472C109.001 94.6952 108.911 94.6392 108.803 94.5792C108.699 94.5192 108.569 94.4652 108.413 94.4172C108.261 94.3652 108.073 94.3392 107.849 94.3392C107.549 94.3392 107.285 94.3932 107.057 94.5012C106.829 94.6052 106.637 94.7572 106.481 94.9572C106.329 95.1572 106.213 95.3992 106.133 95.6832C106.057 95.9672 106.019 96.2852 106.019 96.6372C106.019 97.0052 106.061 97.3332 106.145 97.6212C106.229 97.9052 106.347 98.1452 106.499 98.3412C106.655 98.5332 106.841 98.6812 107.057 98.7852C107.277 98.8852 107.523 98.9352 107.795 98.9352C108.055 98.9352 108.269 98.9052 108.437 98.8452C108.605 98.7812 108.743 98.7112 108.851 98.6352C108.963 98.5592 109.055 98.4912 109.127 98.4312C109.203 98.3672 109.277 98.3352 109.349 98.3352C109.437 98.3352 109.505 98.3692 109.553 98.4372L109.853 98.8272C109.721 98.9912 109.571 99.1312 109.403 99.2472C109.235 99.3632 109.053 99.4612 108.857 99.5412C108.665 99.6172 108.463 99.6732 108.251 99.7092C108.039 99.7452 107.823 99.7632 107.603 99.7632C107.223 99.7632 106.869 99.6932 106.541 99.5532C106.217 99.4132 105.935 99.2112 105.695 98.9472C105.455 98.6792 105.267 98.3512 105.131 97.9632C104.995 97.5752 104.927 97.1332 104.927 96.6372C104.927 96.1852 104.989 95.7672 105.113 95.3832C105.241 94.9992 105.425 94.6692 105.665 94.3932C105.909 94.1132 106.207 93.8952 106.559 93.7392C106.915 93.5832 107.323 93.5052 107.783 93.5052C108.211 93.5052 108.587 93.5752 108.911 93.7152C109.239 93.8512 109.529 94.0452 109.781 94.2972L109.499 94.6812ZM114.962 95.9772C114.962 95.7292 114.926 95.5032 114.854 95.2992C114.786 95.0912 114.684 94.9132 114.548 94.7652C114.416 94.6132 114.254 94.4972 114.062 94.4172C113.87 94.3332 113.652 94.2912 113.408 94.2912C112.896 94.2912 112.49 94.4412 112.19 94.7412C111.894 95.0372 111.71 95.4492 111.638 95.9772H114.962ZM115.826 98.8272C115.694 98.9872 115.536 99.1272 115.352 99.2472C115.168 99.3632 114.97 99.4592 114.758 99.5352C114.55 99.6112 114.334 99.6672 114.11 99.7032C113.886 99.7432 113.664 99.7632 113.444 99.7632C113.024 99.7632 112.636 99.6932 112.28 99.5532C111.928 99.4092 111.622 99.2012 111.362 98.9292C111.106 98.6532 110.906 98.3132 110.762 97.9092C110.618 97.5052 110.546 97.0412 110.546 96.5172C110.546 96.0932 110.61 95.6972 110.738 95.3292C110.87 94.9612 111.058 94.6432 111.302 94.3752C111.546 94.1032 111.844 93.8912 112.196 93.7392C112.548 93.5832 112.944 93.5052 113.384 93.5052C113.748 93.5052 114.084 93.5672 114.392 93.6912C114.704 93.8112 114.972 93.9872 115.196 94.2192C115.424 94.4472 115.602 94.7312 115.73 95.0712C115.858 95.4072 115.922 95.7912 115.922 96.2232C115.922 96.3912 115.904 96.5032 115.868 96.5592C115.832 96.6152 115.764 96.6432 115.664 96.6432H111.602C111.614 97.0272 111.666 97.3612 111.758 97.6452C111.854 97.9292 111.986 98.1672 112.154 98.3592C112.322 98.5472 112.522 98.6892 112.754 98.7852C112.986 98.8772 113.246 98.9232 113.534 98.9232C113.802 98.9232 114.032 98.8932 114.224 98.8332C114.42 98.7692 114.588 98.7012 114.728 98.6292C114.868 98.5572 114.984 98.4912 115.076 98.4312C115.172 98.3672 115.254 98.3352 115.322 98.3352C115.41 98.3352 115.478 98.3692 115.526 98.4372L115.826 98.8272Z" fill="white"/>
<rect x="28.7588" y="113.509" width="117.91" height="22.7019" rx="4" fill="#FDB491"/>
<rect x="28.7588" y="113.509" width="117.91" height="22.7019" rx="4" fill="url(#paint2_linear_108_498)"/>
<path d="M45.6427 124.195H44.1607L43.7707 126.151H45.2527L45.6427 124.195ZM47.9107 123.409L47.8327 123.859C47.8127 123.975 47.7647 124.061 47.6887 124.117C47.6167 124.169 47.5047 124.195 47.3527 124.195H46.5247L46.1347 126.151H47.2087C47.3247 126.151 47.4067 126.185 47.4547 126.253C47.5067 126.317 47.5207 126.431 47.4967 126.595L47.4427 126.937H46.0207L45.5167 129.475H45.0307C44.9787 129.475 44.9307 129.463 44.8867 129.439C44.8427 129.415 44.8047 129.383 44.7727 129.343C44.7447 129.303 44.7247 129.255 44.7127 129.199C44.7007 129.143 44.7007 129.081 44.7127 129.013L45.1387 126.937H43.6567L43.2307 129.067C43.2067 129.215 43.1487 129.321 43.0567 129.385C42.9647 129.445 42.8607 129.475 42.7447 129.475H42.2647L42.7747 126.937H41.8987C41.7867 126.937 41.7047 126.905 41.6527 126.841C41.6047 126.773 41.5927 126.657 41.6167 126.493L41.6647 126.151H42.8887L43.2787 124.195H41.8867L41.9647 123.751C41.9847 123.635 42.0307 123.549 42.1027 123.493C42.1787 123.437 42.2927 123.409 42.4447 123.409H43.3927L43.8247 121.261C43.8487 121.141 43.9027 121.047 43.9867 120.979C44.0747 120.911 44.1787 120.877 44.2987 120.877H44.7787L44.2747 123.409H45.7567L46.2607 120.877H46.7347C46.8507 120.877 46.9407 120.915 47.0047 120.991C47.0727 121.067 47.0967 121.163 47.0767 121.279L46.6387 123.409H47.9107ZM54.0676 123.397V129.475H53.4316C53.2796 129.475 53.1836 129.401 53.1436 129.253L53.0596 128.599C52.7956 128.891 52.4996 129.127 52.1716 129.307C51.8436 129.483 51.4676 129.571 51.0436 129.571C50.7116 129.571 50.4176 129.517 50.1616 129.409C49.9096 129.297 49.6976 129.141 49.5256 128.941C49.3536 128.741 49.2236 128.499 49.1356 128.215C49.0516 127.931 49.0096 127.617 49.0096 127.273V123.397H50.0776V127.273C50.0776 127.733 50.1816 128.089 50.3896 128.341C50.6016 128.593 50.9236 128.719 51.3556 128.719C51.6716 128.719 51.9656 128.645 52.2376 128.497C52.5136 128.345 52.7676 128.137 52.9996 127.873V123.397H54.0676ZM59.301 124.399C59.253 124.487 59.179 124.531 59.079 124.531C59.019 124.531 58.951 124.509 58.875 124.465C58.799 124.421 58.705 124.373 58.593 124.321C58.485 124.265 58.355 124.215 58.203 124.171C58.051 124.123 57.871 124.099 57.663 124.099C57.483 124.099 57.321 124.123 57.177 124.171C57.033 124.215 56.909 124.277 56.805 124.357C56.705 124.437 56.627 124.531 56.571 124.639C56.519 124.743 56.493 124.857 56.493 124.981C56.493 125.137 56.537 125.267 56.625 125.371C56.717 125.475 56.837 125.565 56.985 125.641C57.133 125.717 57.301 125.785 57.489 125.845C57.677 125.901 57.869 125.963 58.065 126.031C58.265 126.095 58.459 126.167 58.647 126.247C58.835 126.327 59.003 126.427 59.151 126.547C59.299 126.667 59.417 126.815 59.505 126.991C59.597 127.163 59.643 127.371 59.643 127.615C59.643 127.895 59.593 128.155 59.493 128.395C59.393 128.631 59.245 128.837 59.049 129.013C58.853 129.185 58.613 129.321 58.329 129.421C58.045 129.521 57.717 129.571 57.345 129.571C56.921 129.571 56.537 129.503 56.193 129.367C55.849 129.227 55.557 129.049 55.317 128.833L55.569 128.425C55.601 128.373 55.639 128.333 55.683 128.305C55.727 128.277 55.783 128.263 55.851 128.263C55.923 128.263 55.999 128.291 56.079 128.347C56.159 128.403 56.255 128.465 56.367 128.533C56.483 128.601 56.623 128.663 56.787 128.719C56.951 128.775 57.155 128.803 57.399 128.803C57.607 128.803 57.789 128.777 57.945 128.725C58.101 128.669 58.231 128.595 58.335 128.503C58.439 128.411 58.515 128.305 58.563 128.185C58.615 128.065 58.641 127.937 58.641 127.801C58.641 127.633 58.595 127.495 58.503 127.387C58.415 127.275 58.297 127.181 58.149 127.105C58.001 127.025 57.831 126.957 57.639 126.901C57.451 126.841 57.257 126.779 57.057 126.715C56.861 126.651 56.667 126.579 56.475 126.499C56.287 126.415 56.119 126.311 55.971 126.187C55.823 126.063 55.703 125.911 55.611 125.731C55.523 125.547 55.479 125.325 55.479 125.065C55.479 124.833 55.527 124.611 55.623 124.399C55.719 124.183 55.859 123.995 56.043 123.835C56.227 123.671 56.453 123.541 56.721 123.445C56.989 123.349 57.295 123.301 57.639 123.301C58.039 123.301 58.397 123.365 58.713 123.493C59.033 123.617 59.309 123.789 59.541 124.009L59.301 124.399ZM65.0204 125.773C65.0204 125.525 64.9844 125.299 64.9124 125.095C64.8444 124.887 64.7424 124.709 64.6064 124.561C64.4744 124.409 64.3124 124.293 64.1204 124.213C63.9284 124.129 63.7104 124.087 63.4664 124.087C62.9544 124.087 62.5484 124.237 62.2484 124.537C61.9524 124.833 61.7684 125.245 61.6964 125.773H65.0204ZM65.8844 128.623C65.7524 128.783 65.5944 128.923 65.4104 129.043C65.2264 129.159 65.0284 129.255 64.8164 129.331C64.6084 129.407 64.3924 129.463 64.1684 129.499C63.9444 129.539 63.7224 129.559 63.5024 129.559C63.0824 129.559 62.6944 129.489 62.3384 129.349C61.9864 129.205 61.6804 128.997 61.4204 128.725C61.1644 128.449 60.9644 128.109 60.8204 127.705C60.6764 127.301 60.6044 126.837 60.6044 126.313C60.6044 125.889 60.6684 125.493 60.7964 125.125C60.9284 124.757 61.1164 124.439 61.3604 124.171C61.6044 123.899 61.9024 123.687 62.2544 123.535C62.6064 123.379 63.0024 123.301 63.4424 123.301C63.8064 123.301 64.1424 123.363 64.4504 123.487C64.7624 123.607 65.0304 123.783 65.2544 124.015C65.4824 124.243 65.6604 124.527 65.7884 124.867C65.9164 125.203 65.9804 125.587 65.9804 126.019C65.9804 126.187 65.9624 126.299 65.9264 126.355C65.8904 126.411 65.8224 126.439 65.7224 126.439H61.6604C61.6724 126.823 61.7244 127.157 61.8164 127.441C61.9124 127.725 62.0444 127.963 62.2124 128.155C62.3804 128.343 62.5804 128.485 62.8124 128.581C63.0444 128.673 63.3044 128.719 63.5924 128.719C63.8604 128.719 64.0904 128.689 64.2824 128.629C64.4784 128.565 64.6464 128.497 64.7864 128.425C64.9264 128.353 65.0424 128.287 65.1344 128.227C65.2304 128.163 65.3124 128.131 65.3804 128.131C65.4684 128.131 65.5364 128.165 65.5844 128.233L65.8844 128.623ZM68.3063 124.615C68.4983 124.199 68.7343 123.875 69.0143 123.643C69.2943 123.407 69.6363 123.289 70.0403 123.289C70.1683 123.289 70.2903 123.303 70.4063 123.331C70.5263 123.359 70.6323 123.403 70.7243 123.463L70.6463 124.261C70.6223 124.361 70.5623 124.411 70.4663 124.411C70.4103 124.411 70.3283 124.399 70.2203 124.375C70.1123 124.351 69.9903 124.339 69.8543 124.339C69.6623 124.339 69.4903 124.367 69.3383 124.423C69.1903 124.479 69.0563 124.563 68.9363 124.675C68.8203 124.783 68.7143 124.919 68.6183 125.083C68.5263 125.243 68.4423 125.427 68.3663 125.635V129.475H67.2923V123.397H67.9043C68.0203 123.397 68.1003 123.419 68.1443 123.463C68.1883 123.507 68.2183 123.583 68.2343 123.691L68.3063 124.615ZM75.4853 125.773C75.4853 125.525 75.4493 125.299 75.3773 125.095C75.3093 124.887 75.2073 124.709 75.0713 124.561C74.9393 124.409 74.7773 124.293 74.5853 124.213C74.3933 124.129 74.1753 124.087 73.9313 124.087C73.4193 124.087 73.0133 124.237 72.7133 124.537C72.4173 124.833 72.2333 125.245 72.1613 125.773H75.4853ZM76.3493 128.623C76.2173 128.783 76.0593 128.923 75.8753 129.043C75.6913 129.159 75.4933 129.255 75.2813 129.331C75.0733 129.407 74.8573 129.463 74.6333 129.499C74.4093 129.539 74.1873 129.559 73.9673 129.559C73.5473 129.559 73.1593 129.489 72.8033 129.349C72.4513 129.205 72.1453 128.997 71.8853 128.725C71.6293 128.449 71.4293 128.109 71.2853 127.705C71.1413 127.301 71.0693 126.837 71.0693 126.313C71.0693 125.889 71.1333 125.493 71.2613 125.125C71.3933 124.757 71.5813 124.439 71.8253 124.171C72.0693 123.899 72.3673 123.687 72.7193 123.535C73.0713 123.379 73.4673 123.301 73.9073 123.301C74.2713 123.301 74.6073 123.363 74.9153 123.487C75.2273 123.607 75.4953 123.783 75.7193 124.015C75.9473 124.243 76.1253 124.527 76.2533 124.867C76.3813 125.203 76.4453 125.587 76.4453 126.019C76.4453 126.187 76.4273 126.299 76.3913 126.355C76.3553 126.411 76.2873 126.439 76.1873 126.439H72.1253C72.1373 126.823 72.1893 127.157 72.2813 127.441C72.3773 127.725 72.5093 127.963 72.6773 128.155C72.8453 128.343 73.0453 128.485 73.2773 128.581C73.5093 128.673 73.7693 128.719 74.0573 128.719C74.3253 128.719 74.5553 128.689 74.7473 128.629C74.9433 128.565 75.1113 128.497 75.2513 128.425C75.3913 128.353 75.5073 128.287 75.5993 128.227C75.6953 128.163 75.7773 128.131 75.8453 128.131C75.9333 128.131 76.0013 128.165 76.0493 128.233L76.3493 128.623ZM82.6671 129.475H81.6411C81.5531 129.475 81.4831 129.453 81.4311 129.409C81.3831 129.361 81.3431 129.309 81.3111 129.253L79.7811 126.871C79.7651 126.927 79.7471 126.983 79.7271 127.039C79.7111 127.091 79.6871 127.139 79.6551 127.183L78.2391 129.253C78.1991 129.309 78.1551 129.361 78.1071 129.409C78.0631 129.453 78.0011 129.475 77.9211 129.475H76.9671L79.0971 126.355L77.0511 123.397H78.0771C78.1651 123.397 78.2291 123.411 78.2691 123.439C78.3091 123.467 78.3451 123.507 78.3771 123.559L79.8711 125.839C79.9031 125.723 79.9531 125.611 80.0211 125.503L81.3291 123.583C81.3651 123.527 81.4031 123.483 81.4431 123.451C81.4871 123.415 81.5391 123.397 81.5991 123.397H82.5831L80.5371 126.301L82.6671 129.475ZM84.7257 128.011C84.9217 128.275 85.1357 128.461 85.3677 128.569C85.5997 128.677 85.8597 128.731 86.1477 128.731C86.7157 128.731 87.1517 128.529 87.4557 128.125C87.7597 127.721 87.9117 127.145 87.9117 126.397C87.9117 126.001 87.8757 125.661 87.8037 125.377C87.7357 125.093 87.6357 124.861 87.5037 124.681C87.3717 124.497 87.2097 124.363 87.0177 124.279C86.8257 124.195 86.6077 124.153 86.3637 124.153C86.0157 124.153 85.7097 124.233 85.4457 124.393C85.1857 124.553 84.9457 124.779 84.7257 125.071V128.011ZM84.6717 124.339C84.9277 124.023 85.2237 123.769 85.5597 123.577C85.8957 123.385 86.2797 123.289 86.7117 123.289C87.0637 123.289 87.3817 123.357 87.6657 123.493C87.9497 123.625 88.1917 123.823 88.3917 124.087C88.5917 124.347 88.7457 124.671 88.8537 125.059C88.9617 125.447 89.0157 125.893 89.0157 126.397C89.0157 126.845 88.9557 127.263 88.8357 127.651C88.7157 128.035 88.5417 128.369 88.3137 128.653C88.0897 128.933 87.8137 129.155 87.4857 129.319C87.1617 129.479 86.7957 129.559 86.3877 129.559C86.0157 129.559 85.6957 129.497 85.4277 129.373C85.1637 129.245 84.9297 129.069 84.7257 128.845V131.533H83.6517V123.397H84.2937C84.4457 123.397 84.5397 123.471 84.5757 123.619L84.6717 124.339ZM94.4462 125.773C94.4462 125.525 94.4102 125.299 94.3382 125.095C94.2702 124.887 94.1682 124.709 94.0322 124.561C93.9002 124.409 93.7382 124.293 93.5462 124.213C93.3542 124.129 93.1362 124.087 92.8922 124.087C92.3802 124.087 91.9742 124.237 91.6742 124.537C91.3782 124.833 91.1942 125.245 91.1222 125.773H94.4462ZM95.3102 128.623C95.1782 128.783 95.0202 128.923 94.8362 129.043C94.6522 129.159 94.4542 129.255 94.2422 129.331C94.0342 129.407 93.8182 129.463 93.5942 129.499C93.3702 129.539 93.1482 129.559 92.9282 129.559C92.5082 129.559 92.1202 129.489 91.7642 129.349C91.4122 129.205 91.1062 128.997 90.8462 128.725C90.5902 128.449 90.3902 128.109 90.2462 127.705C90.1022 127.301 90.0302 126.837 90.0302 126.313C90.0302 125.889 90.0942 125.493 90.2222 125.125C90.3542 124.757 90.5422 124.439 90.7862 124.171C91.0302 123.899 91.3282 123.687 91.6802 123.535C92.0322 123.379 92.4282 123.301 92.8682 123.301C93.2322 123.301 93.5682 123.363 93.8762 123.487C94.1882 123.607 94.4562 123.783 94.6802 124.015C94.9082 124.243 95.0862 124.527 95.2142 124.867C95.3422 125.203 95.4062 125.587 95.4062 126.019C95.4062 126.187 95.3882 126.299 95.3522 126.355C95.3162 126.411 95.2482 126.439 95.1482 126.439H91.0862C91.0982 126.823 91.1502 127.157 91.2422 127.441C91.3382 127.725 91.4702 127.963 91.6382 128.155C91.8062 128.343 92.0062 128.485 92.2382 128.581C92.4702 128.673 92.7302 128.719 93.0182 128.719C93.2862 128.719 93.5162 128.689 93.7082 128.629C93.9042 128.565 94.0722 128.497 94.2122 128.425C94.3522 128.353 94.4682 128.287 94.5602 128.227C94.6562 128.163 94.7382 128.131 94.8062 128.131C94.8942 128.131 94.9622 128.165 95.0102 128.233L95.3102 128.623ZM97.7321 124.615C97.9241 124.199 98.1601 123.875 98.4401 123.643C98.7201 123.407 99.0621 123.289 99.4661 123.289C99.5941 123.289 99.7161 123.303 99.8321 123.331C99.9521 123.359 100.058 123.403 100.15 123.463L100.072 124.261C100.048 124.361 99.9881 124.411 99.8921 124.411C99.8361 124.411 99.7541 124.399 99.6461 124.375C99.5381 124.351 99.4161 124.339 99.2801 124.339C99.0881 124.339 98.9161 124.367 98.7641 124.423C98.6161 124.479 98.4821 124.563 98.3621 124.675C98.2461 124.783 98.1401 124.919 98.0441 125.083C97.9521 125.243 97.8681 125.427 97.7921 125.635V129.475H96.7181V123.397H97.3301C97.4461 123.397 97.5261 123.419 97.5701 123.463C97.6141 123.507 97.6441 123.583 97.6601 123.691L97.7321 124.615ZM102.217 123.397V129.475H101.149V123.397H102.217ZM102.445 121.489C102.445 121.593 102.423 121.691 102.379 121.783C102.339 121.871 102.283 121.951 102.211 122.023C102.143 122.091 102.061 122.145 101.965 122.185C101.873 122.225 101.775 122.245 101.671 122.245C101.567 122.245 101.469 122.225 101.377 122.185C101.289 122.145 101.211 122.091 101.143 122.023C101.075 121.951 101.021 121.871 100.981 121.783C100.941 121.691 100.921 121.593 100.921 121.489C100.921 121.385 100.941 121.287 100.981 121.195C101.021 121.099 101.075 121.017 101.143 120.949C101.211 120.877 101.289 120.821 101.377 120.781C101.469 120.741 101.567 120.721 101.671 120.721C101.775 120.721 101.873 120.741 101.965 120.781C102.061 120.821 102.143 120.877 102.211 120.949C102.283 121.017 102.339 121.099 102.379 121.195C102.423 121.287 102.445 121.385 102.445 121.489ZM108.04 125.773C108.04 125.525 108.004 125.299 107.932 125.095C107.864 124.887 107.762 124.709 107.626 124.561C107.494 124.409 107.332 124.293 107.14 124.213C106.948 124.129 106.73 124.087 106.486 124.087C105.974 124.087 105.568 124.237 105.268 124.537C104.972 124.833 104.788 125.245 104.716 125.773H108.04ZM108.904 128.623C108.772 128.783 108.614 128.923 108.43 129.043C108.246 129.159 108.048 129.255 107.836 129.331C107.628 129.407 107.412 129.463 107.188 129.499C106.964 129.539 106.742 129.559 106.522 129.559C106.102 129.559 105.714 129.489 105.358 129.349C105.006 129.205 104.7 128.997 104.44 128.725C104.184 128.449 103.984 128.109 103.84 127.705C103.696 127.301 103.624 126.837 103.624 126.313C103.624 125.889 103.688 125.493 103.816 125.125C103.948 124.757 104.136 124.439 104.38 124.171C104.624 123.899 104.922 123.687 105.274 123.535C105.626 123.379 106.022 123.301 106.462 123.301C106.826 123.301 107.162 123.363 107.47 123.487C107.782 123.607 108.05 123.783 108.274 124.015C108.502 124.243 108.68 124.527 108.808 124.867C108.936 125.203 109 125.587 109 126.019C109 126.187 108.982 126.299 108.946 126.355C108.91 126.411 108.842 126.439 108.742 126.439H104.68C104.692 126.823 104.744 127.157 104.836 127.441C104.932 127.725 105.064 127.963 105.232 128.155C105.4 128.343 105.6 128.485 105.832 128.581C106.064 128.673 106.324 128.719 106.612 128.719C106.88 128.719 107.11 128.689 107.302 128.629C107.498 128.565 107.666 128.497 107.806 128.425C107.946 128.353 108.062 128.287 108.154 128.227C108.25 128.163 108.332 128.131 108.4 128.131C108.488 128.131 108.556 128.165 108.604 128.233L108.904 128.623ZM111.32 124.279C111.452 124.131 111.592 123.997 111.74 123.877C111.888 123.757 112.044 123.655 112.208 123.571C112.376 123.483 112.552 123.417 112.736 123.373C112.924 123.325 113.126 123.301 113.342 123.301C113.674 123.301 113.966 123.357 114.218 123.469C114.474 123.577 114.686 123.733 114.854 123.937C115.026 124.137 115.156 124.379 115.244 124.663C115.332 124.947 115.376 125.261 115.376 125.605V129.475H114.302V125.605C114.302 125.145 114.196 124.789 113.984 124.537C113.776 124.281 113.458 124.153 113.03 124.153C112.714 124.153 112.418 124.229 112.142 124.381C111.87 124.533 111.618 124.739 111.386 124.999V129.475H110.312V123.397H110.954C111.106 123.397 111.2 123.471 111.236 123.619L111.32 124.279ZM121.233 124.477C121.201 124.521 121.169 124.555 121.137 124.579C121.105 124.603 121.061 124.615 121.005 124.615C120.945 124.615 120.879 124.591 120.807 124.543C120.735 124.491 120.645 124.435 120.537 124.375C120.433 124.315 120.303 124.261 120.147 124.213C119.995 124.161 119.807 124.135 119.583 124.135C119.283 124.135 119.019 124.189 118.791 124.297C118.563 124.401 118.371 124.553 118.215 124.753C118.063 124.953 117.947 125.195 117.867 125.479C117.791 125.763 117.753 126.081 117.753 126.433C117.753 126.801 117.795 127.129 117.879 127.417C117.963 127.701 118.081 127.941 118.233 128.137C118.389 128.329 118.575 128.477 118.791 128.581C119.011 128.681 119.257 128.731 119.529 128.731C119.789 128.731 120.003 128.701 120.171 128.641C120.339 128.577 120.477 128.507 120.585 128.431C120.697 128.355 120.789 128.287 120.861 128.227C120.937 128.163 121.011 128.131 121.083 128.131C121.171 128.131 121.239 128.165 121.287 128.233L121.587 128.623C121.455 128.787 121.305 128.927 121.137 129.043C120.969 129.159 120.787 129.257 120.591 129.337C120.399 129.413 120.197 129.469 119.985 129.505C119.773 129.541 119.557 129.559 119.337 129.559C118.957 129.559 118.603 129.489 118.275 129.349C117.951 129.209 117.669 129.007 117.429 128.743C117.189 128.475 117.001 128.147 116.865 127.759C116.729 127.371 116.661 126.929 116.661 126.433C116.661 125.981 116.723 125.563 116.847 125.179C116.975 124.795 117.159 124.465 117.399 124.189C117.643 123.909 117.941 123.691 118.293 123.535C118.649 123.379 119.057 123.301 119.517 123.301C119.945 123.301 120.321 123.371 120.645 123.511C120.973 123.647 121.263 123.841 121.515 124.093L121.233 124.477ZM126.696 125.773C126.696 125.525 126.66 125.299 126.588 125.095C126.52 124.887 126.418 124.709 126.282 124.561C126.15 124.409 125.988 124.293 125.796 124.213C125.604 124.129 125.386 124.087 125.142 124.087C124.63 124.087 124.224 124.237 123.924 124.537C123.628 124.833 123.444 125.245 123.372 125.773H126.696ZM127.56 128.623C127.428 128.783 127.27 128.923 127.086 129.043C126.902 129.159 126.704 129.255 126.492 129.331C126.284 129.407 126.068 129.463 125.844 129.499C125.62 129.539 125.398 129.559 125.178 129.559C124.758 129.559 124.37 129.489 124.014 129.349C123.662 129.205 123.356 128.997 123.096 128.725C122.84 128.449 122.64 128.109 122.496 127.705C122.352 127.301 122.28 126.837 122.28 126.313C122.28 125.889 122.344 125.493 122.472 125.125C122.604 124.757 122.792 124.439 123.036 124.171C123.28 123.899 123.578 123.687 123.93 123.535C124.282 123.379 124.678 123.301 125.118 123.301C125.482 123.301 125.818 123.363 126.126 123.487C126.438 123.607 126.706 123.783 126.93 124.015C127.158 124.243 127.336 124.527 127.464 124.867C127.592 125.203 127.656 125.587 127.656 126.019C127.656 126.187 127.638 126.299 127.602 126.355C127.566 126.411 127.498 126.439 127.398 126.439H123.336C123.348 126.823 123.4 127.157 123.492 127.441C123.588 127.725 123.72 127.963 123.888 128.155C124.056 128.343 124.256 128.485 124.488 128.581C124.72 128.673 124.98 128.719 125.268 128.719C125.536 128.719 125.766 128.689 125.958 128.629C126.154 128.565 126.322 128.497 126.462 128.425C126.602 128.353 126.718 128.287 126.81 128.227C126.906 128.163 126.988 128.131 127.056 128.131C127.144 128.131 127.212 128.165 127.26 128.233L127.56 128.623Z" fill="white"/>
<rect x="156.255" y="113.509" width="45.0552" height="22.7019" rx="4" fill="#FDB491"/>
<rect x="156.255" y="113.509" width="45.0552" height="22.7019" rx="4" fill="url(#paint3_linear_108_498)"/>
<path d="M172.139 124.195H170.657L170.267 126.151H171.749L172.139 124.195ZM174.407 123.409L174.329 123.859C174.309 123.975 174.261 124.061 174.185 124.117C174.113 124.169 174.001 124.195 173.849 124.195H173.021L172.631 126.151H173.705C173.821 126.151 173.903 126.185 173.951 126.253C174.003 126.317 174.017 126.431 173.993 126.595L173.939 126.937H172.517L172.013 129.475H171.527C171.475 129.475 171.427 129.463 171.383 129.439C171.339 129.415 171.301 129.383 171.269 129.343C171.241 129.303 171.221 129.255 171.209 129.199C171.197 129.143 171.197 129.081 171.209 129.013L171.635 126.937H170.153L169.727 129.067C169.703 129.215 169.645 129.321 169.553 129.385C169.461 129.445 169.357 129.475 169.241 129.475H168.761L169.271 126.937H168.395C168.283 126.937 168.201 126.905 168.149 126.841C168.101 126.773 168.089 126.657 168.113 126.493L168.161 126.151H169.385L169.775 124.195H168.383L168.461 123.751C168.481 123.635 168.527 123.549 168.599 123.493C168.675 123.437 168.789 123.409 168.941 123.409H169.889L170.321 121.261C170.345 121.141 170.399 121.047 170.483 120.979C170.571 120.911 170.675 120.877 170.795 120.877H171.275L170.771 123.409H172.253L172.757 120.877H173.231C173.347 120.877 173.437 120.915 173.501 120.991C173.569 121.067 173.593 121.163 173.573 121.279L173.135 123.409H174.407ZM180.564 123.397V129.475H179.928C179.776 129.475 179.68 129.401 179.64 129.253L179.556 128.599C179.292 128.891 178.996 129.127 178.668 129.307C178.34 129.483 177.964 129.571 177.54 129.571C177.208 129.571 176.914 129.517 176.658 129.409C176.406 129.297 176.194 129.141 176.022 128.941C175.85 128.741 175.72 128.499 175.632 128.215C175.548 127.931 175.506 127.617 175.506 127.273V123.397H176.574V127.273C176.574 127.733 176.678 128.089 176.886 128.341C177.098 128.593 177.42 128.719 177.852 128.719C178.168 128.719 178.462 128.645 178.734 128.497C179.01 128.345 179.264 128.137 179.496 127.873V123.397H180.564ZM187.249 129.475H186.223C186.135 129.475 186.065 129.453 186.013 129.409C185.965 129.361 185.925 129.309 185.893 129.253L184.363 126.871C184.347 126.927 184.329 126.983 184.309 127.039C184.293 127.091 184.269 127.139 184.237 127.183L182.821 129.253C182.781 129.309 182.737 129.361 182.689 129.409C182.645 129.453 182.583 129.475 182.503 129.475H181.549L183.679 126.355L181.633 123.397H182.659C182.747 123.397 182.811 123.411 182.851 123.439C182.891 123.467 182.927 123.507 182.959 123.559L184.453 125.839C184.485 125.723 184.535 125.611 184.603 125.503L185.911 123.583C185.947 123.527 185.985 123.483 186.025 123.451C186.069 123.415 186.121 123.397 186.181 123.397H187.165L185.119 126.301L187.249 129.475Z" fill="white"/>
<rect x="28.7588" y="143.306" width="41.2207" height="22.7019" rx="4" fill="#FDB491"/>
<rect x="28.7588" y="143.306" width="41.2207" height="22.7019" rx="4" fill="url(#paint4_linear_108_498)"/>
<path d="M44.6427 153.992H43.1607L42.7707 155.948H44.2527L44.6427 153.992ZM46.9107 153.206L46.8327 153.656C46.8127 153.772 46.7647 153.858 46.6887 153.914C46.6167 153.966 46.5047 153.992 46.3527 153.992H45.5247L45.1347 155.948H46.2087C46.3247 155.948 46.4067 155.982 46.4547 156.05C46.5067 156.114 46.5207 156.228 46.4967 156.392L46.4427 156.734H45.0207L44.5167 159.272H44.0307C43.9787 159.272 43.9307 159.26 43.8867 159.236C43.8427 159.212 43.8047 159.18 43.7727 159.14C43.7447 159.1 43.7247 159.052 43.7127 158.996C43.7007 158.94 43.7007 158.878 43.7127 158.81L44.1387 156.734H42.6567L42.2307 158.864C42.2067 159.012 42.1487 159.118 42.0567 159.182C41.9647 159.242 41.8607 159.272 41.7447 159.272H41.2647L41.7747 156.734H40.8987C40.7867 156.734 40.7047 156.702 40.6527 156.638C40.6047 156.57 40.5927 156.454 40.6167 156.29L40.6647 155.948H41.8887L42.2787 153.992H40.8867L40.9647 153.548C40.9847 153.432 41.0307 153.346 41.1027 153.29C41.1787 153.234 41.2927 153.206 41.4447 153.206H42.3927L42.8247 151.058C42.8487 150.938 42.9027 150.844 42.9867 150.776C43.0747 150.708 43.1787 150.674 43.2987 150.674H43.7787L43.2747 153.206H44.7567L45.2607 150.674H45.7347C45.8507 150.674 45.9407 150.712 46.0047 150.788C46.0727 150.864 46.0967 150.96 46.0767 151.076L45.6387 153.206H46.9107ZM53.0676 153.194V159.272H52.4316C52.2796 159.272 52.1836 159.198 52.1436 159.05L52.0596 158.396C51.7956 158.688 51.4996 158.924 51.1716 159.104C50.8436 159.28 50.4676 159.368 50.0436 159.368C49.7116 159.368 49.4176 159.314 49.1616 159.206C48.9096 159.094 48.6976 158.938 48.5256 158.738C48.3536 158.538 48.2236 158.296 48.1356 158.012C48.0516 157.728 48.0096 157.414 48.0096 157.07V153.194H49.0776V157.07C49.0776 157.53 49.1816 157.886 49.3896 158.138C49.6016 158.39 49.9236 158.516 50.3556 158.516C50.6716 158.516 50.9656 158.442 51.2376 158.294C51.5136 158.142 51.7676 157.934 51.9996 157.67V153.194H53.0676ZM55.889 153.194V159.272H54.821V153.194H55.889ZM56.117 151.286C56.117 151.39 56.095 151.488 56.051 151.58C56.011 151.668 55.955 151.748 55.883 151.82C55.815 151.888 55.733 151.942 55.637 151.982C55.545 152.022 55.447 152.042 55.343 152.042C55.239 152.042 55.141 152.022 55.049 151.982C54.961 151.942 54.883 151.888 54.815 151.82C54.747 151.748 54.693 151.668 54.653 151.58C54.613 151.488 54.593 151.39 54.593 151.286C54.593 151.182 54.613 151.084 54.653 150.992C54.693 150.896 54.747 150.814 54.815 150.746C54.883 150.674 54.961 150.618 55.049 150.578C55.141 150.538 55.239 150.518 55.343 150.518C55.447 150.518 55.545 150.538 55.637 150.578C55.733 150.618 55.815 150.674 55.883 150.746C55.955 150.814 56.011 150.896 56.051 150.992C56.095 151.084 56.117 151.182 56.117 151.286Z" fill="white"/>
<rect x="79.5654" y="143.306" width="83.4" height="22.7019" rx="4" fill="#FDB491"/>
<rect x="79.5654" y="143.306" width="83.4" height="22.7019" rx="4" fill="url(#paint5_linear_108_498)"/>
<path d="M95.4493 153.992H93.9673L93.5773 155.948H95.0593L95.4493 153.992ZM97.7173 153.206L97.6393 153.656C97.6193 153.772 97.5713 153.858 97.4953 153.914C97.4233 153.966 97.3113 153.992 97.1593 153.992H96.3313L95.9413 155.948H97.0153C97.1313 155.948 97.2133 155.982 97.2613 156.05C97.3133 156.114 97.3273 156.228 97.3033 156.392L97.2493 156.734H95.8273L95.3233 159.272H94.8373C94.7853 159.272 94.7373 159.26 94.6933 159.236C94.6493 159.212 94.6113 159.18 94.5793 159.14C94.5513 159.1 94.5313 159.052 94.5193 158.996C94.5073 158.94 94.5073 158.878 94.5193 158.81L94.9453 156.734H93.4633L93.0373 158.864C93.0133 159.012 92.9553 159.118 92.8633 159.182C92.7713 159.242 92.6673 159.272 92.5513 159.272H92.0713L92.5813 156.734H91.7053C91.5933 156.734 91.5113 156.702 91.4593 156.638C91.4113 156.57 91.3993 156.454 91.4233 156.29L91.4713 155.948H92.6953L93.0853 153.992H91.6933L91.7713 153.548C91.7913 153.432 91.8373 153.346 91.9093 153.29C91.9853 153.234 92.0993 153.206 92.2513 153.206H93.1993L93.6313 151.058C93.6553 150.938 93.7093 150.844 93.7933 150.776C93.8813 150.708 93.9853 150.674 94.1053 150.674H94.5853L94.0813 153.206H95.5633L96.0673 150.674H96.5413C96.6573 150.674 96.7473 150.712 96.8113 150.788C96.8793 150.864 96.9033 150.96 96.8833 151.076L96.4453 153.206H97.7173ZM99.2723 159.272V154.106L98.6003 154.028C98.5163 154.008 98.4463 153.978 98.3903 153.938C98.3383 153.894 98.3123 153.832 98.3123 153.752V153.314H99.2723V152.726C99.2723 152.378 99.3203 152.07 99.4163 151.802C99.5163 151.53 99.6563 151.302 99.8363 151.118C100.02 150.93 100.24 150.788 100.496 150.692C100.752 150.596 101.04 150.548 101.36 150.548C101.632 150.548 101.882 150.588 102.11 150.668L102.086 151.202C102.078 151.298 102.024 151.35 101.924 151.358C101.828 151.366 101.698 151.37 101.534 151.37C101.35 151.37 101.182 151.394 101.03 151.442C100.882 151.49 100.754 151.568 100.646 151.676C100.538 151.784 100.454 151.926 100.394 152.102C100.338 152.278 100.31 152.496 100.31 152.756V153.314H102.062V154.088H100.346V159.272H99.2723ZM104.097 154.412C104.289 153.996 104.525 153.672 104.805 153.44C105.085 153.204 105.427 153.086 105.831 153.086C105.959 153.086 106.081 153.1 106.197 153.128C106.317 153.156 106.423 153.2 106.515 153.26L106.437 154.058C106.413 154.158 106.353 154.208 106.257 154.208C106.201 154.208 106.119 154.196 106.011 154.172C105.903 154.148 105.781 154.136 105.645 154.136C105.453 154.136 105.281 154.164 105.129 154.22C104.981 154.276 104.847 154.36 104.727 154.472C104.611 154.58 104.505 154.716 104.409 154.88C104.317 155.04 104.233 155.224 104.157 155.432V159.272H103.083V153.194H103.695C103.811 153.194 103.891 153.216 103.935 153.26C103.979 153.304 104.009 153.38 104.025 153.488L104.097 154.412ZM111.276 155.57C111.276 155.322 111.24 155.096 111.168 154.892C111.1 154.684 110.998 154.506 110.862 154.358C110.73 154.206 110.568 154.09 110.376 154.01C110.184 153.926 109.966 153.884 109.722 153.884C109.21 153.884 108.804 154.034 108.504 154.334C108.208 154.63 108.024 155.042 107.952 155.57H111.276ZM112.14 158.42C112.008 158.58 111.85 158.72 111.666 158.84C111.482 158.956 111.284 159.052 111.072 159.128C110.864 159.204 110.648 159.26 110.424 159.296C110.2 159.336 109.978 159.356 109.758 159.356C109.338 159.356 108.95 159.286 108.594 159.146C108.242 159.002 107.936 158.794 107.676 158.522C107.42 158.246 107.22 157.906 107.076 157.502C106.932 157.098 106.86 156.634 106.86 156.11C106.86 155.686 106.924 155.29 107.052 154.922C107.184 154.554 107.372 154.236 107.616 153.968C107.86 153.696 108.158 153.484 108.51 153.332C108.862 153.176 109.258 153.098 109.698 153.098C110.062 153.098 110.398 153.16 110.706 153.284C111.018 153.404 111.286 153.58 111.51 153.812C111.738 154.04 111.916 154.324 112.044 154.664C112.172 155 112.236 155.384 112.236 155.816C112.236 155.984 112.218 156.096 112.182 156.152C112.146 156.208 112.078 156.236 111.978 156.236H107.916C107.928 156.62 107.98 156.954 108.072 157.238C108.168 157.522 108.3 157.76 108.468 157.952C108.636 158.14 108.836 158.282 109.068 158.378C109.3 158.47 109.56 158.516 109.848 158.516C110.116 158.516 110.346 158.486 110.538 158.426C110.734 158.362 110.902 158.294 111.042 158.222C111.182 158.15 111.298 158.084 111.39 158.024C111.486 157.96 111.568 157.928 111.636 157.928C111.724 157.928 111.792 157.962 111.84 158.03L112.14 158.42ZM117.616 155.57C117.616 155.322 117.58 155.096 117.508 154.892C117.44 154.684 117.338 154.506 117.202 154.358C117.07 154.206 116.908 154.09 116.716 154.01C116.524 153.926 116.306 153.884 116.062 153.884C115.55 153.884 115.144 154.034 114.844 154.334C114.548 154.63 114.364 155.042 114.292 155.57H117.616ZM118.48 158.42C118.348 158.58 118.19 158.72 118.006 158.84C117.822 158.956 117.624 159.052 117.412 159.128C117.204 159.204 116.988 159.26 116.764 159.296C116.54 159.336 116.318 159.356 116.098 159.356C115.678 159.356 115.29 159.286 114.934 159.146C114.582 159.002 114.276 158.794 114.016 158.522C113.76 158.246 113.56 157.906 113.416 157.502C113.272 157.098 113.2 156.634 113.2 156.11C113.2 155.686 113.264 155.29 113.392 154.922C113.524 154.554 113.712 154.236 113.956 153.968C114.2 153.696 114.498 153.484 114.85 153.332C115.202 153.176 115.598 153.098 116.038 153.098C116.402 153.098 116.738 153.16 117.046 153.284C117.358 153.404 117.626 153.58 117.85 153.812C118.078 154.04 118.256 154.324 118.384 154.664C118.512 155 118.576 155.384 118.576 155.816C118.576 155.984 118.558 156.096 118.522 156.152C118.486 156.208 118.418 156.236 118.318 156.236H114.256C114.268 156.62 114.32 156.954 114.412 157.238C114.508 157.522 114.64 157.76 114.808 157.952C114.976 158.14 115.176 158.282 115.408 158.378C115.64 158.47 115.9 158.516 116.188 158.516C116.456 158.516 116.686 158.486 116.878 158.426C117.074 158.362 117.242 158.294 117.382 158.222C117.522 158.15 117.638 158.084 117.73 158.024C117.826 157.96 117.908 157.928 117.976 157.928C118.064 157.928 118.132 157.962 118.18 158.03L118.48 158.42ZM120.992 150.434V159.272H119.924V150.434H120.992ZM126.018 156.536C125.526 156.552 125.106 156.592 124.758 156.656C124.414 156.716 124.132 156.796 123.912 156.896C123.696 156.996 123.538 157.114 123.438 157.25C123.342 157.386 123.294 157.538 123.294 157.706C123.294 157.866 123.32 158.004 123.372 158.12C123.424 158.236 123.494 158.332 123.582 158.408C123.674 158.48 123.78 158.534 123.9 158.57C124.024 158.602 124.156 158.618 124.296 158.618C124.484 158.618 124.656 158.6 124.812 158.564C124.968 158.524 125.114 158.468 125.25 158.396C125.39 158.324 125.522 158.238 125.646 158.138C125.774 158.038 125.898 157.924 126.018 157.796V156.536ZM122.568 154.052C122.904 153.728 123.266 153.486 123.654 153.326C124.042 153.166 124.472 153.086 124.944 153.086C125.284 153.086 125.586 153.142 125.85 153.254C126.114 153.366 126.336 153.522 126.516 153.722C126.696 153.922 126.832 154.164 126.924 154.448C127.016 154.732 127.062 155.044 127.062 155.384V159.272H126.588C126.484 159.272 126.404 159.256 126.348 159.224C126.292 159.188 126.248 159.12 126.216 159.02L126.096 158.444C125.936 158.592 125.78 158.724 125.628 158.84C125.476 158.952 125.316 159.048 125.148 159.128C124.98 159.204 124.8 159.262 124.608 159.302C124.42 159.346 124.21 159.368 123.978 159.368C123.742 159.368 123.52 159.336 123.312 159.272C123.104 159.204 122.922 159.104 122.766 158.972C122.614 158.84 122.492 158.674 122.4 158.474C122.312 158.27 122.268 158.03 122.268 157.754C122.268 157.514 122.334 157.284 122.466 157.064C122.598 156.84 122.812 156.642 123.108 156.47C123.404 156.298 123.79 156.158 124.266 156.05C124.742 155.938 125.326 155.874 126.018 155.858V155.384C126.018 154.912 125.916 154.556 125.712 154.316C125.508 154.072 125.21 153.95 124.818 153.95C124.554 153.95 124.332 153.984 124.152 154.052C123.976 154.116 123.822 154.19 123.69 154.274C123.562 154.354 123.45 154.428 123.354 154.496C123.262 154.56 123.17 154.592 123.078 154.592C123.006 154.592 122.944 154.574 122.892 154.538C122.84 154.498 122.796 154.45 122.76 154.394L122.568 154.052ZM129.697 154.076C129.829 153.928 129.969 153.794 130.117 153.674C130.265 153.554 130.421 153.452 130.585 153.368C130.753 153.28 130.929 153.214 131.113 153.17C131.301 153.122 131.503 153.098 131.719 153.098C132.051 153.098 132.343 153.154 132.595 153.266C132.851 153.374 133.063 153.53 133.231 153.734C133.403 153.934 133.533 154.176 133.621 154.46C133.709 154.744 133.753 155.058 133.753 155.402V159.272H132.679V155.402C132.679 154.942 132.573 154.586 132.361 154.334C132.153 154.078 131.835 153.95 131.407 153.95C131.091 153.95 130.795 154.026 130.519 154.178C130.247 154.33 129.995 154.536 129.763 154.796V159.272H128.689V153.194H129.331C129.483 153.194 129.577 153.268 129.613 153.416L129.697 154.076ZM139.61 154.274C139.578 154.318 139.546 154.352 139.514 154.376C139.482 154.4 139.438 154.412 139.382 154.412C139.322 154.412 139.256 154.388 139.184 154.34C139.112 154.288 139.022 154.232 138.914 154.172C138.81 154.112 138.68 154.058 138.524 154.01C138.372 153.958 138.184 153.932 137.96 153.932C137.66 153.932 137.396 153.986 137.168 154.094C136.94 154.198 136.748 154.35 136.592 154.55C136.44 154.75 136.324 154.992 136.244 155.276C136.168 155.56 136.13 155.878 136.13 156.23C136.13 156.598 136.172 156.926 136.256 157.214C136.34 157.498 136.458 157.738 136.61 157.934C136.766 158.126 136.952 158.274 137.168 158.378C137.388 158.478 137.634 158.528 137.906 158.528C138.166 158.528 138.38 158.498 138.548 158.438C138.716 158.374 138.854 158.304 138.962 158.228C139.074 158.152 139.166 158.084 139.238 158.024C139.314 157.96 139.388 157.928 139.46 157.928C139.548 157.928 139.616 157.962 139.664 158.03L139.964 158.42C139.832 158.584 139.682 158.724 139.514 158.84C139.346 158.956 139.164 159.054 138.968 159.134C138.776 159.21 138.574 159.266 138.362 159.302C138.15 159.338 137.934 159.356 137.714 159.356C137.334 159.356 136.98 159.286 136.652 159.146C136.328 159.006 136.046 158.804 135.806 158.54C135.566 158.272 135.378 157.944 135.242 157.556C135.106 157.168 135.038 156.726 135.038 156.23C135.038 155.778 135.1 155.36 135.224 154.976C135.352 154.592 135.536 154.262 135.776 153.986C136.02 153.706 136.318 153.488 136.67 153.332C137.026 153.176 137.434 153.098 137.894 153.098C138.322 153.098 138.698 153.168 139.022 153.308C139.35 153.444 139.64 153.638 139.892 153.89L139.61 154.274ZM145.073 155.57C145.073 155.322 145.037 155.096 144.965 154.892C144.897 154.684 144.795 154.506 144.659 154.358C144.527 154.206 144.365 154.09 144.173 154.01C143.981 153.926 143.763 153.884 143.519 153.884C143.007 153.884 142.601 154.034 142.301 154.334C142.005 154.63 141.821 155.042 141.749 155.57H145.073ZM145.937 158.42C145.805 158.58 145.647 158.72 145.463 158.84C145.279 158.956 145.081 159.052 144.869 159.128C144.661 159.204 144.445 159.26 144.221 159.296C143.997 159.336 143.775 159.356 143.555 159.356C143.135 159.356 142.747 159.286 142.391 159.146C142.039 159.002 141.733 158.794 141.473 158.522C141.217 158.246 141.017 157.906 140.873 157.502C140.729 157.098 140.657 156.634 140.657 156.11C140.657 155.686 140.721 155.29 140.849 154.922C140.981 154.554 141.169 154.236 141.413 153.968C141.657 153.696 141.955 153.484 142.307 153.332C142.659 153.176 143.055 153.098 143.495 153.098C143.859 153.098 144.195 153.16 144.503 153.284C144.815 153.404 145.083 153.58 145.307 153.812C145.535 154.04 145.713 154.324 145.841 154.664C145.969 155 146.033 155.384 146.033 155.816C146.033 155.984 146.015 156.096 145.979 156.152C145.943 156.208 145.875 156.236 145.775 156.236H141.713C141.725 156.62 141.777 156.954 141.869 157.238C141.965 157.522 142.097 157.76 142.265 157.952C142.433 158.14 142.633 158.282 142.865 158.378C143.097 158.47 143.357 158.516 143.645 158.516C143.913 158.516 144.143 158.486 144.335 158.426C144.531 158.362 144.699 158.294 144.839 158.222C144.979 158.15 145.095 158.084 145.187 158.024C145.283 157.96 145.365 157.928 145.433 157.928C145.521 157.928 145.589 157.962 145.637 158.03L145.937 158.42Z" fill="white"/>
<rect x="144" y="84" width="67.1034" height="22.7019" rx="4" fill="#FDB491"/>
<rect x="144" y="84" width="67.1034" height="22.7019" rx="4" fill="url(#paint6_linear_108_498)"/>
<path d="M159.38 94.72H157.898L157.508 96.676H158.99L159.38 94.72ZM161.648 93.934L161.57 94.384C161.55 94.5 161.502 94.586 161.426 94.642C161.354 94.694 161.242 94.72 161.09 94.72H160.262L159.872 96.676H160.946C161.062 96.676 161.144 96.71 161.192 96.778C161.244 96.842 161.258 96.956 161.234 97.12L161.18 97.462H159.758L159.254 100H158.768C158.716 100 158.668 99.988 158.624 99.964C158.58 99.94 158.542 99.908 158.51 99.868C158.482 99.828 158.462 99.78 158.45 99.724C158.438 99.668 158.438 99.606 158.45 99.538L158.876 97.462H157.394L156.968 99.592C156.944 99.74 156.886 99.846 156.794 99.91C156.702 99.97 156.598 100 156.482 100H156.002L156.512 97.462H155.636C155.524 97.462 155.442 97.43 155.39 97.366C155.342 97.298 155.33 97.182 155.354 97.018L155.402 96.676H156.626L157.016 94.72H155.624L155.702 94.276C155.722 94.16 155.768 94.074 155.84 94.018C155.916 93.962 156.03 93.934 156.182 93.934H157.13L157.562 91.786C157.586 91.666 157.64 91.572 157.724 91.504C157.812 91.436 157.916 91.402 158.036 91.402H158.516L158.012 93.934H159.494L159.998 91.402H160.472C160.588 91.402 160.678 91.44 160.742 91.516C160.81 91.592 160.834 91.688 160.814 91.804L160.376 93.934H161.648ZM166.767 95.368C166.567 95.1 166.351 94.914 166.119 94.81C165.887 94.702 165.627 94.648 165.339 94.648C164.775 94.648 164.341 94.85 164.037 95.254C163.733 95.658 163.581 96.234 163.581 96.982C163.581 97.378 163.615 97.718 163.683 98.002C163.751 98.282 163.851 98.514 163.983 98.698C164.115 98.878 164.277 99.01 164.469 99.094C164.661 99.178 164.879 99.22 165.123 99.22C165.475 99.22 165.781 99.14 166.041 98.98C166.305 98.82 166.547 98.594 166.767 98.302V95.368ZM167.835 91.162V100H167.199C167.047 100 166.951 99.926 166.911 99.778L166.815 99.04C166.555 99.352 166.259 99.604 165.927 99.796C165.595 99.988 165.211 100.084 164.775 100.084C164.427 100.084 164.111 100.018 163.827 99.886C163.543 99.75 163.301 99.552 163.101 99.292C162.901 99.032 162.747 98.708 162.639 98.32C162.531 97.932 162.477 97.486 162.477 96.982C162.477 96.534 162.537 96.118 162.657 95.734C162.777 95.346 162.949 95.01 163.173 94.726C163.397 94.442 163.671 94.22 163.995 94.06C164.323 93.896 164.691 93.814 165.099 93.814C165.471 93.814 165.789 93.878 166.053 94.006C166.321 94.13 166.559 94.304 166.767 94.528V91.162H167.835ZM170.65 93.922V100H169.582V93.922H170.65ZM170.878 92.014C170.878 92.118 170.856 92.216 170.812 92.308C170.772 92.396 170.716 92.476 170.644 92.548C170.576 92.616 170.494 92.67 170.398 92.71C170.306 92.75 170.208 92.77 170.104 92.77C170 92.77 169.902 92.75 169.81 92.71C169.722 92.67 169.644 92.616 169.576 92.548C169.508 92.476 169.454 92.396 169.414 92.308C169.374 92.216 169.354 92.118 169.354 92.014C169.354 91.91 169.374 91.812 169.414 91.72C169.454 91.624 169.508 91.542 169.576 91.474C169.644 91.402 169.722 91.346 169.81 91.306C169.902 91.266 170 91.246 170.104 91.246C170.208 91.246 170.306 91.266 170.398 91.306C170.494 91.346 170.576 91.402 170.644 91.474C170.716 91.542 170.772 91.624 170.812 91.72C170.856 91.812 170.878 91.91 170.878 92.014ZM174.523 97.03C174.739 97.03 174.929 97 175.093 96.94C175.257 96.88 175.395 96.796 175.507 96.688C175.619 96.58 175.703 96.452 175.759 96.304C175.815 96.152 175.843 95.986 175.843 95.806C175.843 95.434 175.729 95.138 175.501 94.918C175.277 94.698 174.951 94.588 174.523 94.588C174.091 94.588 173.761 94.698 173.533 94.918C173.309 95.138 173.197 95.434 173.197 95.806C173.197 95.986 173.225 96.152 173.281 96.304C173.341 96.452 173.427 96.58 173.539 96.688C173.651 96.796 173.789 96.88 173.953 96.94C174.117 97 174.307 97.03 174.523 97.03ZM176.449 100.33C176.449 100.182 176.407 100.062 176.323 99.97C176.239 99.878 176.125 99.806 175.981 99.754C175.841 99.702 175.677 99.666 175.489 99.646C175.301 99.622 175.101 99.604 174.889 99.592C174.681 99.58 174.469 99.568 174.253 99.556C174.037 99.544 173.829 99.524 173.629 99.496C173.405 99.6 173.221 99.732 173.077 99.892C172.937 100.048 172.867 100.232 172.867 100.444C172.867 100.58 172.901 100.706 172.969 100.822C173.041 100.942 173.149 101.044 173.293 101.128C173.437 101.216 173.617 101.284 173.833 101.332C174.053 101.384 174.311 101.41 174.607 101.41C174.895 101.41 175.153 101.384 175.381 101.332C175.609 101.28 175.801 101.206 175.957 101.11C176.117 101.014 176.239 100.9 176.323 100.768C176.407 100.636 176.449 100.49 176.449 100.33ZM177.535 94.162V94.558C177.535 94.69 177.451 94.774 177.283 94.81L176.593 94.9C176.729 95.164 176.797 95.456 176.797 95.776C176.797 96.072 176.739 96.342 176.623 96.586C176.511 96.826 176.355 97.032 176.155 97.204C175.955 97.376 175.715 97.508 175.435 97.6C175.155 97.692 174.851 97.738 174.523 97.738C174.239 97.738 173.971 97.704 173.719 97.636C173.591 97.716 173.493 97.802 173.425 97.894C173.357 97.982 173.323 98.072 173.323 98.164C173.323 98.308 173.381 98.418 173.497 98.494C173.617 98.566 173.773 98.618 173.965 98.65C174.157 98.682 174.375 98.702 174.619 98.71C174.867 98.718 175.119 98.732 175.375 98.752C175.635 98.768 175.887 98.798 176.131 98.842C176.379 98.886 176.599 98.958 176.791 99.058C176.983 99.158 177.137 99.296 177.253 99.472C177.373 99.648 177.433 99.876 177.433 100.156C177.433 100.416 177.367 100.668 177.235 100.912C177.107 101.156 176.921 101.372 176.677 101.56C176.433 101.752 176.133 101.904 175.777 102.016C175.425 102.132 175.027 102.19 174.583 102.19C174.139 102.19 173.751 102.146 173.419 102.058C173.087 101.97 172.811 101.852 172.591 101.704C172.371 101.556 172.205 101.384 172.093 101.188C171.985 100.996 171.931 100.794 171.931 100.582C171.931 100.282 172.025 100.028 172.213 99.82C172.401 99.612 172.659 99.446 172.987 99.322C172.807 99.242 172.663 99.136 172.555 99.004C172.451 98.868 172.399 98.686 172.399 98.458C172.399 98.37 172.415 98.28 172.447 98.188C172.479 98.092 172.527 97.998 172.591 97.906C172.659 97.81 172.741 97.72 172.837 97.636C172.933 97.552 173.045 97.478 173.173 97.414C172.873 97.246 172.639 97.024 172.471 96.748C172.303 96.468 172.219 96.144 172.219 95.776C172.219 95.48 172.275 95.212 172.387 94.972C172.503 94.728 172.663 94.522 172.867 94.354C173.071 94.182 173.313 94.05 173.593 93.958C173.877 93.866 174.187 93.82 174.523 93.82C174.787 93.82 175.033 93.85 175.261 93.91C175.489 93.966 175.697 94.05 175.885 94.162H177.535ZM179.767 93.922V100H178.699V93.922H179.767ZM179.995 92.014C179.995 92.118 179.973 92.216 179.929 92.308C179.889 92.396 179.833 92.476 179.761 92.548C179.693 92.616 179.611 92.67 179.515 92.71C179.423 92.75 179.325 92.77 179.221 92.77C179.117 92.77 179.019 92.75 178.927 92.71C178.839 92.67 178.761 92.616 178.693 92.548C178.625 92.476 178.571 92.396 178.531 92.308C178.491 92.216 178.471 92.118 178.471 92.014C178.471 91.91 178.491 91.812 178.531 91.72C178.571 91.624 178.625 91.542 178.693 91.474C178.761 91.402 178.839 91.346 178.927 91.306C179.019 91.266 179.117 91.246 179.221 91.246C179.325 91.246 179.423 91.266 179.515 91.306C179.611 91.346 179.693 91.402 179.761 91.474C179.833 91.542 179.889 91.624 179.929 91.72C179.973 91.812 179.995 91.91 179.995 92.014ZM183.388 100.096C182.908 100.096 182.538 99.962 182.278 99.694C182.022 99.426 181.894 99.04 181.894 98.536V94.816H181.162C181.098 94.816 181.044 94.798 181 94.762C180.956 94.722 180.934 94.662 180.934 94.582V94.156L181.93 94.03L182.176 92.152C182.188 92.092 182.214 92.044 182.254 92.008C182.298 91.968 182.354 91.948 182.422 91.948H182.962V94.042H184.72V94.816H182.962V98.464C182.962 98.72 183.024 98.91 183.148 99.034C183.272 99.158 183.432 99.22 183.628 99.22C183.74 99.22 183.836 99.206 183.916 99.178C184 99.146 184.072 99.112 184.132 99.076C184.192 99.04 184.242 99.008 184.282 98.98C184.326 98.948 184.364 98.932 184.396 98.932C184.452 98.932 184.502 98.966 184.546 99.034L184.858 99.544C184.674 99.716 184.452 99.852 184.192 99.952C183.932 100.048 183.664 100.096 183.388 100.096ZM189.117 97.264C188.625 97.28 188.205 97.32 187.857 97.384C187.513 97.444 187.231 97.524 187.011 97.624C186.795 97.724 186.637 97.842 186.537 97.978C186.441 98.114 186.393 98.266 186.393 98.434C186.393 98.594 186.419 98.732 186.471 98.848C186.523 98.964 186.593 99.06 186.681 99.136C186.773 99.208 186.879 99.262 186.999 99.298C187.123 99.33 187.255 99.346 187.395 99.346C187.583 99.346 187.755 99.328 187.911 99.292C188.067 99.252 188.213 99.196 188.349 99.124C188.489 99.052 188.621 98.966 188.745 98.866C188.873 98.766 188.997 98.652 189.117 98.524V97.264ZM185.667 94.78C186.003 94.456 186.365 94.214 186.753 94.054C187.141 93.894 187.571 93.814 188.043 93.814C188.383 93.814 188.685 93.87 188.949 93.982C189.213 94.094 189.435 94.25 189.615 94.45C189.795 94.65 189.931 94.892 190.023 95.176C190.115 95.46 190.161 95.772 190.161 96.112V100H189.687C189.583 100 189.503 99.984 189.447 99.952C189.391 99.916 189.347 99.848 189.315 99.748L189.195 99.172C189.035 99.32 188.879 99.452 188.727 99.568C188.575 99.68 188.415 99.776 188.247 99.856C188.079 99.932 187.899 99.99 187.707 100.03C187.519 100.074 187.309 100.096 187.077 100.096C186.841 100.096 186.619 100.064 186.411 100C186.203 99.932 186.021 99.832 185.865 99.7C185.713 99.568 185.591 99.402 185.499 99.202C185.411 98.998 185.367 98.758 185.367 98.482C185.367 98.242 185.433 98.012 185.565 97.792C185.697 97.568 185.911 97.37 186.207 97.198C186.503 97.026 186.889 96.886 187.365 96.778C187.841 96.666 188.425 96.602 189.117 96.586V96.112C189.117 95.64 189.015 95.284 188.811 95.044C188.607 94.8 188.309 94.678 187.917 94.678C187.653 94.678 187.431 94.712 187.251 94.78C187.075 94.844 186.921 94.918 186.789 95.002C186.661 95.082 186.549 95.156 186.453 95.224C186.361 95.288 186.269 95.32 186.177 95.32C186.105 95.32 186.043 95.302 185.991 95.266C185.939 95.226 185.895 95.178 185.859 95.122L185.667 94.78ZM192.891 91.162V100H191.823V91.162H192.891Z" fill="white"/>
<rect x="100" y="54" width="80.5241" height="22.7019" rx="4" fill="#FDB491"/>
<rect x="100" y="54" width="80.5241" height="22.7019" rx="4" fill="url(#paint7_linear_108_498)"/>
<path d="M115.38 65.72H113.898L113.508 67.676H114.99L115.38 65.72ZM117.648 64.934L117.57 65.384C117.55 65.5 117.502 65.586 117.426 65.642C117.354 65.694 117.242 65.72 117.09 65.72H116.262L115.872 67.676H116.946C117.062 67.676 117.144 67.71 117.192 67.778C117.244 67.842 117.258 67.956 117.234 68.12L117.18 68.462H115.758L115.254 71H114.768C114.716 71 114.668 70.988 114.624 70.964C114.58 70.94 114.542 70.908 114.51 70.868C114.482 70.828 114.462 70.78 114.45 70.724C114.438 70.668 114.438 70.606 114.45 70.538L114.876 68.462H113.394L112.968 70.592C112.944 70.74 112.886 70.846 112.794 70.91C112.702 70.97 112.598 71 112.482 71H112.002L112.512 68.462H111.636C111.524 68.462 111.442 68.43 111.39 68.366C111.342 68.298 111.33 68.182 111.354 68.018L111.402 67.676H112.626L113.016 65.72H111.624L111.702 65.276C111.722 65.16 111.768 65.074 111.84 65.018C111.916 64.962 112.03 64.934 112.182 64.934H113.13L113.562 62.786C113.586 62.666 113.64 62.572 113.724 62.504C113.812 62.436 113.916 62.402 114.036 62.402H114.516L114.012 64.934H115.494L115.998 62.402H116.472C116.588 62.402 116.678 62.44 116.742 62.516C116.81 62.592 116.834 62.688 116.814 62.804L116.376 64.934H117.648ZM119.881 69.536C120.077 69.8 120.291 69.986 120.523 70.094C120.759 70.202 121.017 70.256 121.297 70.256C121.869 70.256 122.307 70.054 122.611 69.65C122.915 69.246 123.067 68.644 123.067 67.844C123.067 67.1 122.931 66.554 122.659 66.206C122.391 65.854 122.007 65.678 121.507 65.678C121.159 65.678 120.855 65.758 120.595 65.918C120.339 66.078 120.101 66.304 119.881 66.596V69.536ZM119.881 65.798C120.137 65.502 120.425 65.266 120.745 65.09C121.069 64.914 121.441 64.826 121.861 64.826C122.217 64.826 122.537 64.894 122.821 65.03C123.109 65.166 123.353 65.364 123.553 65.624C123.753 65.88 123.905 66.192 124.009 66.56C124.117 66.928 124.171 67.342 124.171 67.802C124.171 68.294 124.111 68.742 123.991 69.146C123.871 69.55 123.697 69.896 123.469 70.184C123.245 70.468 122.971 70.69 122.647 70.85C122.323 71.006 121.959 71.084 121.555 71.084C121.155 71.084 120.817 71.01 120.541 70.862C120.269 70.71 120.031 70.496 119.827 70.22L119.773 70.772C119.741 70.924 119.649 71 119.497 71H118.807V62.162H119.881V65.798ZM130.52 64.922V71H129.884C129.732 71 129.636 70.926 129.596 70.778L129.512 70.124C129.248 70.416 128.952 70.652 128.624 70.832C128.296 71.008 127.92 71.096 127.496 71.096C127.164 71.096 126.87 71.042 126.614 70.934C126.362 70.822 126.15 70.666 125.978 70.466C125.806 70.266 125.676 70.024 125.588 69.74C125.504 69.456 125.462 69.142 125.462 68.798V64.922H126.53V68.798C126.53 69.258 126.634 69.614 126.842 69.866C127.054 70.118 127.376 70.244 127.808 70.244C128.124 70.244 128.418 70.17 128.69 70.022C128.966 69.87 129.22 69.662 129.452 69.398V64.922H130.52ZM135.753 65.924C135.705 66.012 135.631 66.056 135.531 66.056C135.471 66.056 135.403 66.034 135.327 65.99C135.251 65.946 135.157 65.898 135.045 65.846C134.937 65.79 134.807 65.74 134.655 65.696C134.503 65.648 134.323 65.624 134.115 65.624C133.935 65.624 133.773 65.648 133.629 65.696C133.485 65.74 133.361 65.802 133.257 65.882C133.157 65.962 133.079 66.056 133.023 66.164C132.971 66.268 132.945 66.382 132.945 66.506C132.945 66.662 132.989 66.792 133.077 66.896C133.169 67 133.289 67.09 133.437 67.166C133.585 67.242 133.753 67.31 133.941 67.37C134.129 67.426 134.321 67.488 134.517 67.556C134.717 67.62 134.911 67.692 135.099 67.772C135.287 67.852 135.455 67.952 135.603 68.072C135.751 68.192 135.869 68.34 135.957 68.516C136.049 68.688 136.095 68.896 136.095 69.14C136.095 69.42 136.045 69.68 135.945 69.92C135.845 70.156 135.697 70.362 135.501 70.538C135.305 70.71 135.065 70.846 134.781 70.946C134.497 71.046 134.169 71.096 133.797 71.096C133.373 71.096 132.989 71.028 132.645 70.892C132.301 70.752 132.009 70.574 131.769 70.358L132.021 69.95C132.053 69.898 132.091 69.858 132.135 69.83C132.179 69.802 132.235 69.788 132.303 69.788C132.375 69.788 132.451 69.816 132.531 69.872C132.611 69.928 132.707 69.99 132.819 70.058C132.935 70.126 133.075 70.188 133.239 70.244C133.403 70.3 133.607 70.328 133.851 70.328C134.059 70.328 134.241 70.302 134.397 70.25C134.553 70.194 134.683 70.12 134.787 70.028C134.891 69.936 134.967 69.83 135.015 69.71C135.067 69.59 135.093 69.462 135.093 69.326C135.093 69.158 135.047 69.02 134.955 68.912C134.867 68.8 134.749 68.706 134.601 68.63C134.453 68.55 134.283 68.482 134.091 68.426C133.903 68.366 133.709 68.304 133.509 68.24C133.313 68.176 133.119 68.104 132.927 68.024C132.739 67.94 132.571 67.836 132.423 67.712C132.275 67.588 132.155 67.436 132.063 67.256C131.975 67.072 131.931 66.85 131.931 66.59C131.931 66.358 131.979 66.136 132.075 65.924C132.171 65.708 132.311 65.52 132.495 65.36C132.679 65.196 132.905 65.066 133.173 64.97C133.441 64.874 133.747 64.826 134.091 64.826C134.491 64.826 134.849 64.89 135.165 65.018C135.485 65.142 135.761 65.314 135.993 65.534L135.753 65.924ZM138.533 64.922V71H137.465V64.922H138.533ZM138.761 63.014C138.761 63.118 138.739 63.216 138.695 63.308C138.655 63.396 138.599 63.476 138.527 63.548C138.459 63.616 138.377 63.67 138.281 63.71C138.189 63.75 138.091 63.77 137.987 63.77C137.883 63.77 137.785 63.75 137.693 63.71C137.605 63.67 137.527 63.616 137.459 63.548C137.391 63.476 137.337 63.396 137.297 63.308C137.257 63.216 137.237 63.118 137.237 63.014C137.237 62.91 137.257 62.812 137.297 62.72C137.337 62.624 137.391 62.542 137.459 62.474C137.527 62.402 137.605 62.346 137.693 62.306C137.785 62.266 137.883 62.246 137.987 62.246C138.091 62.246 138.189 62.266 138.281 62.306C138.377 62.346 138.459 62.402 138.527 62.474C138.599 62.542 138.655 62.624 138.695 62.72C138.739 62.812 138.761 62.91 138.761 63.014ZM141.295 65.804C141.427 65.656 141.567 65.522 141.715 65.402C141.863 65.282 142.019 65.18 142.183 65.096C142.351 65.008 142.527 64.942 142.711 64.898C142.899 64.85 143.101 64.826 143.317 64.826C143.649 64.826 143.941 64.882 144.193 64.994C144.449 65.102 144.661 65.258 144.829 65.462C145.001 65.662 145.131 65.904 145.219 66.188C145.307 66.472 145.351 66.786 145.351 67.13V71H144.277V67.13C144.277 66.67 144.171 66.314 143.959 66.062C143.751 65.806 143.433 65.678 143.005 65.678C142.689 65.678 142.393 65.754 142.117 65.906C141.845 66.058 141.593 66.264 141.361 66.524V71H140.287V64.922H140.929C141.081 64.922 141.175 64.996 141.211 65.144L141.295 65.804ZM151.047 67.298C151.047 67.05 151.011 66.824 150.939 66.62C150.871 66.412 150.769 66.234 150.633 66.086C150.501 65.934 150.339 65.818 150.147 65.738C149.955 65.654 149.737 65.612 149.493 65.612C148.981 65.612 148.575 65.762 148.275 66.062C147.979 66.358 147.795 66.77 147.723 67.298H151.047ZM151.911 70.148C151.779 70.308 151.621 70.448 151.437 70.568C151.253 70.684 151.055 70.78 150.843 70.856C150.635 70.932 150.419 70.988 150.195 71.024C149.971 71.064 149.749 71.084 149.529 71.084C149.109 71.084 148.721 71.014 148.365 70.874C148.013 70.73 147.707 70.522 147.447 70.25C147.191 69.974 146.991 69.634 146.847 69.23C146.703 68.826 146.631 68.362 146.631 67.838C146.631 67.414 146.695 67.018 146.823 66.65C146.955 66.282 147.143 65.964 147.387 65.696C147.631 65.424 147.929 65.212 148.281 65.06C148.633 64.904 149.029 64.826 149.469 64.826C149.833 64.826 150.169 64.888 150.477 65.012C150.789 65.132 151.057 65.308 151.281 65.54C151.509 65.768 151.687 66.052 151.815 66.392C151.943 66.728 152.007 67.112 152.007 67.544C152.007 67.712 151.989 67.824 151.953 67.88C151.917 67.936 151.849 67.964 151.749 67.964H147.687C147.699 68.348 147.751 68.682 147.843 68.966C147.939 69.25 148.071 69.488 148.239 69.68C148.407 69.868 148.607 70.01 148.839 70.106C149.071 70.198 149.331 70.244 149.619 70.244C149.887 70.244 150.117 70.214 150.309 70.154C150.505 70.09 150.673 70.022 150.813 69.95C150.953 69.878 151.069 69.812 151.161 69.752C151.257 69.688 151.339 69.656 151.407 69.656C151.495 69.656 151.563 69.69 151.611 69.758L151.911 70.148ZM156.859 65.924C156.811 66.012 156.737 66.056 156.637 66.056C156.577 66.056 156.509 66.034 156.433 65.99C156.357 65.946 156.263 65.898 156.151 65.846C156.043 65.79 155.913 65.74 155.761 65.696C155.609 65.648 155.429 65.624 155.221 65.624C155.041 65.624 154.879 65.648 154.735 65.696C154.591 65.74 154.467 65.802 154.363 65.882C154.263 65.962 154.185 66.056 154.129 66.164C154.077 66.268 154.051 66.382 154.051 66.506C154.051 66.662 154.095 66.792 154.183 66.896C154.275 67 154.395 67.09 154.543 67.166C154.691 67.242 154.859 67.31 155.047 67.37C155.235 67.426 155.427 67.488 155.623 67.556C155.823 67.62 156.017 67.692 156.205 67.772C156.393 67.852 156.561 67.952 156.709 68.072C156.857 68.192 156.975 68.34 157.063 68.516C157.155 68.688 157.201 68.896 157.201 69.14C157.201 69.42 157.151 69.68 157.051 69.92C156.951 70.156 156.803 70.362 156.607 70.538C156.411 70.71 156.171 70.846 155.887 70.946C155.603 71.046 155.275 71.096 154.903 71.096C154.479 71.096 154.095 71.028 153.751 70.892C153.407 70.752 153.115 70.574 152.875 70.358L153.127 69.95C153.159 69.898 153.197 69.858 153.241 69.83C153.285 69.802 153.341 69.788 153.409 69.788C153.481 69.788 153.557 69.816 153.637 69.872C153.717 69.928 153.813 69.99 153.925 70.058C154.041 70.126 154.181 70.188 154.345 70.244C154.509 70.3 154.713 70.328 154.957 70.328C155.165 70.328 155.347 70.302 155.503 70.25C155.659 70.194 155.789 70.12 155.893 70.028C155.997 69.936 156.073 69.83 156.121 69.71C156.173 69.59 156.199 69.462 156.199 69.326C156.199 69.158 156.153 69.02 156.061 68.912C155.973 68.8 155.855 68.706 155.707 68.63C155.559 68.55 155.389 68.482 155.197 68.426C155.009 68.366 154.815 68.304 154.615 68.24C154.419 68.176 154.225 68.104 154.033 68.024C153.845 67.94 153.677 67.836 153.529 67.712C153.381 67.588 153.261 67.436 153.169 67.256C153.081 67.072 153.037 66.85 153.037 66.59C153.037 66.358 153.085 66.136 153.181 65.924C153.277 65.708 153.417 65.52 153.601 65.36C153.785 65.196 154.011 65.066 154.279 64.97C154.547 64.874 154.853 64.826 155.197 64.826C155.597 64.826 155.955 64.89 156.271 65.018C156.591 65.142 156.867 65.314 157.099 65.534L156.859 65.924ZM162.05 65.924C162.002 66.012 161.928 66.056 161.828 66.056C161.768 66.056 161.7 66.034 161.624 65.99C161.548 65.946 161.454 65.898 161.342 65.846C161.234 65.79 161.104 65.74 160.952 65.696C160.8 65.648 160.62 65.624 160.412 65.624C160.232 65.624 160.07 65.648 159.926 65.696C159.782 65.74 159.658 65.802 159.554 65.882C159.454 65.962 159.376 66.056 159.32 66.164C159.268 66.268 159.242 66.382 159.242 66.506C159.242 66.662 159.286 66.792 159.374 66.896C159.466 67 159.586 67.09 159.734 67.166C159.882 67.242 160.05 67.31 160.238 67.37C160.426 67.426 160.618 67.488 160.814 67.556C161.014 67.62 161.208 67.692 161.396 67.772C161.584 67.852 161.752 67.952 161.9 68.072C162.048 68.192 162.166 68.34 162.254 68.516C162.346 68.688 162.392 68.896 162.392 69.14C162.392 69.42 162.342 69.68 162.242 69.92C162.142 70.156 161.994 70.362 161.798 70.538C161.602 70.71 161.362 70.846 161.078 70.946C160.794 71.046 160.466 71.096 160.094 71.096C159.67 71.096 159.286 71.028 158.942 70.892C158.598 70.752 158.306 70.574 158.066 70.358L158.318 69.95C158.35 69.898 158.388 69.858 158.432 69.83C158.476 69.802 158.532 69.788 158.6 69.788C158.672 69.788 158.748 69.816 158.828 69.872C158.908 69.928 159.004 69.99 159.116 70.058C159.232 70.126 159.372 70.188 159.536 70.244C159.7 70.3 159.904 70.328 160.148 70.328C160.356 70.328 160.538 70.302 160.694 70.25C160.85 70.194 160.98 70.12 161.084 70.028C161.188 69.936 161.264 69.83 161.312 69.71C161.364 69.59 161.39 69.462 161.39 69.326C161.39 69.158 161.344 69.02 161.252 68.912C161.164 68.8 161.046 68.706 160.898 68.63C160.75 68.55 160.58 68.482 160.388 68.426C160.2 68.366 160.006 68.304 159.806 68.24C159.61 68.176 159.416 68.104 159.224 68.024C159.036 67.94 158.868 67.836 158.72 67.712C158.572 67.588 158.452 67.436 158.36 67.256C158.272 67.072 158.228 66.85 158.228 66.59C158.228 66.358 158.276 66.136 158.372 65.924C158.468 65.708 158.608 65.52 158.792 65.36C158.976 65.196 159.202 65.066 159.47 64.97C159.738 64.874 160.044 64.826 160.388 64.826C160.788 64.826 161.146 64.89 161.462 65.018C161.782 65.142 162.058 65.314 162.29 65.534L162.05 65.924Z" fill="white"/>
<rect x="190" y="54" width="43.1379" height="22.7019" rx="4" fill="#FDB491"/>
<rect x="190" y="54" width="43.1379" height="22.7019" rx="4" fill="url(#paint8_linear_108_498)"/>
<path d="M205.38 65.72H203.898L203.508 67.676H204.99L205.38 65.72ZM207.648 64.934L207.57 65.384C207.55 65.5 207.502 65.586 207.426 65.642C207.354 65.694 207.242 65.72 207.09 65.72H206.262L205.872 67.676H206.946C207.062 67.676 207.144 67.71 207.192 67.778C207.244 67.842 207.258 67.956 207.234 68.12L207.18 68.462H205.758L205.254 71H204.768C204.716 71 204.668 70.988 204.624 70.964C204.58 70.94 204.542 70.908 204.51 70.868C204.482 70.828 204.462 70.78 204.45 70.724C204.438 70.668 204.438 70.606 204.45 70.538L204.876 68.462H203.394L202.968 70.592C202.944 70.74 202.886 70.846 202.794 70.91C202.702 70.97 202.598 71 202.482 71H202.002L202.512 68.462H201.636C201.524 68.462 201.442 68.43 201.39 68.366C201.342 68.298 201.33 68.182 201.354 68.018L201.402 67.676H202.626L203.016 65.72H201.624L201.702 65.276C201.722 65.16 201.768 65.074 201.84 65.018C201.916 64.962 202.03 64.934 202.182 64.934H203.13L203.562 62.786C203.586 62.666 203.64 62.572 203.724 62.504C203.812 62.436 203.916 62.402 204.036 62.402H204.516L204.012 64.934H205.494L205.998 62.402H206.472C206.588 62.402 206.678 62.44 206.742 62.516C206.81 62.592 206.834 62.688 206.814 62.804L206.376 64.934H207.648ZM209.881 65.732C210.141 65.456 210.429 65.236 210.745 65.072C211.061 64.908 211.425 64.826 211.837 64.826C212.169 64.826 212.461 64.882 212.713 64.994C212.969 65.102 213.181 65.258 213.349 65.462C213.521 65.662 213.651 65.904 213.739 66.188C213.827 66.472 213.871 66.786 213.871 67.13V71H212.797V67.13C212.797 66.67 212.691 66.314 212.479 66.062C212.271 65.806 211.953 65.678 211.525 65.678C211.209 65.678 210.913 65.754 210.637 65.906C210.365 66.058 210.113 66.264 209.881 66.524V71H208.807V62.162H209.881V65.732ZM216.512 66.14C216.704 65.724 216.94 65.4 217.22 65.168C217.5 64.932 217.842 64.814 218.246 64.814C218.374 64.814 218.496 64.828 218.612 64.856C218.732 64.884 218.838 64.928 218.93 64.988L218.852 65.786C218.828 65.886 218.768 65.936 218.672 65.936C218.616 65.936 218.534 65.924 218.426 65.9C218.318 65.876 218.196 65.864 218.06 65.864C217.868 65.864 217.696 65.892 217.544 65.948C217.396 66.004 217.262 66.088 217.142 66.2C217.026 66.308 216.92 66.444 216.824 66.608C216.732 66.768 216.648 66.952 216.572 67.16V71H215.498V64.922H216.11C216.226 64.922 216.306 64.944 216.35 64.988C216.394 65.032 216.424 65.108 216.44 65.216L216.512 66.14Z" fill="white"/>
<line x1="28.7588" y1="39.2283" x2="249.242" y2="39.2283" stroke="#FDB491"/>
<line x1="28.7588" y1="39.2283" x2="249.242" y2="39.2283" stroke="url(#paint9_linear_108_498)"/>
<path d="M35.6708 22.1158H32.8868V29.7358H31.7288V22.1158H28.9388V21.1378H35.6708V22.1158ZM40.6689 26.5438L39.3189 23.0458C39.2789 22.9418 39.2369 22.8218 39.1929 22.6858C39.1489 22.5458 39.1069 22.3978 39.0669 22.2418C38.9829 22.5658 38.8969 22.8358 38.8089 23.0518L37.4589 26.5438H40.6689ZM43.0929 29.7358H42.1929C42.0889 29.7358 42.0049 29.7098 41.9409 29.6578C41.8769 29.6058 41.8289 29.5398 41.7969 29.4598L40.9929 27.3838H37.1349L36.3309 29.4598C36.3069 29.5318 36.2609 29.5958 36.1929 29.6518C36.1249 29.7078 36.0409 29.7358 35.9409 29.7358H35.0409L38.4789 21.1378H39.6549L43.0929 29.7358ZM50.9853 25.6018V28.9018C50.5533 29.2138 50.0913 29.4478 49.5993 29.6038C49.1113 29.7558 48.5753 29.8318 47.9913 29.8318C47.2993 29.8318 46.6753 29.7258 46.1193 29.5138C45.5633 29.2978 45.0873 28.9978 44.6913 28.6138C44.2993 28.2258 43.9973 27.7618 43.7853 27.2218C43.5733 26.6818 43.4673 26.0878 43.4673 25.4398C43.4673 24.7838 43.5693 24.1858 43.7733 23.6458C43.9813 23.1058 44.2753 22.6438 44.6553 22.2598C45.0353 21.8718 45.4973 21.5718 46.0413 21.3598C46.5853 21.1478 47.1933 21.0418 47.8653 21.0418C48.2053 21.0418 48.5213 21.0678 48.8133 21.1198C49.1053 21.1678 49.3753 21.2398 49.6233 21.3358C49.8713 21.4278 50.1013 21.5418 50.3133 21.6778C50.5253 21.8098 50.7233 21.9598 50.9073 22.1278L50.5773 22.6558C50.5253 22.7358 50.4573 22.7878 50.3733 22.8118C50.2933 22.8318 50.2033 22.8118 50.1033 22.7518C50.0073 22.6958 49.8973 22.6278 49.7733 22.5478C49.6493 22.4678 49.4973 22.3918 49.3173 22.3198C49.1413 22.2438 48.9313 22.1798 48.6873 22.1278C48.4473 22.0758 48.1613 22.0498 47.8293 22.0498C47.3453 22.0498 46.9073 22.1298 46.5153 22.2898C46.1233 22.4458 45.7893 22.6718 45.5133 22.9678C45.2373 23.2598 45.0253 23.6158 44.8773 24.0358C44.7293 24.4518 44.6553 24.9198 44.6553 25.4398C44.6553 25.9798 44.7313 26.4638 44.8833 26.8918C45.0393 27.3158 45.2593 27.6778 45.5433 27.9778C45.8313 28.2738 46.1793 28.4998 46.5873 28.6558C46.9953 28.8118 47.4533 28.8898 47.9613 28.8898C48.3613 28.8898 48.7153 28.8458 49.0233 28.7578C49.3353 28.6658 49.6393 28.5398 49.9353 28.3798V26.4898H48.5973C48.5213 26.4898 48.4593 26.4678 48.4113 26.4238C48.3673 26.3798 48.3453 26.3258 48.3453 26.2618V25.6018H50.9853ZM57.1649 22.4818C57.1289 22.5418 57.0889 22.5878 57.0449 22.6198C57.0049 22.6478 56.9549 22.6618 56.8949 22.6618C56.8269 22.6618 56.7469 22.6278 56.6549 22.5598C56.5629 22.4918 56.4469 22.4178 56.3069 22.3378C56.1709 22.2538 56.0049 22.1778 55.8089 22.1098C55.6169 22.0418 55.3829 22.0078 55.1069 22.0078C54.8469 22.0078 54.6169 22.0438 54.4169 22.1158C54.2209 22.1838 54.0549 22.2778 53.9189 22.3978C53.7869 22.5178 53.6869 22.6598 53.6189 22.8238C53.5509 22.9838 53.5169 23.1578 53.5169 23.3458C53.5169 23.5858 53.5749 23.7858 53.6909 23.9458C53.8109 24.1018 53.9669 24.2358 54.1589 24.3478C54.3549 24.4598 54.5749 24.5578 54.8189 24.6418C55.0669 24.7218 55.3189 24.8058 55.5749 24.8938C55.8349 24.9818 56.0869 25.0818 56.3309 25.1938C56.5789 25.3018 56.7989 25.4398 56.9909 25.6078C57.1869 25.7758 57.3429 25.9818 57.4589 26.2258C57.5789 26.4698 57.6389 26.7698 57.6389 27.1258C57.6389 27.5018 57.5749 27.8558 57.4469 28.1878C57.3189 28.5158 57.1309 28.8018 56.8829 29.0458C56.6389 29.2898 56.3369 29.4818 55.9769 29.6218C55.6209 29.7618 55.2149 29.8318 54.7589 29.8318C54.1989 29.8318 53.6909 29.7318 53.2349 29.5318C52.7789 29.3278 52.3889 29.0538 52.0649 28.7098L52.4009 28.1578C52.4329 28.1138 52.4709 28.0778 52.5149 28.0498C52.5629 28.0178 52.6149 28.0018 52.6709 28.0018C52.7229 28.0018 52.7809 28.0238 52.8449 28.0678C52.9129 28.1078 52.9889 28.1598 53.0729 28.2238C53.1569 28.2878 53.2529 28.3578 53.3609 28.4338C53.4689 28.5098 53.5909 28.5798 53.7269 28.6438C53.8669 28.7078 54.0249 28.7618 54.2009 28.8058C54.3769 28.8458 54.5749 28.8658 54.7949 28.8658C55.0709 28.8658 55.3169 28.8278 55.5329 28.7518C55.7489 28.6758 55.9309 28.5698 56.0789 28.4338C56.2309 28.2938 56.3469 28.1278 56.4269 27.9358C56.5069 27.7438 56.5469 27.5298 56.5469 27.2938C56.5469 27.0338 56.4869 26.8218 56.3669 26.6578C56.2509 26.4898 56.0969 26.3498 55.9049 26.2378C55.7129 26.1258 55.4929 26.0318 55.2449 25.9558C54.9969 25.8758 54.7449 25.7958 54.4889 25.7158C54.2329 25.6318 53.9809 25.5358 53.7329 25.4278C53.4849 25.3198 53.2649 25.1798 53.0729 25.0078C52.8809 24.8358 52.7249 24.6218 52.6049 24.3658C52.4889 24.1058 52.4309 23.7858 52.4309 23.4058C52.4309 23.1018 52.4889 22.8078 52.6049 22.5238C52.7249 22.2398 52.8969 21.9878 53.1209 21.7678C53.3489 21.5478 53.6269 21.3718 53.9549 21.2398C54.2869 21.1078 54.6669 21.0418 55.0949 21.0418C55.5749 21.0418 56.0109 21.1178 56.4029 21.2698C56.7989 21.4218 57.1469 21.6418 57.4469 21.9298L57.1649 22.4818ZM66.7509 22.4818C66.7149 22.5418 66.6749 22.5878 66.6309 22.6198C66.5909 22.6478 66.5409 22.6618 66.4809 22.6618C66.4129 22.6618 66.3329 22.6278 66.2409 22.5598C66.1489 22.4918 66.0329 22.4178 65.8929 22.3378C65.7569 22.2538 65.5909 22.1778 65.3949 22.1098C65.2029 22.0418 64.9689 22.0078 64.6929 22.0078C64.4329 22.0078 64.2029 22.0438 64.0029 22.1158C63.8069 22.1838 63.6409 22.2778 63.5049 22.3978C63.3729 22.5178 63.2729 22.6598 63.2049 22.8238C63.1369 22.9838 63.1029 23.1578 63.1029 23.3458C63.1029 23.5858 63.1609 23.7858 63.2769 23.9458C63.3969 24.1018 63.5529 24.2358 63.7449 24.3478C63.9409 24.4598 64.1609 24.5578 64.4049 24.6418C64.6529 24.7218 64.9049 24.8058 65.1609 24.8938C65.4209 24.9818 65.6729 25.0818 65.9169 25.1938C66.1649 25.3018 66.3849 25.4398 66.5769 25.6078C66.7729 25.7758 66.9289 25.9818 67.0449 26.2258C67.1649 26.4698 67.2249 26.7698 67.2249 27.1258C67.2249 27.5018 67.1609 27.8558 67.0329 28.1878C66.9049 28.5158 66.7169 28.8018 66.4689 29.0458C66.2249 29.2898 65.9229 29.4818 65.5629 29.6218C65.2069 29.7618 64.8009 29.8318 64.3449 29.8318C63.7849 29.8318 63.2769 29.7318 62.8209 29.5318C62.3649 29.3278 61.9749 29.0538 61.6509 28.7098L61.9869 28.1578C62.0189 28.1138 62.0569 28.0778 62.1009 28.0498C62.1489 28.0178 62.2009 28.0018 62.2569 28.0018C62.3089 28.0018 62.3669 28.0238 62.4309 28.0678C62.4989 28.1078 62.5749 28.1598 62.6589 28.2238C62.7429 28.2878 62.8389 28.3578 62.9469 28.4338C63.0549 28.5098 63.1769 28.5798 63.3129 28.6438C63.4529 28.7078 63.6109 28.7618 63.7869 28.8058C63.9629 28.8458 64.1609 28.8658 64.3809 28.8658C64.6569 28.8658 64.9029 28.8278 65.1189 28.7518C65.3349 28.6758 65.5169 28.5698 65.6649 28.4338C65.8169 28.2938 65.9329 28.1278 66.0129 27.9358C66.0929 27.7438 66.1329 27.5298 66.1329 27.2938C66.1329 27.0338 66.0729 26.8218 65.9529 26.6578C65.8369 26.4898 65.6829 26.3498 65.4909 26.2378C65.2989 26.1258 65.0789 26.0318 64.8309 25.9558C64.5829 25.8758 64.3309 25.7958 64.0749 25.7158C63.8189 25.6318 63.5669 25.5358 63.3189 25.4278C63.0709 25.3198 62.8509 25.1798 62.6589 25.0078C62.4669 24.8358 62.3109 24.6218 62.1909 24.3658C62.0749 24.1058 62.0169 23.7858 62.0169 23.4058C62.0169 23.1018 62.0749 22.8078 62.1909 22.5238C62.3109 22.2398 62.4829 21.9878 62.7069 21.7678C62.9349 21.5478 63.2129 21.3718 63.5409 21.2398C63.8729 21.1078 64.2529 21.0418 64.6809 21.0418C65.1609 21.0418 65.5969 21.1178 65.9889 21.2698C66.3849 21.4218 66.7329 21.6418 67.0329 21.9298L66.7509 22.4818ZM72.1865 28.8118C72.5425 28.8118 72.8605 28.7518 73.1405 28.6318C73.4205 28.5118 73.6565 28.3438 73.8485 28.1278C74.0445 27.9118 74.1925 27.6538 74.2925 27.3538C74.3965 27.0538 74.4485 26.7238 74.4485 26.3638V21.1378H75.6065V26.3638C75.6065 26.8598 75.5265 27.3198 75.3665 27.7438C75.2105 28.1678 74.9845 28.5358 74.6885 28.8478C74.3965 29.1558 74.0385 29.3978 73.6145 29.5738C73.1905 29.7498 72.7145 29.8378 72.1865 29.8378C71.6585 29.8378 71.1825 29.7498 70.7585 29.5738C70.3345 29.3978 69.9745 29.1558 69.6785 28.8478C69.3825 28.5358 69.1545 28.1678 68.9945 27.7438C68.8385 27.3198 68.7605 26.8598 68.7605 26.3638V21.1378H69.9185V26.3578C69.9185 26.7178 69.9685 27.0478 70.0685 27.3478C70.1725 27.6478 70.3205 27.9058 70.5125 28.1218C70.7085 28.3378 70.9465 28.5078 71.2265 28.6318C71.5105 28.7518 71.8305 28.8118 72.1865 28.8118ZM78.8567 29.7358H77.6927V21.1378H78.8567V29.7358ZM88.046 21.1378L84.542 29.7358H83.498L79.994 21.1378H80.924C81.028 21.1378 81.112 21.1638 81.176 21.2158C81.24 21.2678 81.288 21.3338 81.32 21.4138L83.744 27.4798C83.796 27.6158 83.846 27.7638 83.894 27.9238C83.946 28.0838 83.992 28.2518 84.032 28.4278C84.072 28.2518 84.114 28.0838 84.158 27.9238C84.202 27.7638 84.25 27.6158 84.302 27.4798L86.72 21.4138C86.744 21.3458 86.79 21.2838 86.858 21.2278C86.93 21.1678 87.016 21.1378 87.116 21.1378H88.046ZM90.3411 29.7358H89.1771V21.1378H90.3411V29.7358ZM96.9384 22.4818C96.9024 22.5418 96.8624 22.5878 96.8184 22.6198C96.7784 22.6478 96.7284 22.6618 96.6684 22.6618C96.6004 22.6618 96.5204 22.6278 96.4284 22.5598C96.3364 22.4918 96.2204 22.4178 96.0804 22.3378C95.9444 22.2538 95.7784 22.1778 95.5824 22.1098C95.3904 22.0418 95.1564 22.0078 94.8804 22.0078C94.6204 22.0078 94.3904 22.0438 94.1904 22.1158C93.9944 22.1838 93.8284 22.2778 93.6924 22.3978C93.5604 22.5178 93.4604 22.6598 93.3924 22.8238C93.3244 22.9838 93.2904 23.1578 93.2904 23.3458C93.2904 23.5858 93.3484 23.7858 93.4644 23.9458C93.5844 24.1018 93.7404 24.2358 93.9324 24.3478C94.1284 24.4598 94.3484 24.5578 94.5924 24.6418C94.8404 24.7218 95.0924 24.8058 95.3484 24.8938C95.6084 24.9818 95.8604 25.0818 96.1044 25.1938C96.3524 25.3018 96.5724 25.4398 96.7644 25.6078C96.9604 25.7758 97.1164 25.9818 97.2324 26.2258C97.3524 26.4698 97.4124 26.7698 97.4124 27.1258C97.4124 27.5018 97.3484 27.8558 97.2204 28.1878C97.0924 28.5158 96.9044 28.8018 96.6564 29.0458C96.4124 29.2898 96.1104 29.4818 95.7504 29.6218C95.3944 29.7618 94.9884 29.8318 94.5324 29.8318C93.9724 29.8318 93.4644 29.7318 93.0084 29.5318C92.5524 29.3278 92.1624 29.0538 91.8384 28.7098L92.1744 28.1578C92.2064 28.1138 92.2444 28.0778 92.2884 28.0498C92.3364 28.0178 92.3884 28.0018 92.4444 28.0018C92.4964 28.0018 92.5544 28.0238 92.6184 28.0678C92.6864 28.1078 92.7624 28.1598 92.8464 28.2238C92.9304 28.2878 93.0264 28.3578 93.1344 28.4338C93.2424 28.5098 93.3644 28.5798 93.5004 28.6438C93.6404 28.7078 93.7984 28.7618 93.9744 28.8058C94.1504 28.8458 94.3484 28.8658 94.5684 28.8658C94.8444 28.8658 95.0904 28.8278 95.3064 28.7518C95.5224 28.6758 95.7044 28.5698 95.8524 28.4338C96.0044 28.2938 96.1204 28.1278 96.2004 27.9358C96.2804 27.7438 96.3204 27.5298 96.3204 27.2938C96.3204 27.0338 96.2604 26.8218 96.1404 26.6578C96.0244 26.4898 95.8704 26.3498 95.6784 26.2378C95.4864 26.1258 95.2664 26.0318 95.0184 25.9558C94.7704 25.8758 94.5184 25.7958 94.2624 25.7158C94.0064 25.6318 93.7544 25.5358 93.5064 25.4278C93.2584 25.3198 93.0384 25.1798 92.8464 25.0078C92.6544 24.8358 92.4984 24.6218 92.3784 24.3658C92.2624 24.1058 92.2044 23.7858 92.2044 23.4058C92.2044 23.1018 92.2624 22.8078 92.3784 22.5238C92.4984 22.2398 92.6704 21.9878 92.8944 21.7678C93.1224 21.5478 93.4004 21.3718 93.7284 21.2398C94.0604 21.1078 94.4404 21.0418 94.8684 21.0418C95.3484 21.0418 95.7844 21.1178 96.1764 21.2698C96.5724 21.4218 96.9204 21.6418 97.2204 21.9298L96.9384 22.4818Z" fill="#313131"/>
<path d="M195.96 143C199.061 143 201.119 145.417 201.119 148.893V157.107C201.119 160.583 199.061 163 195.96 163H187.988C184.887 163 182.829 160.583 182.829 157.107V148.893C182.829 145.42 184.892 143 187.988 143H195.96ZM195.96 144.395H187.988C185.618 144.395 184.105 146.169 184.105 148.893V157.107C184.105 159.834 185.613 161.605 187.988 161.605H195.96C198.335 161.605 199.843 159.834 199.843 157.107V148.893C199.843 146.166 198.335 144.395 195.96 144.395ZM191.974 148.886C192.297 148.886 192.564 149.148 192.606 149.489L192.612 149.584L192.611 152.293L195.093 152.293C195.445 152.293 195.731 152.606 195.731 152.991C195.731 153.344 195.491 153.636 195.18 153.682L195.093 153.689L192.611 153.688L192.612 156.399C192.612 156.784 192.326 157.096 191.974 157.096C191.651 157.096 191.384 156.834 191.342 156.493L191.336 156.399L191.336 153.688L188.855 153.689C188.502 153.689 188.217 153.376 188.217 152.991C188.217 152.638 188.457 152.346 188.768 152.3L188.855 152.293L191.336 152.293L191.336 149.584C191.336 149.198 191.621 148.886 191.974 148.886Z" fill="#FDB491"/>
<path d="M195.96 143C199.061 143 201.119 145.417 201.119 148.893V157.107C201.119 160.583 199.061 163 195.96 163H187.988C184.887 163 182.829 160.583 182.829 157.107V148.893C182.829 145.42 184.892 143 187.988 143H195.96ZM195.96 144.395H187.988C185.618 144.395 184.105 146.169 184.105 148.893V157.107C184.105 159.834 185.613 161.605 187.988 161.605H195.96C198.335 161.605 199.843 159.834 199.843 157.107V148.893C199.843 146.166 198.335 144.395 195.96 144.395ZM191.974 148.886C192.297 148.886 192.564 149.148 192.606 149.489L192.612 149.584L192.611 152.293L195.093 152.293C195.445 152.293 195.731 152.606 195.731 152.991C195.731 153.344 195.491 153.636 195.18 153.682L195.093 153.689L192.611 153.688L192.612 156.399C192.612 156.784 192.326 157.096 191.974 157.096C191.651 157.096 191.384 156.834 191.342 156.493L191.336 156.399L191.336 153.688L188.855 153.689C188.502 153.689 188.217 153.376 188.217 152.991C188.217 152.638 188.457 152.346 188.768 152.3L188.855 152.293L191.336 152.293L191.336 149.584C191.336 149.198 191.621 148.886 191.974 148.886Z" fill="url(#paint10_linear_108_498)"/>
<defs>
<linearGradient id="paint0_linear_108_498" x1="59.4347" y1="53.917" x2="59.4347" y2="76.6189" gradientUnits="userSpaceOnUse">
<stop stop-color="#FE8B84"/>
<stop offset="1" stop-color="#FE8B84" stop-opacity="0"/>
</linearGradient>
<linearGradient id="paint1_linear_108_498" x1="81.4829" y1="83.7132" x2="81.4829" y2="106.415" gradientUnits="userSpaceOnUse">
<stop stop-color="#FE8B84"/>
<stop offset="1" stop-color="#FE8B84" stop-opacity="0"/>
</linearGradient>
<linearGradient id="paint2_linear_108_498" x1="87.714" y1="113.509" x2="87.714" y2="136.211" gradientUnits="userSpaceOnUse">
<stop stop-color="#FE8B84"/>
<stop offset="1" stop-color="#FE8B84" stop-opacity="0"/>
</linearGradient>
<linearGradient id="paint3_linear_108_498" x1="178.782" y1="113.509" x2="178.782" y2="136.211" gradientUnits="userSpaceOnUse">
<stop stop-color="#FE8B84"/>
<stop offset="1" stop-color="#FE8B84" stop-opacity="0"/>
</linearGradient>
<linearGradient id="paint4_linear_108_498" x1="49.3691" y1="143.306" x2="49.3691" y2="166.008" gradientUnits="userSpaceOnUse">
<stop stop-color="#FE8B84"/>
<stop offset="1" stop-color="#FE8B84" stop-opacity="0"/>
</linearGradient>
<linearGradient id="paint5_linear_108_498" x1="121.265" y1="143.306" x2="121.265" y2="166.008" gradientUnits="userSpaceOnUse">
<stop stop-color="#FE8B84"/>
<stop offset="1" stop-color="#FE8B84" stop-opacity="0"/>
</linearGradient>
<linearGradient id="paint6_linear_108_498" x1="177.552" y1="84" x2="177.552" y2="106.702" gradientUnits="userSpaceOnUse">
<stop stop-color="#FE8B84"/>
<stop offset="1" stop-color="#FE8B84" stop-opacity="0"/>
</linearGradient>
<linearGradient id="paint7_linear_108_498" x1="140.262" y1="54" x2="140.262" y2="76.7019" gradientUnits="userSpaceOnUse">
<stop stop-color="#FE8B84"/>
<stop offset="1" stop-color="#FE8B84" stop-opacity="0"/>
</linearGradient>
<linearGradient id="paint8_linear_108_498" x1="211.569" y1="54" x2="211.569" y2="76.7019" gradientUnits="userSpaceOnUse">
<stop stop-color="#FE8B84"/>
<stop offset="1" stop-color="#FE8B84" stop-opacity="0"/>
</linearGradient>
<linearGradient id="paint9_linear_108_498" x1="139" y1="39.7283" x2="139" y2="40.7283" gradientUnits="userSpaceOnUse">
<stop stop-color="#FE8B84"/>
<stop offset="1" stop-color="#FE8B84" stop-opacity="0"/>
</linearGradient>
<linearGradient id="paint10_linear_108_498" x1="191.974" y1="143" x2="191.974" y2="163" gradientUnits="userSpaceOnUse">
<stop stop-color="#FE8B84"/>
<stop offset="1" stop-color="#FE8B84" stop-opacity="0"/>
</linearGradient>
</defs>
</svg>
