<svg width="35" height="35" viewBox="0 0 35 35" fill="none" xmlns="http://www.w3.org/2000/svg">
<path d="M17.5002 0.700012C8.2217 0.700012 0.700195 8.22151 0.700195 17.5C0.700195 26.7785 8.2217 34.3 17.5002 34.3C26.7787 34.3 34.3002 26.7785 34.3002 17.5C34.3002 8.22151 26.7787 0.700012 17.5002 0.700012ZM23.9612 19.6543C23.9612 19.6543 25.4469 21.1208 25.8127 21.8015C25.8232 21.8155 25.8284 21.8295 25.8319 21.8365C25.9807 22.0868 26.0157 22.281 25.9422 22.4263C25.8197 22.6678 25.3997 22.7868 25.2562 22.7973H22.6312C22.4492 22.7973 22.0677 22.75 21.6057 22.4315C21.2504 22.183 20.9004 21.7753 20.5592 21.378C20.0499 20.7865 19.6089 20.2755 19.1644 20.2755C19.108 20.2754 19.0519 20.2843 18.9982 20.3018C18.6622 20.4103 18.2317 20.8898 18.2317 22.1673C18.2317 22.5663 17.9167 22.7955 17.6944 22.7955H16.4922C16.0827 22.7955 13.9494 22.652 12.0594 20.6588C9.74594 18.2175 7.66344 13.321 7.64595 13.2755C7.5147 12.9588 7.78595 12.789 8.0817 12.789H10.7329C11.0864 12.789 11.2019 13.0043 11.2824 13.195C11.3769 13.4173 11.7234 14.301 12.2922 15.295C13.2144 16.9155 13.7797 17.5735 14.2329 17.5735C14.3179 17.5725 14.4014 17.5509 14.4762 17.5105C15.0677 17.1815 14.9574 15.0728 14.9312 14.6353C14.9312 14.553 14.9294 13.692 14.6267 13.279C14.4097 12.9798 14.0404 12.866 13.8164 12.824C13.9071 12.6989 14.0266 12.5975 14.1647 12.5283C14.5707 12.3253 15.3022 12.2955 16.0284 12.2955H16.4327C17.2202 12.306 17.4232 12.3568 17.7084 12.4285C18.2859 12.5668 18.2982 12.9395 18.2474 14.2153C18.2317 14.5775 18.2159 14.987 18.2159 15.47C18.2159 15.575 18.2107 15.687 18.2107 15.806C18.1932 16.4553 18.1722 17.192 18.6307 17.4948C18.6905 17.5323 18.7596 17.5523 18.8302 17.5525C18.9894 17.5525 19.4689 17.5525 20.7674 15.3248C21.1679 14.6077 21.5159 13.8626 21.8087 13.0953C21.8349 13.0498 21.9119 12.9098 22.0029 12.8555C22.0701 12.8213 22.1446 12.8039 22.2199 12.8048H25.3367C25.6762 12.8048 25.9089 12.8555 25.9527 12.9868C26.0297 13.195 25.9387 13.8303 24.5159 15.757L23.8807 16.5953C22.5909 18.2858 22.5909 18.3715 23.9612 19.6543Z" fill="#FDB491"/>
<path d="M17.5002 0.700012C8.2217 0.700012 0.700195 8.22151 0.700195 17.5C0.700195 26.7785 8.2217 34.3 17.5002 34.3C26.7787 34.3 34.3002 26.7785 34.3002 17.5C34.3002 8.22151 26.7787 0.700012 17.5002 0.700012ZM23.9612 19.6543C23.9612 19.6543 25.4469 21.1208 25.8127 21.8015C25.8232 21.8155 25.8284 21.8295 25.8319 21.8365C25.9807 22.0868 26.0157 22.281 25.9422 22.4263C25.8197 22.6678 25.3997 22.7868 25.2562 22.7973H22.6312C22.4492 22.7973 22.0677 22.75 21.6057 22.4315C21.2504 22.183 20.9004 21.7753 20.5592 21.378C20.0499 20.7865 19.6089 20.2755 19.1644 20.2755C19.108 20.2754 19.0519 20.2843 18.9982 20.3018C18.6622 20.4103 18.2317 20.8898 18.2317 22.1673C18.2317 22.5663 17.9167 22.7955 17.6944 22.7955H16.4922C16.0827 22.7955 13.9494 22.652 12.0594 20.6588C9.74594 18.2175 7.66344 13.321 7.64595 13.2755C7.5147 12.9588 7.78595 12.789 8.0817 12.789H10.7329C11.0864 12.789 11.2019 13.0043 11.2824 13.195C11.3769 13.4173 11.7234 14.301 12.2922 15.295C13.2144 16.9155 13.7797 17.5735 14.2329 17.5735C14.3179 17.5725 14.4014 17.5509 14.4762 17.5105C15.0677 17.1815 14.9574 15.0728 14.9312 14.6353C14.9312 14.553 14.9294 13.692 14.6267 13.279C14.4097 12.9798 14.0404 12.866 13.8164 12.824C13.9071 12.6989 14.0266 12.5975 14.1647 12.5283C14.5707 12.3253 15.3022 12.2955 16.0284 12.2955H16.4327C17.2202 12.306 17.4232 12.3568 17.7084 12.4285C18.2859 12.5668 18.2982 12.9395 18.2474 14.2153C18.2317 14.5775 18.2159 14.987 18.2159 15.47C18.2159 15.575 18.2107 15.687 18.2107 15.806C18.1932 16.4553 18.1722 17.192 18.6307 17.4948C18.6905 17.5323 18.7596 17.5523 18.8302 17.5525C18.9894 17.5525 19.4689 17.5525 20.7674 15.3248C21.1679 14.6077 21.5159 13.8626 21.8087 13.0953C21.8349 13.0498 21.9119 12.9098 22.0029 12.8555C22.0701 12.8213 22.1446 12.8039 22.2199 12.8048H25.3367C25.6762 12.8048 25.9089 12.8555 25.9527 12.9868C26.0297 13.195 25.9387 13.8303 24.5159 15.757L23.8807 16.5953C22.5909 18.2858 22.5909 18.3715 23.9612 19.6543Z" fill="url(#paint0_linear_163_608)"/>
<defs>
<linearGradient id="paint0_linear_163_608" x1="17.5002" y1="0.700012" x2="17.5002" y2="34.3" gradientUnits="userSpaceOnUse">
<stop stop-color="#FE8B84"/>
<stop offset="1" stop-color="#FE8B84" stop-opacity="0"/>
</linearGradient>
</defs>
</svg>
