<svg width="34" height="34" viewBox="0 0 34 34" fill="none" xmlns="http://www.w3.org/2000/svg">
<path d="M17 0.375C7.81914 0.375 0.375 7.81914 0.375 17C0.375 26.1809 7.81914 33.625 17 33.625C26.1809 33.625 33.625 26.1809 33.625 17C33.625 7.81914 26.1809 0.375 17 0.375ZM23.1973 23.8875C21.6906 25.2754 19.6348 26.0918 17.1818 26.0918C13.6305 26.0918 10.5578 24.0545 9.0623 21.0857C8.44629 19.8574 8.09375 18.4695 8.09375 17C8.09375 15.5305 8.44629 14.1426 9.0623 12.9143C10.5578 9.9418 13.6305 7.90449 17.1818 7.90449C19.6311 7.90449 21.6869 8.80625 23.2641 10.2721L20.659 12.8809C19.7164 11.9791 18.5178 11.5227 17.1855 11.5227C14.818 11.5227 12.8141 13.1221 12.0979 15.2707C11.916 15.8162 11.8121 16.3988 11.8121 17C11.8121 17.6012 11.916 18.1838 12.0979 18.7293C12.8141 20.8779 14.818 22.4773 17.1818 22.4773C18.4064 22.4773 19.4455 22.1545 20.2582 21.609C21.223 20.9633 21.8613 20.0021 22.0729 18.8629H17.1818V15.3449H25.743C25.8506 15.9424 25.9062 16.5621 25.9062 17.2041C25.9062 19.9762 24.9154 22.3029 23.1973 23.8875Z" fill="#FDB491"/>
<path d="M17 0.375C7.81914 0.375 0.375 7.81914 0.375 17C0.375 26.1809 7.81914 33.625 17 33.625C26.1809 33.625 33.625 26.1809 33.625 17C33.625 7.81914 26.1809 0.375 17 0.375ZM23.1973 23.8875C21.6906 25.2754 19.6348 26.0918 17.1818 26.0918C13.6305 26.0918 10.5578 24.0545 9.0623 21.0857C8.44629 19.8574 8.09375 18.4695 8.09375 17C8.09375 15.5305 8.44629 14.1426 9.0623 12.9143C10.5578 9.9418 13.6305 7.90449 17.1818 7.90449C19.6311 7.90449 21.6869 8.80625 23.2641 10.2721L20.659 12.8809C19.7164 11.9791 18.5178 11.5227 17.1855 11.5227C14.818 11.5227 12.8141 13.1221 12.0979 15.2707C11.916 15.8162 11.8121 16.3988 11.8121 17C11.8121 17.6012 11.916 18.1838 12.0979 18.7293C12.8141 20.8779 14.818 22.4773 17.1818 22.4773C18.4064 22.4773 19.4455 22.1545 20.2582 21.609C21.223 20.9633 21.8613 20.0021 22.0729 18.8629H17.1818V15.3449H25.743C25.8506 15.9424 25.9062 16.5621 25.9062 17.2041C25.9062 19.9762 24.9154 22.3029 23.1973 23.8875Z" fill="url(#paint0_linear_163_598)"/>
<defs>
<linearGradient id="paint0_linear_163_598" x1="17" y1="0.375" x2="17" y2="33.625" gradientUnits="userSpaceOnUse">
<stop stop-color="#FE8B84"/>
<stop offset="1" stop-color="#FE8B84" stop-opacity="0"/>
</linearGradient>
</defs>
</svg>
