<svg width="34" height="34" viewBox="0 0 34 34" fill="none" xmlns="http://www.w3.org/2000/svg">
<path d="M17 0.375C7.81914 0.375 0.375 7.81914 0.375 17C0.375 26.1809 7.81914 33.625 17 33.625C26.1809 33.625 33.625 26.1809 33.625 17C33.625 7.81914 26.1809 0.375 17 0.375ZM24.9896 12.9068C25.0008 13.0813 25.0008 13.2631 25.0008 13.4412C25.0008 18.8889 20.852 25.1641 13.2705 25.1641C10.9326 25.1641 8.76543 24.485 6.93965 23.316C7.27363 23.3531 7.59277 23.368 7.93418 23.368C9.86387 23.368 11.6377 22.7148 13.0516 21.609C11.2406 21.5719 9.71914 20.3844 9.19961 18.7516C9.83418 18.8443 10.4057 18.8443 11.0588 18.6773C10.1263 18.4879 9.28821 17.9815 8.68682 17.2441C8.08543 16.5068 7.75786 15.5839 7.75977 14.6324V14.5805C8.30527 14.8885 8.94727 15.0777 9.61895 15.1037C9.0543 14.7274 8.59123 14.2176 8.2708 13.6194C7.95038 13.0213 7.78249 12.3534 7.78203 11.6748C7.78203 10.9066 7.98242 10.2053 8.34238 9.59668C9.37737 10.8708 10.6689 11.9128 12.133 12.6551C13.5971 13.3974 15.201 13.8233 16.8404 13.9051C16.2578 11.1033 18.3508 8.83594 20.8668 8.83594C22.0543 8.83594 23.123 9.3332 23.8764 10.1348C24.8078 9.96035 25.6984 9.61152 26.4926 9.14394C26.1846 10.0977 25.5389 10.9029 24.6816 11.4113C25.5129 11.3223 26.3145 11.0922 27.0566 10.7693C26.4963 11.5932 25.7949 12.3242 24.9896 12.9068Z" fill="#FDB491"/>
<path d="M17 0.375C7.81914 0.375 0.375 7.81914 0.375 17C0.375 26.1809 7.81914 33.625 17 33.625C26.1809 33.625 33.625 26.1809 33.625 17C33.625 7.81914 26.1809 0.375 17 0.375ZM24.9896 12.9068C25.0008 13.0813 25.0008 13.2631 25.0008 13.4412C25.0008 18.8889 20.852 25.1641 13.2705 25.1641C10.9326 25.1641 8.76543 24.485 6.93965 23.316C7.27363 23.3531 7.59277 23.368 7.93418 23.368C9.86387 23.368 11.6377 22.7148 13.0516 21.609C11.2406 21.5719 9.71914 20.3844 9.19961 18.7516C9.83418 18.8443 10.4057 18.8443 11.0588 18.6773C10.1263 18.4879 9.28821 17.9815 8.68682 17.2441C8.08543 16.5068 7.75786 15.5839 7.75977 14.6324V14.5805C8.30527 14.8885 8.94727 15.0777 9.61895 15.1037C9.0543 14.7274 8.59123 14.2176 8.2708 13.6194C7.95038 13.0213 7.78249 12.3534 7.78203 11.6748C7.78203 10.9066 7.98242 10.2053 8.34238 9.59668C9.37737 10.8708 10.6689 11.9128 12.133 12.6551C13.5971 13.3974 15.201 13.8233 16.8404 13.9051C16.2578 11.1033 18.3508 8.83594 20.8668 8.83594C22.0543 8.83594 23.123 9.3332 23.8764 10.1348C24.8078 9.96035 25.6984 9.61152 26.4926 9.14394C26.1846 10.0977 25.5389 10.9029 24.6816 11.4113C25.5129 11.3223 26.3145 11.0922 27.0566 10.7693C26.4963 11.5932 25.7949 12.3242 24.9896 12.9068Z" fill="url(#paint0_linear_163_610)"/>
<defs>
<linearGradient id="paint0_linear_163_610" x1="17" y1="0.375" x2="17" y2="33.625" gradientUnits="userSpaceOnUse">
<stop stop-color="#FE8B84"/>
<stop offset="1" stop-color="#FE8B84" stop-opacity="0"/>
</linearGradient>
</defs>
</svg>
