<svg width="313" height="66" viewBox="0 0 313 66" fill="none" xmlns="http://www.w3.org/2000/svg">
<path d="M34.224 27.4862C34.2487 29.353 33.792 31.1947 32.8979 32.8337C31.9462 34.5523 30.5514 35.9845 28.8586 36.9814C27.1658 37.9782 25.2368 38.5033 23.2723 38.502C22.793 38.5023 22.3142 38.4701 21.8392 38.4058C21.3642 38.4701 20.8854 38.5023 20.4061 38.502H0.08556V8.55601H5.62558V16.4382H21.251C22.4861 16.2146 23.6066 15.5726 24.4242 14.6201C25.2417 13.6677 25.7065 12.4628 25.7404 11.208C25.7742 9.95328 25.3752 8.72511 24.6102 7.72992C23.8452 6.73473 22.761 6.0332 21.5398 5.74322H0V9.21804e-07H20.3205C22.2583 -0.000792095 24.162 0.510096 25.839 1.48101C27.516 2.45192 28.907 3.84842 29.8712 5.52932L29.946 5.67905C30.8573 7.31403 31.3357 9.15477 31.3357 11.0266C31.3357 12.8983 30.8573 14.7391 29.946 16.3741C29.946 16.3741 29.946 16.4275 29.946 16.4596C29.6341 17.0025 29.2763 17.5178 28.8765 17.9997C29.4746 18.3596 30.04 18.7712 30.5663 19.2296C31.4782 20.0669 32.2444 21.05 32.8337 22.1387C33.7474 23.7727 34.2262 25.614 34.224 27.4862ZM28.684 27.4862C28.6773 26.2189 28.2312 24.9932 27.4218 24.0181C26.6124 23.043 25.4899 22.3787 24.2456 22.1387H5.54002V32.8337H24.3418C25.5693 32.576 26.6708 31.9038 27.4615 30.9302C28.2521 29.9565 28.6838 28.7404 28.684 27.4862Z" fill="white"/>
<path d="M55.3576 0.0962991C59.1651 0.0962991 62.8871 1.22535 66.0529 3.34068C69.2187 5.45601 71.6861 8.46261 73.1432 11.9803C74.6003 15.4979 74.9815 19.3687 74.2387 23.103C73.4959 26.8373 71.6624 30.2675 68.9701 32.9598C66.2778 35.6521 62.8476 37.4856 59.1133 38.2284C55.3789 38.9712 51.5082 38.59 47.9905 37.1329C44.4729 35.6759 41.4663 33.2084 39.3509 30.0426C37.2356 26.8768 36.1066 23.1548 36.1066 19.3473C36.0981 16.8169 36.5902 14.3097 37.5547 11.9703C38.5191 9.63078 39.9368 7.5052 41.7261 5.71589C43.5155 3.92658 45.641 2.50888 47.9805 1.54443C50.32 0.579978 52.8271 0.0878218 55.3576 0.0962991ZM41.6893 19.3473C41.6978 22.0488 42.5066 24.6872 44.0136 26.9293C45.5206 29.1714 47.6583 30.9166 50.1565 31.9446C52.6548 32.9725 55.4017 33.2371 58.0502 32.7049C60.6988 32.1727 63.1302 30.8675 65.0375 28.9543C66.9447 27.0411 68.2423 24.6056 68.7662 21.9554C69.2901 19.3052 69.017 16.5592 67.9812 14.0641C66.9455 11.5691 65.1936 9.43689 62.9468 7.93689C60.7 6.43689 58.0591 5.63633 55.3576 5.63631C51.7343 5.64197 48.261 7.08383 45.6989 9.64589C43.1369 12.208 41.695 15.6812 41.6893 19.3045V19.3473Z" fill="white"/>
<path d="M99.0791 0.0963135C102.887 0.0963135 106.609 1.22537 109.774 3.3407C112.94 5.45602 115.408 8.46262 116.865 11.9803C118.322 15.4979 118.703 19.3687 117.96 23.103C117.217 26.8374 115.384 30.2676 112.692 32.9599C109.999 35.6522 106.569 37.4856 102.835 38.2285C99.1005 38.9713 95.2298 38.59 91.7121 37.133C88.1944 35.6759 85.1878 33.2084 83.0725 30.0426C80.9572 26.8768 79.8281 23.1548 79.8281 19.3473C79.8281 14.2416 81.8564 9.34507 85.4666 5.73481C89.0769 2.12454 93.9735 0.0963135 99.0791 0.0963135ZM85.4109 19.3473C85.4109 22.0507 86.2125 24.6933 87.7144 26.941C89.2163 29.1887 91.351 30.9406 93.8485 31.9751C96.3461 33.0096 99.0943 33.2803 101.746 32.7529C104.397 32.2255 106.833 30.9238 108.744 29.0122C110.656 27.1007 111.957 24.6652 112.485 22.0139C113.012 19.3625 112.741 16.6143 111.707 14.1167C110.672 11.6192 108.921 9.4845 106.673 7.98262C104.425 6.48074 101.782 5.67911 99.0791 5.67911C95.4632 5.68472 91.9964 7.1207 89.4356 9.67353C86.8747 12.2264 85.4279 15.6887 85.4109 19.3046V19.3473Z" fill="white"/>
<path d="M158.03 38.502H150.201L134.928 23.2082L129.303 28.8444V38.47H123.806V26.545L129.346 21.005L133.891 16.4596L150.19 0.139038H158.03L138.843 19.3259L158.03 38.502ZM129.046 17.3473L123.806 22.6306V0.171123H129.346V17.1013L129.046 17.3473Z" fill="white"/>
<path d="M179.419 9.88219L183.045 16.5131L170.863 38.502H163.548L179.419 9.88219ZM206.157 38.502H198.852L184.831 13.2083L181.173 6.59882L184.831 0L188.489 6.59882L206.157 38.502Z" fill="white"/>
<path d="M231.161 20.5556L231.236 20.6198H215.301V38.5018H209.761V0.149536H230.905C233.486 0.3011 235.914 1.42504 237.7 3.29505C239.486 5.16505 240.497 7.64221 240.529 10.2277C240.562 12.8132 239.613 15.3151 237.875 17.2294C236.137 19.1438 233.738 20.3284 231.161 20.5449V20.5556ZM235.033 10.374C235.03 9.13245 234.536 7.94259 233.658 7.06471C232.78 6.18682 231.59 5.69238 230.349 5.68955H215.301V15.0477H230.359C231.597 15.0421 232.783 14.5478 233.658 13.6726C234.533 12.7973 235.027 11.6118 235.033 10.374Z" fill="white"/>
<path d="M267.482 20.5556L267.557 20.6198H251.621V38.5018H246.081V0.149536H267.225C269.806 0.3011 272.234 1.42504 274.02 3.29505C275.806 5.16505 276.817 7.64221 276.849 10.2277C276.882 12.8132 275.934 15.3151 274.195 17.2294C272.457 19.1438 270.058 20.3284 267.482 20.5449V20.5556ZM271.396 10.374C271.393 9.13245 270.899 7.94259 270.021 7.06471C269.143 6.18682 267.953 5.69238 266.712 5.68955H251.621V15.0477H266.68C267.296 15.0505 267.907 14.9318 268.478 14.6985C269.049 14.4651 269.568 14.1217 270.006 13.6877C270.444 13.2537 270.792 12.7376 271.031 12.1691C271.269 11.6005 271.393 10.9905 271.396 10.374Z" fill="white"/>
<path d="M313 0.0213623L299.342 18.6948L298.925 19.2617L298.401 19.9782L298.273 20.1601V38.502H292.743V20.1922L292.604 19.9996L292.08 19.2831L291.663 18.7162L277.963 0.0213623H284.818L295.513 14.5987L306.208 0.032057L313 0.0213623Z" fill="white"/>
<path d="M42.8008 48.3524C49.6991 51.0155 55.9129 53.1545 61.9235 54.8336C67.5804 56.3809 73.4072 57.2215 79.2708 57.3362C85.0481 57.2825 90.7857 56.3743 96.2972 54.6411C102.594 52.5479 108.681 49.8696 114.479 46.6412L115.153 47.1653C113.064 49.9328 110.699 52.4807 108.094 54.7694C105.437 57.0317 102.543 59.0003 99.4629 60.641C93.2472 63.9541 86.3346 65.7464 79.2922 65.8709C72.275 65.7315 65.3687 64.0942 59.0358 61.0688C55.8917 59.5701 52.8732 57.8212 50.0092 55.8389C47.1814 53.7912 44.5466 51.4894 42.1377 48.9621L42.8008 48.3524Z" fill="white"/>
</svg>
