<svg width="155" height="33" viewBox="0 0 155 33" fill="none" xmlns="http://www.w3.org/2000/svg">
<path d="M16.948 13.6114C16.9602 14.5358 16.734 15.4479 16.2913 16.2595C15.82 17.1105 15.1293 17.8198 14.291 18.3134C13.4527 18.8071 12.4975 19.0671 11.5246 19.0665C11.2873 19.0666 11.0502 19.0507 10.8149 19.0188C10.5797 19.0507 10.3426 19.0666 10.1052 19.0665H0.0423699V4.237H2.78583V8.14033H10.5236C11.1353 8.02958 11.6902 7.71165 12.095 7.23999C12.4999 6.76832 12.73 6.17167 12.7468 5.55031C12.7636 4.92894 12.566 4.32074 12.1872 3.82791C11.8083 3.33509 11.2714 2.98768 10.6666 2.84409H0V4.56484e-07H10.0629C11.0225 -0.000392251 11.9652 0.252603 12.7957 0.733405C13.6261 1.21421 14.3149 1.90577 14.7924 2.73816L14.8295 2.81231C15.2808 3.62196 15.5177 4.53351 15.5177 5.46043C15.5177 6.38736 15.2808 7.2989 14.8295 8.10856C14.8295 8.10856 14.8295 8.13504 14.8295 8.15093C14.675 8.41978 14.4978 8.67493 14.2999 8.91359C14.596 9.09182 14.876 9.29562 15.1367 9.52266C15.5882 9.93729 15.9677 10.4241 16.2595 10.9632C16.712 11.7724 16.9491 12.6843 16.948 13.6114ZM14.2045 13.6114C14.2012 12.9838 13.9803 12.3768 13.5795 11.8939C13.1787 11.411 12.6228 11.0821 12.0066 10.9632H2.74346V16.2595H12.0543C12.6621 16.1319 13.2076 15.799 13.5991 15.3168C13.9907 14.8347 14.2044 14.2325 14.2045 13.6114Z" fill="#FDB491"/>
<path d="M16.948 13.6114C16.9602 14.5358 16.734 15.4479 16.2913 16.2595C15.82 17.1105 15.1293 17.8198 14.291 18.3134C13.4527 18.8071 12.4975 19.0671 11.5246 19.0665C11.2873 19.0666 11.0502 19.0507 10.8149 19.0188C10.5797 19.0507 10.3426 19.0666 10.1052 19.0665H0.0423699V4.237H2.78583V8.14033H10.5236C11.1353 8.02958 11.6902 7.71165 12.095 7.23999C12.4999 6.76832 12.73 6.17167 12.7468 5.55031C12.7636 4.92894 12.566 4.32074 12.1872 3.82791C11.8083 3.33509 11.2714 2.98768 10.6666 2.84409H0V4.56484e-07H10.0629C11.0225 -0.000392251 11.9652 0.252603 12.7957 0.733405C13.6261 1.21421 14.3149 1.90577 14.7924 2.73816L14.8295 2.81231C15.2808 3.62196 15.5177 4.53351 15.5177 5.46043C15.5177 6.38736 15.2808 7.2989 14.8295 8.10856C14.8295 8.10856 14.8295 8.13504 14.8295 8.15093C14.675 8.41978 14.4978 8.67493 14.2999 8.91359C14.596 9.09182 14.876 9.29562 15.1367 9.52266C15.5882 9.93729 15.9677 10.4241 16.2595 10.9632C16.712 11.7724 16.9491 12.6843 16.948 13.6114ZM14.2045 13.6114C14.2012 12.9838 13.9803 12.3768 13.5795 11.8939C13.1787 11.411 12.6228 11.0821 12.0066 10.9632H2.74346V16.2595H12.0543C12.6621 16.1319 13.2076 15.799 13.5991 15.3168C13.9907 14.8347 14.2044 14.2325 14.2045 13.6114Z" fill="url(#paint0_linear_230_417)"/>
<path d="M27.4142 0.0476607C29.2997 0.0476607 31.1428 0.606776 32.7105 1.6543C34.2783 2.70183 35.5002 4.19072 36.2217 5.93269C36.9433 7.67466 37.1321 9.59148 36.7642 11.4408C36.3964 13.29 35.4884 14.9887 34.1552 16.3219C32.8219 17.6552 31.1233 18.5631 29.274 18.931C27.4247 19.2988 25.5079 19.11 23.7659 18.3885C22.024 17.6669 20.5351 16.445 19.4876 14.8773C18.44 13.3096 17.8809 11.4664 17.8809 9.58091C17.8767 8.32781 18.1204 7.08625 18.598 5.92773C19.0756 4.76921 19.7777 3.7166 20.6638 2.83052C21.5499 1.94444 22.6025 1.24239 23.761 0.764786C24.9195 0.287182 26.1611 0.0434627 27.4142 0.0476607ZM20.6456 9.58091C20.6497 10.9187 21.0503 12.2253 21.7966 13.3356C22.5428 14.4459 23.6014 15.3101 24.8386 15.8192C26.0757 16.3282 27.436 16.4592 28.7476 16.1957C30.0592 15.9321 31.2632 15.2858 32.2077 14.3384C33.1522 13.3909 33.7948 12.1848 34.0542 10.8724C34.3137 9.56004 34.1784 8.20019 33.6655 6.96462C33.1526 5.72905 32.285 4.67319 31.1724 3.93038C30.0598 3.18757 28.752 2.79112 27.4142 2.79112C25.6199 2.79392 23.8999 3.50794 22.6311 4.77669C21.3624 6.04544 20.6484 7.76544 20.6456 9.55972V9.58091Z" fill="#FDB491"/>
<path d="M27.4142 0.0476607C29.2997 0.0476607 31.1428 0.606776 32.7105 1.6543C34.2783 2.70183 35.5002 4.19072 36.2217 5.93269C36.9433 7.67466 37.1321 9.59148 36.7642 11.4408C36.3964 13.29 35.4884 14.9887 34.1552 16.3219C32.8219 17.6552 31.1233 18.5631 29.274 18.931C27.4247 19.2988 25.5079 19.11 23.7659 18.3885C22.024 17.6669 20.5351 16.445 19.4876 14.8773C18.44 13.3096 17.8809 11.4664 17.8809 9.58091C17.8767 8.32781 18.1204 7.08625 18.598 5.92773C19.0756 4.76921 19.7777 3.7166 20.6638 2.83052C21.5499 1.94444 22.6025 1.24239 23.761 0.764786C24.9195 0.287182 26.1611 0.0434627 27.4142 0.0476607ZM20.6456 9.58091C20.6497 10.9187 21.0503 12.2253 21.7966 13.3356C22.5428 14.4459 23.6014 15.3101 24.8386 15.8192C26.0757 16.3282 27.436 16.4592 28.7476 16.1957C30.0592 15.9321 31.2632 15.2858 32.2077 14.3384C33.1522 13.3909 33.7948 12.1848 34.0542 10.8724C34.3137 9.56004 34.1784 8.20019 33.6655 6.96462C33.1526 5.72905 32.285 4.67319 31.1724 3.93038C30.0598 3.18757 28.752 2.79112 27.4142 2.79112C25.6199 2.79392 23.8999 3.50794 22.6311 4.77669C21.3624 6.04544 20.6484 7.76544 20.6456 9.55972V9.58091Z" fill="url(#paint1_linear_230_417)"/>
<path d="M49.0645 0.0476074C50.95 0.0476074 52.7932 0.606723 54.3609 1.65425C55.9286 2.70178 57.1505 4.19067 57.8721 5.93264C58.5936 7.67461 58.7824 9.59143 58.4146 11.4407C58.0467 13.29 57.1388 14.9886 55.8055 16.3219C54.4723 17.6551 52.7736 18.5631 50.9243 18.9309C49.0751 19.2988 47.1583 19.11 45.4163 18.3884C43.6743 17.6669 42.1854 16.445 41.1379 14.8772C40.0904 13.3095 39.5312 11.4664 39.5312 9.58085C39.5312 7.05248 40.5356 4.62766 42.3235 2.83983C44.1113 1.052 46.5361 0.0476074 49.0645 0.0476074ZM42.2959 9.58085C42.2959 10.9196 42.6929 12.2282 43.4366 13.3413C44.1804 14.4544 45.2375 15.3219 46.4743 15.8342C47.7111 16.3465 49.072 16.4806 50.385 16.2194C51.698 15.9582 52.904 15.3136 53.8506 14.367C54.7972 13.4204 55.4419 12.2143 55.703 10.9013C55.9642 9.58836 55.8302 8.22742 55.3179 6.99062C54.8056 5.75382 53.938 4.69671 52.8249 3.95297C51.7118 3.20922 50.4032 2.81225 49.0645 2.81225C47.2739 2.81503 45.5571 3.52613 44.2889 4.79031C43.0208 6.05449 42.3043 7.76906 42.2959 9.55967V9.58085Z" fill="#FDB491"/>
<path d="M49.0645 0.0476074C50.95 0.0476074 52.7932 0.606723 54.3609 1.65425C55.9286 2.70178 57.1505 4.19067 57.8721 5.93264C58.5936 7.67461 58.7824 9.59143 58.4146 11.4407C58.0467 13.29 57.1388 14.9886 55.8055 16.3219C54.4723 17.6551 52.7736 18.5631 50.9243 18.9309C49.0751 19.2988 47.1583 19.11 45.4163 18.3884C43.6743 17.6669 42.1854 16.445 41.1379 14.8772C40.0904 13.3095 39.5312 11.4664 39.5312 9.58085C39.5312 7.05248 40.5356 4.62766 42.3235 2.83983C44.1113 1.052 46.5361 0.0476074 49.0645 0.0476074ZM42.2959 9.58085C42.2959 10.9196 42.6929 12.2282 43.4366 13.3413C44.1804 14.4544 45.2375 15.3219 46.4743 15.8342C47.7111 16.3465 49.072 16.4806 50.385 16.2194C51.698 15.9582 52.904 15.3136 53.8506 14.367C54.7972 13.4204 55.4419 12.2143 55.703 10.9013C55.9642 9.58836 55.8302 8.22742 55.3179 6.99062C54.8056 5.75382 53.938 4.69671 52.8249 3.95297C51.7118 3.20922 50.4032 2.81225 49.0645 2.81225C47.2739 2.81503 45.5571 3.52613 44.2889 4.79031C43.0208 6.05449 42.3043 7.76906 42.2959 9.55967V9.58085Z" fill="url(#paint2_linear_230_417)"/>
<path d="M78.2566 19.0665H74.3797L66.8167 11.4929L64.0309 14.284V19.0506H61.3086V13.1453L64.052 10.4018L66.303 8.15092L74.3744 0.0688477H78.2566L68.7551 9.57032L78.2566 19.0665ZM63.9038 8.59051L61.3086 11.2069V0.0847365H64.052V8.4687L63.9038 8.59051Z" fill="#FDB491"/>
<path d="M78.2566 19.0665H74.3797L66.8167 11.4929L64.0309 14.284V19.0506H61.3086V13.1453L64.052 10.4018L66.303 8.15092L74.3744 0.0688477H78.2566L68.7551 9.57032L78.2566 19.0665ZM63.9038 8.59051L61.3086 11.2069V0.0847365H64.052V8.4687L63.9038 8.59051Z" fill="url(#paint3_linear_230_417)"/>
<path d="M88.8499 4.89373L90.6453 8.17741L84.6129 19.0665H80.9902L88.8499 4.89373ZM102.09 19.0665H98.4731L91.5298 6.54087L89.7184 3.26779L91.5298 0L93.3411 3.26779L102.09 19.0665Z" fill="#FDB491"/>
<path d="M88.8499 4.89373L90.6453 8.17741L84.6129 19.0665H80.9902L88.8499 4.89373ZM102.09 19.0665H98.4731L91.5298 6.54087L89.7184 3.26779L91.5298 0L93.3411 3.26779L102.09 19.0665Z" fill="url(#paint4_linear_230_417)"/>
<path d="M114.473 10.1792L114.51 10.211H106.618V19.0663H103.875V0.0739746H114.346C115.624 0.14903 116.826 0.705616 117.711 1.63165C118.595 2.55769 119.096 3.7844 119.112 5.06477C119.128 6.34513 118.658 7.58405 117.797 8.53205C116.937 9.48005 115.749 10.0667 114.473 10.1739V10.1792ZM116.39 5.13719C116.389 4.52238 116.144 3.93315 115.709 3.49842C115.274 3.06368 114.685 2.81883 114.07 2.81743H106.618V7.45165H114.076C114.689 7.44886 115.276 7.20412 115.709 6.77068C116.143 6.33724 116.387 5.75016 116.39 5.13719Z" fill="#FDB491"/>
<path d="M114.473 10.1792L114.51 10.211H106.618V19.0663H103.875V0.0739746H114.346C115.624 0.14903 116.826 0.705616 117.711 1.63165C118.595 2.55769 119.096 3.7844 119.112 5.06477C119.128 6.34513 118.658 7.58405 117.797 8.53205C116.937 9.48005 115.749 10.0667 114.473 10.1739V10.1792ZM116.39 5.13719C116.389 4.52238 116.144 3.93315 115.709 3.49842C115.274 3.06368 114.685 2.81883 114.07 2.81743H106.618V7.45165H114.076C114.689 7.44886 115.276 7.20412 115.709 6.77068C116.143 6.33724 116.387 5.75016 116.39 5.13719Z" fill="url(#paint5_linear_230_417)"/>
<path d="M132.459 10.1792L132.496 10.211H124.605V19.0663H121.861V0.0739746H132.332C133.61 0.14903 134.813 0.705616 135.697 1.63165C136.581 2.55769 137.082 3.7844 137.098 5.06477C137.114 6.34513 136.645 7.58405 135.784 8.53205C134.923 9.48005 133.735 10.0667 132.459 10.1739V10.1792ZM134.398 5.13719C134.396 4.52238 134.151 3.93315 133.717 3.49842C133.282 3.06368 132.693 2.81883 132.078 2.81743H124.605V7.45165H132.062C132.367 7.45304 132.67 7.39428 132.952 7.27872C133.235 7.16317 133.492 6.99307 133.709 6.77815C133.926 6.56323 134.098 6.3077 134.217 6.02614C134.335 5.74459 134.396 5.44252 134.398 5.13719Z" fill="#FDB491"/>
<path d="M132.459 10.1792L132.496 10.211H124.605V19.0663H121.861V0.0739746H132.332C133.61 0.14903 134.813 0.705616 135.697 1.63165C136.581 2.55769 137.082 3.7844 137.098 5.06477C137.114 6.34513 136.645 7.58405 135.784 8.53205C134.923 9.48005 133.735 10.0667 132.459 10.1739V10.1792ZM134.398 5.13719C134.396 4.52238 134.151 3.93315 133.717 3.49842C133.282 3.06368 132.693 2.81883 132.078 2.81743H124.605V7.45165H132.062C132.367 7.45304 132.67 7.39428 132.952 7.27872C133.235 7.16317 133.492 6.99307 133.709 6.77815C133.926 6.56323 134.098 6.3077 134.217 6.02614C134.335 5.74459 134.396 5.44252 134.398 5.13719Z" fill="url(#paint6_linear_230_417)"/>
<path d="M155.001 0.010498L148.238 9.25775L148.031 9.53845L147.772 9.8933L147.708 9.98333V19.0664H144.97V9.99922L144.901 9.90389L144.641 9.54904L144.435 9.26834L137.65 0.010498H141.045L146.342 7.22928L151.638 0.0157942L155.001 0.010498Z" fill="#FDB491"/>
<path d="M155.001 0.010498L148.238 9.25775L148.031 9.53845L147.772 9.8933L147.708 9.98333V19.0664H144.97V9.99922L144.901 9.90389L144.641 9.54904L144.435 9.26834L137.65 0.010498H141.045L146.342 7.22928L151.638 0.0157942L155.001 0.010498Z" fill="url(#paint7_linear_230_417)"/>
<path d="M21.1956 23.9443C24.6116 25.2631 27.6888 26.3223 30.6652 27.1539C33.4666 27.9201 36.3521 28.3364 39.2558 28.3932C42.1167 28.3665 44.958 27.9168 47.6874 27.0585C50.8057 26.0219 53.82 24.6956 56.691 23.0969L57.0247 23.3564C55.9902 24.7269 54.819 25.9887 53.5291 27.1221C52.2133 28.2424 50.7803 29.2172 49.2551 30.0297C46.177 31.6704 42.7538 32.558 39.2664 32.6196C35.7914 32.5505 32.3714 31.7398 29.2353 30.2416C27.6783 29.4994 26.1835 28.6333 24.7652 27.6517C23.3648 26.6377 22.0601 25.4978 20.8672 24.2462L21.1956 23.9443Z" fill="#FDB491"/>
<path d="M21.1956 23.9443C24.6116 25.2631 27.6888 26.3223 30.6652 27.1539C33.4666 27.9201 36.3521 28.3364 39.2558 28.3932C42.1167 28.3665 44.958 27.9168 47.6874 27.0585C50.8057 26.0219 53.82 24.6956 56.691 23.0969L57.0247 23.3564C55.9902 24.7269 54.819 25.9887 53.5291 27.1221C52.2133 28.2424 50.7803 29.2172 49.2551 30.0297C46.177 31.6704 42.7538 32.558 39.2664 32.6196C35.7914 32.5505 32.3714 31.7398 29.2353 30.2416C27.6783 29.4994 26.1835 28.6333 24.7652 27.6517C23.3648 26.6377 22.0601 25.4978 20.8672 24.2462L21.1956 23.9443Z" fill="url(#paint8_linear_230_417)"/>
<defs>
<linearGradient id="paint0_linear_230_417" x1="8.47423" y1="0" x2="8.47423" y2="19.0665" gradientUnits="userSpaceOnUse">
<stop stop-color="#FE8B84"/>
<stop offset="1" stop-color="#FE8B84" stop-opacity="0"/>
</linearGradient>
<linearGradient id="paint1_linear_230_417" x1="27.4141" y1="0.0476074" x2="27.4141" y2="19.1142" gradientUnits="userSpaceOnUse">
<stop stop-color="#FE8B84"/>
<stop offset="1" stop-color="#FE8B84" stop-opacity="0"/>
</linearGradient>
<linearGradient id="paint2_linear_230_417" x1="49.0645" y1="0.0476074" x2="49.0645" y2="19.1141" gradientUnits="userSpaceOnUse">
<stop stop-color="#FE8B84"/>
<stop offset="1" stop-color="#FE8B84" stop-opacity="0"/>
</linearGradient>
<linearGradient id="paint3_linear_230_417" x1="69.7826" y1="0.0688477" x2="69.7826" y2="19.0665" gradientUnits="userSpaceOnUse">
<stop stop-color="#FE8B84"/>
<stop offset="1" stop-color="#FE8B84" stop-opacity="0"/>
</linearGradient>
<linearGradient id="paint4_linear_230_417" x1="91.5404" y1="0" x2="91.5404" y2="19.0665" gradientUnits="userSpaceOnUse">
<stop stop-color="#FE8B84"/>
<stop offset="1" stop-color="#FE8B84" stop-opacity="0"/>
</linearGradient>
<linearGradient id="paint5_linear_230_417" x1="111.494" y1="0.0739746" x2="111.494" y2="19.0663" gradientUnits="userSpaceOnUse">
<stop stop-color="#FE8B84"/>
<stop offset="1" stop-color="#FE8B84" stop-opacity="0"/>
</linearGradient>
<linearGradient id="paint6_linear_230_417" x1="129.48" y1="0.0739746" x2="129.48" y2="19.0663" gradientUnits="userSpaceOnUse">
<stop stop-color="#FE8B84"/>
<stop offset="1" stop-color="#FE8B84" stop-opacity="0"/>
</linearGradient>
<linearGradient id="paint7_linear_230_417" x1="146.326" y1="0.010498" x2="146.326" y2="19.0664" gradientUnits="userSpaceOnUse">
<stop stop-color="#FE8B84"/>
<stop offset="1" stop-color="#FE8B84" stop-opacity="0"/>
</linearGradient>
<linearGradient id="paint8_linear_230_417" x1="38.9459" y1="23.0969" x2="38.9459" y2="32.6196" gradientUnits="userSpaceOnUse">
<stop stop-color="#FE8B84"/>
<stop offset="1" stop-color="#FE8B84" stop-opacity="0"/>
</linearGradient>
</defs>
</svg>
