<svg width="36" height="36" viewBox="0 0 36 36" fill="none" xmlns="http://www.w3.org/2000/svg">
<path d="M35.5 18C35.5 8.34 27.66 0.5 18 0.5C8.34 0.5 0.5 8.34 0.5 18C0.5 26.47 6.52 33.5225 14.5 35.15V23.25H11V18H14.5V13.625C14.5 10.2475 17.2475 7.5 20.625 7.5H25V12.75H21.5C20.5375 12.75 19.75 13.5375 19.75 14.5V18H25V23.25H19.75V35.4125C28.5875 34.5375 35.5 27.0825 35.5 18Z" fill="#FDB491"/>
<path d="M35.5 18C35.5 8.34 27.66 0.5 18 0.5C8.34 0.5 0.5 8.34 0.5 18C0.5 26.47 6.52 33.5225 14.5 35.15V23.25H11V18H14.5V13.625C14.5 10.2475 17.2475 7.5 20.625 7.5H25V12.75H21.5C20.5375 12.75 19.75 13.5375 19.75 14.5V18H25V23.25H19.75V35.4125C28.5875 34.5375 35.5 27.0825 35.5 18Z" fill="url(#paint0_linear_163_596)"/>
<defs>
<linearGradient id="paint0_linear_163_596" x1="18" y1="0.5" x2="18" y2="35.4125" gradientUnits="userSpaceOnUse">
<stop stop-color="#FE8B84"/>
<stop offset="1" stop-color="#FE8B84" stop-opacity="0"/>
</linearGradient>
</defs>
</svg>
