<svg width="25" height="25" viewBox="0 0 25 25" fill="none" xmlns="http://www.w3.org/2000/svg">
<path d="M17.5 0C18.8807 0 20 1.11929 20 2.5L2.5 2.5L2.5 16.4706C1.11929 16.4706 0 15.3513 0 13.9706V2.5C0 1.11929 1.11929 0 2.5 0H17.5Z" fill="#CCCCCC"/>
<path d="M15 25L11.6667 21.4706H7.5C6.11929 21.4706 5 20.3513 5 18.9706V7.5C5 6.11929 6.11929 5 7.5 5H22.5C23.8807 5 25 6.11929 25 7.5V18.9706C25 20.3513 23.8807 21.4706 22.5 21.4706H18.3333L15 25ZM17.2557 18.9706L22.5 18.9706V7.5L7.5 7.5V18.9706H12.7443L15 21.359L17.2557 18.9706Z" fill="#CCCCCC"/>
</svg>
