<svg width="16" height="18" viewBox="0 0 16 18" fill="none" xmlns="http://www.w3.org/2000/svg">
<path d="M10.7043 0.759521C13.5049 0.759521 15.2898 1.98757 15.2898 4.40309V16.4466C15.2898 16.8254 15.1329 17.1887 14.8537 17.4566C14.5745 17.7245 14.1959 17.8749 13.7908 17.8749C13.5491 17.8712 13.3116 17.8142 13.0825 17.7013L7.95021 15.0197L2.83869 17.7069C2.22305 18.0139 1.47706 17.8723 1.00964 17.3593L0.919994 17.2518L0.834354 17.1196C0.722596 16.9149 0.662302 16.6879 0.658203 16.4466V4.5543C0.658203 2.04257 2.40407 0.759521 5.24368 0.759521H10.7043ZM10.7043 1.99846H5.24368C3.05344 1.99846 1.94949 2.80976 1.94949 4.5543L1.9494 16.4363C1.95005 16.4741 1.95992 16.5112 1.94919 16.4969L1.98345 16.5501C2.04247 16.6273 2.15323 16.6524 2.23075 16.614L7.34011 13.9283C7.72093 13.7309 8.17978 13.7309 8.56246 13.9293L13.686 16.6061C13.7248 16.6252 13.7677 16.6355 13.801 16.636C13.8534 16.636 13.9036 16.6161 13.9407 16.5806C13.9777 16.545 13.9985 16.4968 13.9985 16.4466V4.40309C13.9985 2.77732 12.8665 1.99846 10.7043 1.99846ZM11.0904 6.1651C11.447 6.1651 11.736 6.44245 11.736 6.78457C11.736 7.09818 11.4932 7.35736 11.178 7.39838L11.0904 7.40404H4.8103C4.45372 7.40404 4.16466 7.12669 4.16466 6.78457C4.16466 6.47096 4.40755 6.21177 4.72269 6.17076L4.8103 6.1651H11.0904Z" fill="#666666"/>
</svg>
