<svg width="20" height="18" viewBox="0 0 20 18" fill="none" xmlns="http://www.w3.org/2000/svg">
<path d="M13.9599 0.682617C17.0611 0.682617 19.1186 2.75071 19.1186 5.72581V12.7548C19.1186 15.7299 17.0611 17.798 13.9599 17.798H5.98783C2.88659 17.798 0.829102 15.7299 0.829102 12.7548V5.72581C0.829102 2.75349 2.89203 0.682617 5.98783 0.682617H13.9599ZM13.9599 1.87671H5.98783C3.61754 1.87671 2.10511 3.39497 2.10511 5.72581V12.7548C2.10511 15.0887 3.6125 16.6039 5.98783 16.6039H13.9599C16.3352 16.6039 17.8426 15.0887 17.8426 12.7548V5.72581C17.8426 3.39188 16.3352 1.87671 13.9599 1.87671ZM6.03644 7.21171C6.35943 7.21171 6.62637 7.43632 6.66862 7.72774L6.67444 7.80876V13.2699C6.67444 13.5996 6.3888 13.8669 6.03644 13.8669C5.71344 13.8669 5.4465 13.6423 5.40426 13.3509L5.39843 13.2699V7.80876C5.39843 7.47902 5.68408 7.21171 6.03644 7.21171ZM10.0062 4.59856C10.3292 4.59856 10.5962 4.82317 10.6384 5.11459L10.6442 5.19561V13.2699C10.6442 13.5996 10.3586 13.8669 10.0062 13.8669C9.68325 13.8669 9.41631 13.6423 9.37407 13.3509L9.36824 13.2699V5.19561C9.36824 4.86587 9.65388 4.59856 10.0062 4.59856ZM13.9112 10.0975C14.2342 10.0975 14.5012 10.3222 14.5434 10.6136L14.5492 10.6946V13.2699C14.5492 13.5996 14.2636 13.8669 13.9112 13.8669C13.5882 13.8669 13.3213 13.6423 13.2791 13.3509L13.2732 13.2699V10.6946C13.2732 10.3648 13.5589 10.0975 13.9112 10.0975Z" fill="#666666"/>
</svg>
