<svg width="15" height="20" viewBox="0 0 15 20" fill="none" xmlns="http://www.w3.org/2000/svg">
<path d="M7.20331 12.2383L7.49974 12.2396C11.904 12.2806 14.4066 13.2515 14.4066 15.8538C14.4066 18.3948 12.0235 19.3639 7.79177 19.4434L7.20331 19.4488C2.61505 19.4488 0 18.4933 0 15.8332C0 13.176 2.6035 12.2383 7.20331 12.2383ZM7.20331 13.712L6.89539 13.7136C3.24945 13.7511 1.37171 14.4645 1.37171 15.8332C1.37171 17.2482 3.36118 17.975 7.20331 17.975C11.0503 17.975 13.0349 17.26 13.0349 15.8538C13.0349 14.4389 11.0454 13.712 7.20331 13.712ZM7.20331 0C9.9012 0 12.0665 2.32634 12.0665 5.22491C12.0665 8.12281 9.90091 10.4498 7.20331 10.4498C4.50633 10.4498 2.34014 8.1225 2.34014 5.22491C2.34014 2.32665 4.50604 0 7.20331 0ZM7.20331 1.47374C5.26357 1.47374 3.71185 3.14063 3.71185 5.22491C3.71185 7.30857 5.26391 8.97608 7.20331 8.97608C9.14329 8.97608 10.6948 7.30894 10.6948 5.22491C10.6948 3.14027 9.14363 1.47374 7.20331 1.47374Z" fill="#666666"/>
</svg>
