<svg width="22" height="24" viewBox="0 0 22 24" fill="none" xmlns="http://www.w3.org/2000/svg">
<path d="M8.83717 1.78951C9.18385 0.935559 10.0216 0.333374 11 0.333374C11.9784 0.333374 12.8162 0.935559 13.1628 1.78951C16.6235 2.73754 19.1667 5.90513 19.1667 9.66671V15.1468L21.3041 18.3529C21.5427 18.7109 21.565 19.1712 21.362 19.5505C21.1589 19.9299 20.7636 20.1667 20.3333 20.1667H15.042C14.7589 22.1455 13.0571 23.6667 11 23.6667C8.94289 23.6667 7.24107 22.1455 6.95802 20.1667H1.66667C1.23641 20.1667 0.84107 19.9299 0.638048 19.5505C0.435026 19.1712 0.457277 18.7109 0.695943 18.3529L2.83334 15.1468V9.66671C2.83334 5.90513 5.37647 2.73754 8.83717 1.78951ZM9.34958 20.1667C9.58982 20.8464 10.238 21.3334 11 21.3334C11.762 21.3334 12.4102 20.8464 12.6504 20.1667H9.34958ZM11 3.83337C7.77834 3.83337 5.16667 6.44505 5.16667 9.66671V15.5C5.16667 15.7304 5.09849 15.9555 4.97073 16.1472L3.84661 17.8334H18.1534L17.0293 16.1472C16.9015 15.9555 16.8333 15.7304 16.8333 15.5V9.66671C16.8333 6.44505 14.2217 3.83337 11 3.83337Z" fill="#CCCCCC"/>
</svg>
