<svg width="24" height="26" viewBox="0 0 24 26" fill="none" xmlns="http://www.w3.org/2000/svg">
<path fill-rule="evenodd" clip-rule="evenodd" d="M4.42326 2C3.73422 2 3.09904 2.23529 2.65231 2.61705C2.21041 2.99468 2 3.47 2 3.92538V18.1915C2.72331 17.7722 3.56736 17.5523 4.42326 17.5523H21.9089V2H4.42326ZM0 3.92538V21.4777C0 22.574 0.510915 23.5868 1.35299 24.3064C2.19023 25.0219 3.29649 25.403 4.42326 25.403H22.9089C23.4611 25.403 23.9089 24.9553 23.9089 24.403V18.5523V1C23.9089 0.447715 23.4611 0 22.9089 0H4.42326C3.29649 0 2.19023 0.381123 1.35299 1.0966C0.510915 1.8162 0 2.82904 0 3.92538ZM21.9089 23.403V19.5523H4.42326C3.73422 19.5523 3.09903 19.7876 2.65231 20.1693C2.21041 20.547 2 21.0223 2 21.4777C2 21.933 2.21041 22.4084 2.65231 22.786C3.09904 23.1677 3.73422 23.403 4.42326 23.403H21.9089ZM15.9081 4.09423C15.2362 4.09423 14.5667 4.19102 13.936 4.38242C13.3059 4.57367 12.7177 4.8585 12.21 5.23054L12.2098 5.23067L11.9542 5.41788L11.6985 5.23054C10.6794 4.48409 9.34712 4.09454 8.00038 4.09454C6.65363 4.09454 5.32134 4.48409 4.30228 5.23054C3.2782 5.98065 2.60615 7.07607 2.60615 8.31321C2.60615 9.55035 3.2782 10.6458 4.30228 11.3959L5.14896 12.0161L11.3633 16.568C11.7151 16.8257 12.1934 16.8257 12.5452 16.568L18.7595 12.0161L19.606 11.396L19.6062 11.3959C20.1142 11.024 20.5394 10.5662 20.8385 10.0374C21.139 9.50622 21.3028 8.91913 21.3028 8.31321C21.3028 7.7073 21.139 7.12021 20.8385 6.58906C20.5395 6.06033 20.1143 5.60256 19.6064 5.23067C19.0986 4.85856 18.5104 4.57369 17.8802 4.38242C17.2496 4.19102 16.5801 4.09423 15.9081 4.09423ZM18.4242 6.84387L19.0153 6.03725L18.4246 6.84414C18.7329 7.06986 18.9551 7.32161 19.0978 7.57379C19.2391 7.82366 19.3028 8.07371 19.3028 8.31321C19.3028 8.55272 19.2391 8.80277 19.0978 9.05264C18.9551 9.30482 18.7329 9.55657 18.4246 9.78229L18.4244 9.78243L17.5777 10.4026L11.9542 14.5217L6.33079 10.4026L5.48411 9.78243C4.86003 9.32531 4.60615 8.78336 4.60615 8.31321C4.60615 7.84307 4.86003 7.30112 5.48411 6.844C6.1132 6.38321 7.01628 6.09454 8.00038 6.09454C8.98447 6.09454 9.88755 6.38321 10.5166 6.844L11.3633 7.46418C11.7151 7.72187 12.1934 7.72187 12.5452 7.46418L13.3919 6.844L13.392 6.84387C13.7002 6.61803 14.0808 6.42857 14.5169 6.29622C14.9525 6.164 15.4259 6.09423 15.9081 6.09423C16.3904 6.09423 16.8637 6.164 17.2994 6.29622C17.7354 6.42857 18.116 6.61803 18.4242 6.84387Z" fill="#FDB491"/>
<path fill-rule="evenodd" clip-rule="evenodd" d="M4.42326 2C3.73422 2 3.09904 2.23529 2.65231 2.61705C2.21041 2.99468 2 3.47 2 3.92538V18.1915C2.72331 17.7722 3.56736 17.5523 4.42326 17.5523H21.9089V2H4.42326ZM0 3.92538V21.4777C0 22.574 0.510915 23.5868 1.35299 24.3064C2.19023 25.0219 3.29649 25.403 4.42326 25.403H22.9089C23.4611 25.403 23.9089 24.9553 23.9089 24.403V18.5523V1C23.9089 0.447715 23.4611 0 22.9089 0H4.42326C3.29649 0 2.19023 0.381123 1.35299 1.0966C0.510915 1.8162 0 2.82904 0 3.92538ZM21.9089 23.403V19.5523H4.42326C3.73422 19.5523 3.09903 19.7876 2.65231 20.1693C2.21041 20.547 2 21.0223 2 21.4777C2 21.933 2.21041 22.4084 2.65231 22.786C3.09904 23.1677 3.73422 23.403 4.42326 23.403H21.9089ZM15.9081 4.09423C15.2362 4.09423 14.5667 4.19102 13.936 4.38242C13.3059 4.57367 12.7177 4.8585 12.21 5.23054L12.2098 5.23067L11.9542 5.41788L11.6985 5.23054C10.6794 4.48409 9.34712 4.09454 8.00038 4.09454C6.65363 4.09454 5.32134 4.48409 4.30228 5.23054C3.2782 5.98065 2.60615 7.07607 2.60615 8.31321C2.60615 9.55035 3.2782 10.6458 4.30228 11.3959L5.14896 12.0161L11.3633 16.568C11.7151 16.8257 12.1934 16.8257 12.5452 16.568L18.7595 12.0161L19.606 11.396L19.6062 11.3959C20.1142 11.024 20.5394 10.5662 20.8385 10.0374C21.139 9.50622 21.3028 8.91913 21.3028 8.31321C21.3028 7.7073 21.139 7.12021 20.8385 6.58906C20.5395 6.06033 20.1143 5.60256 19.6064 5.23067C19.0986 4.85856 18.5104 4.57369 17.8802 4.38242C17.2496 4.19102 16.5801 4.09423 15.9081 4.09423ZM18.4242 6.84387L19.0153 6.03725L18.4246 6.84414C18.7329 7.06986 18.9551 7.32161 19.0978 7.57379C19.2391 7.82366 19.3028 8.07371 19.3028 8.31321C19.3028 8.55272 19.2391 8.80277 19.0978 9.05264C18.9551 9.30482 18.7329 9.55657 18.4246 9.78229L18.4244 9.78243L17.5777 10.4026L11.9542 14.5217L6.33079 10.4026L5.48411 9.78243C4.86003 9.32531 4.60615 8.78336 4.60615 8.31321C4.60615 7.84307 4.86003 7.30112 5.48411 6.844C6.1132 6.38321 7.01628 6.09454 8.00038 6.09454C8.98447 6.09454 9.88755 6.38321 10.5166 6.844L11.3633 7.46418C11.7151 7.72187 12.1934 7.72187 12.5452 7.46418L13.3919 6.844L13.392 6.84387C13.7002 6.61803 14.0808 6.42857 14.5169 6.29622C14.9525 6.164 15.4259 6.09423 15.9081 6.09423C16.3904 6.09423 16.8637 6.164 17.2994 6.29622C17.7354 6.42857 18.116 6.61803 18.4242 6.84387Z" fill="url(#paint0_linear_472_2434)"/>
<defs>
<linearGradient id="paint0_linear_472_2434" x1="11.9544" y1="0" x2="11.9544" y2="25.403" gradientUnits="userSpaceOnUse">
<stop stop-color="#FE8B84"/>
<stop offset="1" stop-color="#FE8B84" stop-opacity="0"/>
</linearGradient>
</defs>
</svg>
