<svg width="20" height="18" viewBox="0 0 20 18" fill="none" xmlns="http://www.w3.org/2000/svg">
<path d="M6.62539 0.712161C6.93997 0.698468 7.26735 0.97317 7.27009 1.30264C7.27283 1.56622 7.5042 1.7793 7.78494 1.7793H8.71313C10.03 1.7793 11.1145 2.7797 11.1319 4.018V4.22338H13.7363C16.6471 4.20113 18.9909 6.22332 19.1134 8.85652C19.118 8.96007 19.1189 9.06618 19.1171 9.17144V12.8598C19.1793 15.5195 16.9077 17.7411 14.0527 17.8002C13.9357 17.8027 13.825 17.8002 13.7135 17.7959C12.4533 17.8164 11.1859 17.8267 9.92481 17.8267C8.67107 17.8267 7.42372 17.8164 6.1965 17.7967C3.38083 17.9088 0.959308 15.8345 0.834025 13.1653C0.828538 13.0601 0.828538 12.9539 0.830367 12.8478V9.15775C0.80019 7.87666 1.31047 6.64949 2.26792 5.71413C3.22446 4.77792 4.51295 4.24734 5.89655 4.21996C6.00903 4.21654 6.12426 4.21739 6.23948 4.22424L9.85622 4.22338V4.0257C9.84799 3.4472 9.33406 2.97396 8.70856 2.97396H7.77945C6.80645 2.97396 6.00537 2.23201 5.9944 1.31548C5.99074 0.985151 6.27423 0.715584 6.62539 0.712161ZM6.01113 5.41294L5.92673 5.41376C4.88149 5.43515 3.91031 5.83394 3.18971 6.53995C2.46728 7.24425 2.0832 8.16933 2.10606 9.14577V12.8598C2.10423 12.9522 2.10509 13.0327 2.1088 13.1114C2.20299 15.125 4.01182 16.6996 6.17912 16.6029C8.66558 16.6423 11.1923 16.6423 13.729 16.6021C13.8534 16.6072 13.9412 16.6081 14.0281 16.6055C16.1762 16.5627 17.889 14.888 17.8414 12.8735V9.15775C17.8432 9.06789 17.8424 8.98831 17.8387 8.90872C17.7463 6.90793 16.0189 5.41547 13.8104 5.41547C13.7885 5.41547 13.7702 5.41718 13.7409 5.41718H6.20839C6.09316 5.41293 6.00995 5.41205 5.92673 5.41376L6.01113 5.41294ZM7.30329 8.9144C7.64413 8.9144 7.92582 9.14744 7.9704 9.4498L7.97655 9.53386L7.97571 10.4033L8.92199 10.4038C9.29382 10.4038 9.59525 10.6811 9.59525 11.0232C9.59525 11.3368 9.34196 11.596 9.01335 11.637L8.92199 11.6427L7.97571 11.6424L7.97655 12.5126C7.97655 12.8547 7.67512 13.1321 7.30329 13.1321C6.96244 13.1321 6.68075 12.899 6.63617 12.5966L6.63003 12.5126L6.62961 11.6424L5.68459 11.6427C5.31275 11.6427 5.01133 11.3653 5.01133 11.0232C5.01133 10.7096 5.26461 10.4504 5.59323 10.4094L5.68459 10.4038L6.62961 10.4033L6.63003 9.53386C6.63003 9.19174 6.93146 8.9144 7.30329 8.9144ZM14.3615 11.8478C14.7333 11.8478 15.0347 12.1251 15.0347 12.4672C15.0347 12.7808 14.7815 13.04 14.4528 13.081L14.3615 13.0867H14.2711C13.8993 13.0867 13.5978 12.8093 13.5978 12.4672C13.5978 12.1536 13.8511 11.8944 14.1797 11.8534L14.2711 11.8478H14.3615ZM12.8249 9.00512C13.1968 9.00512 13.4982 9.28246 13.4982 9.62459C13.4982 9.9382 13.2449 10.1974 12.9163 10.2384L12.8249 10.2441H12.7346C12.3627 10.2441 12.0613 9.96671 12.0613 9.62459C12.0613 9.31097 12.3146 9.05179 12.6432 9.01077L12.7346 9.00512H12.8249Z" fill="#666666"/>
</svg>
